<?xml version="1.0" encoding="utf-8"?>
<svg id="layout-nano" version="1.1" xmlns="http://www.w3.org/2000/svg" xmlns:xlink="http://www.w3.org/1999/xlink" x="0px" y="0px"
	 viewBox="0 0 960 560" xml:space="preserve">
<g class="border">
	<path fill="none" stroke="#ffffff" stroke-width="8" stroke-miterlimit="10" d="M953.2,542.2c0,4.8-3.9,8.7-8.7,8.7H15.8
		c-4.8,0-8.7-3.9-8.7-8.7V13.7C7.2,8.9,11,5,15.8,5h928.8c4.8,0,8.7,3.9,8.7,8.7V542.2z"/>
</g>
<g class="background">
	<rect x="17.8" y="15" opacity="0.5" width="924.7" height="523" fill="#ffffff" />
</g>
<g class="content">
	<rect x="610.1" y="134.7" fill="none" stroke="#000000" opacity="0.5" stroke-width="8" stroke-miterlimit="10" width="162.8" height="222.7"/>
	<line fill="none" stroke="#000000" stroke-width="8" opacity="0.5" stroke-miterlimit="10" x1="581" y1="135" x2="189" y2="135"/>
	<line fill="none" stroke="#000000" stroke-width="8" opacity="0.5" stroke-miterlimit="10" x1="581" y1="152" x2="189" y2="152"/>
	<line fill="none" stroke="#000000" stroke-width="8" opacity="0.5" stroke-miterlimit="10" x1="581" y1="169" x2="189" y2="169"/>
	<line fill="none" stroke="#000000" stroke-width="8" opacity="0.5" stroke-miterlimit="10" x1="581" y1="186" x2="189" y2="186"/>
	<line fill="none" stroke="#000000" stroke-width="8" opacity="0.5" stroke-miterlimit="10" x1="581" y1="203" x2="189" y2="203"/>
	<line fill="none" stroke="#000000" stroke-width="8" opacity="0.5" stroke-miterlimit="10" x1="581" y1="220" x2="189" y2="220"/>
	<line fill="none" stroke="#000000" stroke-width="8" opacity="0.5" stroke-miterlimit="10" x1="581" y1="237" x2="189" y2="237"/>
	<line fill="none" stroke="#000000" stroke-width="8" opacity="0.5" stroke-miterlimit="10" x1="581" y1="255" x2="189" y2="255"/>
	<line fill="none" stroke="#000000" stroke-width="8" opacity="0.5" stroke-miterlimit="10" x1="581" y1="272" x2="189" y2="272"/>
	<line fill="none" stroke="#000000" stroke-width="8" opacity="0.5" stroke-miterlimit="10" x1="581" y1="289" x2="189" y2="289"/>
	<line fill="none" stroke="#000000" stroke-width="8" opacity="0.5" stroke-miterlimit="10" x1="581" y1="306" x2="189" y2="306"/>
	<line fill="none" stroke="#000000" stroke-width="8" opacity="0.5" stroke-miterlimit="10" x1="581" y1="323" x2="189" y2="323"/>
	<line fill="none" stroke="#000000" stroke-width="8" opacity="0.5" stroke-miterlimit="10" x1="581" y1="340" x2="189" y2="340"/>
	<line fill="none" stroke="#000000" stroke-width="8" opacity="0.5" stroke-miterlimit="10" x1="581" y1="357" x2="189" y2="357"/>
</g>
<g class="navigation">
	<path class="fill" d="M789.2,481c-12.8,0-23.2,10.4-23.2,23.2c0,12.8,10.4,23.2,23.2,23.2c12.8,0,23.2-10.4,23.2-23.2
		C812.5,491.4,802.1,481,789.2,481z M787.8,493.5c0.3-0.3,0.8-0.5,1.3-0.5c0.5,0,0.9,0.2,1.2,0.5c0.3,0.3,0.5,0.7,0.5,1.2
		c0,0.4-0.2,0.8-0.5,1.1s-0.7,0.5-1.1,0.5c-0.5,0-0.9-0.2-1.3-0.5s-0.5-0.7-0.5-1.2S787.5,493.8,787.8,493.5z M792.8,513.2
		c-0.1,0.1-0.1,0.1-0.3,0.1c-0.4,0-0.8,0-1.4-0.1c-0.6-0.1-1.2-0.1-1.8-0.1c-0.6,0-1.3,0-1.9,0.1c-0.6,0.1-1.2,0.1-1.8,0.1
		c-0.1,0-0.2,0-0.2-0.1c-0.1-0.1-0.1-0.2-0.1-0.3c0-0.1,0-0.2,0.1-0.3c0.1-0.1,0.2-0.1,0.3-0.2c0.5-0.1,0.9-0.2,1.2-0.3
		c0.3-0.1,0.5-0.3,0.6-0.5s0.3-0.5,0.3-0.8c0-0.3,0.1-0.7,0.1-1.2v-4.8c0-0.9-0.1-1.5-0.1-2.1c0-0.5-0.2-0.9-0.3-1.2
		c-0.1-0.3-0.4-0.5-0.6-0.6c-0.3-0.1-0.7-0.2-1.1-0.2c-0.1,0-0.2,0-0.3-0.2c-0.1-0.1-0.1-0.2-0.1-0.3c0-0.1,0-0.2,0.1-0.3
		c0.1-0.1,0.1-0.2,0.3-0.2c0.2,0,0.4,0,0.7-0.1c0.3,0,0.6,0,0.9-0.1c0.3,0,0.6-0.1,1-0.1c0.3,0,0.6-0.1,0.9-0.2
		c0.2,0,0.4-0.1,0.5-0.1c0.1,0,0.2-0.1,0.3-0.1c0.2,0,0.5,0.1,0.6,0.2c0.1,0.1,0.3,0.3,0.3,0.4v9.6c0,0.5-0.1,0.9-0.1,1.3
		c0,0.3,0,0.6,0.1,0.8c0.1,0.2,0.3,0.4,0.5,0.5c0.2,0.1,0.6,0.2,1,0.3c0.1,0,0.2,0.1,0.3,0.2c0.1,0.1,0.1,0.2,0.1,0.3
		C792.9,513,792.9,513.1,792.8,513.2z"/>
	<path class="fill" d="M825.8,503.8c0,12.8,10.4,23.2,23.2,23.2c12.8,0,23.2-10.4,23.2-23.2c0-12.8-10.4-23.2-23.2-23.2
		C836.2,480.6,825.8,491,825.8,503.8z M834.9,503.8L857,491v25.5L834.9,503.8z"/>
	<path class="fill" d="M908.8,480.6c-12.8,0-23.2,10.4-23.2,23.2c0,12.8,10.4,23.2,23.2,23.2s23.2-10.4,23.2-23.2
		C932,491,921.6,480.6,908.8,480.6z M901,516.5V491l22.1,12.7L901,516.5z"/>
</g>
</svg>
