<?xml version="1.0" encoding="utf-8"?>
<svg id="layout-carousel" version="1.1" xmlns="http://www.w3.org/2000/svg" xmlns:xlink="http://www.w3.org/1999/xlink" x="0px" y="0px"
	 viewBox="0 0 960 560" xml:space="preserve">
<g class="border">
	<path fill="none" stroke="#ffffff" stroke-width="8" stroke-miterlimit="10" d="M953.2,544.2c0,4.8-3.9,8.7-8.7,8.7H15.8
		c-4.8,0-8.7-3.9-8.7-8.7V15.7C7.2,10.9,11,7,15.8,7h928.8c4.8,0,8.7,3.9,8.7,8.7V544.2z"/>
</g>
<g class="background">
	<rect x="17.8" y="17" opacity="0.5" width="924.7" height="523" fill="#ffffff"/>
</g>
<g class="content">
	<rect x="17.8" y="17" opacity="0.5" width="924.7" height="523" fill="#ffffff"/>
	<rect x="610.1" y="136.7" stroke="#000000" fill="none" opacity="0.5" stroke-width="8" stroke-miterlimit="10" width="162.8" height="222.7"/>
	<line fill="none" stroke="#000000" opacity="0.5" stroke-width="8" stroke-miterlimit="10" x1="581" y1="137" x2="189" y2="137"/>
	<line fill="none" stroke="#000000" opacity="0.5" stroke-width="8" stroke-miterlimit="10" x1="581" y1="154" x2="189" y2="154"/>
	<line fill="none" stroke="#000000" opacity="0.5" stroke-width="8" stroke-miterlimit="10" x1="581" y1="171" x2="189" y2="171"/>
	<line fill="none" stroke="#000000" opacity="0.5" stroke-width="8" stroke-miterlimit="10" x1="581" y1="188" x2="189" y2="188"/>
	<line fill="none" stroke="#000000" opacity="0.5" stroke-width="8" stroke-miterlimit="10" x1="581" y1="205" x2="189" y2="205"/>
	<line fill="none" stroke="#000000" opacity="0.5" stroke-width="8" stroke-miterlimit="10" x1="581" y1="222" x2="189" y2="222"/>
	<line fill="none" stroke="#000000" opacity="0.5" stroke-width="8" stroke-miterlimit="10" x1="581" y1="239" x2="189" y2="239"/>
	<line fill="none" stroke="#000000" opacity="0.5" stroke-width="8" stroke-miterlimit="10" x1="581" y1="257" x2="189" y2="257"/>
	<line fill="none" stroke="#000000" opacity="0.5" stroke-width="8" stroke-miterlimit="10" x1="581" y1="274" x2="189" y2="274"/>
	<line fill="none" stroke="#000000" opacity="0.5" stroke-width="8" stroke-miterlimit="10" x1="581" y1="291" x2="189" y2="291"/>
	<line fill="none" stroke="#000000" opacity="0.5" stroke-width="8" stroke-miterlimit="10" x1="581" y1="308" x2="189" y2="308"/>
	<line fill="none" stroke="#000000" opacity="0.5" stroke-width="8" stroke-miterlimit="10" x1="581" y1="325" x2="189" y2="325"/>
	<line fill="none" stroke="#000000" opacity="0.5" stroke-width="8" stroke-miterlimit="10" x1="581" y1="342" x2="189" y2="342"/>
	<line fill="none" stroke="#000000" opacity="0.5" stroke-width="8" stroke-miterlimit="10" x1="581" y1="359" x2="189" y2="359"/>
</g>
<g class="navigation">
	<path class="fill" d="M18,248c0,16.6,13.4,30,30,30s30-13.4,30-30s-13.4-30-30-30S18,231.4,18,248z M29.5,248L58,231.6v32.9
		L29.5,248z"/>
	<path class="fill" d="M913,218c-16.6,0-30,13.4-30,30s13.4,30,30,30s30-13.4,30-30S929.6,218,913,218z M903,264.5v-32.9
		l28.5,16.5L903,264.5z"/>
</g>
</svg>
