<?xml version="1.0" encoding="utf-8"?>
<svg id="template-menu" version="1.1" xmlns="http://www.w3.org/2000/svg" xmlns:xlink="http://www.w3.org/1999/xlink" x="0px" y="0px"
	 viewBox="0 0 960 560" xml:space="preserve">
<g class="border">
	<path fill="none" stroke="#ffffff" stroke-width="8" stroke-miterlimit="10" d="M953.2,544.2c0,4.8-3.9,8.7-8.7,8.7H15.8
		c-4.8,0-8.7-3.9-8.7-8.7V15.7C7.2,10.9,11,7,15.8,7h928.8c4.8,0,8.7,3.9,8.7,8.7V544.2z"/>
</g>
<g class="background">
	<rect x="247.5" y="17" opacity="0.5" width="692.5" height="523" fill="#ffffff" />
</g>
<g class="content">
	<rect x="718.1" y="136.7" fill="none" stroke="#000000" opacity="0.5" stroke-width="8" stroke-miterlimit="10" width="162.8" height="222.7"/>
	<line fill="none" stroke="#000000" stroke-width="8" opacity="0.5" stroke-miterlimit="10" x1="689" y1="137" x2="297" y2="137"/>
	<line fill="none" stroke="#000000" stroke-width="8" opacity="0.5" stroke-miterlimit="10" x1="689" y1="154" x2="297" y2="154"/>
	<line fill="none" stroke="#000000" stroke-width="8" opacity="0.5" stroke-miterlimit="10" x1="689" y1="171" x2="297" y2="171"/>
	<line fill="none" stroke="#000000" stroke-width="8" opacity="0.5" stroke-miterlimit="10" x1="689" y1="188" x2="297" y2="188"/>
	<line fill="none" stroke="#000000" stroke-width="8" opacity="0.5" stroke-miterlimit="10" x1="689" y1="205" x2="297" y2="205"/>
	<line fill="none" stroke="#000000" stroke-width="8" opacity="0.5" stroke-miterlimit="10" x1="689" y1="222" x2="297" y2="222"/>
	<line fill="none" stroke="#000000" stroke-width="8" opacity="0.5" stroke-miterlimit="10" x1="689" y1="239" x2="297" y2="239"/>
	<line fill="none" stroke="#000000" stroke-width="8" opacity="0.5" stroke-miterlimit="10" x1="689" y1="257" x2="297" y2="257"/>
	<line fill="none" stroke="#000000" stroke-width="8" opacity="0.5" stroke-miterlimit="10" x1="689" y1="274" x2="297" y2="274"/>
	<line fill="none" stroke="#000000" stroke-width="8" opacity="0.5" stroke-miterlimit="10" x1="689" y1="291" x2="297" y2="291"/>
	<line fill="none" stroke="#000000" stroke-width="8" opacity="0.5" stroke-miterlimit="10" x1="689" y1="308" x2="297" y2="308"/>
	<line fill="none" stroke="#000000" stroke-width="8" opacity="0.5" stroke-miterlimit="10" x1="689" y1="325" x2="297" y2="325"/>
	<line fill="none" stroke="#000000" stroke-width="8" opacity="0.5" stroke-miterlimit="10" x1="689" y1="342" x2="297" y2="342"/>
	<line fill="none" stroke="#000000" stroke-width="8" opacity="0.5" stroke-miterlimit="10" x1="689" y1="359" x2="297" y2="359"/>
</g>
<g class="menubar">
	<path class="fill" d="M214.1,31.8c0.5,0,0.8-0.2,1.1-0.5s0.5-0.7,0.5-1.1c0-0.5-0.2-0.9-0.5-1.2c-0.3-0.3-0.7-0.5-1.2-0.5
		c-0.5,0-0.9,0.2-1.3,0.5c-0.3,0.3-0.5,0.7-0.5,1.2s0.2,0.8,0.5,1.2S213.6,31.8,214.1,31.8z"/>
	<path class="fill" d="M217.6,48c-0.5-0.1-0.8-0.2-1.1-0.3c-0.2-0.1-0.4-0.3-0.6-0.5c-0.1-0.2,0-0.5-0.1-0.8c0-0.3,0.1-0.8,0.1-1.3v-9.6
		c0-0.1-0.2-0.2-0.3-0.4c-0.1-0.1-0.3-0.2-0.5-0.2c-0.1,0-0.2,0-0.4,0.1c-0.1,0.1-0.3,0.1-0.5,0.1c-0.3,0.1-0.6,0.1-0.9,0.2
		c-0.3,0.1-0.7,0.1-1,0.1c-0.3,0-0.6,0.1-0.9,0.1c-0.3,0-0.5,0-0.7,0.1c-0.1,0-0.2,0.1-0.3,0.2c-0.1,0.1-0.1,0.2-0.1,0.3
		c0,0.1,0,0.2,0.1,0.3c0.1,0.1,0.2,0.2,0.3,0.2c0.5,0.1,0.9,0.1,1.1,0.2c0.3,0.1,0.5,0.3,0.6,0.6c0.1,0.3,0.3,0.7,0.3,1.2
		c0,0.5,0.1,1.2,0.1,2.1v4.8c0,0.5-0.1,0.8-0.1,1.2c0,0.3-0.1,0.6-0.3,0.8s-0.4,0.4-0.6,0.5c-0.3,0.1-0.7,0.2-1.2,0.3
		c-0.1,0-0.2,0.1-0.3,0.2c-0.1,0.1-0.1,0.2-0.1,0.3c0,0.1,0,0.2,0.1,0.3c0.1,0.1,0.1,0.1,0.2,0.1c0.6,0,1.1,0,1.8-0.1
		c0.6-0.1,1.2-0.1,1.9-0.1c0.6,0,1.2,0,1.8,0.1c0.6,0.1,1,0.1,1.4,0.1c0.1,0,0.2,0,0.3-0.1c0.1-0.1,0.1-0.2,0.1-0.3
		c0-0.1,0-0.2-0.1-0.3C217.8,48.1,217.7,48,217.6,48z"/>
	<path class="fill" d="M26.4,17c-4.7,0-8.4,3.6-8.4,8.3V61v470.7c0,4.7,3.8,8.3,8.5,8.3H239V61V17H26.4z M35.2,29h23.7c1.7,0,3.2,1.3,3.2,3
		s-1.4,3-3.2,3H35.2c-1.7,0-3.2-1.3-3.2-3S33.4,29,35.2,29z M35.2,39h23.7c1.7,0,3.2,1.3,3.2,3s-1.4,3-3.2,3H35.2
		c-1.7,0-3.2-1.3-3.2-3S33.4,39,35.2,39z M229,305H27v-34h202V305z M229,237H27v-34h202V237z M229,168H27v-34h202V168z M229,100H27
		V66h202V100z M214.8,54.5c-8.2,0-14.8-6.6-14.8-14.8c0-8.2,6.6-14.8,14.8-14.8c8.2,0,14.8,6.6,14.8,14.8
		C229.7,47.9,223,54.5,214.8,54.5z"/>
</g>
</svg>
