<?xml version="1.0" encoding="utf-8"?>
<!-- Generator: Adobe Illustrator 18.1.1, SVG Export Plug-In . SVG Version: 6.00 Build 0)  -->
<svg version="1.1" id="Layer_1" xmlns="http://www.w3.org/2000/svg" xmlns:xlink="http://www.w3.org/1999/xlink" x="0px" y="0px"
	 width="1668px" height="1090.3px" viewBox="0 0 1668 1090.3" enable-background="new 0 0 1668 1090.3" xml:space="preserve">
<g>
	<path  fill="none" stroke="#ffffff" stroke-miterlimit="10" d="M970.1,850.2c0.1-0.2,0.3-0.4,0.4-0.6c0.1,0.2,0.1,0.4,0.2,0.6
		c-0.2,0-0.4-0.1-0.7-0.1c-0.2-0.1-0.3-0.3-0.5-0.4c0.3,0,0.5-0.1,0.8-0.1C970.3,849.8,970.2,850,970.1,850.2z"/>
	<path  fill="none" stroke="#ffffff" stroke-miterlimit="10" d="M961.1,845.6c0.1,1.3,1.1,1,1.9,1.2c0.7,0.5,1.4,0.9,2.1,1.4
		c0.4,0,0.7,0,1.1,0c-0.4,0-0.7,0-1.1,0c-0.2-1.4-1.2-1.3-2.2-1.2c-0.1-1.2-1.1-1-1.9-1.2c-1-0.9-2.1-1.1-3.3-0.4
		c0-0.3,0-0.7-0.1-0.9c-1.3-0.9-2.6-1.8-4.4-1.4c-0.3-0.3-0.5-0.8-0.9-1c-3.1-1.3-6.2-2.5-9.3-3.7c-0.7-0.3-1.5-0.1-2.3-0.2
		c-0.2-1.2-1.4-1.2-2.2-1.6c-3.7-1.5-7.4-2.9-11.2-4.3c-10.1-3.9-20.2-7.9-30.3-11.9c-0.9-0.4-2.3-0.4-2.5-2c1.1-1,2.3-2.1,3.5-3.2
		c-0.5-1.3-0.9-2.5-1.4-3.6c-2.1-5-4.2-10-6.3-15c-0.7-1.7-0.9-3.3-0.8-5.1c0.4-4.5,0.3-8.9,0.6-13.4c0.2-3.6-1.4-6.1-4-8.3
		c-1.7-1.5-3.7-2.5-6-2.9c-1.9-0.3-3.1-1.5-3.7-3.4c-1.1-3.6-3.3-6.5-5.5-9.5c-0.7-0.9-1.3-1.8-1.9-2.7c1-3.9,2-7.6,2.8-11.3
		c2-10.2-2.9-18.5-12.7-21.8c-0.3-0.1-0.6-0.2-0.9-0.3c-7.3-1.7-14.3-2-19.9,4.4c-0.8,1-2.1,1.5-2.9,2.5c-2.6,2.9-4.7,6.2-4,10.3
		c0.7,4.4,1.6,8.8,2.5,13.2c0.5,2.6,1.2,5.2,1.9,8c-2.5,0.2-4.7,0.5-6.9,0.4c-8.4-0.5-13.2,4.4-17.1,10.9c0.5,1.1,1.1,1.9,1.4,2.8
		c0.7,2.3,1.9,4.6,1.9,6.9c0.1,3.8-0.5,7.6-0.8,11.5c-0.8,0.2-1.6,0.3-2.3,0.6c-1.2,0.5-1.4,2-0.4,2.7c0.9,0.6,1.9,1.1,2.8,1.7
		c-0.1,1.1-0.2,2.1-0.3,3c-0.2,2.5,0.1,5,1.7,6.8c2.9,3.2,3.3,6.7,2.1,10.6c-0.1,0.3-0.1,0.6-0.1,1c-0.7,4.1,1.1,7.1,4.3,9.5
		c0.5,0.4,1.1,0.6,1.7,1c0.3,6.6,0.8,13.1,0.2,20c-3.2,0.4-3.5,3.1-3.9,5.6c-0.1,0.6-0.3,1.3-0.3,1.9c0,3.5-1.2,6.5-2.9,9.5
		c-2.2,3.6-3.4,7.6-4.5,11.6c-1,3.6-0.8,6.9,1.9,9.9c1.3,1.4,2.1,3.2,3.2,4.8c0.9,1.4,1.3,2.8,1.2,4.5c-0.5,8.8,0.8,17.5,1.8,26.3
		c0.4,3.2,1,6.3,0.5,9.5c-0.3,1.8,0.2,3.8,0.4,5.7c0.2,1.3,0.2,2.4-0.3,3.7c-1.5,3.5-1.8,7.1-1.1,11.6c0.9,0.6,1.7,1.3,2.6,1.9
		c-0.2,0.9-0.3,1.5-0.5,2.1c-0.7,2-0.3,3.4,1.6,4.4c0.6,0.3,1,0.7,1.7,1.2c0,1.4-0.4,3,0.1,4.2c0.7,2-1.7,2.7-1.3,4.5
		c0.2,0.3,0.5,0.6,0.8,1c1.4,1.6,2.9,3.2,4.3,4.9c-0.3,2.5,1.6,3.6,3.2,4.3c0.3,2.8,0.6,5.4,0.9,8.2c-1.5,2-2.9,4.5-5.7,5.8
		c-0.7,0.3-1.3,1-1.6,1.7c-1,2.2-2,4.3-2.7,6.6c-0.9,2.8,0.5,4.7,3.4,5c2.5,0.2,5.1,0.3,7.7,0.3c3.6-0.1,6.6-1.4,7.9-5.1
		c0.6-1.6,1.7-2.5,3.2-3.3c1.6-0.8,3-1.8,4.3-2.9c1.1-1,1.2-2.7,0.3-3.9c-0.3-0.5-0.9-0.8-1.4-1.2c-2.3-1.8-2.4-2.2-1.6-5.2
		c0.5-1.8,0.8-3.6,0.7-5.6c-0.1-3.2-1.4-5.9-2.5-8.5c1.3-1.8,2.6-3.3,3.6-4.9c1.7-2.6,1.9-5.3-0.2-7.9c-0.5-0.7-0.8-1.3,0.2-1.9
		c0.4,0.2,0.9,0.3,1.3,0.5c0.6,0.2,1.2,0.6,1.8,0.8c2,0.7,3,0.3,3.8-1.6c1.7-4,2.8-8.2,3-12.5c0.3-6.5,0.5-13.1,0.5-19.7
		c0-2.2-0.4-4.5-0.6-6.7c-0.2-1.9,0.2-3.4,2.2-4.3c2.5,3.7,5.8,5.7,10,6.1c0.5,0,0.9,0.2,1.4,0.3c2.4,0.4,3.9,1.9,4,4.1
		c0.2,4.7,2.7,7.7,6.6,9.8c0.7,0.4,1.4,0.8,2,1.3c1.3,1,2.6,1.9,3.7,3c2.4,2.4,4.6,4.8,6.9,7.3c1.6,1.7,2.7,3.5,3,5.9
		c0.4,2.8,1.1,5.6,1.5,8.5c0.3,2.3,1.3,3.9,3.3,5c1.3,0.7,2.5,1.4,3.8,2c3.6,1.7,5,4.1,4.5,8c-0.1,0.8-0.3,1.5-0.4,2
		c1.1,2,2.7,2.6,4.3,3.4c3.9,1.7,8,3.1,12,4.7c5.8,2.4,11.7,2.5,16.8-2.7c-0.5-0.8-0.9-1.8-1.6-2.3c-4-2.7-8-5.3-12-7.8
		c-1.5-0.9-3.2-1.5-5.1-2.4c0-2.9-1.5-5.5-3.2-7.7c1.6-5.2-0.3-9.1-3.7-12.3c-1.5-1.4-2.6-2.7-2.8-4.7c-0.3-3.9-0.2-7.9-2.4-11.4
		c-0.2-2.9-2.5-5.1-2.4-8.1c0-0.5-0.5-1.2-1-1.6c-2.6-2.2-3.3-5.4-4.6-8.6c1.6-2.1,1.2-4.3-0.1-6.6c-0.7-1.3-1.3-2.6-1.7-4
		c-2.5-7.6-5.8-14.9-9.7-21.9c-0.5-0.9-0.7-2-1.1-2.9c1.5-1.9,3.9-2.9,4.2-5.6c-1-1.5-1.9-3.1-3.1-4.7c-2.4-3.2-5-6.3-7.4-9.5
		c-2.7-3.6-5.1-7.3-6.7-11.5c-0.3-0.9-0.8-1.9-1.6-2.3c-2.6-1.3-2.8-3.7-3.5-6c-0.5-1.7-0.8-3.4,0.3-5.1c0.8-1.1,0.6-2.4,0.2-3.7
		c-0.3-1.1-0.8-2.1-1-3.2c-0.1-0.5,0.2-1,0.4-1.5c2.4,3.8,1.9,8.3,3.9,12.3c2.8-0.2,5.4-0.4,7.7-2.2c-0.1-2.3-0.1-4.3-0.3-6.4
		c-0.2-1.9-0.7-3.8-1.1-5.6c-0.4-1.9-1.4-3.8-1.1-6.1c2.3,0.5,4.3,0.9,5.8,2.5c0.4,0.4,1.1,0.8,1.6,0.8c2.4-0.3,4.4,0.9,6.4,1.7
		c12.5,4.8,25,9.6,37.6,14.4c1.5,0.6,3,0.8,4.6,1.2c1.2,1.7,3.2,1.8,4.9,2.4c2.5,0.9,4.8,2.5,7.6,2.4c1.1,1.5,3,1.6,4.5,2.2
		C958.9,845.2,960,845.4,961.1,845.6z"/>
</g>
<g>
	<path  fill="none" stroke="#ffffff" stroke-miterlimit="10" d="M1520.2,616.4c1.2-5.8,1.9-11,2.2-16.2c0.3-6.4,0.3-12.8,0.3-19.2
		c0.1-8,0.2-16,0-24c-0.1-6.2-0.5-12.5-1-18.7c-0.6-6.9-2.1-13.6-5.6-19.7c-0.9-1.5-1.5-3.2-2.2-4.6c0.6-1.9,1.2-3.7,1.9-5.8
		c5.3-2.3,9.7-6.2,13.7-10.7c4.2-4.6,7.2-9.8,9-15.7c1.5-4.8,0.8-9.4-2.4-13.6c-2.3-3-5-5.3-8-7.5c-3.9-2.9-7.8-3.1-12.1-0.9
		c-6.3,3.3-11.9,7.5-16.3,13.1c-1.3,1.6-2.5,3.3-3.7,4.8c-1.2-0.3-2.1-0.7-3.1-0.7c-1.1,0-2.1,0.3-2.6,0.3c-3-2.4-5.6-4.4-8.1-6.4
		c0.1-6.1-3.4-9.2-8.2-11.1c-0.8-2.3,1.2-4.5-0.2-6.3c-1.4-1.7-3.1-3.1-5-4.9c0.2-1.3,0.6-3,0.7-4.8c0.2-1.7,0.3-3.5,0.1-5.2
		c-0.4-3-0.9-6-1.7-8.9c-1-4-0.2-7.8,0.5-11.6c1.5-0.9,4.1,0,3.9-3c-1.9-1.4-2.7-3.6-3.4-6c-0.5-1.8-1.1-3.7-1.9-5.4
		c-1-2.3-2.9-2.8-5.1-1.9c-2.1,0.8-4.1,1.6-6.2,2.3c-5.1,1.7-6.4,5-3.7,9.6c0.6,1.1,1.2,2.2,1.7,3.2c1.6,0.6,3,1.2,4.6,1.8
		c0,2.5-1,4.6-1.8,6.9c-0.8,0.3-1.5,0.6-2.3,0.8c-1.7,0.6-2.5,1.8-2.6,3.6c-0.3,5.4-0.9,10.8-1.1,16.3c-0.1,2.4-0.5,4.7-1.5,7
		c-1.6,3.7-3,7.4-4.5,11.1c-1,2.5-2.2,5-4.3,6.8c-1.3,1.2-1.7,2.6-1.6,4.3c0.1,2.3,0.5,4.4,1.7,6.4c1.5,2.5,2.3,5.2,3.3,7.9
		c0.8,2.4,0.7,4.6,0.3,7.3c-1-0.1-1.8,0-2.5-0.2c-2-0.4-3.4,0.5-4.4,2.1c-2.3,3.5-4.5,6.9-6.9,10.5c0.4,1.3,0.7,2.7,1.1,4.1
		c-2.5,1.8-5.3,2.5-8.1,3.2c-1.2,0.3-2.2,0-3-0.9c-1.3-1.5-2.9-1.8-4.8-1.7c-2.6,0.2-5.1,0.2-7.6-0.6c-0.7-0.2-1.6-0.2-2.4-0.1
		c-2.8,0.6-5.6,1.2-8.3,2.1c-3,1-6,1-8.9-0.2c-1.6-0.7-3.3-1.2-4.8-2.1c-2.5-1.3-4.9-1.2-7.3,0.3c-1.1,0.7-2.2,1.3-3.4,1.8
		c-3.6,1.5-7,1.6-10.2-1.2c-6.5-5.9-14.1-7-22.3-4.4c-2,0.6-3.9,1.4-5.9,2c-3.5,1-5.2,3.4-5.6,6.9c-0.2,1.7-0.7,3.4-0.9,5.1
		c-0.3,1.7-0.8,3.5-0.7,5.2c0.3,3.8-0.5,7.3-1.5,10.8c-0.2,0.6-0.3,1.2-0.5,1.8c-0.7,2.2-0.4,4,1.2,5.7c1.4,1.5,2.7,3.2,3.9,4.8
		c4.3,5.9,9.3,10.9,16.6,13.1c0.6,0.2,1.2,0.6,1.8,0.7c1.7,0.3,2.8,1.4,3.9,2.6c2.2,2.3,4.4,4.6,6.8,6.8c3.3,3.1,7.2,5.3,11.6,6.6
		c4.1,1.2,8.1,1.9,12.1-0.3c0.3-0.2,0.9,0,1.4,0c-0.1,6.3-1,12.1-4.3,17.5c-4.5-1.5-7,1.4-9.2,4.1c-3.2-1-6.1-1.9-9.1-2.8
		c-0.2-1.1-0.4-2.2-0.6-3.2c-0.3-1.2-0.6-2.5-1-3.7c-1.1-3.1-2.7-4.1-5.8-3.7c-1.1,0.2-2.2,0.4-3.2,1c-2.1,1.2-4,2.6-6,3.9
		c-0.8,0.5-1.4,1.6-2.2,1.8c-3.4,0.8-6.5,2.6-10.2,2.4c-2.2-0.2-4.5,0.4-6.3,1.9c-2.2,1.9-4,4.1-6.3,5.8c-0.9,0.6-0.3,2.4,0.9,2.6
		c0.6,0.1,1.3,0.2,1.9,0.2c4.7-0.3,9.2,0.6,13.8,1.4c2.6,0.4,5.1,1.2,7,2.9c4.4,3.8,10.2,5.2,14.6,8.9c2.6,0.7,4.3,2.6,6.1,4.4
		c1.4,1.4,2.4,3,3.3,4.6c1.3,2.3,3,4,6.1,4c1.4,0,2.8,0.7,4.1,1.1c1.2,0.3,2.4,0.9,3.7,1c2.5,0.2,5.2,0.3,7.7,0
		c4.4-0.6,8.9-1.3,12-5.2c0.4-0.6,1.3-0.8,2.1-1c1.5-0.4,3.1-0.8,4.7-1c5.5-0.5,10.6-2.2,15.8-3.9c1.7-0.6,3.2-1.4,4.2-2.9
		c2.6-3.7,5.3-7.3,7.8-10.9c0.8-1.2,1.8-2.5,1.9-3.8c0.4-3.6,2.1-6.7,3.1-10c1.1-3.3,2-6.7,2.3-10.3c0.4-4.4,1.1-8.9,2.2-13.2
		c1-4.2,2.2-8.3,1.7-12.7c2.5-1.8,5.4-2.4,8.1-3.3c0.7-0.2,1.9,0.3,2.6,0.8c1.4,1,2.7,2.2,4.1,3.3c2.2,1.8,4.6,2.6,7.6,2
		c3.6-0.8,7.2-1.4,10.8-2.1c0.8-0.1,1.6-0.2,2.4-0.3c2.6,2.2,3.1,5.2,3.6,8.2c0.5,2.8,0.8,5.7,1.1,8.5c0.1,0.6,0,1.3-0.1,1.9
		c-0.6,3.1-0.6,6.3-1.9,9.4c-0.6,1.4-0.5,3.1-0.6,4.7c-0.2,4.9-0.4,9.9-0.6,14.8c-0.1,1.6-0.5,3.1,0.6,4.6c0.3,0.4,0.3,1.3,0.1,1.8
		c-1.4,3.6,0.9,6.4,2.1,9.5c0.1,0.3,0.8,0.8,1.1,0.7c0.6-0.1,1.3-0.5,1.5-1c0.4-1,0.5-2.1,0.7-3.2c2.9-0.8,5.3,0.3,7.3,2.3
		c1.4,1.3,2.8,2.7,4.2,3.9c0.7,0.6,1.7,0.9,2.6,0c0.1-1.5-1.2-2.1-2-3c-0.5-0.6-1.1-1.2-0.2-2.1c2.5,0.5,4.6,2,6.8,3.3
		c0.8,0.5,1.8,0.7,2.7,0.6c1.2-0.1,1.7-1.3,2.1-2.9c-0.7-0.5-1.6-1.1-2.6-1.8c0.9-0.6,1.5-1,2.3-1.5c-2.6-2.9-6.5-1.9-9.2-4.6
		C1509.8,617.1,1514.8,616.7,1520.2,616.4z"/>
</g>
<g>
	<path  fill="none" stroke="#ffffff" stroke-miterlimit="10" d="M475,951.6c0.2,1.4,0.2,2.8,0.7,3.8c0.7,1.6,0.6,3,0.1,4.6
		c-0.7,2.6-1.1,5.2-0.8,8c0.2,1.6,0,3.2-0.2,4.7c-0.4,2.8,0.2,4.4,2.9,5.1c4.7,1.4,9.4,1.6,14.1-0.4c1.5-0.6,2.5-1.6,2.5-3.2
		c0-2.1,0.5-4.1,1.4-6c0.7-1.5,0.6-3.1,0.1-4.7c-0.5-1.5-1-3-1.4-4.4c0.9-1.3,1.7-2.4,2.5-3.5c-0.7-1.7-1.3-3.1-2-4.6
		c1.9-1,3.5-1.9,5-2.7c0-0.6,0.1-1,0-1.2c-0.5-1.9-1.8-3.3-3.3-4.6c-2.1-1.9-3.4-4.2-2.9-7.2c0.3-1.6,0.9-2.9,2.4-3.9
		c3.3-2.3,3.6-3.7,2.4-7.3c-0.3-1-0.8-2.1-1.2-3.1c1.9-3.2,2.3-6.7,2-10.3c-0.1-1.4-0.2-2.9-0.3-4.3c-1-7.4-2.1-14.9-3.1-22.3
		c-0.2-1.2-0.2-2.6,0.1-3.8c0.6-2.5,1.2-5.1,2.4-7.3c2.9-4.9,2.3-11,5.6-15.7c0.1-0.1,0.1-0.3,0.1-0.5c-0.2-2.9,1.3-5.2,2.1-7.8
		c0.8-2.3,1.8-4.4,3.7-6c0.8-0.6,1.7-1.8,1.7-2.7c-0.1-3.8,1-7.6-0.2-11.4c-0.5-1.6-0.8-3.3-0.5-4.9c3.5-0.5,6.7-1,9.8-1.3
		c1.7-0.1,3.5,0.2,5.2,0.5c1.2,0.2,2.4,0.8,3.7,1.1c3.1,0.8,5.9-0.7,6.7-3.8c0.3-1.2,0.3-2.6-0.1-3.7c-0.9-2.7-2.1-5.3-3.3-8
		c-1.3-2.9-2.6-5.8-2.8-9.1c2-1.9,4.1-3.2,6.6-4c1.4-0.4,2.7-1,3.9-1.7c0.4-0.2,0.7-0.8,1.6-1.9c-1.9,0.3-3,0.4-4,0.7
		c-1.6,0.6-1.9-1.4-3.2-1.6c-1.8,0.9-3.6,1.7-5.4,2.6c-1.7-4.4-4.2-7.3-8.4-8.9c-2.2-0.9-4.6-1.4-6.8-2.2c-3.3-1.2-6.5-2.7-9.7-4.1
		c-8.8-3.8-17.4-7.9-24.7-14.4c-1.7-1.5-4.1-2.8-6.3-3.2c-2.4-0.4-4.2-1.4-6-2.6c-4.5-3-9.3-5.6-14.5-7.4c-0.9-0.3-1.7-0.7-2.5-1
		c-0.1-0.9-0.2-1.6-0.2-2.2c0-2.1,0.2-4.2,0.1-6.2c-0.2-4.8-2.5-8.7-6.5-11.1c-2.6-1.5-5.6-2.3-8.5-3.1c-5.8-1.6-11.4-0.6-17,1.2
		c-3,1-5.5,2.5-7.1,5.3c-0.7,1.1-1.3,2.3-3,2.6c-2.1-0.9-4.4-1.9-6.9-3.1c-0.5,0.8-1,1.5-1.6,2.4c1.1,0.8,2,1.5,2.9,2
		c2.6,1.5,4,3.5,3.6,6.7c-0.4,2.8,0.6,5.4,1.9,7.8c0.8,1.6,1.7,3.1,2.3,4.7c1.5,3.9,3.6,7.5,6.1,10.9c0.7,1,1.5,2.1,2.3,3.3
		c-4.7,3.1-7.9,7.5-11.3,11.7c-2,2.5-3.9,5-4.8,8.2c-0.5,1.7-1.6,3.1-2,4c-2.8,1.7-5.4,2.6-7.1,4.3c-3.2,3.4-7.6,4.7-11.4,7
		c-0.5,0.3-1.2,0.5-1.8,0.4c-3.4-0.5-6.3,0.6-8.7,2.8c-1,0.9-2.1,1.4-3.4,1.6c-4.6,0.6-9.2,1.5-13.8,1.6c-3.9,0.1-7.6,1-11.2,2
		c-0.5,0.1-1,0.6-1.7,1.1c2.8,1.6,5,2.7,7.9,1.5c2.4-1,5.1-0.8,7.6-0.1c1.4,0.4,3.3-0.1,4.3,1.7c-0.9,0.7-1.8,1.3-2.7,2
		c-0.3,0.3-0.5,1-0.4,1.3c0.3,0.5,0.9,1,1.4,1.1c0.7,0.1,1.5-0.2,2.3-0.5c1-0.4,2.1-1.2,3.1-1.1c3,0.2,5.6-1,7.8-2.5
		c2.4,1.2,4,3.4,6.6,3.3c3.4-0.1,5.3,1.7,6.6,4.5c0.7,1.4,1.3,2.9,2,4.3c0.5,1.1,1,2.3,1.5,3.3c3.7-0.7,7.1-1.3,10.6-1.9
		c4.1-0.7,8.2-1.3,12.3-2.2c6-1.2,10.9-4.4,14.5-9.4c2.1-3,4.3-5.9,6.6-8.9c0.6-0.8,1.2-1.5,1.9-2.2c0.3-0.2,0.9-0.3,1.3-0.1
		c0.4,0.2,0.8,0.7,0.8,1c0,1.4-0.2,2.7-0.3,3.8c0.4,0.4,0.5,0.6,0.6,0.7c0.5,0.1,0.9,0.3,1.4,0.4c3.4,0.2,5.7,1.7,7,4.9
		c0.3,0.8,1.3,1.3,1.9,2c0.4,0.4,0.7,0.8,1.1,1.3c-3.3,2.2-3.3,2.2-4.9,6.2c-0.9,2.2-2.1,4.3-3.7,6.1c-4.3,4.7-8.6,9.5-12.7,14.4
		c-2.1,2.4-4,5-5.7,7.7c-4.4,7.3-8.5,14.7-12.8,21.9c-2.2,3.6-2.8,7.4-2.1,11.5c0.7,4.1,3,7.7,3.3,11.9c0,0.1,0.1,0.3,0.2,0.4
		c2.5,5.3,5.1,10.6,7.6,16c0.4,0.8,0.4,1.8,0.6,2.7c0.6,2.8,0.9,5.7,2.9,8.1c1.4,0.1,2.8,0.3,4.2,0.4c0.3,1.6,1.9,2.7,0.8,4.2
		c-0.8,1.1-1.8,2.3-3,3c-1.5,0.9-3.2,1.2-4.9,1.8c-0.8,0.2-1.7,0.2-2.3,0.6c-2,1.5-4.3,2-6.6,2.8c-1.5,0.5-3,1.1-3.7,2.8
		c2.1,3.5,3.7,4.6,7.1,4.6c1.8,0,3.5,0,5.3-0.2c7.1-1.1,14.3-1.8,21.5-1.6c0.8,0,1.7,0,2.4-0.3c0.8-0.4,1.9-0.9,2.2-1.7
		c0.6-1.7,1.3-3.7,1.1-5.4c-0.5-3.9-1.3-7.9-3.3-11.4c-1.8-3.1-1.1-5.7,0.9-8.4c1.5-2,2.7-4.3,4.5-7.1c1.1-0.6,2.9-1.5,4.7-2.6
		c1.6-1,3.1-2.2,4.6-3.4c1.5-1.3,2.2-3.4,3.9-4.4c1.8,2.9,3.2,5.8,5.2,8.2c2,2.4,4.8,4.2,6.8,5.9c0.7,3.1,1.1,6,1.9,8.7
		c1.3,4.1-1.3,7.7-1.3,11.6c0,0.4-0.5,0.8-0.8,1.2c-0.5,0.6-1.1,1.2-1.5,1.9c-2.3,3.1-1.7,6,1.5,8.1
		C473.7,950.9,474.4,951.2,475,951.6z"/>
</g>
<g>
	<path  fill="none" stroke="#ffffff" stroke-miterlimit="10" d="M1117.8,800c1.3-0.2,2.1-0.4,2.8-0.5c2.8-0.1,4.3-2,5.4-4.2
		c0.4-0.8,0.5-1.8,0.8-2.8c1.7-5.1,3.1-10.4,6.7-14.7c0.2-0.2,0.5-0.5,0.5-0.8c0-2.8,1.6-5.1,2.3-7.8c0.4-1.5,0.3-2.9-0.9-4
		c-3.7-3.5-7-7.5-12.1-9.2c-0.5-0.2-1-0.8-1.6-1.3c0.3-1.3,0.6-2.5,0.9-3.7c0.3-1.6,0.6-3.1,0.7-4.7c0.2-2.2-0.5-4.1-2.3-5.5
		c-1.6-1.3-3.1-2.6-4.7-3.9c0.2-1.1,0.8-1.5,1.7-1.2c1.2,0.5,2.4,0.9,3.3-0.5c-0.8-2.8-3.8-1.8-5.4-3.3c0.8-0.6,1.4-1.2,2.5-2
		c-1-0.2-1.4-0.4-1.8-0.3c-1.2,0.4-2.6,0.6-3.6,1.3c-1.4,1-2.3-0.9-3.5-0.3c-0.4,0.2-0.8,0.7-1.2,0.7c-0.4,0-0.8-0.3-1.3-0.6
		c-0.4,1.2-0.6,2.5-1.3,3.5c-0.8,1.1-1.9,1.9-3,2.9c2.6,1.3,2.6,1.3,3.6,3.3c0.5-0.3,0.9-0.6,1.4-0.8c1.6,2.7,1.6,2.7,4,4.1
		c1.1,0.6,2.3,1.2,3.2,2c2.5,2,2.2,5.6-0.5,7.3c-1.8,1-3.6,1.9-5.9,1.6c-1.9-0.2-3.8-0.2-5.8-0.2c-2.2,0-3.2,0.9-3.7,3
		c-0.3,1.4-0.3,3-1,4.2c-1.3,2.3-1.5,4.9-2.2,7.3c-0.2,0.5-0.1,1.3,0.1,1.8c0.6,1.3,1.1,2.6,0.4,4.1c-0.6,1.3-1.2,2.6-2.7,3.1
		c-1.3-0.7-2.4-1.3-4-0.7c-2.7,0.9-4.9,2.3-6.6,4.5c-4.8,6.4-9.6,12.8-14.3,19.2c-0.8,1.1-1.7,2.3-2.5,3.3c-0.9,0-1.6,0-2.2,0
		c-3.1,0.2-5.5-0.8-7.6-3.2c-3.6-4.1-7.5-7.9-11.3-11.7c-1.3-1.4-2.7-2.7-4.2-3.9c-0.8-0.7-1.9-0.6-2.6,0.1
		c-1.1,1.2-1.3,2.6-0.3,3.9c1.5,1.9,3.2,3.6,4.8,5.4c3.7,4,7.5,7.9,11.2,11.9c0.7,0.8,1.3,1.8,1.8,2.5c-0.7,2.1-1.2,3.8-1.7,5.4
		c0.3,0.5,0.4,0.7,0.5,0.7c1.3,0.5,2.6,1,4.2,1.5c-1.4,7.5-4.8,14.5-6.7,21.8c1.2,1.1,2.4,1.3,3.7,1.3c0.9,0,1.8,0.3,2.9,0.6
		c-0.4,3.4-0.6,6.6-1.1,9.7c-0.3,2.1-0.5,4.1,0.6,6c0.9,1.6,0.8,3.2-0.4,4.4c-1.8,1.8-1.9,3.9-2,6.2c-0.3,7.2-0.9,14.4-2.8,21.3
		c-0.6,2-0.8,4.1-1.1,6.1c-0.5,3.5-0.8,7-2.4,10.2c-0.3,0.6-0.5,1.2-0.5,1.8c0.1,2.7-0.9,5-2.1,7.3c-0.9,1.7-0.8,3,0.7,4.2
		c2.3,1.8,2.4,4,1.1,6.4c-1.4,2.7-2.7,5.5-2.3,8.7c0,0.3-0.1,0.6-0.2,0.9c-1.2,2.4-2.3,4.8-3.6,7.3c-1.6,0.7-3.6,0.7-5.1,2.1
		c-1.1,1-2.9,1.4-4.5,0.8c-2.2-0.8-4.1,0.2-5.8,1.3c-0.7,0.4-1.1,1.1-1.8,1.6c-2.3,1.4-4.7,3-7.5,2.5c-2.2-0.4-3.8,0.1-5.4,1.2
		c-2.1,1.4-4.5,2.4-6,4.6c-0.4,0.6-1.2,1.3-1.9,1.4c-4.4,0.9-7.4,4.4-11.4,6c-0.7,0.3-1.6,0.8-1.9,1.4c-1.2,2.4-2.3,4.9-3.3,7.4
		c-0.6,1.4-0.2,2.7,0.8,4c1.2,1.5,1.5,3.4,0.9,5.3c1.1,0.6,2.1,1.3,3.1,1.5c1.7,0.5,3.4,0.9,5.2,0.9c2.1-0.1,4.1-0.7,4.5-3.4
		c0.2-1,1-1.9,1.7-2.8c0.7-0.9,1-1.7,0.6-3c-0.6-1.8,0.1-2.5,2.1-2.6c0.8,0,2,0.2,2.2-0.2c1.2-1.7,2.7-1.9,4.6-2
		c0.7,0,1.3-1.4,2.1-1.5c2.2-0.2,4.4-0.1,6.1,1.5c1.9-0.7,4-1,5.4-2.2c1.7-1.4,3.4-1.5,5.3-1.5c2.6,0,5.1,0.1,7.7,0.2
		c8.3,0.2,15.3-2.6,20.7-9.1c3-3.6,6-7.1,9.1-10.5c2-2.2,4-4.5,7.2-5.3c3.8-0.9,7.4-2.1,9.5-5.8c0.6-1.1,1.9-1.2,3-0.6
		c2.3,1.2,4.5,2.5,6.6,3.8c0.8,0.5,1.5,1.3,1.9,2.1c1.5,3.2,4.4,5,7,7.1c1.7,1.4,3.6,2,5.7,2.1c1.4,0,2.9,0.3,4.3,0.2
		c1.5,0,3.1-0.2,4.9-0.4c-0.4,1.3-0.9,2.4-1.1,3.4c-0.4,1.8,0.3,2.8,2.3,3.5c0.4,0.1,0.9,0.2,1.4,0.3c-0.8,1-2.7,1.3-1.7,2.9
		c0.8,1.3,0.7,2.2,0.2,3.5c-0.9,2.7-2,5.3-3.9,7.6c-2.7,3.3-2,7.2,1.6,9.4c2.9,1.7,6.1,2.7,9.5,3.1c2.8,0.3,5.8,0.6,8.4,1.6
		c5.9,2.2,11.9,2.1,17.7,2.3c0.5-0.5,0.8-0.7,0.9-1c1.3-2.8,1-3.5-1.5-5c-1.8-1-3.4-2.5-5.3-3.1c-4.2-1.4-7-4.9-10.6-7.2
		c-0.5-0.3-0.8-1-0.9-1.6c-0.2-1.2-0.3-2.4-0.4-3.5c1.3-0.6,2.3-1,3.3-1.6c0.9-0.6,1.8-1.3,2.5-1.9c0.1-1.6,0.2-3,0.3-4.4
		c0.3-5.6,3-10.4,5.6-15.1c1-1.7,1.6-3.4,2.2-5.2c1.2-3.6,2-7.4,3.5-10.9c2.2-5.2,3.5-10.6,3.8-16.2c0.2-3.3-0.7-6-2.7-8.4
		c-1.1-1.4-2.4-2.6-3.4-4.1c-3-4.3-7-7.5-11.5-10c-4.4-2.4-8.4-5.2-12.3-8.3c-2.1-1.7-4.3-2.7-6.9-2.8c-1.4-0.1-2.8-0.6-4.1-1.3
		c-2.2-1.2-4.3-2.7-6.8-4.2c1.3-3.5-0.7-5.4-3.2-7.2c-2.2-1.6-3.4-4.1-4.5-6.5c3.5-3.8,4.7-6.8,4.9-11.8c0.1-2-0.2-4.2,1-6.4
		c4.8,0.3,9.7,0.7,14.6,1c5.1,0.3,10.2,0.6,15.3,0.8c4.9,0.2,9.7,1.6,14.7,1.2c3.2-5.8,3.3-12.4,5.6-18.4c1.8,0,3.4,0,4.9,0
		c4,0,8-0.2,11.4-2.8c0.7-0.6,1.9-0.7,2.5-1.4c1.2-1.3,2.6-1.7,4.2-1.7c4.4-0.1,8.7-0.1,11.7,3.9c0.3,0.4,0.7,0.6,1.1,0.9
		c4.5,2.7,9.2,5.2,12.8,9.2c0.6,0.7,1.6,1,2.8,0.2c-0.2-0.5-0.4-1.1-0.7-1.5c-1.1-1.2-2.3-2.2-3.4-3.3c-0.4-0.4-1-0.9-0.1-1.7
		c0.5,0.3,1,0.7,1.5,1c2.5,1.8,4.9,3.6,7.4,5.3c1,0.7,1.8,0.4,2-1.2c-2.6-2.4-5.8-4.4-8.4-7.3c0.6-0.1,1-0.3,1.2-0.2
		c2.6,1.8,5.2,3.6,7.9,5.4c0.6,0.4,1.4,0.8,2.1,1c0.2,0.1,0.7-0.1,0.8-0.3c0.2-0.4,0.3-0.9,0.2-1.3c-0.3-0.5-0.7-1-1.2-1.4
		c-2.3-1.8-4.6-3.4-6.9-5.2c-0.7-0.5-1.4-1.2-2-1.7c0.7-1.4,1.6-1.3,2.6-0.9c2.6,0.9,5.1,1.9,7.6,2.8c0.3,0.1,1-0.1,1.2-0.4
		c0.6-0.6,0.3-1.3-0.2-1.6c-2.2-1.2-4.5-2.3-6.8-3.4c-2.6-1.3-5.2-2.5-7.7-3.8c-0.6-0.3-1.4-0.9-1.1-1.9c1-1.5,2.8-1.3,4.2-2
		c1.5-0.7,2.5-1.8,2.5-3.5c-0.6-0.1-0.9-0.3-1.2-0.2c-4.6,2.2-10.1,1.5-14.6,4c-0.5,0.3-1.3,0.4-1.9,0.3c-5.2-0.6-10.4-1.3-15.7-2
		c-0.2,0-0.3-0.1-0.4-0.2c-2.7-1.9-6-2-9-3.2c-1-0.4-2.2-0.4-3.3-0.2c-2.3,0.4-4.4,0.2-6.6-0.7c-1.2-0.5-2.5-0.6-3.8-0.7
		c-3.5-0.4-7-0.9-10.5-1.2c-2-0.2-4-1.1-5.8,0.9c-0.3,0.3-1.2,0.3-1.8,0.2c-2.1-0.1-4.2-0.2-6.2-0.5c-1.6-0.3-3.1-0.4-4.5,0.7
		c-1.2,1-2.7,0.8-4.1,0.4c-1.2-0.3-2.5-0.5-3.7-1C1119.5,801.3,1118.9,800.7,1117.8,800z"/>
</g>
<g>
	<path  fill="none" stroke="#ffffff" stroke-miterlimit="10" d="M676,766.1c1-1.3,1.8-2.3,2.6-3.3c1.1-1.5,2.4-3,3.4-4.6
		c5.3-8.9,6-18.7,5-28.8c-0.2-2.4-0.4-4.8-0.7-7.1c-0.1-1.4-0.3-2.9-0.3-4.3c-0.1-2.5-1.2-4.3-3.2-5.6c-2.8-1.8-5.6-3.8-8.6-5.3
		c-9.2-4.7-20.2-3-26.8,5.5c-1.3,1.7-2.4,3.8-3.3,5.8c-2,4.4-2.4,9.3-3.2,14c-0.3,2.1-0.4,4.1,0.1,6.2c1.1,4.8,2.2,9.6,3.5,14.4
		c0.3,1.3,0.4,2.4,0.1,3.7c-1.2,4.6-2.3,9.3-3.2,14c-0.4,2.1-1.6,2.9-3.8,3.2c-1.7-2.2-3.3-4.3-4.9-6.5c1.1-1.7,2-3.1,3.1-4.8
		c-2.9-1.4-5.6-0.7-8.2-0.6c-1.5-1.6-2.9-3.1-4.2-4.7c-9.1-10.1-18.2-20.2-27.2-30.3c-2.4-2.7-3.6-3.8-6.7,0.2
		c-0.4,0.5-0.7,1.1-1.1,1.8c2.8,3.3,5.5,6.7,8.4,9.9c8,9.1,16.1,18.2,24.1,27.4c0.6,0.7,1,1.5,1.5,2.3c-0.9,1.2-1.8,2.1-2.4,3.2
		c-0.4,0.7-0.4,1.7-0.6,2.5c3,1.2,5.6,0.3,8.1-0.7c1.5,2.2,3.4,3.7,4.1,6c-1.1,1.3-2.2,2.5-3.2,3.8c-4.4,5.5-7.3,11.6-7.4,18.8
		c0,4-0.1,8-0.3,12c-0.4,8,1.2,15.6,3.5,23.1c0.4,1.2,0.9,2.3,1.4,3.6c1.6,0.1,3,0.1,4.5,0.2c0.8,2.2,1.7,4.2,2.3,6.3
		c0.7,2.4,2.3,4.1,4.3,5.5c-0.6,4.9-0.5,9.8-2.1,14.4c-0.4,1.2-0.6,2.5-0.9,3.7c-1.4,5.1-1.1,10.5-1.8,15.7
		c-0.8,5.7,0.2,11.2,2.6,16.4c1.2,2.7,1.4,5.2,0.9,7.9c-0.5,2.3-0.5,4.5,0.2,6.6c1,3.1,1.1,6.3,0.4,9.5c-0.2,0.9-0.2,1.9-0.3,2.9
		c-0.4,3.4,0.5,6,4,7.2c0.3,0.1,0.4,0.5,0.8,0.9c0,0.4,0.1,1.1,0,1.7c-0.6,4.1,0.2,7.9,1.9,11.7c0.6,1.3,1,2.7,1.5,4.1
		c0.6,1.5,0.8,3.1,0.3,4.7c-0.3,0.8-0.4,1.5-0.5,2.3c-0.8,5.5,1.6,9.9,6.6,12.4c-0.1,1.2-0.2,2.5-0.2,3.8c0.1,1.4,0.2,2.9,0.5,4.3
		c0.5,2.2,1.3,4.3,0.1,6.5c-0.2,0.5,0,1.3,0.1,1.9c0.6,2.1,1.3,4.3,1.9,6.4c0.9,2.7,3,4.5,5.2,6.1c1.7,1.2,3.6,0.8,5.6,0.4
		c1.1-0.2,2.2-0.3,3.3-0.3c1.5-0.1,2.4-1,2.7-2.3c0.2-0.9,0.3-1.9,0.1-2.8c-0.4-2-1.1-4-1.6-6c-0.2-0.9-0.6-1.9-0.4-2.8
		c0.9-3.2-0.4-5.9-1.8-8.6c-0.5-0.9-0.9-1.9-1.4-3.1c1,0,1.7-0.1,2.3,0c3.3,0.5,6.6,1,9.9,1.6c1.4,0.2,2.8,0.5,4.2,0.9
		c3.9,1.1,7.8,1.6,11.8,0.5c1.5-0.4,3.2-0.4,4.2-2c0.8-1.4-0.8-2.4-0.6-3.6c0.2-1.9-0.6-3.2-2-4c-4.7-2.7-9.6-5.1-15.2-5.4
		c-0.8,0-1.6-0.7-2.7-1.1c1.5-4.5,1.9-8.9,1.9-13.4c0-1.3,0.6-2.4,1.3-3.5c3.2-5,6.5-9.8,10.3-14.4c3.4-4.1,5.6-8.9,6.4-14.3
		c0.5-3.3,1.1-6.6,1.5-10c0.7-6.2,1.5-12.4,1.9-18.6c0.7-9.2-0.6-18.2-2.1-27.2c-0.1-0.7,0-1.5,0-2.4c2.7,0.8,5.1,1.7,7.6,2.3
		c2.7,0.6,3.5,0.1,4.3-2.4c2.5-7.9,5-15.9,7.3-23.8c0.8-2.6,1-5.3,1.5-8c0.3-1.9,0.5-3.8,0.6-5.7c0.1-2.4,0.5-4.9-0.1-7.1
		c-1.8-6.8-3.9-13.5-5.9-20.2c-0.9-3.1-2.6-5.8-4.8-8.2c-3.5-4-6.9-8-9.5-12.6c-1.3-2.2-3.1-3.6-5.6-4.1c-3.6-0.8-7.1-1.8-10.7-2.7
		C680.1,768.5,678.2,767.8,676,766.1z"/>
</g>
<g>
	<path  fill="none" stroke="#ffffff" stroke-miterlimit="10" d="M209.9,817.8c-6.4,0.3-6.3,0.3-11.2,4.8c-0.9,0.8-2.1,1.5-3.2,2
		c-1.9,0.8-4,1.3-5.8,2.2c-5,2.4-9.3,5.5-11.8,10.7c-1,2-1.5,3.8-0.3,5.9c-1.9,2.7-3.6,5.4-5.5,7.9c-2.4,3.2-5.1,6.1-7.3,9.5
		c-1.5,2.4-3.2,4.8-5.9,6.1c-0.7,0.3-1.4,1-1.6,1.7c-0.7,2.2-2.5,3.1-4.4,4.2c0.1,1.3,0.2,2.6,0.3,3.9c-1.9,1.2-2.3,4.5-5.6,3.4
		c-0.3,0.8-0.4,1.8-0.9,2.2c-2.8,2.4-5.8,4.6-9.6,4.8c-6.9,0.4-13.7,0-20.3-2.4c-1.2-0.5-2.4-0.9-3.7-1.1c-0.7-0.1-1.8,0-2.1,0.4
		c-0.4,0.5-0.3,1.6,0,2.2c0.9,1.7,1.9,3.3,2.9,4.9c2.1,3.1,4.8,5.5,8.5,6.7c1.3,0.4,2.6,1.3,3.8,1.9c1.7,0.9,3.4,1.9,5.1,2.5
		c2.1,0.8,3.9,2,5.6,3.6c1.7,1.6,3.7,3.2,5.8,4.3c5.5,2.9,8.6,3.4,12.6-3.4c0.1-0.1,0-0.3,0.1-0.7c-0.4-0.6-1-1.4-1.6-2.2
		c1.5-3.6,2.2-7.7,6.1-9.8c0.3-0.2,0.4-0.9,0.7-1.2c1.5-1.8,3-3.6,4.8-5.6c3,1.3,4.7-0.1,6.1-2.8c0.4-0.8,1.1-1.6,1.9-2
		c2.8-1.4,4.8-3.7,7-5.7c2.9-2.6,5.8-5.5,10-6.2c1.2-0.2,2.5-0.7,3.5-1.4c1.5-1.1,3.1-1.4,4.9-1.4c2.9,0.1,5.8,0.1,8.6-0.2
		c2.2-0.3,4.1-0.1,6.1,0.6c1.5,0.5,3,1.1,4.5,1.6c0.7,0.2,1.7,0.5,2.3,0.2c3-1.6,5.5,0,8.4,0.5c0,1.3,0,2.4,0,3.5
		c-0.2,4.8-0.5,9.6-0.6,14.4c-0.1,4.5,0.4,8.9,0.3,13.4c-0.1,5.3,0.7,10.5,2,15.6c0.6,2.5,1.4,4.9,1.9,7.4c0.5,2.7,1.6,4.4,4.4,4.8
		c1.7,0.2,2.8,1.4,3.4,3c1.1,3.1,2.3,6.3,3.5,9.4c0.7,1.8,0.4,3.4-0.5,5c-0.9,1.4-1.7,2.9-2.5,4.3c1.2,1.3,2,2.6,3.1,3.3
		c1.2,0.9,2.8,1.3,4.4,1.9c0.5,1.2,1.1,2.5,1.6,3.8c0.2,0.6,0.5,1.4,0.3,1.8c-1.2,2.1-1.1,5-3.5,6.6c-1,0.7-1.7,1.8-2.6,2.7
		c-0.3,0.3-0.5,0.8-0.9,1c-2.4,0.9-4.7,2.3-7.1,2.6c-3.1,0.3-4.4,2.9-6.7,4.2c-1.1,0.6-0.6,3,0.7,3.7c0.7,0.3,1.5,0.6,2.3,0.7
		c1.7,0.2,3.5,0.3,5.3,0.5c6.3,0.7,12.7,1,19,2.5c4,1,8.2,1.6,12.2,1c2.3-2.3,2.3-2.3,3.3-4.9c-2.9-2.8-4.2-6.5-5.1-10.4
		c-0.3-1.4-1-2.6,0-4.1c0.6-1,0.1-2.2-0.5-3.1c-1-1.5-1.8-3-1.7-4.8c0.2-0.4,0.3-0.7,0.6-0.9c1-0.6,1.9-1.1,2.9-1.5
		c1.1-0.5,1.9-1.2,2.2-2.4c0.4-1.8-0.3-3.7-1.8-4.6c-0.8-0.5-1.7-0.8-2.5-1.4c-3.4-2.5-4.4-7.3-2.3-11.1c0.7-1.1,1.3-2.2,1-3.6
		c-0.8-3.8,0-7.3,1.6-10.7c0.3-0.7,0.5-1.5,0.6-2.3c0.9-4.7,1.7-9.4,2.8-14.1c2.5-11.2,4.9-22.5,6.6-33.9c0.7-4.5,2-8.7,3.6-12.9
		c1.7-4.3,3.5-8.6,4.1-13.2c1.1-7.4,2.3-14.8,3.5-22.3c0.1-0.9,0.5-1.7,1-3.2c2.2,3.6,4,6.7,5.9,9.7c2-0.4,2-0.4,5.5,0.9
		c0-0.5,0.1-1-0.2-1.3c-0.8-1-1.8-1.8-2.6-2.8c-0.4-0.5-1.3-1-0.4-1.8c2,1.7,3.9,3.3,5.9,4.9c0.2,0.1,0.6,0,0.9,0
		c0.5-1,1.1-2.1,1.5-3c-0.4-1.1-1.3-2.2-1-2.8c1.1-2.1-0.2-3.4-1.3-4.7c-2-2.5-4.1-4.9-6.5-7.6c1.1-2.1,0.3-4.8-0.8-7.5
		c-0.3-0.8-0.5-1.4-1.4-1.7c-2.2-0.7-2.6-2.5-2.4-4.6c0.1-1.3-0.1-2.6,0.1-3.8c0.8-4.9-0.6-9.5-2.3-14c-0.7-1.8-1.3-3.5-2.1-5.4
		c0.8-0.4,1.3-0.7,1.8-1c2-1.3,2.2-1.8,1.4-3.9c-0.6-1.5-1.2-2.9-1.7-4.4c1.7-2.4,3.3-4.7,4.8-6.9c0.8-1.2,1.6-2.4,2.2-3.7
		c0.7-1.5,0.4-2.1-1.7-3.9c-1.3,0.6-2.2,1.7-3,2.9c-1.3,1.8-2.8,3.5-4,5.4c-1.4,2.1-3.1,3.1-5.6,2.8c-1.4-2.2-2.7-4.4-4.3-6.4
		c-3.8-4.5-7.8-8.9-11.7-13.4c-0.7-0.8-1.7-1.6-2.1-2.6c-0.8-1.9-2.3-2.3-3.9-2c-1.7,0.3-3.2,1.1-5.1,1.8c-0.6-0.8-1.3-2-2.2-2.7
		c-3.9-2.8-5.7-7-6.1-11.5c-0.5-4.7-2.2-8.6-6-11.9c-4,0.2-8.3,0.4-12.6,0.6c-4.1,0.2-7.8,1.7-11.2,3.9c-1,0.6-2,1.6-2.7,2.6
		c-1.4,2.2-2.5,4.5-3.8,6.7c-1.7,2.9-1.2,5.5,1,7.8c0.9,0.9,1.8,1.8,2.6,2.9c0.9,1.1,1.7,2.3,2.3,3.6c3.3,7,7,13.6,13.5,18.5
		c-1,1.1-1.7,2.1-2.7,2.8c-2.3,1.8-4,4.2-5.6,6.5c-0.6,0.9-1.1,1.9-1.4,3c-1.2,5-2.3,10-3.6,14.9c-1.8,6.8-3.8,13.5-3.7,20.7
		c0,1.1-0.1,2.4-0.8,3.2C210,814.4,210.4,816,209.9,817.8z"/>
</g>
<g>
	<path  fill="none" stroke="#ffffff" stroke-miterlimit="10" d="M1012.3,619.7c1.8,0.8,3.6,1.2,4.6,2.2c2.3,2.3,4.8,2.9,7.9,2.3
		c1.4-0.3,2.9-0.2,4.3-0.4c2.4-0.3,4.7-0.9,6.6-2.5c0.9-0.8,2.2-1.3,3.3-1.8c1.6-0.7,3.2-1.3,4.9-1.9c1.9-0.7,3.2-2.1,3.8-4
		c0.6-2,1.3-3.9,2-5.9c0.3-1,1.7-1.2,2.3-0.4c1.7,2.1,2.8,4.4,2.1,7.1c-0.6,2.2,0.6,4.4-0.5,6.6c-0.2,0.4,0.1,1.3,0.4,1.8
		c1.7,2.5,2.2,5.3,2.6,8.1c0.4,3,2.1,4.6,4.9,5.1c3.8,0.7,7.6,0.8,11.4-0.1c1.2-0.3,2.5-0.6,3.6-1.1c2.1-1.1,3.1-3,2.3-5.2
		c-1.2-3.4-1.4-7.2-3.3-10.4c-0.8-1.3-1.1-2.9-1.6-4.2c0.2-0.4,0.2-0.6,0.3-0.7c1.9-1.7,4-3.2,4.2-6.1c0.1-0.6,0.9-1.2,1.5-1.7
		c2.4-1.9,2.7-3.8-0.5-6c-0.8-0.5-1.7-0.9-2.5-1.3c-1.2-0.7-2.4-1.4-3.6-2.2c3.3-3.2,8.1-6.5,10.6-7.4c0.4,1.4,0.6,2.8,1.1,4.1
		c1.5,3.6,2.4,7.6,6.6,9.4c-0.1,1.9-0.3,3.7-0.3,5.4c0,1.9,0.2,3.8,0.3,5.7c0.1,2.5-0.5,4.7-2.1,6.7c-0.6,0.7-0.9,1.6-1.4,2.3
		c0.5,0.4,0.7,0.8,0.9,0.8c2.9,0.3,3.7-0.1,5.2-3.1c2.3-4.6,6-6,10.6-3.8c1.6,0.7,3,1.8,4.4,2.9c1.6,1.4,3.4,2.4,5.5,2.6
		c1.9,0.2,3.8,0.3,5.7,0.3c0.2,0,0.4-0.4,0.6-0.6c-0.2-0.6-0.3-1.1-0.5-1.7c0.8-0.7,2.8,0.1,2.7-2.1c-2.3-0.4-4.1-2.2-6.6-2.3
		c-3.1-0.1-5.5-1.7-7.4-3.9c-2.7-3.1-5.3-6.4-7.9-9.6c-0.4-0.5-0.5-1.1-0.6-1.3c0.9-3.1,2-5.8,2.4-8.6c0.4-2.8,0.1-5.7,0.1-8.8
		c3.3-2.2,7.7-3.1,11.1-6.2c-0.4-1.7-0.8-3.4-1.2-5.1c-3.9-15.7-7.9-31.3-11.7-47c-0.9-3.5-1.8-7.1-2.1-10.8
		c-0.3-3.9-1.2-7.5-3.4-10.7c-0.7-1-1-2.3-1.3-3.6c-0.6-2.2-1.2-4.3-1.6-6.5c-0.9-5.1-3.9-8.7-8-11.4c-4.5-3-9.1-6-13.6-9
		c-0.9-0.6-1.8-1.3-2.5-1.8c0.8-3.3,1.9-6.4,2.3-9.5c0.7-5.9,0.6-11.8,0.1-17.7c-1.4-14.9-16.5-19.8-26.2-16
		c-5,1.9-8.6,5.5-10.9,10.3c-0.9,1.8-1.7,3.7-2.7,6c-1-1.3-1.8-2.3-2.5-3.3c-3.4-5.4-6.7-10.9-10-16.4c-1.3-2.2-2.8-4.3-4.3-6.4
		c-1.6-2.2-3-2.3-5.4-0.9c-1.1,0.7-1.5,1.7-0.9,2.8c1.3,2.4,2.6,4.8,4,7.1c3.8,6.3,7.7,12.5,11.5,18.8c0.7,1.2,1.3,2.5,1.6,3.1
		c-0.5,2.4-1,4.1-1.2,5.8c-0.6,5-0.4,5.2,4.6,4.7c0.3,0,0.6,0.2,1.1,0.3c0.5,2,1.3,4,0.7,6.4c-0.9,0-1.5,0-2.1,0
		c-6.8-0.3-13,1.1-18,6.2c-0.1,0.1-0.2,0.2-0.4,0.3c-2.1,1.6-3.4,3.8-4.2,6.3c-0.9,3-0.9,5.9-0.1,9c1.6,6.5,1.6,13-1,19.3
		c-0.4,1-0.8,2.3-0.5,3.2c1,3.3,2.3,6.6,3.5,9.9c0.2,0.6,0.6,1.2,1.1,1.6c2.7,2,3.2,5,4,7.9c0.4,1.5,0.4,2.8-0.3,4.2
		c-1.4,2.9-2.8,5.7-4.3,8.6c-2.8,5.4-6,10.5-8,16.3c-0.4,1.2-0.9,2.4-1.8,3.3c-1.9,2.2-2.7,4.7-2.9,7.7c0.6,0.7,1.1,1.6,2,2.3
		c2.1,1.7,3.2,3.9,3.3,6.6c0.1,2.7,0.2,5.4,0.5,8.1c0.2,2.2,0.7,4.4,1,6.6c0.2,1.4,0.8,2.8,0.6,4.2c-0.4,3.1,0.5,5.7,2.2,8.1
		c1.2,1.9,2.4,3.8,3.8,5.5c1.3,1.7,2.4,3.3,2.4,5.6C1011.7,618.3,1012.1,618.9,1012.3,619.7z"/>
</g>
<g>
	<path  fill="none" stroke="#ffffff" stroke-miterlimit="10" d="M1191.8,466.7c-0.6,1.7-1.3,3.3-1.8,5c-1.3,4.4-2.3,9-3.8,13.4
		c-1.6,4.6-2.6,9.2-2.5,14.1c0.1,2.6,0.2,5.2-0.2,7.7c-0.7,4.1-0.8,8.3-0.8,12.4c0,5.4-0.1,10.9,0,16.3c0.1,6.1-0.1,12.2,0.6,18.2
		c0.8,7.4,0.4,14.7,0.2,22c-0.1,3-0.1,6.1,0.1,9.1c0.1,3,0.7,6,0.6,9c-0.1,2.4,0.1,4.8,0.7,7.1c1,3.8,1.2,7.6,0,11.3
		c-0.7,2.1-0.2,4,1.6,5.1c2,1.3,1.9,2.8,1.2,4.5c-0.4,1-1,2.1-0.5,3.2c0.8,1.7,0.3,3.5,0,5.2c-0.9,4.4-0.1,9-1.5,13.3
		c-0.1,0.4,0.1,1,0,1.4c-0.3,4.1,1.8,7.3,3.8,10.6c1.2,2,3,2.9,5.2,2.8c1.7-0.1,3.5-0.5,5.1-1c0.6-0.2,1.4-1,1.5-1.6
		c0.3-1.4,0.4-2.8,0.5-4.3c0-1.6-0.6-3.3-0.3-4.8c0.7-2.8-0.1-5.4-0.6-8c-0.1-0.5-0.4-1-0.3-1.4c0.4-2.5-0.2-4.7-1.3-6.9
		c-0.5-0.9-0.4-1.9,0.3-2.7c1.4-1.5,1.2-3.2,0.6-4.9c-0.3-0.7-0.4-1.5-0.6-2.5c0.8-0.2,1.3-0.4,1.9-0.5c1.2-0.4,2-1.1,1.9-2.4
		c-0.1-1-0.7-1.7-1.8-2c-0.6-0.1-1.1-0.4-1.7-0.6c0.5-2.1,1.3-3.9,1.3-5.7c0-2,0.5-3.7,1.4-5.5c0.8-1.6,1.5-3.2,2.3-4.9
		c-1.4-2.4-0.4-4.9-0.1-7.4c0.6-5.8,3.6-10.5,6.6-15.2c2.6-1.8,3.3-4.6,4.1-7.3c0.5-2,0.7-4.1,1-6.1c0.3-2.2,0.3-4.6,1.1-6.6
		c2.3-5.4,4.8-10.8,7.4-16.1c0.8-1.5,1.9-2.9,3-4.2c2.7-3.2,5.7-6.1,8.2-9.4c4.4-5.6,9.3-11,11.5-18.1c0.2-0.7,0.8-1.4,1.4-1.9
		c1.4-1.2,5.8-2.4,8.4-2.4c0,0.3,0.2,0.7,0.1,0.9c-0.6,1.3-1.3,2.6-2,3.8c-1.5,2.5-2.6,5.1-2.9,8c-0.5,6.6-0.4,6.9,4,11.6
		c-0.2,1.8-0.9,3.6-2.1,5.1c-0.5,0.6-1.2,1.1-1.6,1.7c-1.5,2.1-1.3,3.9,0.8,5.4c1.4,1,3,1.9,4.6,2.5c6,2,11.6,4.4,16.1,9.1
		c0.7,0.7,1.9,1.3,2.9,1.5c2.8,0.3,5.7,0.3,8.9,0.5c-0.1-1.2,0-2.3-0.4-2.9c-1.8-2.4-3.5-5.1-5.8-7c-3.2-2.7-4.1-6.8-6.9-9.6
		c-0.2-0.2-0.2-0.6-0.2-0.9c-0.3-2-0.5-4.1-0.8-6c3.9-1.3,4.7-2.3,4.8-6.1c0.1-1.9,0.2-3.9-0.1-5.7c-0.9-5.1,0.7-9.8,2.3-14.5
		c0.3-0.9,0.7-1.9,1.3-2.5c1.6-1.6,2.2-3.6,2.1-5.7c0-2.3,0.7-4.4,1.4-6.5c0.7-2.3,1.2-4.5,1.3-7c0.2-4.2-1.3-7.8-2.9-11.5
		c-0.9-2.2-2.3-3.7-4.6-4.6c-5.4-2.1-10.7-4.2-16-6.4c-0.8-0.3-2-0.1-2.3-1.5c1.4-2.4,2.8-4.9,4.1-7.2c0.6-0.3,1.1-0.5,1.5-0.6
		c5.1-0.9,9.2-3.6,12.9-7c1.9-1.7,3.6-3.6,5.3-5.6c2.1-2.4,3.9-5,5.9-7.5c0.8-1,1-2,0.8-3.1c-0.6-2.5-1.1-5-1.9-7.4
		c-1.4-4.6-4.5-7.6-8.9-9.5c-1.9-0.8-3.9-1.5-5.8-2.3c-2-0.8-3.8-0.6-5.4,0.7c-2.3,1.7-4.7,3.4-6.7,5.4c-2.6,2.7-5.5,4.3-9.2,4.4
		c-1.9,0.1-3.8,0.5-5.7,0.6c-0.8,0.1-1.5-0.2-2.4-0.3c-0.4-2.1,0.5-3.5,1.4-4.8c2-1,4.4-0.4,6.1-2.3c-1.1-1.8-2.1-3.5-3.3-5.5
		c1-2.8,2-5.6,2.9-8.5c0.8-2.6,2.1-4.6,4.7-5.8c1.3-0.6,2.5-1.4,3.3-2.9c-0.5-0.7-1.1-1.4-1.8-2.3c1.5-2.9,0.5-6,0.6-9.2
		c-2.2-1-4.2-0.5-6.3-0.1c-2.1,3.3-5.5,5.3-7.7,8.6c-1.8,2.7-5.4,2.9-7.9,0.6c-3.1-2.8-6.6-3.6-10.6-3.2c-0.5,0-1,0.1-1.4,0.2
		c-5.4,0.5-10.8,1.1-16.2,1.6c-3.3,0.4-6.6,1-9.7,2.4c-2.5,1.1-3.7,2.9-3.8,5.6c0,1.9-0.2,3.9,0.1,5.7c0.7,4.7,0.1,9.2-1.5,13.6
		c-1.7,4.6-0.2,9.2,1.4,13.5c1.2,3.1,3.3,5.8,4.9,8.8c1.1,2.1,2,4.3,3,6.5c0.5,1.1,0.4,2.2,0,3.2c-2.5,5.6-3.6,11.6-4.2,17.6
		c-0.3,3-1.6,5.1-4.4,6.2C1193.1,465.9,1192.6,466.2,1191.8,466.7z"/>
</g>
<g>
	<path  fill="none" stroke="#ffffff" stroke-miterlimit="10" d="M871,443.5c-2.8,1.6-5.3,3-7.7,4.5c-1.2,0.7-2.7,1.3-3.5,2.4
		c-2.6,3.2-6,5.2-9.5,7c-2.4,1.2-4.8,2.7-6.3,5.1c-1,1.6-1.8,3.4-4,3.7c-2,2.2-4.3,3.9-4.8,7.3c-0.6,4.1-1.7,8.3-4.5,11.5
		c-3,3.3-4,7.2-4.3,11.4c-0.1,1.4-0.3,2.9-0.9,4.1c-4.1,8.2-6.9,16.8-10.4,25.3c-0.3,0.8-0.4,1.7-0.6,2.4c3.6,2.5,6.8,4.7,10.2,7
		c1.5,1,2.6,2.3,3.3,4c1,2.4,1.8,4.9,3.4,6.8c1.5,1.9,3.9,3.2,5.7,4.6c0.5,4.3,0.9,8.4,1.4,12.5c0.3,2.5,0.8,5,1.2,7.6
		c0.4,2.7,0.7,5.4,2.9,7.2c-0.1,2.1-0.3,4-0.2,6c0,1.3,0.1,2.6,0.5,3.7c1.4,3.3,0.2,5.9-2.3,8.1c-1.3,1.1-2,2.4-2.6,3.9
		c-0.2,0.4-0.1,0.9-0.2,1.5c0.9,0.7,1.8,1.3,2.4,1.8c0.1,2.1-1.9,3-1.3,4.9c0.4,1.3,0.2,2.8,0,4.3c-0.2,1.9,1.6,2.6,2.1,4.2
		c-0.6,1.3-1.3,2.5-1.8,3.9c-0.4,1-0.8,2.2-0.7,3.2c0.4,2.5-0.3,4.8-1.2,7c-0.9,2.2-0.9,4.3-0.5,6.6c0.4,2.3,0.4,4.7,0.6,7.6
		c1.3,2.1,3.3,4.3,6.6,4.8c0.6,0.1,1.2,0.5,1.7,0.8c1.6,1,3.3,1.2,5.1,1.1c2.1-0.1,4.1-0.2,6.2-0.3c0.3,0,0.6-0.1,0.9-0.2
		c2.4-0.5,3.3-2.1,2.4-4.2c-0.3-0.7-0.8-1.4-1.1-2.1c-0.4-1-1.1-2.1-1.1-3.1c0-2.9-1.2-5.4-2.8-7.5c-2.1-2.8-2.1-5.3,0-7.8
		c1.3-1.6,1.7-2.8,0.5-4.7c-0.8-1.2-0.2-2.1,1.4-2.1c1.6,0,2.8-0.2,3.3-2c0.1-0.5,0.7-1,1.2-1.4c0.7-0.5,1.1-1.2,0.8-2
		c-0.4-1.1-1.3-1.3-2.3-1.3c-0.9,0-1.7,0.1-3.3,0.1c0.9-1.1,1.4-1.7,1.8-2.2c1.4-1.6,2.9-3,4.1-4.7c1.4-1.8,2.6-3.7,2.7-6
		c0.1-3,0.1-6.1,0.3-9.1c0-0.6,0.2-1.1,0.4-1.8c1.2,0.6,2.1,1.2,3.1,1.5c1,0.3,2.2,0.2,3.2,0.2c1.2,2.3,2.4,4.4,3.5,6.4
		c2.1,0.6,4,1.1,6.5,1.8c-1.9,1.5-3.3,2.6-4.8,3.8c2.2,3.8,4.3,7.4,6.8,11.6c-0.1,2-0.3,4.8-0.4,7.5c2.1,2.9,5.1,4,8.3,4.7
		c4.2,1,8.4,1.8,12.7,2.5c1.6,0.3,3.2,0.2,4.8,0.3c4.2,0.2,7.7-1.3,10.7-4.7c-0.5-0.8-0.9-1.8-1.6-2.3c-1.1-0.8-2.5-1.5-3.8-2
		c-4.1-1.8-8.2-3.5-12.3-5.3c-0.4-0.2-0.8-0.5-1.2-0.8c0.5-1.3,0.8-2.4,1.2-3.4c1.4-3.2,2.9-6.4,3-10c0-1.3,1-2.8,2-3.6
		c1.8-1.6,2.8-3.4,3.1-5.7c0.2-1.9,0.9-3.7,1.9-5.4c1.3-2.2,2.3-4.6,3.5-6.8c1.4-2.5,1.5-4.8-0.2-7.2c-0.5-0.7-0.9-1.3-1.4-2
		c-1.2-1.5-1.8-3.3-2-5.3c-0.3-2.7-0.8-5.4-1.4-8c-1.2-5.5-2.2-11-2.7-16.5c-0.4-4-0.7-8-1.8-11.8c-2.4-8.4-4.6-17-9.3-24.6
		c-1.3-2-2.1-4.3-2.2-6.7c2.3-0.5,4.5-0.7,6.5-1.4c2.4-0.8,2.7-3.9,4.4-5.4c2.4,0.1,4.7,1.8,7.3-0.1c1-2.9,2.4-6,3.3-9.2
		c0.8-2.9,2.1-5.3,4-7.5c3-3.6,5.5-7.4,7.1-11.9c0.5-1.4,0.9-2.7,0.3-4.2c-0.7-1.8-0.2-3.3,0.4-5.1c1.5-4.5,2.8-9.1,4.1-13.8
		c0.3-1.2,0.5-2.5,0.4-3.8c-0.2-4.4-1.7-8.4-3.3-12.4c-0.4-1-1.2-1.9-1.9-2.8c-4.9-5.7-11.1-7.8-18.5-6.4c-1.6,0.3-3.1,0.7-4.7,0.9
		c-2.6,0.3-4.5,1.6-5.9,3.7c-1.6,2.4-3.1,4.8-3.9,7.7c-1.1,4-2.3,8-3.5,11.9c-0.9,2.7-1.3,2.8-4.9,1.9c-0.1-1.7-0.1-3.4-0.2-5.1
		c-0.2-3.3-0.7-3.8-3.9-4.2c-0.8-0.1-1.5-0.3-2.4-0.4c-0.7-2.2-1.4-4.3-2.2-6.4c-0.5-1.3-1.1-2.7-1.6-4c-0.6-1.4-1.7-1.9-3.1-1.9
		c-1,0.1-2,0.6-3,0.9c-0.8,4.4,2.1,7.6,2.5,11.4c-0.8,1.1-2.2,2.2-2.3,3.4C869.6,436.2,869.1,439.8,871,443.5z"/>
</g>
<g>
	<path  fill="none" stroke="#ffffff" stroke-miterlimit="10" d="M562.3,452.1c-3.9,1.3-4.4,4.3-4.3,7.4c0.1,2.4,0.7,4.8,1.3,7.1
		c0.6,2.5,0.3,4.5-1.3,6.7c-3.1,4.1-5.8,8.4-8.7,12.6c-0.5,0.8-1,1.9-1.7,2.2c-4,1.8-7.6,4.8-12.5,4.1c-1.7-0.2-3.5,0.1-5.2,0.4
		c-6,1.1-12,1.6-18,0.4c-1.2-0.3-2.6-0.3-3.8-0.2c-3.2,0.3-5.9-0.9-8.6-2.3c-2.1-1.1-4.3-2.1-6.5-2.9c-2.9-1-5.5-2.6-7.6-4.8
		c-3.8-4.1-8.4-6.8-13.3-9.2c-7.8-3.7-16.1-5-24.6-6c-3-0.4-6-0.4-8.9-1.2c-1.1-2.3-0.6-5.2-3.5-5.9c0.1-1,0.2-1.8,0.3-2.6
		c0.1-1.3-0.2-2.6-1.3-3.4c-2-1.5-2.7-3.6-2.6-5.9c0.1-2.4-0.4-4.8,0.8-7c1.5-2.8,1.4-4.2-0.7-6.4c-3.3-3.4-7-5.6-11.9-4.2
		c-1.1,0.3-2.1,0.6-3.2,0.8c-2.5,0.5-5,1.1-7.5,1.3c-4.6,0.4-9.2,0.7-13.8,0.9c-2.4,0.1-4.3,1.2-5.9,2.7c-3.6,3.4-3.5,9.6,0.2,12.8
		c0.5,0.4,1.1,0.8,1.7,0.8c4.1,0.2,8,2.1,12.2,2c1.9-0.1,3.8,0.5,5.6,1.1c1.7,0.6,2.5,2,1.9,3.8c-0.6,2,0.1,3.8,0.2,5.6
		c0.7,0.6,1.7,1,2.1,1.7c0.4,0.8,0.5,1.9,0.3,2.8c-0.2,1.4-0.8,2.8-1.1,4.2c-0.5,2.5-1.4,5-1.3,7.5c0.1,2.9-0.6,5.3-2,7.6
		c-0.6,0.9-1.3,1.8-1.8,2.7c-0.3,0.5-0.6,1.2-0.6,1.8c0,3.4,3.5,7.9,6.7,9.2c5.1,1.9,10.4,3,15.8,3.7c1.1,0.1,2.2,0.5,3.1,1.1
		c1,0.7,1.8,1.8,2.6,2.8c0.7,1,2.4,0.8,3.1,2.6c-2.1,0-3.8-0.1-5.5,0c-1.1,0.1-2.5,0-3.2,0.6c-2.8,2.3-6.4,2.9-9.4,4.6
		c-1.1,0.6-2.5,1.1-3.2,2.1c-3.1,4-7.2,7.4-7.7,12.9c0,0.4-0.4,0.9-0.6,1.3c-3.3,1.5-6.5,2-10.2,1c-3-0.8-6.3-0.8-9.5-1
		c-2.5-0.2-4.6,0.6-6.7,2c-6.7,4.5-9.3,11.1-9.6,18.8c-0.1,3.1,1.1,5.2,3.5,6.9c1.8,1.3,3.7,2.5,5.7,3.6c0.9,0.5,2.1,0.8,3.2,1
		c4,0.5,7.9,0.9,11.9,1.4c2.9,0.4,5.7-0.1,8.5-1c1.3-0.5,2.7-0.8,4.1-1.3c0.4,0.7,0.8,1.3,1,1.8c2.1,4.2,2.9,8.8,4.5,13.1
		c0.8,2.1,1.1,4.2,0.9,6.5c-0.5,4.8,0,9.5,2.5,13.9c1.1,2,1.2,4.2,0.6,6.5c-3.7,0.9-6.6-1.5-9.9-1.7c-0.4,0.7-0.8,1.3-1.2,1.9
		c-4.1,0.2-4.1,0.2-7,3.7c1.8,1,3.8,0.4,5.6,0.7c0.6,0.1,1.3,0.1,1.1,1.3c-0.9,0.3-2,0.6-3,0.9c-1.1,0.3-2.5,0.1-3.3,1.9
		c3.5,1,6.7-1,10.6-0.5c-1.3,0.8-2.2,1.2-2.8,1.8c-0.4,0.3-0.5,1-0.8,1.7c1,0.1,1.7,0.4,2.2,0.2c2.9-0.7,5.9-1.4,8.8-2.3
		c1.8-0.5,3.2-1.6,4-3.3c1.1-2.3,2.3-4.5,2.4-7.2c0.1-2.3,0.2-5,2-6.7c2.3-2.2,3.7-4.8,3.5-8c1.6-0.9,3.1-1.4,4.3-2.4
		c1.2-1,2-2.4,2.8-3.4c2.6-1.8,6.5-0.1,8.2-4c-0.4-0.9-0.8-1.9-1.3-2.8c-1-1.8-2-3.7-3-5.5c-0.6-1.1-0.6-2.1,0-3.2
		c2-3.8,4.4-7.3,7.5-10.4c2.4,3.2,2.8,7.3,5.4,10c4.1-0.6,6.3-4.1,9.3-5.5c3.9,0.5,5.9,2.8,6.9,6.1c0.4,1.2,0.9,2.4,1.6,3.5
		c1.6,2.8,2.5,5.8,2.4,9.1c0,1.1,0.3,2.2,0.4,3.3c0.3,3.5,2.9,5.6,4.6,8.3c1.3,2.1,3.2,3.5,5.5,4.5c0.7,0.3,1.5,0.3,2,0.4
		c1-1.1-0.1-3.1,2-3c0.4,0,0.8-0.4,1.2-0.7c0.6-0.5,0.5-1.3-0.3-1.9c-0.4-0.3-1.3-0.3-1.1-1.2c3.4,0.6,3.3-2.6,4.7-4
		c-0.2-1.9-1.4-2.8-2.2-3.9c-0.9-1.1-1.8-2.3-2.4-3.6c-1.5-3.6-3.5-6.7-6.3-9.5c-3.2-3.2-3.9-7.6-5-11.8c0.7-2.4-0.4-4.8-0.3-7.1
		c0.1-2.1-0.7-3.7-1.8-5.3c-1.4-2.1-2.8-4.2-4.1-6.3c1-2,2.7-2.6,4.2-3.5c1.3-0.9,2.6-1.8,3.9-2.7c1.5-1,3-1.9,4.7-2.1
		c5.7,2.5,11.2,5,16.7,7.5c1.9,0.9,3.7,1,5.5,0c3.1-1.7,6.2-3.3,9.1-5.3c1.8-1.3,3.6-2,5.7-2.3c2.4-0.3,4.7-0.8,7.1-1.2
		c1.9-0.4,3.7-0.8,5.6-1.1c18.8-3.1,14.9-1.8,28.9-9.3c2.5-1.3,3.9-3.2,4.6-5.8c1-3.4,1.5-6.8,1.6-10.4c0.1-3.8,0.2-7.7,0.9-11.4
		c0.8-4.1,2.1-8,3.4-11.9c0.6-1.9,1.6-3.9,2.9-5.3c1.1-1.2,1.6-2.1,1.4-3.7c-0.2-2,0.7-3.4,2.7-4c0.6-0.2,1.1-0.5,1.5-0.7
		c0.5-1.4,0.9-2.6,1.2-3.6c0.6,0,1-0.2,1.2-0.1c3.6,1.3,7.3,2.3,10.4,4.7c0.7,0.6,1.6,1.1,2.5,1.4c1.5,0.5,3-0.3,3.2-1.9
		c0.2-1.4,0.2-2.7,1.4-3.9c0.5-0.5,0.5-1.8,0.4-2.7c-0.2-2.2-1.3-3.9-2.7-5.5c-2.4-2.6-5.1-4.9-8.4-6.3c-3.1-1.3-6.2-2.6-9.3-4
		c-3.2-1.4-6.9-0.8-10-2.8c-0.7-0.5-2.4,0.4-2.3,1.1c0.1,1.7-1,3-1.4,4.4c-0.2,0.7-0.2,1.8,0.2,2.2c1.6,2,0.9,4.3,0.9,6.4
		c0,0.3-0.3,0.5-0.6,0.9c-0.9,0-1.8,0-2.7,0C564.5,455.1,563.4,453.6,562.3,452.1z"/>
</g>
<g>
	<path  fill="none" stroke="#ffffff" stroke-miterlimit="10" d="M674.4,473.4c1.3,2.1,1,4.1,0.9,6.2c-0.1,2.6-0.7,4.9-2.7,6.9
		c-1.1,1.1-2,2.6-2.3,4.1c-1.4,6.9-2.9,13.7-1.4,20.8c0.1,0.6,0,1.3-0.1,1.9c-0.3,4.3-0.5,8.6-1,12.9c-1.2,10.2-0.6,20.4-0.7,30.7
		c0,1,0,2,0.3,2.9c1.9,6.2,2.9,12.8,6.1,18.6c0.7,1.2,1,2.7,1.1,4.1c0.2,3.2,0.2,6.4,0.2,9.6c0,2.1-0.2,4.1-0.2,6.2
		c0,0.8,0,1.7,0.3,2.3c1.2,2.2,2.4,4.5,4,6.4c1.1,1.3,1.7,2.6,1.6,4.3c-0.1,1.6,0,3.2-0.2,4.8c-0.4,2.9-1.4,5.5-4,7.1
		c-2,1.3-4.1,2.4-6.2,3.5c-0.5,0.3-1.5,0.4-1.6,0.9c-0.7,2.2-2.8,3-4.4,4.2c-1.4,1.2-1.6,2.2-0.3,3.7c0.7,0.8,1.6,1.6,2.5,2.1
		c3,1.5,6,1.2,8.7-0.4c4.7-2.9,9.9-4.4,15-6.1c1.9-0.6,3.6-0.6,5.6,0.1c5.7,2.2,11.4,4.2,17.2,5.9c4.6,1.4,9.3,1.7,13.4-2.3
		c-0.5-0.7-0.8-1.6-1.4-1.9c-3.9-2.2-6.8-5.7-11.2-7.1c-0.9-0.3-1.7-0.9-2.4-1.6c-1.5-1.7-2.9-3.4-1.9-6c0.4-1,0.9-2.3,0.5-3.2
		c-1.3-3.1-0.4-6.2,0-9.2c0-0.3,0.2-0.5,0.4-0.9c0.6-0.4,1.3-0.8,2-1.2c3-1.9,3.2-2.5,2.1-5.8c-0.4-1.1-0.9-2.1-1.3-3.1
		c-0.3-0.7-0.6-1.6-0.5-2.3c0.6-3.9,1.2-7.9,2.1-11.7c0.9-3.5,2.4-6.9,3.4-10.4c1.3-4.3,2.8-8.6,3.4-13c1.1-7.7,1.8-15.6,2.4-23.4
		c0.5-6.5,0.4-13.1,0.6-19.6c0.1-1.6-0.2-3.2,0.8-4.6c1.8-2.5,1.7-5.1,0.1-7.6c-1.2-2-1.6-4.1-1.5-6.4c0.1-3.6-0.6-7-2.2-10.2
		c-0.9-1.7-1.7-3.4-2.4-5.2c-0.3-0.8,0-1.8,0-2.5c2.7-0.9,5-1.7,7.6-2.6c3.1,2.8,6.4,5.6,9.6,8.5c3.2,2.9,6.3,5.8,9.4,8.7
		c1.7-0.9,3-1.8,3.7-3.7c-5.8-5.5-12-10.8-17.7-16.2c1.4-1.8,2.6-3.2,3.8-4.7c2.8-3.8,4.4-8.2,6-12.5c1.6-4.2,2.1-8.7-0.1-13
		c-0.2-0.4-0.3-0.9-0.5-1.4c-2.5-8.1-6.8-15.1-13-20.9c-1.2-1.1-2.4-1.9-4-2.5c-4.2-1.4-8.4-3.1-12.5-4.7c-0.4-0.2-0.9-0.4-1.2-0.8
		c-2.1-2.8-4.4-5.6-2.8-9.5c0.5-1.3,0.7-2.8,1.3-4.1c4.1-8.9,2.6-17.5-1-26c-1-2.5-2.9-4.1-5.6-4.9c-3.9-1.2-7.8-1.8-11.8-1.5
		c-2.4,0.2-4.3,1.2-5.6,3.2c-1.6,2.4-2.8,5-3.4,7.9c-1.3,6.1-0.4,12.1,0.6,18.1c0.4,2.3,0.9,4.8,2,6.9c1.5,2.9,2,5.6,0.8,8.7
		c-7.7,1.8-15.2,3.9-22.1,7.9c-3.1-1.9-6-3.9-9-5.7c-1.4-0.8-2.8-1.6-4.3-2.2c-1-0.4-2,0.3-2.3,1.3c-0.2,0.6-0.1,1.8,0.3,2.1
		c1.6,1.3,3.3,2.5,5,3.7c2.1,1.4,4.3,2.8,6.5,4.2c-0.2,0.8-0.2,1.4-0.4,2c-1.7,5.2-2.1,10.6-1.9,16.1c0.1,1.6,0,3.2,0,4.8
		c0,10.6,1.3,21,4.3,31.2c1.4,4.6,3.1,4,6.1,2.2c1.2-0.7,2.3-1.7,3.5-2.5C671.9,475,673.1,474.2,674.4,473.4z"/>
</g>
<g>
	<path  fill="none" stroke="#ffffff" stroke-miterlimit="10" d="M1553.1,295.1c-0.4,0.3-0.8,0.6-1.2,0.8c-0.4,0.2-1,0.3-1.3,0.6
		c-0.3,0.3-0.5,0.9-0.5,1.2c0.1,0.4,0.5,0.8,0.9,0.9c0.9,0.2,1.9,0,2.8,0.2c1.8,0.4,2,2,2.7,3.4c1.6,2.8,1.9,3.4,0.1,4.7
		c-3.1,2.2-3.9,5.7-5.8,8.6c-0.7,1-0.1,2.4,1,2.7c3.7,0.9,7.5,1.6,11.4,0.5c2.5-0.7,4.6-2.1,6.1-4.3c1-1.4,1.5-3.1,2.4-4.7
		c0.8-1.4,1.1-2.8,0.4-4.1c-1.9-3.8-2.6-8.2-5.6-11.6c-1.3-1.4-2.1-3.2-1.9-5.2c0.2-1.6-0.5-2.7-2-3.4c-1.7-0.8-2.5-2.3-3.3-3.9
		c-1.3-2.6-2.6-5.1-4.1-7.6c-2.2-3.5-4.5-6.9-6.1-10.8c-1-2.5-3-4.1-6-3.9c-1.1,0.1-2.2-0.1-3.2-0.1c-1-1.8-1.7-3.2-1.2-5.2
		c0.3-1,0.1-2.3-0.2-3.3c-1.7-5-2.5-10.3-5.2-14.9c-1.2-1.9-1.1-3.9-0.1-5.9c1.3-2.7,1.8-5.5,1.1-8.4c-1-4.7-1.9-9.4-3.4-14
		c-1.7-5.2-2.7-10.5-3.2-15.9c-0.2-2.6-0.6-5-2.1-7.5c2.3-1,4.4-1.9,6.6-2.8c-0.7-3-1.4-5.6-1.8-8.2c-0.5-2.8-1.6-5.5-0.9-8.3
		c2-0.9,3.9-1.7,6-2.6c-3.1-5.3-4.2-11.1-7.6-15.9c-1.8-2.5-1.7-4.9-0.4-7.6c1.2-2.5,2.5-5.2,3.1-7.8c-1-1.5-2.1-2.4-3.6-1.9
		c-1.5,1.6-1.5,3.9-3.2,5.4c-1.6-1.5-3.1-2.6-4.4-4c-1.7-1.9-3.1-4.2-3.4-6.7c-0.4-3.5-0.3-7-0.1-10.5c0.2-4.1-0.5-8-1.8-11.8
		c-2.5-7.5-12-10.8-18.5-6.4c-4,2.6-6.7,6.3-7.9,11c-0.2,0.6-0.3,1.3-0.3,1.9c0.6,5.7,0,11.6,2.7,16.9c0.1,0.2-0.1,0.6-0.2,1
		c-2,0.2-4.1,0.3-6,0.8c-2,0.5-3.8,1.6-5.7,2.4c-3.1-1.1-6-2.2-9-3.3c-0.4-0.9-0.7-1.6-1-2.4c-1.6-3.6,0.5-7.7-1.5-11.2
		c-0.3-0.5-0.1-1.3,0-1.9c0.2-0.9,0.4-1.9,0.8-2.7c0.5-1.2,1.1-2.3,1.6-3.2c1.7-0.6,3.2-1.1,4.7-1.7c0.2-0.1,0.4-0.5,0.7-1
		c-0.3-1-0.6-2.2-1-3.5c1-0.7,1.9-1.3,2.9-1.8c5-2.5,9.9-5.1,15-7.5c10.4-5,21.2-9.1,32-12.8c1.2-0.4,2.8-0.4,3.8-2.3
		c-1.3-0.1-2.2-0.4-3-0.3c-1.6,0.3-3.1,0.8-4.6,1.3c-11.4,3.8-22.6,8-33.4,13.2c-3.9,1.9-7.8,3.7-11.6,5.7c-1.8,0.9-3.1,1-4.8-0.4
		c-1.7-1.4-3.6-0.4-3.9,2c-0.1,0.6-0.1,1.2-0.2,1.9c-1.1-0.3-2-0.5-3.1-0.8c-1.4,1.1-2.9,2.3-4.4,3.5c-1.1,0.8-2.3,1.8-3.6,2.3
		c-3.5,1.2-6.9,2.4-7.9,6.6c-0.1,0.5-0.8,1-1.2,1.4c-0.8,0.7-1.7,1.4-2.4,1.9c-0.3,1.7,0.2,2.8,1.7,3.4c1.3-0.6,2.8-1.2,4.3-1.8
		c0.9,1.1,1.6,2.1,2.5,3c1.1,1.2,1.6,2.6,1.6,4.3c0.1,3,0.6,6,0.9,9.2c-1.5,2.6-3.2,5.4-4.7,8.2c-0.9,1.6-2.1,3.3-1.2,5.6
		c3.9,2.1,7.9,4.3,11.8,6.4c0.1,2,0.2,3.8,0.3,5.8c9.2,3,18,6.6,27.5,8.5c0.5,2.2,0.1,4-0.4,5.9c-0.3,1.4,0.1,2.5,1.1,3.5
		c0.5,0.4,1,0.8,1.4,1.3c1.4,1.6,1.5,3.1,0,4.6c-1.2,1.3-2.3,2.6-2.9,4.3c-0.4,1.3,0,2.5-0.2,3.7c-0.2,1.1-1.7,2.1-1.8,3.1
		c-0.2,2.5-1.6,4.1-2.9,5.9c-3,4.1-6.4,8.1-8.9,12.5c-6.2,10.5-11.9,21.2-17.9,31.7c-1.3,2.4-1.8,4.7-1.1,7.4
		c1.5,6.2,3,12.4,4.5,18.6c0.3,1.1,0.8,2.1,1.3,3.1c0.9,1.9,1.9,3.7,2.6,5.6c1.2,3.1,2.6,6.2,3.1,9.5c0.4,2.5,1.1,4.6,2.5,6.6
		c0.4,0.6,0.8,1.3,1.1,1.9c-0.3,0.7-0.4,1.3-0.7,1.5c-2.4,1.8-5,3.4-7.7,4.7c-2.4,1.1-4.8,2.5-7.1,3.9c-0.4,0.3-0.8,1.1-0.7,1.6
		c0.1,0.5,0.6,1.1,1.1,1.4c0.5,0.3,1.2,0.4,1.8,0.4c3.5,0.2,7,0.1,10.5-0.6c2.8-0.5,5.7-0.8,8.5-1.2c2.4-0.3,4.8-0.6,7.1-1.1
		c3.5-0.8,4.7-3.6,3.2-7c-0.4-1-0.9-2-1.3-2.8c0.9-1.3,1.7-2.3,2.4-3.4c1.3-2.3,1.1-4.1-0.8-6.1c-0.8-0.8-1.6-1.6-2.4-2.3
		c-2.3-2-3.1-4.7-3.8-7.9c0.8,0.2,1.2,0.3,1.5,0.4c3,1.2,5.4,0.8,7.7-1.8c2-2.2,3.3-4.6,4.4-7.3c1.7-4.5,3.7-8.8,5.6-13.2
		c1.1-2.4,2.8-4.2,5.1-4.8c1.7,0.9,3,1.9,4.5,2.4c1.8,0.7,2.8,1.9,3.6,3.6c1.2,2.4,2.5,4.8,4.2,7c4.8,6.2,10.5,11.6,17,16.1
		c1.9,1.3,3.5,2.7,5.1,4.3c3.4,3.4,6.6,7,11.1,9C1551.2,291.1,1552.4,292.9,1553.1,295.1z"/>
</g>
<path  fill="none" stroke="#ffffff" stroke-miterlimit="10" d="M247.2,177.2c0-0.2,0.1-0.4,0.1-0.6c-0.1,0-0.2,0-0.3,0
	C247.1,176.8,247.2,177,247.2,177.2C247.3,177.2,247.2,177.2,247.2,177.2z"/>
<path  fill="none" stroke="#ffffff" stroke-miterlimit="10" d="M1137.5,170.7c0.2-0.2,0.4-0.4,0.6-0.6c0,0,0.2,0.1,0.2,0.2
	c-0.3,0.1-0.6,0.2-0.9,0.3C1137.4,170.6,1137.5,170.7,1137.5,170.7z"/>
<g>
	<path  fill="none" stroke="#ffffff" stroke-miterlimit="10" d="M1383,935.5c-3,2.6-5.3,5.5-4.9,9.9c1.9,0.2,3.5,0.4,5.1,0.6
		c0.9,2.6-1.8,3.9-1.4,6.2c0.5,0.4,1.1,0.9,1.7,1.5c-0.1,1.3-0.3,2.5-1.4,3.4c-2.9,2.5-6.3,4.3-9.8,5.9c-4.8,0.2-8.3,3.8-13,4.5
		c-2.4,0.3-2.9,2.9-1.4,4.9c1.7,2.3,4,3.1,6.7,2.9c2.1-0.2,4.1-0.6,6.2-0.8c6.4-0.5,12.8-0.9,19.1-1.5c2.4-0.2,4.7-0.7,7.1-1
		c1.1-0.1,2.3-0.3,3.3-0.1c2.6,0.6,5.1-0.2,7.6-0.7c2-0.4,3.5-2.5,3.7-4.6c0.1-2.1-0.5-3.8-2.8-4.3c-0.4-0.1-0.7-0.6-1.1-0.9
		c-1.1-3.8-1.6-7.7-1.8-11.6c1.5,0,2.8,0,4.1,0c0.6-3.8,0.6-7.4-0.7-11.8c4.5,1.7,7.1-1,10.2-2.5c3.9-1.9,7.6-4,11.5-6
		c4.2-2.2,8.5-4.4,12.1-7.6c1.4-1.2,3.1-2.1,4.9-3.3c1.4,2.9,2,5.7,2.8,8.4c1.5,4.9,3.5,9.6,6,14.1c0.9,1.5,2,3,3.2,4.1
		c2.7,2.5,5.6,4.8,8.4,7.1c1.4,1.1,2.4,2.5,3.1,4.2c2.1,5.1,5.7,9.2,9,13.6c3.2,4.2,7.6,5.4,12.3,4.9c6.4-0.7,12.8-0.6,19.1-0.6
		c2.2,0,4.4-0.3,6.6-0.7c4-0.6,6.8-2.6,7.5-6.9c0.5-2.7,2.2-4.2,4.7-4.9c1.7-0.5,3.3-1.2,4.4-2.7c1.1-1.4,2.6-1.6,4.2-1.9
		c1.7-0.2,3.6-0.4,5.1-1.1c3.7-1.7,7.4-3.5,10.6-6.3c1.9,1.6,3.5,3.3,2.9,6.1c-0.1,0.4,0,1,0.2,1.4c1,1.6,0.4,3.1-0.4,4.5
		c-0.5,0.8-1,1.6-1.5,2.5c-0.5,1,0,2,1.1,2.2c1.5,0.4,3.1,0.6,4.6,1.1c1.9,0.7,3.8,0.6,5.6-0.2c1.2-0.5,2.3-1.2,3.5-1.6
		c3.9-1.3,5.4-4.4,5.5-8.1c0-2.5-0.4-5.1-0.7-7.6c-0.4-3-0.8-6-1.2-9c-0.3-1.9-0.5-3.9-1.2-5.6c-1.3-3.2-3-6.4-4.6-9.5
		c-0.6-1.1-1.4-2.2-2.3-3c-0.5-0.5-1.6-0.8-2.2-0.5c-2.8,1.4-6.3,1.1-8.9,3c-1.4,1-2.9,0.9-4.5,0.3c-1.5-0.6-3.1-1.2-4.6-1
		c-4.6,0.6-9.1,1.7-12.5,5.3c-4,4.3-9,5.7-14.9,5.3c-0.3-1.3-0.7-2.5-0.9-3.7c-0.7-4.3-1.3-8.5-3.8-12.3c-0.3-0.5-0.5-1.2-0.7-1.8
		c-2.3-6.8-4.6-13.6-6.9-20.4c-1-2.8-1.5-5.5-1.3-8.5c0.5-6.5-0.8-12.7-3.4-18.7c-1.4-3.2-2.9-6.4-4.3-9.6c-1-2.2-2-4.3-1.9-7
		c0.7,0.3,1.2,0.4,1.5,0.7c4.2,4,8.3,8,12.5,11.9c1.4,1.3,2.8,2.6,4.3,3.8c0.2,0.2,0.6,0.1,1.2,0.2c0.7-0.8,1.4-1.8,2.3-2.8
		c-1.3-1.4-2.3-2.6-3.5-3.6c-5.6-5.2-11.2-10.5-16.9-15.7c-3.3-3-6.8-5.9-7.5-10.7c0-0.2-0.1-0.3-0.2-0.4c-2-3.6-4.2-7.1-4.2-11.5
		c0-0.9-0.7-1.8-1-2.7c-0.3-0.7-0.5-1.4-0.7-2.1c3.6-1.3,3.8-1.3,5.8,0.6c0.8,0.8,1.5,1.7,2.2,2.5c4.8,5.8,4.9,5.9,12.5,5.7
		c0.2,0,0.3-0.1,0.5-0.1c2.8-3.4,5.9-8.3,6.1-10c0-0.4-0.3-0.8-0.6-1.4c-0.8,0.1-1.6,0.1-2.3,0.3c-1.8,0.3-3.5-0.1-5-1.2
		c-3.7-2.5-7.5-4.9-11.6-6.2c-1.5-4.4-1.5-4.5-4.9-7c-2.2-1.6-4.5-3-6.9-4.3c-2.1-1.1-3.7-2.3-4.6-4.6c-0.6-1.7-1.9-2.8-3.7-3.6
		c-7.1-2.9-14.1-5.9-21.2-8.9c-1.7-0.7-3.3-0.6-5,0.1c-2.2,0.8-4.7,1.7-6.9,1.4c-6.5-0.7-11.3-4.6-16-8.9c1.1-2,2.1-3.8,3.2-5.6
		c-2.9-1.9-5.8-1.3-8.8-0.9c-1.3-1-2.8-1.9-4.1-3.1c-6-5.7-12.2-11.3-18-17.3c-2.6-2.7-5.8-4.4-8.7-6.6c-1.1-0.9-2.1-0.1-2.4,1.2
		c0.1,1.7,2.5,2.1,2.1,4.1c-1,0.1-2,0.2-2.9,0.3c-3.8,0.2-7.7,0.1-11.5,0.6c-9,1.1-16.9,4.5-22.6,12.1c-2,2.6-2.3,5.4-2,8.6
		c0.2,2.6,1.8,3.9,3.6,5.3c0.2,0.2,0.5,0.4,0.8,0.8c0.7,3.5,2.1,6.8,4.4,9.8c0.5,0.6,0.9,1.4,0.9,2.2c-0.2,5.7,3.2,9.9,6,14.3
		c1.9,3,4.9,4.6,8.7,3.6c1.1-0.3,2.2-0.6,3.3-0.6c2.4-0.1,4.8-0.4,7.2,0c2.2,0.4,4.2,1,6.5,0.1c1-0.4,2.2,0.3,2.3,2.1
		c-1.4,0.3-2.8,0.6-4.1,0.8c-2.1,0.3-3.9,1.2-5.7,2.2c-2.6,1.4-3.5,3-2.6,6.4c0.3,1,0.8,2.1,0,3.1c-3.4,0.8-6.6,2-9.8,3.7
		c-3.2,1.8-6.8,2.7-10.3,4c-0.4-0.2-0.8-0.3-1.2-0.6c-3.3-2.4-3.7-2.4-6.6-0.2c-0.7,0.5-1.5,1-2.1,1.5c-1.7-0.9-3-1.7-4.2-2.4
		c-1.7,0.8-3.1,1.4-4.5,2.1c-0.4,0.2-0.8,0.5-1.1,0.8c-1.3,1.6-2.6,3.2-3.8,4.9c-0.4,0.5-0.9,1.1-0.8,1.7c0.2,1.9,0.5,3.8,1.1,5.6
		c0.5,1.4,2,1.9,3.6,2.1c2.1-1.1,4.1-1.9,6.8-1.4c2.5,0.5,4.9,0.6,7,2.3c2,5.2,2,5.2,6.6,6.5c0.2,2-0.9,4-0.1,6.1
		c1.1,0.4,2.2,0.8,3.2,1.1c8.6,2.1,17.2,3.4,26.1,3.1c3.2-0.1,6-0.9,8.6-2.6c2.8-1.9,5.4-3.9,8.1-5.9c1.8-1.3,3.3-3,5.5-4
		c2.8,1.9,5.6,3.8,8.3,5.7c0.6,0.4,1.4,0.9,0.8,2.3c-1.5,0.6-3.4,0.9-5.2,1.3c-2.6,0.7-5.3,1.3-7.9,2.1c-4.7,1.5-9.3,3.3-14,4.8
		c-5.3,1.7-8.2,5.2-9.1,10.6c-0.1,0.9-0.3,1.9-0.5,2.8c-0.4,2.9-0.9,5.7-1.1,8.6c-0.4,5.3-0.8,10.5-0.7,15.8
		c0.1,5.6,0.8,11.2,1.3,16.7c0.1,1.6,0.2,3.2,0.6,4.7C1383.1,926.6,1383.7,930.8,1383,935.5z"/>
	<path  fill="none" stroke="#ffffff" stroke-miterlimit="10" d="M1397,757.5c2.9,3.1,5.8,6.3,9.1,9.9c-3.2,0.3-6,0.6-9.1,0.9
		c-0.3-0.6-1.1-1.4-1.1-2.2c0-2.8,0.2-5.6,0.3-8.4C1396.3,757.7,1396.6,757.7,1397,757.5z"/>
</g>
<path  fill="none" stroke="#ffffff" stroke-miterlimit="10" d="M1384.7,952.1c-0.1-0.3-0.2-0.6-0.1-0.8c0.1-0.2,0.4-0.3,0.6-0.5
	c0.1,0.3,0.2,0.6,0.1,0.8C1385.2,951.9,1384.9,952,1384.7,952.1z"/>
<g>
	<path  fill="none" stroke="#ffffff" stroke-miterlimit="10" d="M258,498L258,498c-0.2-1.1-1.3-2.1-0.2-3.5c1.1-1.4,0.9-3.1-0.5-4.3
		c-1.8-1.6-1.5-3.5-0.7-5.3c0.7-1.6,1.7-3.1,2.9-4.3c2-1.8,4-3.6,5.1-6.3c0.3-0.8,1.1-1.5,1.9-2c4-2.7,7.9-5.5,12.1-7.8
		c3.3-1.8,5.4-4.4,7.1-7.5c0.8-1.4,1.5-2.8,2.3-4.2c1.3-2.2,2.6-4.5,4.2-6.4c4.8-5.5,8.3-11.7,11.4-18.3c1.1-2.4,1.2-4.6,0-6.9
		c-0.7-1.4-1.5-2.9-2.6-4c-2.2-2.3-4.5-4.5-6.8-6.7c-1.4-1.3-3.3-2-5.2-2.2c-1.1-0.1-2.2,0.1-3.3,0.2c-2.3,0.1-2.8-0.3-3.3-2.4
		c-0.5-2-0.9-4-1.3-5.8c-2.1-1.4-3.9-2.7-5.7-3.9c-0.4-0.3-0.9-0.7-1.2-0.6c-2.1,0.8-4.8-0.9-6.6,1.6c-0.3,0.5-1,0.6-1.6,1
		c-2.6-1.3-5-2.5-7.4-3.7c-1.2-0.6-2.1-1.3-2.6-2.6c-0.9-2.6-3.3-3.8-5.2-5.5c-3.2-0.2-4.7-3.3-7.6-4.7c-0.8,0.3-2.1,0.4-2.8,1.1
		c-2.5,2.4-5.1,2.2-7.9,0.7c-1-0.5-2-0.9-3.1-1.3c-22.5-9.3-45.3-17.5-68.9-23.5c-1.5-0.4-3.1-0.8-4.7-0.9c-1.7-0.1-3.4,0.1-4.9,1.9
		c1.2,0.4,2,0.8,2.9,1.1c5.7,1.6,11.4,3.2,17.1,4.9c20.7,6.1,40.9,13.7,60.7,22.5c1.6,0.7,3.4,1,4.5,2.6c-0.3,1.2-0.6,2.2-0.8,3.3
		c-0.2,1-0.9,2.1,0.3,3.3c1.3,0,2.8,0,4.3,0c0.1,4-0.7,5-4,4.9c-2-0.1-3.8,0.3-5.6,1.1c-2.3,1.1-4.7,2.1-6.9,3.4
		c-1.7,0.9-3.5,1.9-4.7,3.3c-2,2.4-4.4,4.1-6.9,5.9c-1,0.7-1.9,1.7-2.9,2.5c-1.8,1.6-3.6,3.2-5.5,4.6c-2,1.5-3.5,3.2-4.4,5.6
		c-0.7,1.9-1.6,3.8-2.6,5.6c-0.7,1.4-1.1,2.7-0.4,4.1c1.1,2.3,0.8,4.7,0.7,7.1c-0.2,4.9-0.6,9.9,0.2,14.8c0.3,1.9,0.5,3.8,0.5,5.7
		c0,2.6,0.4,5.1,1.6,7.4c1.1,2.1,2.1,4.3,3.2,6.7c-0.9,3.3-1.9,6.9-2.7,10c-1.3,0.6-2.3,0.9-3,1.4c-1.5,1-2.3,2.5-3,4.2
		c-2.4,5.7-4.7,11.5-8.9,16.3c-3.2,3.7-4.8,8.3-5.8,13c-0.4,1.9-0.5,3.7,0.5,5.6c0.8,1.7,1.4,3.5,1.3,5.5c-0.3,4.8-0.5,9.6-0.8,14.3
		c-0.7,12.9-1.2,25.9-2.1,38.8c-0.3,4.6,0.2,8.9,2,13.1c0.9,2,1.3,4.3,3.6,5.4c0.5,0.2,0.7,1,0.9,1.6c0.5,1.2,0.9,2.3,1.3,3.5
		c0.2,0.6,0.4,1.3,0.3,1.8c-0.9,3-0.4,6.3-2,9.3c-0.9,1.6-0.6,3.7-2,5.2c-0.3,0.3-0.4,0.9-0.3,1.4c0.2,1.9-0.1,3.8-0.4,5.7
		c-0.7,4.1,2.6,7.8,6.8,8c1.9,0.1,3.8,0,5.8-0.1c3.5-0.1,4.7-1.1,5-4.5c0.2-1.7-0.1-3.5,0.1-5.3c0.2-1.7,0.8-3.4,0.9-5.1
		c0.1-1.5,0.3-2.8,1.1-4.1c1.6-3,1.4-5.7-1.3-8.2c-1.6-1.5-1.5-2-0.1-4.1c0.9-1.3,1.9-2.7,2.2-4.2c0.6-3.3,2.1-6.3,3.4-9.5
		c1,0.4,2.1,0.8,3.1,1.1c2.1,0.7,3.3,0.3,4.2-1.8c0.4-0.8,0.7-1.8,0.7-2.7c0.2-5.4,0.4-10.9-1.6-16.1c-1-2.7-1.9-5.4-2.8-8.2
		c-0.2-0.8,0-1.8,0-2.9c1.8,0.7,3.3,1.3,4.8,1.7c5.4,1.4,10.7,1.3,14.5-3.4c2.8-3.5,6.1-4.5,10.4-4.6c4.7-0.1,7.9,2,10.7,5.3
		c1.6,2,3.1,4.1,4.3,6.4c2.6,5,6.4,8.7,11.4,11.3c0.4,0.2,0.7,0.6,1,0.9c0.1,0.9,0.2,1.6,0.2,2.4c0.9,0.5,1.8,1.1,2.8,1.6
		c-0.4,0.9-0.4,1.6-0.9,2c-2.3,2.3-3,5.2-3.4,8.2c-0.3,2.4-1,4.7,0.9,6.8c0.4,0.5,0.4,1.5,0.3,2.3c-0.2,2.6,1.2,4.3,3.3,5.4
		c1.8,1,3.7,2.1,5.6,2.6c5.1,1.3,9.4,3.8,12.9,7.8c1,1.2,2.4,2.2,3.8,2.9c1.2,0.7,2.7,1.3,4.1,1.3c2.8,0,5.7-0.3,8.5-0.7
		c1.1-0.1,1.8-1.6,1.3-2.7c-0.6-1.6-1.8-2.6-3.1-3.6c-2.2-1.6-4.3-3.3-6.3-5.2c-1.4-1.3-3.1-2.8-3.5-4.5c-0.6-2.6-2.5-4-3.5-5.3
		c-0.5-4.2,2.7-4.8,4.6-6.3c0.4-1.7-0.4-2.8-1.1-3.8c-2.3-3.1-1.7-7-3.1-10.4c-0.1-0.3,0.2-0.9,0.4-1.3c1.2-3.3,2.2-6.7,3.6-9.8
		c1.2-2.6,1.6-5.1,1.5-7.9c-0.1-4.1,0.1-8.3,1.3-12.3c1-3.2,1.1-6.7,0.5-10c-0.9-5.1-2.4-9.9-4.8-14.5c-0.6-1.1-1.3-2.4-2.3-3
		c-3.6-2.4-7.1-5-11.3-6.1c-6.3-1.7-12.7-3.4-19.1-4.8c-4.1-0.8-7.4-2.6-10.7-5.1c-2-1.6-2.9-3.2-2.4-5.9c2-1.8,3.6-4.3,6.1-5.9
		c0.6,1.6,1.2,3,1.7,4.4c1.3-0.2,2.2-0.3,3-0.5c1.2,2.5,2.2,4.8,3.2,6.8c-0.1,1.6-2.3,1.8-1.5,3.6c0.4,0.1,0.8,0.4,1.2,0.5
		c1.1,0.2,2.4,0.9,3-0.3c0.4-0.9,0.1-2.1-0.2-3.2c-0.1-0.6-0.6-1.1-1-1.6c-2-2.7-3-5.6-1.9-9C260.2,499.9,259.4,498.7,258,498z"/>
	<path  fill="none" stroke="#ffffff" stroke-miterlimit="10" d="M280.3,428.5c-4.3,2.3-8.3,4.8-13.4,4.7c0-0.9-0.1-1.6-0.1-2.4
		c0-1.4,0.1-2.9,0.2-4.3c0.7-11.4-12-18.8-20.6-15.8c-1,0.4-2.1,0.6-3.1,0.9c-0.8-1.2-0.6-2.2,0.3-3.1c0.6-0.6,1.2-1,1.8-1.5
		c2.5-2.2,5.2-4.2,6.3-7.8c3,0.8,5.5,2.3,8.1,3.5c0.5,3.6,2.5,6,5.7,7.7c2.3,1.2,4.4,2.5,7,2.9c2.2,0.3,3.9,1.3,4.7,3.6
		c0.1,0.3,0.2,0.6,0.4,0.8C280.8,420.6,280.5,424.4,280.3,428.5z"/>
	<path  fill="none" stroke="#ffffff" stroke-miterlimit="10" d="M233,425.3c-0.6,2.3-1.3,4.5-2.1,7.3c-0.6-2-1.1-3.4-1.6-5.1
		c1.1-0.9,2.1-1.8,3.2-2.7c0.1,0,0.3,0,0.3,0.1C232.9,425,233,425.2,233,425.3z"/>
</g>
<path  fill="none" stroke="#ffffff" stroke-miterlimit="10" d="M258,498c-0.9-0.3-1.3,1.4-2.4,0.5c-0.9-0.7-1.2-1.4-0.8-2.4
	c0.1-0.2,0.5-0.4,0.8-0.6C256.3,496.3,257.1,497.2,258,498C258,498.1,258,498,258,498z"/>
<path  fill="none" stroke="#ffffff" stroke-miterlimit="10" d="M257.4,492.7c-0.4,0.2-0.7,0.4-0.8,0.4c-0.3-0.3-0.5-0.7-0.8-1
	c0.3-0.1,0.6-0.4,0.8-0.3C257,491.9,257.2,492.3,257.4,492.7z"/>
<g>
	<path  fill="none" stroke="#ffffff" stroke-miterlimit="10" d="M756.2,317.3c-0.2-0.7-0.4-1.3-0.7-1.8c-1.2-2.7-2.1-5.3-1.5-8.3
		c0.2-0.9-0.2-1.9-0.4-2.8c-0.7-3.7-2.1-7.3-0.1-11.1c0.3-0.6,0.1-1.6,0.1-2.4c0.1-3.7,0.2-7.3,0.5-11c0.1-1.8,0.1-3.5-0.6-5.2
		c-0.9-2.1-1.3-4.2-1.4-6.5c-0.1-1.7-0.5-3.5-1-5.1c-0.4-1.3-0.4-2.5,0.5-3.8c1.4-0.1,3-0.2,4.7-0.4c0.9-1.5,1.5-3.3,2.7-4.5
		c2.5-2.7,1.6-5.3,0.2-7.9c-0.5-1-1.2-1.9-2-2.7c-2.5-2.2-2.5-5-2.1-7.9c0-0.2,0.5-0.3,1-0.6c0.2,0.6,0.4,1.1,0.4,1.7
		c0.2,2.9,1.6,5.3,3.9,6.9c2,1.4,3,3.2,3.6,5.4c0.1,0.6,0.5,1.1,0.8,1.6c0.4,0.1,0.7,0.2,1,0.2c2.5,0.2,3.1,0.8,2.8,3.1
		c-0.1,1.1-0.6,2.3-0.3,3.3c1,3.6,0.6,7.3,0.8,11c0.2,3.5,0.5,7,0.4,10.5c-0.1,2.7-0.5,5.4,1,7.9c0.2,0.4,0.1,0.9,0.1,1.4
		c0.1,2.2,0.4,4.5,0,6.7c-0.4,2.3-1.3,4.5-2.2,6.7c-0.6,1.5-0.5,2.8,0.4,4.1c0.7,1.1,1.3,2.2,1.9,3.2c2.3,0,4.3,0.1,6.4,0
		c1.6-0.1,3.4,0.1,4.3-1.5c1.2-1.9,1.9-4.1,1.1-6.4c-0.3-0.7-0.7-1.4-1.1-2.1c-1.7-2.9-1.7-2.9,0.5-5.7c0.2-0.2,0.3-0.6,0.4-0.9
		c-0.2-1-0.3-2.1-0.5-3.1c1.6-1.2,3-2.2,4.5-3.3c0.4-1.8,0.8-3.7,1.4-5.5c0.9-3.2,0.8-6.4-0.2-9.5c-1-3.1-1.1-6.3-0.9-9.4
		c0.3-4.3,0.6-8.6,0.9-12.9c0.1-0.8,0.3-1.5,0.6-2.6c2.4-0.7,4.8-1.4,7.3-2.1c0.2-1.5,0.5-2.9,0.5-4.3c0.2-4.8,0.4-9.6,0.5-14.4
		c0.2-9.3,0.2-9.4-4-17.9c-1.3-2.6-2.8-5.1-0.4-7.9c0.2-0.2,0.2-0.6,0.2-0.9c0.1-2.6,0.3-5.1,0.3-7.7c0-2-0.6-3.9-2.4-4.9
		c-1.7-1-2.4-2.5-3-4.2c-0.4-1.2-0.8-2.4-1.4-3.6c-0.7-1.4-1.3-3.2-2.5-3.9c-2.8-1.7-3.4-4.3-3.5-6.9c-0.1-3.7,0.3-7.3,0.5-11.3
		c0.3-0.3,0.8-0.7,1.3-1.1c2.7-2,3.7-4.7,3.4-8c-0.1-1.3-0.2-2.6,0-3.8c0.1-0.5,0.7-1,1.3-1.7c0.3,2,0.2,3.7,0.7,5.2
		c0.7,2,1.1,4,1,6.1c-0.1,3.2,0.9,5.8,3.2,8.2c2.9,3,5.3,6.4,7.9,9.6c1,1.3,1.8,2.6,1.5,4.4c-0.1,0.6,0,1.3,0,1.9
		c0,2.3,1.2,4,3.3,4.8c1.7,0.7,3.6,1.1,5.9,1.7c0.5,0.8,1.3,2,2,3c-2.6,6.7-3,8.9-2.7,13.7c0.4-0.2,1.1-0.2,1.2-0.5
		c0.3-0.9,0.4-1.8,0.7-2.8c0.2-0.8,0.6-1.7,1.5-1.6c0.6,0.1,1.3,0.9,1.6,1.5c1,2.4,1.4,4.9,0.8,7.5c-0.3,1.2-0.9,2.5,0.2,3.6
		c2.5,0,4.3-0.9,5.2-3.4c0.2-0.4,0.4-0.9,0.7-1.2c2.5-2.5,2.3-5.4,1.7-8.5c-0.3-1.6-0.8-3.1-1.2-4.6c-0.6-2.5,0-4.4,2.4-5.6
		c0.3-0.1,0.6-0.3,0.8-0.5c1.2-1,1.2-1.9-0.1-3.1c-0.6-0.5-1.3-0.9-1.2-1.8c0.1-1.2-0.2-2.1-0.8-3.1c-0.3-0.5-0.1-1.5,0.1-2.2
		c0.2-0.7,0.8-1.3,1.4-2.2c-1.7-3.5-3.4-7.1-5.2-10.7c-1.5-3.2-3.2-6.3-4.6-9.5c-1.9-4.2-3.7-8.5-5.6-12.7
		c-1.8-4.2-3.7-8.5-5.5-12.7c-0.9-2.1-2.1-4-3.7-5.5c-1.9-1.7-3.7-3.5-5.6-5.3c-2.3-2.3-4.9-4-8-5.2c-1.5-0.5-2.8-1.3-4.8-2.2
		c6.1-6.7,13.3-11.5,19.2-18.1c-0.8-0.7-1.5-1.3-2.4-2c-2.2,1.7-4.2,3.2-6.1,4.9c-4.1,3.5-8.2,7.2-12.3,10.8
		c-0.8,0.7-1.6,1.5-2.6,2.2c-1.8,1.3-4.3,1.1-5.6-0.7c-1.4-2-3.2-3.8-3.6-6.6c-0.2-1.7-1.1-3.3-1.9-4.9c-1.4-2.7-2.9-5.3-4.4-8
		c-0.7-1.3-1.7-2.2-3.2-2.7c-1.9-0.6-3.8-1.4-6.1-2.2c-1.9,1.7-4,3.5-6.1,5.5c-3.8,3.6-6.4,7.9-7.1,13.2c-0.1,1.1-0.4,2.2-0.6,3.5
		c-1.4,0.7-2.8,1.4-4.2,2.1c-2.1,1.1-4.4,2-5.6,4.3c-0.3,0.7-1.1,1.2-1.7,1.7c-4.6,4.1-7.3,9.7-10.9,14.5c-0.9,1.2-1,3-1.5,4.4
		c-0.2,0.6-0.7,1.1-0.9,1.7c-2.4,5.6-5.3,11-6,17.1c-0.4,3.8-0.6,7.6-0.9,11.6c-3.4,1-4.2,4.2-5.5,7.1c1.4,1.6,2.8,3.1,4.2,4.8
		c-0.9,5.8-3.1,11.4-3,17.4c1,0.6,1.9,1.1,2.9,1.8c0.6-0.7,1.1-1.1,1.4-1.6c1.2-2.2,2.7-3.9,5.2-4.6c0.6-0.1,1.3-0.5,1.6-0.9
		c1.4-2.1,3.2-4.1,3.8-6.5c0.5-1.8,1.4-3.1,2.5-4.5c2.7-3.2,5.3-6.4,8.1-9.5c2.8-3.3,5.7-6.5,8.6-9.7c0.4-0.5,1.3-0.6,2-0.9
		c0.1,0.8,0.3,1.3,0.2,1.7c-0.4,2.4-0.7,4.7-1.3,7c-0.9,3.7-1.7,7.4-4.8,10.2c-2.5,2.4-3.5,5.7-3.4,9.2c0.1,3.3-0.6,6.3-2.3,9.2
		c-3.3,5.7-4.2,11.9-4.5,18.4c-0.3,6.8-0.2,13.7-1.6,20.5c-0.6,3-0.3,6.1,0.8,9c1.3,3.4,2.6,6.9,4.4,10.1c1.5,2.6,2.2,5.1,2.5,8
		c0.4,5.4,1.4,10.7,5.5,14.9c1.9,2,2.6,5.2,1.6,8.1c-0.8,2.3-0.7,4.7-0.9,7.1c-0.1,1.4,0.3,2.5,1.2,3.5c0.5,0.6,1.1,1.2,1.6,1.8
		c2.6,2.8,4.2,6.3,5.7,9.7c0.6,1.4,0.7,3.1-0.3,4.9c-1.2,0-2.4,0.2-3.7,0.1c-1.6-0.1-3.1,0.3-4.6,1.1c-1.1,0.6-2.4,0.9-2.9,2.3
		c-0.6,1.5-0.3,2.8,0.7,4.2c0.8,0.2,1.7,0.5,2.6,0.8c5,1.1,10,2.2,14.7,4.2c0.9,0.4,1.8,0.6,2.8,0.8
		C753.8,319.6,755.1,319.1,756.2,317.3z"/>
	<path  fill="none" stroke="#ffffff" stroke-miterlimit="10" d="M734.3,148.4c-0.4-3.8-0.6-7.3,3.3-9.7c0.6,1.5-0.6,2.5-0.5,3.6
		c0.1,1.1,0.2,2.3-0.3,3.3C736.3,146.7,735.2,147.5,734.3,148.4z"/>
</g>
<g>
	<path  fill="none" stroke="#ffffff" stroke-miterlimit="10" d="M247.2,177.2c-1.3,0.2-2.7,0.3-4,0.5c-1-2.4,1-4.2,1.2-6.2
		c1.3-0.3,2.5-0.7,3.7-0.8c1.4-0.1,2.8,0.2,4.1,0.3c0.8-0.6,1.4-1.4,2-1.4c1.9-0.1,3-1.2,4.4-2.4c1.1-1,3.3-0.8,5-1.2
		c0.6-0.1,1.2-0.5,1.7-0.8c1.7-0.9,3.4-1.7,5-2.8c3.9-2.8,7.7-5.7,8.9-10.8c0.3-1.4,1-2.7,1.5-4c1.8-4.4,1.2-6.7-2.5-9.6
		c-1.6-1.3-3.1-2.6-4.7-3.9c1.5-2.1,2.8-3.8,4-5.7c1.2-2,2.3-4.2,3.4-6.3c1.9-3.8,2.4-7.9,2.1-12.1c-0.2-2.8-1.3-5.2-3.4-7.2
		c-0.9-0.8-1.7-1.9-2.6-2.8c-1.3-1.4-3.2-1.9-4.8-1.6c-5.6,1.3-11.2,3.1-14.2,8.8c-0.4,0.8-0.8,1.8-2.4,1.6
		c0.4-4.1,0.8-8.1,1.2-12.1c2-1,3.4-2.1,3.7-4.3c-1.3-0.9-1.7-2.3-1.3-3.8c0.7-2.7-0.9-5-1.2-7.5c-0.1-0.7-1-1.2-2-0.9
		c-1,0.3-1.7,0.8-2.1,1.8c-0.3,0.7-0.7,1.6-1.3,1.8c-2.2,0.7-3.8,2.3-5.5,3.8c-3.1,2.6-6.6,3-10.3,1.5c-2.1-0.9-4.2-1.5-6.5-1.4
		c-3,0.2-6.1,0.3-9.1,0.7c-2.5,0.3-4.7,0.4-6.8-1.3c-0.8-0.6-2-0.7-3.1-1.1c-0.9,1.2-1.7,2.2-2.4,3.2c-1.7,2.1-2.5,4.4-2.3,7.1
		c0.3,4.8,0.6,9.6,0.5,14.4c-0.1,7.4,3.2,13.2,7.6,18.6c1.1,1.4,2.2,2.8,2.6,4.6c-1.1,1.2-2.1,2.4-3.1,3.6c-1.9,2.3-3.3,4.7-2.8,7.9
		c0,0.2-0.4,0.5-0.7,0.9c-1.4-0.2-2.9-0.3-4.3-0.5c-0.8,0.8-1.5,1.3-2.1,1.9c-1.1-1-2-1.9-2.9-2.7c-0.7,0.3-1.2,0.4-1.5,0.7
		c-1.5,1.4-3.2,1.9-5.3,1.5c-2.2-0.5-4.3,0-6.4,1.2c-3.7,2.1-7.4,1.3-10.9-0.8c-1.7-3-4.5-3.2-7.5-3c-0.8,0-1.6,0.1-2.4-0.2
		c-4.5-1.2-9.1-0.8-13.7-1c-2.6-0.1-5.1-0.4-7.7-0.5c-4.6-0.2-9.2-0.2-13.5,2.2c-2.9,1.6-5.8,0.8-8.7-1c1-1.9,2-3.7,2.9-5.3
		c-1.2-3.6-1.4-4.3-2.5-4.8c-3.3-1.4-6.8-2.4-10.2-1c-3.5,1.4-7.2,2.7-10.1,5.4c-1.4,1.4-3,2.3-5.2,1.5c-0.9-0.3-2.2,0-3.2,0.4
		c-4,1.4-5.2,5.6-4.9,8.5c0.2,1.4,0.6,2.8,0.9,4.2c0.7,3.2,2.8,5.1,6,5.3c5.2,0.4,10.2,2.5,15.5,1.6c0.6-0.1,1.2,0.2,1.8,0.4
		c4.1,1.4,8.2,2.7,12.2,4.4c3.8,1.6,7.8,2.9,10.2,6.7c0.5,0.7,1.5,1.1,2.4,1.6c3.2,1.6,6.4,2.8,9.9,3.5c1.7,0.3,3.3,1,4.9,1.7
		c1.5,0.6,2.8,1.6,4.3,2.1c1.6,0.6,2.7,1.6,3.5,3c4.3,7,9.5,13.2,14.9,19.4c3,3.5,5.8,7.2,8.8,10.8c2.9,3.4,3.7,7.3,3.5,11.6
		c-0.1,2.2,0.1,4.5,0.5,6.7c0.9,5.7,2.1,11.3,2.9,17c0.5,4,0.6,8,1.7,11.8c0.4,1.6,0.2,3-0.8,4c-2.6,2.7-3.6,6.2-4.1,9.5
		c-0.6,4.1-1.6,8.7,2.8,11.7c-0.2,1.7-1.4,3-0.5,4.8c0.2,0.5-0.6,1.7-1.1,2.4c-0.3,0.5-1,0.8-1.4,1.1c0.3,1,0.5,1.9,0.9,3.3
		c-0.7,0.5-1.6,1-2.2,1.7c-0.6,0.7-0.9,1.7-1.3,2.5c-1.5,3.7,0.6,7.1,4.6,7.6c1,0.1,1.9,0.2,2.9,0.2c7.4,0,14.7,0,22.1,0
		c1.9,0,3.9-0.2,5.6-1.2c0.8-0.5,1.3-1.3,1.9-1.8c-0.8-1.9-2.2-2.6-3.8-3.1c-2-0.6-4-1.3-5.9-1.8c-2.5-0.7-4.8-1.6-6.8-3.3
		c-2.1-1.8-2.5-3.3-1.7-6.2c0.4-1.4,0.7-2.8,0.7-4.2c0-1.3,0.1-2.3,0.9-3.5c0.9-1.4,1.6-3.2,1.7-4.9c0.2-4.7,2.2-8.6,4.3-12.6
		c1-2,2.1-4,2.3-6.2c0.2-2.1,1-3.7,2.7-4.8c5.2-3.3,7.8-8.4,9.7-13.9c1.4-3.8,1.5-7.9-1.8-11.2c-1.2-1.2-1.7-2.6-1.4-4.4
		c0.4-3.3,0.5-6.7,1.1-10c1.4-9.2,1.5-18.5-0.2-27.7c-0.3-1.7-0.3-3.4-0.5-5c3.4-2.7,6.5-5.2,9.7-7.5c1.4-1,3-1.6,5.1-2.7
		c-0.4,3.5-1.1,6.2-1.8,9c-0.7,2.8-1.3,5.5-2,8.3c3.3,1,3.8,0.8,4.4-1.7c0.6-2.3,1.1-4.6,1.6-7.2c2.4-0.1,3.5-1.5,4.2-3.4
		C245.9,177.7,246.8,177.5,247.2,177.2c0-0.2-0.1-0.4-0.2-0.6c0.1,0,0.2,0,0.3,0C247.3,176.8,247.2,177,247.2,177.2z"/>
	<path  fill="none" stroke="#ffffff" stroke-miterlimit="10" d="M235.1,102.2c1.9-1.9,3.5-3.7,5-5.2c3.3,0,6.4,0,9.4,0
		c0.6,0,1.2,0.3,1.9,0.5c0.6,4-0.5,7.6-1.1,11.4c-0.1,1-1.7,1.7-2.7,1.4c-1-0.4-2-0.9-2.9-1.5C241.7,106.7,238.7,104.6,235.1,102.2z
		"/>
</g>
<g>
	<path  fill="none" stroke="#ffffff" stroke-miterlimit="10" d="M1271.7,182.4c-1.9,3.6-2.1,7.1-2.5,10.6c-0.3,3.2-0.9,6.3-1.6,9.4
		c-1.4,5.9-3,11.8-4.6,17.6c-0.9,3.4-1,6.7,0.5,9.8c1.3,2.7,1.3,5.2-0.3,7.7c-2.8,4.6-3.4,10-5.2,14.9c-0.4,1-0.5,2.3-0.2,3.3
		c0.5,2.1,0,3.7-1.5,5.5c-1,0-2.1,0.1-3.2,0c-3-0.2-4.9,1.4-6,3.9c-2,4.4-4.5,8.4-7.1,12.4c-1.4,2.3-2.7,4.7-3.8,7.2
		c-0.8,1.7-1.7,3.2-3.3,3.9c-1.8,0.8-2.3,2-2.1,3.8c0.2,1.9-0.6,3.6-1.7,4.8c-3.2,3.4-3.9,8-6,11.9c-1,1.8-0.6,3.7,0.5,5.5
		c0.8,1.4,1.5,2.8,2.2,4.2c0.3,0.5,0.5,1.2,1,1.5c2.2,1.5,4.4,3.1,7.2,3.5c3.4,0.5,6.7-0.3,10-0.9c1.1-0.2,1.8-1.7,1.1-2.7
		c-1.9-2.9-2.6-6.4-5.6-8.7c-2.6-2-2.4-2.2-0.4-5.3c0.2-0.3,0.4-0.6,0.4-0.8c0-2.1,1.6-2.5,3.2-2.8c1.1-0.2,2.1-0.3,3.1-0.4
		c0.7-2.7-2.1-2-2.9-3.7c0.8-2.2,2.1-4.1,4.5-5.1c3-1.3,5.4-3.4,7.7-5.7c1.5-1.5,2.9-3,4.4-4.4c1-1,2.2-1.9,3.3-2.7
		c9.8-6.9,18.6-14.7,23.8-25.8c0.4-0.9,1.4-1.7,2.3-2.3c1.9-1.1,3.9-2,5.8-3c3.7,2.2,3.8,2.1,5.3,5.3c2,4.3,4,8.7,5.6,13.2
		c1.2,3.2,2.8,6.1,5.2,8.4c2.1,2.1,4.5,2.6,7.4,1.4c0.5-0.2,0.9-1,1.7-0.1c-0.7,3-1.7,6-4.2,8.2c-0.7,0.6-1.4,1.3-2.1,2
		c-2.5,2.2-2.1,4.7-0.8,6.9c0.7,1.2,1.6,2.3,2.4,3.5c-0.6,1-1.2,1.8-1.5,2.7c-1.6,3.6-0.3,6.4,3.5,7.3c2,0.5,4.1,0.7,6.1,1
		c3.5,0.5,6.9,1.2,10.4,1.5c3.8,0.3,7.7,0.3,11.5,0.3c1,0,1.9-0.3,2.3-1.4c0.3-1.1-0.3-1.9-1.2-2.4c-2.1-1.2-4.1-2.4-6.3-3.4
		c-2.8-1.2-5.4-2.6-7.8-4.5c-1.9-1.5-2.2-2.1-0.9-3.8c1.9-2.5,3-5.2,3-8.3c0-0.9,0.4-1.9,0.7-2.8c0.5-1.5,1.1-3,1.7-4.4
		c1.1-2.5,2.2-5,3.3-7.4c0.6-1.3,1.3-2.6,1.6-4c1.6-6.2,2.9-12.4,4.5-18.6c0.8-3,0.3-5.6-1.3-8.2c-2.2-3.7-4.2-7.5-6.3-11.3
		c-6.9-12.5-13.4-25.1-22.7-36.1c-0.9-1.1-1.9-2.2-1.7-3.8c0.2-1.8-1.1-2.9-2.5-4c1-1.9,0.5-3.8-0.5-5.4c-0.7-1.2-1.8-2.2-2.7-3.3
		c-1.1-1.4-1.2-2.9-0.1-4.3c0.2-0.2,0.4-0.5,0.7-0.7c2.3-1.4,2.6-3.4,2.1-5.8c-0.3-1.5-0.3-3.1-0.4-4.9c10.1-2.2,19.4-5.8,29.1-9.1
		c0.1-2.1,0.2-4,0.3-6c4.1-2.2,8.3-4.5,12.5-6.8c0-0.9,0.2-1.6,0-2.1c-2.1-4.3-4.2-8.5-6.2-12.6c0.3-3.6,0.6-6.9,1-10.2
		c0.1-0.9,0.4-1.9,0.9-2.6c1-1.4,2.2-2.7,3.4-4.1c0.7,0.3,1.3,0.5,1.8,0.8c0.6,0.3,1.1,0.6,1.7,0.9c1,0.4,1.8,0.1,2.4-0.8
		c0.8-1.2,0.7-2.1-0.3-3c-1.2-1.1-2.3-2.1-3.5-3.2c-0.7-4.2-4.3-5.1-7.3-6.6c-1.9,0.3-2.9-1.2-4.1-2.1c-1.8-1.2-3.4-2.8-5-4.1
		c-1.3,0.3-2.3,0.6-3.5,0.8c0-1.4,0-2.4,0-3.6c-1.1-0.5-2.1-0.9-3-1.3c-1.2,0.9-2.2,1.6-3.1,2.2c-0.6-0.1-0.9,0-1.2-0.2
		c-1.3-0.6-2.6-1.2-3.9-1.8c-14.9-7.5-30.2-13.9-46.1-19c-1.4-0.4-2.7-0.9-4.1-1.2c-1.1-0.2-2.3-0.1-2.9,1.3
		c1.4,0.5,2.7,0.9,4.1,1.4c9,3.4,18,6.6,26.8,10.4c8.2,3.6,16.1,7.8,24.1,11.8c0.5,0.3,0.9,0.8,1.3,1.2c-0.4,1.4-0.7,2.6-1,3.6
		c1.3,2.2,3.6,1.6,5.5,2.4c0.5,1,1.2,2.1,1.7,3.2c1.1,2.4,1.7,4.7,0.4,7.4c-0.5,1.1-0.6,2.5-0.4,3.7c0.7,3.3-0.5,5.9-2,8.5
		c-3.2,1.1-6.2,2.2-9.2,3.2c-0.9-0.4-1.8-0.8-2.7-1.2c-2.6-1.3-5.2-2.3-8.3-1.9c-0.5,0.1-1.1-0.4-1.5-0.6c0.7-2.6,1.6-4.8,2-7.1
		c0.5-3.1,0.5-6.4,0.8-9.5c0.3-2.5-0.4-4.7-1.3-7c-1-2.5-2.8-4.3-4.5-6.1c-8.1-8.6-20.8-2.5-22.4,5.3c-0.8,3.9-1.8,7.8-1.6,11.8
		c0.2,3.7,0,7.3,0,11c0,0.3-0.1,0.6-0.2,0.9c-1.3,4-4.3,7.5-8.5,9.8c-0.7-1.6-1.4-3.2-2.2-4.8c-0.2-0.4-0.7-0.6-1.1-0.8
		c-1.5,0.3-2.8,0.9-3.3,2.6c1.3,3.2,2.6,6.5,4,9.7c0.7,1.6,0.7,3.1-0.3,4.5c-0.4,0.5-0.7,1.1-0.9,1.7c-1.3,2.7-2.7,5.4-3.9,8.2
		c-1.3,2.7-2.4,5.5-3.7,8.4c2.3,1,4.4,1.9,6.8,2.9c-1.2,5.9-2.4,11.4-3.5,17.3C1266.9,180.7,1269,181.4,1271.7,182.4z"/>
	<polygon  fill="none" stroke="#ffffff" stroke-miterlimit="10" points="1341.6,107.7 1341.5,107.4 1341.8,107.5 	"/>
</g>
<g>
	<path  fill="none" stroke="#ffffff" stroke-miterlimit="10" d="M570,260.3c1.5-1.8,2.8-3,3.7-4.5c1.8-3,3.9-6,5-9.2
		c1.4-3.9,4.1-6.8,6.4-9.9c1.5,0.7,2.7,1.4,4.1,1.9c1.8,0.7,3,1.7,3.2,3.8c0.2,1.4,1,2.3,2.2,2.9c0.7,0.4,1.3,0.9,1.9,1.5
		c4.9,5.2,10.4,9.5,16.4,13.2c0.7,0.5,1.3,1.2,1.8,1.7c-2.6,4.1-4.8,7.9-7.3,11.6c-1.9,2.8-1.4,5.5,0.1,8.1c1,1.7,2.1,3.2,3.2,4.8
		c1.6,2.3,2.4,4.9,1.9,7.7c-0.1,0.5-0.2,0.9-0.2,1.4c-0.5,3,0.5,5.4,3.2,6.9c1.2,0.7,1.8,1.7,2.5,2.7c0.4,0.6,1.1,0.9,1.7,1.3
		c2.3-1.5,3-3.5,3.2-5.9c0.3-4.8,0.8-9.6,0-14.4c-0.2-1.3,0-2.5,0.9-3.6c3.5-0.6,3.5-0.6,7.1-4.1c0-0.2,0.1-0.3,0.1-0.5
		c0.3-3.1-0.6-6.4,1.1-9.4c1.6-2.8,1.6-6.5,4.5-8.7c0.4-0.3,0.5-1.2,0.6-1.8c0.4-4.3,2.2-8,4.4-11.5c0.6-0.9,1.3-1.9,1.5-3
		c0.6-4.3,0.7-8.6-1.7-12.6c-1.8-3-3.5-6.1-5.2-9.2c-1-1.8-2.4-3.4-4.1-4.6c-1.3-0.9-2.7-1.8-3.9-2.7c-4.8-3.6-9.6-7.4-14.5-11
		c-1.5-1.1-2.6-2.2-3-4.1c-0.4-2-1.5-3.6-3.1-4.7c-1.4-1-3-1.8-4.5-2.6c-1.2-0.6-2-1.4-2-3.1c0.7-0.5,1.4-1.1,2.1-1.6
		c1.7,0.9,3.2,1.8,4.8,2.5c2,0.8,3-1.2,4.5-1.8c1.3,0.9,2.6,1.8,3.9,2.8c1.4,1,1.6-1.1,2.6-1c1.7,0.1,3.1,1.6,5.3,1
		c-1.4-1.5-2.6-2.7-3.7-3.9c1.1-1.6,2.7,0.9,4.1-0.8c-5-2-8.8-4.9-10.1-10.4c2.2-1.5,2.5-4.6,4.8-6.3c0.4-0.3,0.6-1.2,0.5-1.8
		c-0.6-2.1,0.2-4.1,0.5-6.1c1-7,2.1-14-2-20.4c-1.8-1.1-3.5-2.3-5.3-3.2c-2-1-4.1-1.6-6.3-2.4c-0.3-2.6-0.4-5.1-0.9-7.6
		c-0.7-4.2-2.3-8-6-10.5c-4.6-3-13.5-4-19,3.1c-1.1,1.4-1.8,3-2.7,4.5c-0.4,0.6-0.8,1.3-1.3,2c-1.7-1.3-2.7-2.6-3-4.3
		c2.1-3.4,2.1-3.7-0.6-7.3c-1.2,0.3-2.5,0.7-3.9,1.1c-3.4-3.9-6.8-7.5-9.6-11.4c0.5-1.3,0.8-2.4,1.4-3.8c-2.3,0.1-3.6-1.2-4.6-2.9
		c-1.5-2.6-4-3.5-6.7-4.1c-1.9-0.4-3.2,0.8-3.7,2.8c-0.3,1.4-0.5,2.8-1,4.2c-0.9,2.9-1.9,5.8-2.9,8.6c-0.2,0.6-0.6,1.1-0.8,1.5
		c-0.5,0.2-0.8,0.4-1.1,0.4c-3.6,0-6.6,1-8.5,4.3c-0.6,1.1-1.7,1.4-2.8,1.7c-2.2,0.5-4.4,1-6.5,1.6c-2.2,0.6-4.2,1.5-4.7,3.5
		c1.2,3,2.2,5.5,3.2,8c0.6,1.3,1.1,2.7,1.9,3.8c2.4,3.5,4.1,7.2,5,11.3c0.2,0.7,0.7,1.5,1.3,1.9c3.2,2.4,6.2,5,10.2,6.1
		c1.5,0.4,2.9,1.3,4.4,1.8c5,1.5,8.5,5,11.5,9c2.5,3.3,3.6,7.3,3,11.3c-0.5,3.3,0.1,5.6,2.5,7.7c0.4,0.4,0.7,0.9,1.2,1.5
		c-1.3,2.6-2.6,5-3.8,7.4c-0.4,0.8-0.9,1.9-1.6,2.3c-2,1.2-2.6,3-2.9,5.2c-0.1,1.1-0.7,2-1.7,2.7c-2.9,1.8-3.6,4.8-3.2,7.9
		c0.3,2,1,4,1.5,6c0.4,1.4,0.7,2.8-0.1,4.2c-2.4,4.1-4.4,8.6-8,11.9c-0.6,0.5-1,1.2-1.5,1.8c0.1,0.9,0.3,1.7,0.3,2.5
		c-0.1,4-0.1,8-0.4,12c-0.1,2.3,0.2,4.5,1,6.6c0.5,1.5,1,3,1.7,4.5c0.9,2.1,1.3,4.2,1.1,6.5c-0.2,2.7-0.1,5.5,1.2,7.4
		c2.5,1.7,4.6,3.2,6.7,4.5c1.5,0.9,2.3,2.2,2.1,4c-0.3,3.2,1,5.3,3.7,7.2c3.7,2.7,4.4,5.9,2.5,10.1c-0.9,2-1.3,3.9-1,6
		c0.3,3,0.6,6,1,9c0.2,2,1.1,3.6,2.5,5c1.4-0.1,2.7,0,3.9-0.2c2.6-0.5,4.2-2.4,4.2-5.1c0-0.6,0-1.3-0.2-1.9c-1.1-3.4,0-6.6,0.9-9.9
		c1.3-0.4,2.5-0.7,3.7-1.3c2.7-1.2,3.4-4,1.6-6.4c-0.5-0.7-1.4-1.3-1.9-1.8c-0.1-1.8-0.2-3.4-0.3-4.8c-1.5-1.2-2.8-2.1-3.9-3.2
		c-1.4-1.4-2.1-3.2-1.4-5.2c0.7-2.2,1.4-4.5,2.2-7c-0.3-0.7-0.8-1.7-1.2-2.7c0.9-1.3,1.7-2.5,2.4-3.7c1-1.8,0.6-3.6-1.2-5.1
		C571.4,261.1,570.8,260.8,570,260.3z"/>
	<path  fill="none" stroke="#ffffff" stroke-miterlimit="10" d="M564.4,119.6c-1,2.3-0.8,4.4,0.9,6.6c1.4-0.4,2.8-0.8,4.3-1.2
		c3.2,2.1,3,6.2,5.5,8.6c-1.2,1.3-2,0.8-2.7,0.1c-3.6-3.4-12.8-8.6-17.3-9.7c-1.7-0.4-3.4-0.5-5,0.7c-0.9,0.6-2,1-3,1.5
		c-1-3.5-1.1-3.6-0.5-4.9c1.1-2.4,1.4-5.2,3.9-6.9c1.9-1.3,3.6-3.1,5.4-4.7c2.1,1.4,3.2,3.4,4.6,5
		C561.9,116.2,563.1,117.9,564.4,119.6z"/>
</g>
<g>
	<path  fill="none" stroke="#ffffff" stroke-miterlimit="10" d="M924.8,204.6c0-0.3,0-0.7,0.1-0.8c1-0.5,2-0.9,3.1-1.3
		c4.8-2,8.1-5.3,8.3-10.7c0.2-3.9,2.1-6.1,5.5-7.7c1.7-0.8,3.4-1.8,4.9-3c1.6-1.4,3.4-2.3,5.2-3.3c3.2-1.8,6.3-3.7,9.2-6
		c6.3-4.9,12.5-9.9,18.7-14.9c1.1-0.9,1.9-2.1,2.9-3.2c1.9-1.9,3.8-3.8,5.8-5.7c0.7-0.7,1.5-1.2,2.2-1.8c1.6-1.5,2-2.7,0.9-4.7
		c-1.4-2.4-1.9-4.9-2-7.7c-0.1-3.7-1.4-6.9-5.5-8.1c-0.3-0.1-0.5-0.4-1-0.8c0.1-1.1-0.1-2.4,0.4-3.5c0.7-1.8,0.8-3.3-0.1-5
		c-0.5-0.9-0.5-2.6-1.1-2.9c-2.1-0.9-4.1-1.5-6.2-1.7c-1.9-0.2-4.1-1.1-5.6,1.1c-0.1,0.1-0.3,0.1-0.5,0.1c-2.5-0.5-5.4-0.5-7-2.5
		c-2.5-3.1-5.9-4.1-9.3-5.4c-1.3-0.5-2.6-0.9-4.1-1.4c-0.6,1-1.4,2.2-2.1,3.4c-1.1-0.1-2,0-3-0.2c-5.8-1-11.6-2.1-17.5-3.1
		c-15.3-2.8-30.7-4.3-46.2-5.3c-1.7-0.1-3.5,0-5.2,0.2c-0.7,0.1-1.4,0.8-2.9,1.7c19.2,1.6,37.4,3.2,56.1,7.2
		c-1.2,0.8-1.8,1.3-2.5,1.6c-2.5,1.2-5.2,1.5-7.9,1.8c-3.9,0.5-7.4,2-9.3,5.9c-2.7,5.6-5,11.4-6,17.6c-0.4,2.5-1.1,5-1.6,7.5
		c-1.4,7.9-3.1,15.7-3.2,23.7c0,1.1-0.3,2.2-0.9,3.2c-3.5,5.8-6,12-7,18.8c-0.8,0.3-1.6,0.7-2.3,0.8c-2.5,0.2-4.1,1.6-5.2,3.7
		c-0.8,1.6-1.8,3.1-2.4,4.7c-0.9,2.2-2.2,4.2-3.8,6.1c-3.5,3.9-5.4,8.7-6.6,13.7c-0.3,1.2-0.5,2.6-0.1,3.8c1.6,4.6,1.9,9.3,1.9,14.1
		c0,2.4,0,4.3-1.8,6.1c-1.6,1.4-2.5,3.4-2.5,5.6c0,1.6-0.2,3.3,0.3,4.8c1.1,4,0.5,7.9-0.1,11.9c-0.3,2.2-1.3,4.3-0.5,6.6
		c0.7,2-1,4.4,0.7,6.4c0.3,0.3,0.1,1.3-0.2,1.8c-1.3,2.2-0.7,4.3,0.3,6.5c0.9,0.4,1.9,0.8,2.8,1.1c0.5,1.8,1,3.5,1.3,5.1
		c0.2,0.8,0.2,1.6,0,2.4c-0.7,3.2-1.7,6.4-3.1,9.4c-1.4,3.1-1.6,6.4-1.3,9.7c0.4,3.2,1.9,4.4,5.1,4.6c1.4,0.1,2.9,0.1,4.3,0
		c2.5-0.2,3.6-1.4,3.9-4c0.2-1.6,0.2-3.2,0.5-4.8c0.4-1.8,0.5-3.9,2.1-5.2c2.1-1.8,2-3.8,0.8-6c-0.5-0.8-0.8-1.7-1.1-2.6
		c-1.1-3.4-1.3-6.6,2.4-8.8c1.2-0.7,1.7-2,1.7-3.3c0-1.5-0.3-3.1-0.5-5c1.2-2.9,4.7-2.6,7.4-3.8c0-0.9,0.1-1.6,0-2.2
		c-0.5-2.1,0.3-3.6,1.6-5.2c3.4-4.1,3.3-4.2,0.4-8.7c-0.2-0.3-0.2-0.6-0.4-1.3c0.3-1.3,0.7-3,1.2-4.7c0.4-1.3,1.2-2.1,2.6-2.5
		c2-0.5,3.9-1.2,6-1.9c3.5,1.6,7,3.5,11.3,2.5c0.8-0.2,1.9,0.3,2.6,0.9c3.5,2.7,7,5.5,10.5,8.4c0.6,0.5,1,1.2,1.4,1.9
		c0.7,1.2,1.7,1.8,3.1,2.1c1.8,0.3,3.4,1,4.6,2.4c1.1,1.4,2.6,0.4,3.9,0.6c0.7,0.9,1.3,1.8,2.1,2.9c-1.4,2-2.5,4.2-4,6
		c-1.5,1.8-4.1,2.4-5.4,4.5c0,0.5-0.1,0.8,0.1,1.1c1,1.8,1.9,3.6,0.8,5.8c-0.6,1.2,0.1,2.5,1,3.5c0.9,0.9,1.7,1.9,2.8,2.6
		c4.5,2.7,7.7,6.7,10.1,11.3c1.4,2.7,3.5,4,6.3,4.7c1.2,0.3,2.5,0.5,3.8,0.7c0.5,0.1,1.1-0.2,2.1-0.4c-1.6-3-2.8-5.7-4.5-8.2
		c-2.2-3.2-1.8-7-2.8-10.5c-0.4-1.3,0.6-3,0.9-4.4c3.8-1.6,4-1.8,3.5-5.7c-0.2-1.4-0.2-2.9-0.1-4.3c0.4-3.3,1.5-6.4,2.7-9.6
		c1.2-3.3,2.3-6.6,3.9-9.7c0.4-0.7,0.5-1.5,0.6-2.3c0.8-5.9,1.6-11.7,2.3-17.6c0.6-5.2-0.7-7.8-5.4-10.1c-5.2-2.5-10.5-4.7-15.8-7
		c-1.6-0.7-3.2-1.4-4.4-2.8c-2-2.2-4.5-3.5-7.4-4.2c-1.6-0.4-3.1-0.8-4.6-1.3c-0.7-0.2-1.8-0.5-2-1.1
		C929,207.1,926.5,206.3,924.8,204.6z"/>
	<path  fill="none" stroke="#ffffff" stroke-miterlimit="10" d="M975.1,126.7c-1.2,2.5-1.7,5.3-1,8.1c-1.8,2.2-3.4,4.3-5.2,6.5
		c-0.5-0.3-1-0.4-1.3-0.7c-4.4-5.7-11-7.4-17.2-10c-1.2-0.5-2.3,0-3.1,0.9c-1.6,1.7-3.2,3.6-4.7,5.4c-0.7,0.9-1.3,1.8-1.9,2.7
		c-0.7,1-1.5,1.5-2.7,1.8c-3.1,0.9-6.1,2-9.3,3.1c-3.3-2.9-3-6.7-2-10.4c0.8-2.9,2.4-5.5,3.7-8.3c2.5-0.3,4.9-0.6,7.2-1
		c3.2-0.5,6.2-1.4,8.6-3.8c0.6-0.6,1.6-1.3,2.4-1.3c3.7,0.2,6.4-1.6,9-4.3c2.8,0.7,5.5,1.4,8.1,2c0.4,0.6,0.8,0.9,0.9,1.3
		c0.6,1.9,1.8,3.2,3.6,4.2C972.1,123.9,974.1,124.5,975.1,126.7z"/>
</g>
<g>
	<path  fill="none" stroke="#ffffff" stroke-miterlimit="10" d="M399.9,156.4c-2.2-2.5-4.2-4.5-6-6.8c-1.8-2.4-4.2-3.9-6.9-4.9
		c-3.6-1.3-7.2-2.5-11.2-2.4c-1.7,0.1-3.5-0.2-5.2-0.5c-1.8-0.4-3.1,0.2-4.4,1.3c-1.3,1.2-2.5,2.5-3.9,3.5c-1.7,1.1-2.3,2.6-1.9,4.5
		c0.2,0.8,0.3,1.6,0.5,2.3c0.6,1.8,0.2,3.4-1,4.9c-2.6,3.4-5.1,6.9-7.7,10.3c-0.3,0.4-0.6,0.7-1,1c-1.9,1.7-3.6,3.7-4.7,6
		c-0.6,1.2-1.5,2-2.9,2.3c-0.6,0.1-1.3,0.2-1.9,0.4c-1.3,0.4-1.7,1.2-1.6,2.5c0.1,0.5,0.2,1,0.4,1.4c0.7,1.6,0,2.8-0.9,4
		c-1.9,2.2-4.2,3.5-7.1,2.6c-1.8-0.6-3.6-1.3-5.2-2.3c-1.6-1-2.9-2.5-4.3-3.8c-1.1-1-2.2-1.9-3.8-1c-1.8,4-1,7.8,1,11.4
		c0.9,1.7,2.1,3.2,3.3,4.7c1.2,1.5,2.6,2.8,4,4.1c1.4,1.2,3,2.3,4.6,3.4c1.5,1.1,3,0.8,4.4-0.4c0.9-0.7,1.6-1.5,2.5-2.2
		c0.9-0.7,1.7-1.5,2.7-1.9c0.9-0.4,2.1-0.4,3-0.6c0.4-1.2,0.5-2.9,1.2-3.2c2.8-1.1,3.3-4.3,5.3-5.8c5.1-0.6,7.1-1.8,10-5.8
		c2-2.7,4.5-4.9,7.6-6.5c0.2-0.1,0.6,0.1,1.1,0.2c0.4,1.2,0.8,2.6,1.2,4c4.8-0.6,7.3,1.8,8.3,6c0.8,0.3,1.4,0.7,1.9,0.8
		c2,0.1,3,1.4,4,2.9c2.9,4.2,4.5,8.7,4.5,13.9c0,1.1,0.3,2.2,0.4,3.3c1,7.8,2.3,15.5,2.2,23.4c0,7.9,0.8,15.7,2,23.4
		c0.5,2.9,1.3,5.9,2.5,8.6c1.7,3.8,1.8,8.4-0.3,11.8c-1.3,2-2.5,4.1-3.8,6.1c-1.7,2.6-1.6,5.1,0.7,7.4c0.5,0.4,0.9,0.9,1.4,1.5
		c0.1,1.4,0.8,3.2,0.2,4.1c-1.4,2.1-0.4,3.2,1.2,4.5c-0.9,3.5-1.8,6.9-2.7,10.2c-1.1,3.9,0.2,6.4,4.1,7.8c1.1,0.4,2.1,0.6,3.2,0.9
		c3.4,0.9,6.8,1.7,10.2,2.6c2.6,0.7,5.2,1.5,8,1.2c2.7-0.3,5.3-0.9,6.9-3.4c-0.4-1.7-1.8-2.2-3.1-2.9c-1.8-1-3.6-2.1-5.3-3.2
		c-2.7-1.7-5.3-3.6-7.8-5.3c-0.5-2-1-3.9-1.6-5.8c0.6-0.6,1-1.2,1.6-1.7c1.2-1,1.8-2.2,1.7-3.8c-0.3-3.9,0.9-7.6,1.6-11.3
		c0.4-2,0.9-4,1.7-5.9c2.6-6.3,5.4-12.6,8.1-18.9c0.4-0.9,0.6-1.8,1-2.7c1.5-3.9,2.9-7.8,4.5-11.6c1.1-2.7,2.1-5.4,2.3-8.3
		c0.3-4.1,0.5-8.3,0.8-12.5c0.4-6.7-1-13-4-19c-2.4-4.8-2.3-4.8-0.6-10c0.1-0.3,0.1-0.6,0.3-0.9c1.4-2.3,1.7-4.8,0.9-7.4
		c-0.4-1.3-0.1-2.5,0.8-3.6c2.6-3.1,5-6.2,7.7-9.2c0.6-0.7,1.3-1.9,2.9-1.4c0,1.8,0.1,3.7,0.1,5.6c0,2.7,0,5.4,0,8.1
		c0,0.4,0.4,0.8,0.7,1.5c1.2-0.2,2.3-0.5,3.5-0.7c0.6-6-0.3-11.7,0.5-17.4c0.7-0.1,1.2-0.4,1.6-0.3c2.3,0.2,2.5,0.5,2.6,3
		c0,0.5,0,1,0.1,1.4c0.1,0.2,0.5,0.6,0.7,0.5c0.4-0.1,1-0.2,1.2-0.5c0.3-0.5,0.4-1.2,0.3-1.8c-0.2-2,0.5-3.6,1.7-5.2
		c2.2-3.1,4.3-6.3,5.9-9.8c1.9-4,4.4-7.9,8-10.6c2.1-1.5,3.2-3.5,4-5.8c0.5-1.5,1.1-3,1.6-4.5c1.4-4.4,0.4-7-3.6-9.1
		c-2.3-1.2-4.5-2.3-6.8-3.6c-1.4-0.8-1.8-1.7-1-3.2c0.8-1.6,1.7-3.1,2.7-4.5c1.4-2,2.2-4.2,2.5-6.7c0.2-1.6,0.2-3.2,0.4-4.8
		c0.6-6.2-3-10.1-7.5-13.6c-0.5-0.4-1.2-0.4-1.8-0.5c-7-0.3-13,1.5-16.6,8.2c-0.4,0.7-0.6,1.5-1.8,1.1c-0.3-1.8-0.6-3.7-0.9-5.2
		c1-1.6,1.8-3,2.5-4.1c-0.9-1.1-1.9-1.8-2.1-2.7c-0.6-2.9-2-5.3-3.5-7.8c-0.2-0.4-0.5-0.8-0.9-1.3c-1,0.2-2.1,0.4-2.8,0.5
		c-1.1,2.7-2,5.1-2.9,7.5c-0.7,1.8-1.9,2.9-3.7,3.5c-2,0.6-4,1-6,1.7c-1.5,0.5-2.7,0.4-4-0.6c-1.4-1-3-1.8-4.8-1.7
		c-3.6,0.3-7.3,0.4-10.8,1.6c-2.4,0.8-4.9,1.4-7.5,0.7c-1.1-0.3-2.4-0.1-3,1c-2.1,3-4.3,6.1-3,10.2c0.4,1.2,0.5,2.5,0.9,3.7
		c1.7,4.8,3.5,9.6,5.2,14.4c1.3,3.6,3.7,6.3,6.7,8.5c1.1,0.8,2.2,1.7,3.3,2.6c-1.3,2.1-3.6,3.1-4,5.8c0.7,0,1.4,0.2,1.8,0
		c1-0.7,1.9-1.7,2.9-2.4c1.6-1.1,3.2-0.9,4.4,0.5c-0.9,0.8-2.3,1.5-2.3,2.2c0,1.8,1.8,1.2,3,1.4c0.4,0.1,0.8,0.2,1.6,0.5
		c-0.5,0.8-0.8,1.6-1.4,2c-1.4,1.1-2.9,2-4.3,3c-1.1,0.8-1.9,1.7-2.1,3.3c0.5,0.8,1.1,1.7,1.6,2.7c0.5,1,0.2,1.9-0.7,2.5
		C401.7,155.8,400.9,156,399.9,156.4z"/>
	<path  fill="none" stroke="#ffffff" stroke-miterlimit="10" d="M416.2,103.8c1.4-1.9,2.5-3.2,3.7-4.7c4.2-0.5,8.4-1.1,12.9-1.6
		c1.6,3.8,1.5,7.7,2.2,11.6c-0.7,0.5-1.4,0.8-2,1.3c-0.6,0.5-1.1,1-1.8,1.6c-1.1-1-2-2.1-3.1-2.9c-1-0.7-2.4-0.8-3.6-1.3
		C421.9,106.6,419.4,105.4,416.2,103.8z"/>
</g>
<g>
	<path  fill="none" stroke="#ffffff" stroke-miterlimit="10" d="M1137.5,170.7c-1.6-0.5-2.3-1.6-2.1-3.3c0.1-1.1,0.2-2.3,0.7-3.3
		c0.3-0.8,1.2-1.3,1.9-2c-2.4-3.8-1.6-7.8-1.4-11.7c0-0.7,0.5-1.5,1-2c4.4-5.1,7.7-10.9,10.3-17.2c1.1-2.7,2.2-5.3,2.5-8.2
		c0.2-2.6,1.1-5,3.2-6.8c2.1-1.9,2.6-4.2,2.3-6.9c-0.6-5.6,0.9-10.7,3.2-15.7c0.7-1.4,0.9-2.7,0.1-4.1c-0.4-0.7-0.8-1.3-1.2-2.1
		c0.9-1.2,1.6-2.2,2.4-3.2c3.1-4.2,3-5.3-0.9-8.7c-0.4-0.3-0.7-0.7-1.1-0.9c-2.5-1.5-4.6-1-5.9,1.6c-0.8,1.6-1.7,2.6-3.4,3.1
		c-0.5,0.1-1,0.5-1.7,1c1.4,1.3,2.5,2.3,3.4,3.2c-0.7,2.3-1,4.4-1.9,6.2c-2.7,5.4-4.1,11.4-7.3,16.6c-0.6,1-1.1,1.9-2.2,2.4
		c-1.6,0.6-2.4,1.9-3.4,3.2c-1.3,1.9-3.1,3.2-5.9,2.6c-0.1-0.7-0.2-1.5-0.4-2.2c-0.6-2.5-1-5-1.9-7.4c-1.8-5-5.3-7.9-10.7-8.2
		c-5.7-0.4-10,1.8-12.7,6.8c-0.5,1-0.8,2.1-1.3,3.1c-0.4,0.9-0.7,1.7-1.1,2.5c-2-0.6-3.9-1.1-5.7-1.6c-1.5-2.1-2.9-4.2-4.1-5.8
		c0.4-2.1,0.7-3.6,1-5.5c-1.2,0.1-2.1,0.2-2.8,0.3c-3.1-3.2-6-6.2-8.9-9.2c-2.9,1.4-3,1.7-2.2,3.8c0.3,0.9,1,2,0.7,2.6
		c-1.3,2.9-1.3,6.2-3.1,8.8c-7.4,1-8.9,1.7-13.2,7c-0.6,0.7-1,1.6-1.6,2.4c-1.6,2.1-4.6,2.8-5.5,5.6c-0.1,0.2-0.5,0.4-0.8,0.5
		c-0.7,0.3-1.5,0.6-2.2,0.9c-0.7,0.3-1.4,0.9-2.2,1c-2.2,0.3,0.6,3-1.6,3.3c-0.1,0-0.3,0.7-0.3,0.7c1.6,1.3,0.2,2.9,0.3,4.3
		c2.6,0.4,3.4,0.8,3.1,2.2c-0.4,1.8,0.5,2.7,1.5,3.7c1.1,1,2.5,1.6,3.2,2.8c2.2,3.4,5.5,3.9,9.1,4c1.4,0.1,2.9,0.2,4.3,0.4
		c2.8,0.4,5,1.6,6.8,3.9c2.7,3.3,6,6.2,8.9,9.3c0.7,0.8,1.3,1.8,1.8,2.7c1.5,2.6,1.7,5.5,1.6,8.4c-0.2,3.9,1,6.9,4.3,9
		c0.2,0.2,0.4,0.5,0.8,1.1c-0.7,1.7-1.5,3.6-2.4,5.5c-1.6,3.3-3.2,6.6-4.7,10c-1.5,3.4-2,7-1.8,10.8c0.2,2.2,0,4.5-0.4,6.7
		c-0.6,2.8-0.4,5.4,1.1,7.8c1,1.6,1.1,3.2,0.8,5c-1,7.1-1.8,14.3-2.7,21.4c-0.3,2.7-0.7,5.3-1.8,7.9c-0.7,1.7-0.3,3.8-0.9,5.6
		c-0.5,1.8-1.6,3.4-2.5,5.1c-0.1,0.3-0.1,0.6-0.2,0.9c-0.6,2.8-1.3,5.6-1.7,8.4c-0.2,1.9,0,3.8,0.1,5.7c0.1,1.1,0.5,2.3,0.3,3.3
		c-0.6,2.9,0.1,5.7,0.7,8.7c-2,2.2-2.1,4.9-0.6,7.4c1.2,2,2,4.2,1.6,6.3c-0.5,2.5,0.1,4.7,0,7.1c0,0.3-0.2,0.6-0.3,0.9
		c-2,4.3-4,8.6-5.9,13c-0.8,1.7-1.3,3.6-1.7,5.4c-0.1,0.6,0.4,1.9,0.9,2c2,0.5,3.8,1.5,6,1.1c3.8-0.7,6.8-2.1,6.8-6.6
		c0-0.5,0.3-0.9,0.4-1.4c0.7-3.3,1.5-6.5,4.3-8.8c1.7-1.4,2.1-3.6,1.3-5.7c-1.2-3.1-0.8-6.3-0.8-9.4c0-1.2,0-2.5,0-4
		c4-4,5.8-9.4,6.8-15.2c0.4-2.5,0.8-5.1,1.2-7.8c4.1-2.3,5.9-6,5.6-10.7c-0.1-2.2,0.8-4,1.9-5.8c2.4-4,5-7.7,6.2-12.4
		c0.7-2.9,2.9-5.1,5.8-6.7c7.2-3.9,14-8.4,20.3-13.6c0.6-0.5,1.3-0.8,1.8-1.2c2,1.1,3.1,2.7,3.8,4.5c0.8,1.9,1.6,3.8,2.3,5.8
		c1.5,4.6,4.8,6.4,9.2,6.6c0.2-0.3,0.4-0.5,0.4-0.6c-0.1-0.6,0-1.3-0.3-1.9c-1.9-4.5-2.1-9.3-2.1-14.1c0-0.6,0.2-1.3,0.4-1.8
		c0.8-1.4,1.6-2.7,2.6-4c0.3-0.4,0.8-0.5,1.1-0.7c1.3,0.3,2.5,0.5,4,0.8c0.7-1.9,1.5-3.7,2.1-5.5c0.6-1.7,1.4-3,3-4.1
		c2.7-1.8,4.7-4.6,5.3-7.7c0.6-3.2,2.3-5.1,4.9-6.6c2.4-1.3,4.6-2.8,6.8-4.1c0.1-1,0.2-1.6,0.2-2.2c0.2-3.5-1.7-6.4-2.5-9.6
		c-1.1-4.2-3.9-5.9-7.5-7.1c-2.8-0.9-5.6-1.4-8.5-1.3c-3.8,0.2-7.7,0.2-11.5,0.4c-1.3,0.1-2.7,0.1-3.7,0.7
		c-4.1,2.4-8.7,3.9-12.3,7.1c-1.5-0.3-2.2-2-4-1.3c-1.1,0.4-1.5-0.6-1.3-2.6c1.1-0.2,2.2-0.3,3.2-0.7c0.7-0.3,1.2-1,0.8-1.9
		c0.3-0.1,0.6-0.2,0.9-0.3c-0.1-0.1-0.2-0.2-0.2-0.2C1137.9,170.3,1137.7,170.5,1137.5,170.7z"/>
	<path  fill="none" stroke="#ffffff" stroke-miterlimit="10" d="M1088.3,104.9c2.1,2,3.1,4.3,4.8,6.5c-0.8,1.3-1.5,2.5-2.2,3.6
		c0.2,0.5,0.3,0.8,0.5,1c1.6,1.3,3.4,1.6,5.7,1.4c0.9,1.6,1.8,3.2,2.8,4.9c-2.6,1.5-5.1,1.9-7.5,1.1c-4.4-1.5-8.8-1.5-13.2-0.8
		c-1.7,0.3-1.7,0.2-3.9-3c0.9-2.1,2.8-3.3,4.3-4.9c1-1,2.1-1.9,2.4-3.5c0.4-2.6,1.9-4.3,4.4-5.2
		C1086.9,105.7,1087.4,105.3,1088.3,104.9z"/>
</g>
</svg>
