<svg xmlns="http://www.w3.org/2000/svg" viewBox="0 0 254.39 222.17"><title>Asset 1</title><path d="M39,119.63a.34.34,0,0,0,.17,0l28-16.14a.34.34,0,0,0,.13-.47.35.35,0,0,0-.47-.13L38.83,119a.36.36,0,0,0-.13.48A.34.34,0,0,0,39,119.63Z" fill="#fff"/><path d="M66.88,133.37a.36.36,0,0,0,.31-.17.35.35,0,0,0-.13-.47l-8.87-5.12a.34.34,0,1,0-.34.6l8.86,5.12A.38.38,0,0,0,66.88,133.37Z" fill="#fff"/><path d="M66.9,131a.36.36,0,0,0,.3-.18.34.34,0,0,0-.13-.47l-5.91-3.42a.35.35,0,0,0-.35.61l5.91,3.41A.41.41,0,0,0,66.9,131Z" fill="#fff"/><path d="M67,128.63a.34.34,0,0,0,.3-.17.36.36,0,0,0-.13-.48l-3.05-1.75a.33.33,0,0,0-.47.12.34.34,0,0,0,.12.47l3.06,1.77A.33.33,0,0,0,67,128.63Z" fill="#fff"/><path d="M41,98.85a.35.35,0,0,0,.35-.35V88.26a.35.35,0,0,0-.7,0V98.5A.35.35,0,0,0,41,98.85Z" fill="#fff"/><path d="M43.12,96.62a.35.35,0,0,0,.35-.34V89.45a.35.35,0,0,0-.35-.35.35.35,0,0,0-.34.35v6.83A.34.34,0,0,0,43.12,96.62Z" fill="#fff"/><path d="M45.21,94.4a.35.35,0,0,0,.34-.35V90.52a.34.34,0,0,0-.34-.34.35.35,0,0,0-.35.34v3.53A.35.35,0,0,0,45.21,94.4Z" fill="#fff"/><path d="M1.07,141.88a.69.69,0,0,0,.34-.09l65.9-38a.69.69,0,0,0-.7-1.2l-65.89,38a.71.71,0,0,0-.26.95A.73.73,0,0,0,1.07,141.88Z" fill="#fff"/><path d="M1.07,141.88a.7.7,0,0,0,.5-.22L47.86,92.24a.71.71,0,0,0,0-1,.69.69,0,0,0-1,0L.56,140.71a.69.69,0,0,0,0,1A.75.75,0,0,0,1.07,141.88Z" fill="#fff"/><path d="M73.88,148.44a1,1,0,0,0,.9-.52,1,1,0,0,0-.38-1.42L46,130.13a1,1,0,0,0-.75-.12L4.13,139.36l28.66-30.53a1,1,0,0,0,.28-.71V74.92a1,1,0,1,0-2.08,0v32.79L.28,140.42a1,1,0,0,0,1,1.73l44.08-10,28,16.17A1,1,0,0,0,73.88,148.44Z" fill="#fff"/><path d="M67,136.2a.73.73,0,0,0,.35-.09.7.7,0,0,0,.34-.6V103.05a.69.69,0,0,0-.34-.6L39.24,86.21a.7.7,0,0,0-1,.61v14a.7.7,0,0,0,1.39,0V88l26.72,15.43v30.86L55.39,128a.7.7,0,0,0-1,.25.69.69,0,0,0,.26.95l12,6.91A.73.73,0,0,0,67,136.2Z" fill="#fff"/><path d="M1.07,141.88l.15,0,65.94-15.37a.69.69,0,0,0,.52-.84.68.68,0,0,0-.83-.51L.91,140.51a.69.69,0,0,0,.16,1.37Z" fill="#fff"/><path d="M64.61,126.72a.35.35,0,0,0,.35-.35V104.43a.35.35,0,0,0-.7,0v21.94A.35.35,0,0,0,64.61,126.72Z" fill="#fff"/><path d="M62.45,127.22a.35.35,0,0,0,.35-.34v-21.2a.35.35,0,0,0-.35-.35.35.35,0,0,0-.34.35v21.2A.34.34,0,0,0,62.45,127.22Z" fill="#fff"/><path d="M60.38,127.71h0a.36.36,0,0,0,.35-.35l-.09-20.44a.34.34,0,0,0-.35-.34h0a.34.34,0,0,0-.34.34L60,127.36A.35.35,0,0,0,60.38,127.71Z" fill="#fff"/><path d="M58.14,128.23h0a.35.35,0,0,0,.35-.35V108.17a.35.35,0,0,0-.35-.35h0a.35.35,0,0,0-.35.35v19.71A.35.35,0,0,0,58.14,128.23Z" fill="#fff"/><path d="M56,128.73a.35.35,0,0,0,.35-.35v-19a.35.35,0,0,0-.69,0v19A.35.35,0,0,0,56,128.73Z" fill="#fff"/><path d="M53.83,129.23h0a.35.35,0,0,0,.35-.34V110.66a.34.34,0,0,0-.34-.35h0a.35.35,0,0,0-.35.35v18.23A.35.35,0,0,0,53.83,129.23Z" fill="#fff"/><path d="M51.67,129.73h0a.34.34,0,0,0,.35-.34V111.9a.34.34,0,0,0-.35-.34h0a.35.35,0,0,0-.35.34v17.49A.34.34,0,0,0,51.67,129.73Z" fill="#fff"/><path d="M49.52,130.24a.35.35,0,0,0,.35-.35V113.14a.35.35,0,0,0-.7,0v16.75A.35.35,0,0,0,49.52,130.24Z" fill="#fff"/><path d="M47.36,130.74a.35.35,0,0,0,.35-.35v-16a.35.35,0,1,0-.69,0v16A.35.35,0,0,0,47.36,130.74Z" fill="#fff"/><path d="M45.21,131.24h0a.35.35,0,0,0,.34-.35V115.64a.34.34,0,0,0-.34-.35h0a.34.34,0,0,0-.35.35v15.25A.35.35,0,0,0,45.21,131.24Z" fill="#fff"/><path d="M43.05,131.93a.35.35,0,0,0,.35-.34V116.88a.35.35,0,0,0-.35-.35.35.35,0,0,0-.34.35v14.71A.34.34,0,0,0,43.05,131.93Z" fill="#fff"/><path d="M40.9,132.43h0a.35.35,0,0,0,.35-.35v-14a.34.34,0,0,0-.34-.34h0a.34.34,0,0,0-.35.34v14A.35.35,0,0,0,40.9,132.43Z" fill="#fff"/><path d="M38.74,132.75a.35.35,0,0,0,.35-.35v-13a.35.35,0,1,0-.69,0v13A.35.35,0,0,0,38.74,132.75Z" fill="#fff"/><path d="M36.59,133.25a.34.34,0,0,0,.34-.35V120.61a.35.35,0,0,0-.69,0V132.9A.34.34,0,0,0,36.59,133.25Z" fill="#fff"/><path d="M34.43,133.89h0a.35.35,0,0,0,.35-.34V121.86a.35.35,0,0,0-.35-.35h0a.35.35,0,0,0-.35.35v11.69A.35.35,0,0,0,34.43,133.89Z" fill="#fff"/><path d="M32.26,134.39a.35.35,0,0,0,.35-.35V123.1a.35.35,0,0,0-.34-.35h0a.35.35,0,0,0-.35.35l0,10.94a.35.35,0,0,0,.35.35Z" fill="#fff"/><path d="M30.12,134.87a.35.35,0,0,0,.35-.34V124.35a.35.35,0,0,0-.7,0v10.18A.35.35,0,0,0,30.12,134.87Z" fill="#fff"/><path d="M28,135.36a.35.35,0,0,0,.35-.34v-9.43a.35.35,0,0,0-.35-.35.35.35,0,0,0-.34.35V135A.34.34,0,0,0,28,135.36Z" fill="#fff"/><path d="M25.81,135.85h0a.35.35,0,0,0,.35-.34v-8.67a.34.34,0,0,0-.34-.35h0a.35.35,0,0,0-.35.35v8.67A.35.35,0,0,0,25.81,135.85Z" fill="#fff"/><path d="M23.65,136.34A.35.35,0,0,0,24,136v-7.91a.35.35,0,0,0-.7,0V136A.35.35,0,0,0,23.65,136.34Z" fill="#fff"/><path d="M21.5,136.83h0a.35.35,0,0,0,.35-.34v-7.17a.34.34,0,0,0-.34-.34h0a.34.34,0,0,0-.35.34v7.17A.35.35,0,0,0,21.5,136.83Z" fill="#fff"/><path d="M19.34,137.32h0a.35.35,0,0,0,.35-.34v-6.41a.35.35,0,0,0-.35-.35h0a.35.35,0,0,0-.35.35V137A.35.35,0,0,0,19.34,137.32Z" fill="#fff"/><path d="M17.19,137.77a.34.34,0,0,0,.34-.35v-5.61a.34.34,0,0,0-.34-.34.35.35,0,0,0-.35.34v5.61A.35.35,0,0,0,17.19,137.77Z" fill="#fff"/><path d="M15,138.29a.34.34,0,0,0,.34-.34l.06-4.89a.35.35,0,0,0-.34-.35h0a.35.35,0,0,0-.35.35l0,4.88a.35.35,0,0,0,.34.35Z" fill="#fff"/><path d="M12.87,138.79a.34.34,0,0,0,.35-.34V134.3a.35.35,0,1,0-.69,0v4.15A.34.34,0,0,0,12.87,138.79Z" fill="#fff"/><path d="M10.72,139.28a.35.35,0,0,0,.35-.35v-3.38a.35.35,0,1,0-.7,0v3.38A.35.35,0,0,0,10.72,139.28Z" fill="#fff"/><path d="M64.52,104.63a.34.34,0,0,0,.3-.17.35.35,0,0,0-.13-.48l-19-11a.35.35,0,0,0-.35.6l19,11A.34.34,0,0,0,64.52,104.63Z" fill="#fff"/><path d="M62.36,105.87a.34.34,0,0,0,.18-.64L44.18,94.63a.34.34,0,0,0-.47.13.34.34,0,0,0,.12.47l18.36,10.6A.33.33,0,0,0,62.36,105.87Z" fill="#fff"/><path d="M60.21,107.12a.35.35,0,0,0,.3-.17.35.35,0,0,0-.13-.48L42.73,96.18a.36.36,0,0,0-.48.13.34.34,0,0,0,.13.47L60,107.07A.41.41,0,0,0,60.21,107.12Z" fill="#fff"/><path d="M58.05,108.36a.34.34,0,0,0,.3-.17.33.33,0,0,0-.13-.47L41.15,97.86a.34.34,0,0,0-.47.12.35.35,0,0,0,.13.48l17.07,9.86A.33.33,0,0,0,58.05,108.36Z" fill="#fff"/><path d="M55.9,109.61a.34.34,0,0,0,.3-.18.35.35,0,0,0-.13-.47L39.64,99.47a.34.34,0,0,0-.47.13.34.34,0,0,0,.12.47l16.43,9.49A.41.41,0,0,0,55.9,109.61Z" fill="#fff"/><path d="M53.74,110.85a.34.34,0,0,0,.3-.17.35.35,0,0,0-.13-.48l-15.78-9.11a.33.33,0,0,0-.47.13.34.34,0,0,0,.12.47l15.79,9.12A.33.33,0,0,0,53.74,110.85Z" fill="#fff"/><path d="M51.58,112.1a.35.35,0,0,0,.3-.18.34.34,0,0,0-.12-.47L36.62,102.7a.35.35,0,1,0-.35.61l15.14,8.74A.37.37,0,0,0,51.58,112.1Z" fill="#fff"/><path d="M49.43,113.34a.34.34,0,0,0,.3-.17.35.35,0,0,0-.12-.48L35.1,104.32a.34.34,0,0,0-.47.13.34.34,0,0,0,.13.47l14.5,8.37A.26.26,0,0,0,49.43,113.34Z" fill="#fff"/><path d="M47.28,114.58a.35.35,0,0,0,.3-.17.34.34,0,0,0-.13-.47l-13.86-8a.34.34,0,0,0-.47.12.35.35,0,0,0,.12.48l13.86,8A.39.39,0,0,0,47.28,114.58Z" fill="#fff"/><path d="M45.12,115.83a.34.34,0,0,0,.3-.17.35.35,0,0,0-.13-.48l-13.21-7.63a.35.35,0,1,0-.35.6L45,115.78A.34.34,0,0,0,45.12,115.83Z" fill="#fff"/><path d="M43,117.07a.34.34,0,0,0,.3-.17.33.33,0,0,0-.13-.47L30.4,109.07a.36.36,0,0,0-.48.13.35.35,0,0,0,.13.47L42.79,117A.33.33,0,0,0,43,117.07Z" fill="#fff"/><path d="M40.81,118.32a.34.34,0,0,0,.3-.18.35.35,0,0,0-.13-.47l-12.08-7a.36.36,0,0,0-.48.13.34.34,0,0,0,.13.47l12.08,7A.41.41,0,0,0,40.81,118.32Z" fill="#fff"/><path d="M38.65,119.56a.34.34,0,0,0,.3-.17.35.35,0,0,0-.12-.48L27.54,112.4a.34.34,0,0,0-.47.12.35.35,0,0,0,.12.48l11.29,6.52A.33.33,0,0,0,38.65,119.56Z" fill="#fff"/><path d="M36.5,120.81a.35.35,0,0,0,.3-.18.34.34,0,0,0-.13-.47L26,114a.36.36,0,0,0-.48.13.34.34,0,0,0,.13.47l10.64,6.15A.41.41,0,0,0,36.5,120.81Z" fill="#fff"/><path d="M34.34,122.05a.34.34,0,0,0,.3-.17.35.35,0,0,0-.12-.48l-10.13-5.84a.34.34,0,0,0-.47.13.34.34,0,0,0,.12.47L34.17,122A.26.26,0,0,0,34.34,122.05Z" fill="#fff"/><path d="M32.19,123.3a.38.38,0,0,0,.3-.18.34.34,0,0,0-.13-.47l-9.48-5.46a.36.36,0,0,0-.48.13.37.37,0,0,0,.13.48L32,123.25A.41.41,0,0,0,32.19,123.3Z" fill="#fff"/><path d="M30,124.54a.34.34,0,0,0,.3-.17.35.35,0,0,0-.12-.48l-8.82-5.09a.36.36,0,0,0-.48.13.34.34,0,0,0,.13.47l8.82,5.09A.26.26,0,0,0,30,124.54Z" fill="#fff"/><path d="M27.87,125.78a.34.34,0,0,0,.18-.64l-8.17-4.72a.35.35,0,0,0-.47.13.33.33,0,0,0,.13.47l8.16,4.72A.35.35,0,0,0,27.87,125.78Z" fill="#fff"/><path d="M25.72,127a.34.34,0,0,0,.3-.17.35.35,0,0,0-.13-.48l-7.51-4.33a.33.33,0,0,0-.47.12.35.35,0,0,0,.13.48L25.55,127A.34.34,0,0,0,25.72,127Z" fill="#fff"/><path d="M23.56,128.27a.37.37,0,0,0,.31-.17.35.35,0,0,0-.13-.47l-6.86-4a.34.34,0,0,0-.47.12.35.35,0,0,0,.13.48l6.85,4A.38.38,0,0,0,23.56,128.27Z" fill="#fff"/><path d="M21.41,129.52a.34.34,0,0,0,.3-.17.35.35,0,0,0-.13-.48l-6.2-3.58a.34.34,0,0,0-.47.12.35.35,0,0,0,.12.48l6.21,3.58A.34.34,0,0,0,21.41,129.52Z" fill="#fff"/><path d="M19.25,130.76a.34.34,0,0,0,.18-.64l-5.55-3.21a.35.35,0,1,0-.35.6l5.55,3.21A.33.33,0,0,0,19.25,130.76Z" fill="#fff"/><path d="M17.1,132a.35.35,0,0,0,.3-.18.34.34,0,0,0-.13-.47l-4.86-2.81a.35.35,0,0,0-.35.6L16.93,132A.34.34,0,0,0,17.1,132Z" fill="#fff"/><path d="M14.94,133.25a.36.36,0,0,0,.31-.18.35.35,0,0,0-.14-.47l-4.25-2.39a.34.34,0,1,0-.34.6l4.25,2.4A.35.35,0,0,0,14.94,133.25Z" fill="#fff"/><path d="M12.79,134.5a.35.35,0,0,0,.3-.18.34.34,0,0,0-.13-.47l-3.59-2.07a.34.34,0,0,0-.47.12.35.35,0,0,0,.13.48l3.59,2.07A.34.34,0,0,0,12.79,134.5Z" fill="#fff"/><path d="M10.63,135.74a.34.34,0,0,0,.3-.17.35.35,0,0,0-.13-.48L7.87,133.4a.34.34,0,1,0-.34.6l2.93,1.7A.33.33,0,0,0,10.63,135.74Z" fill="#fff"/><path d="M73.88,148.09a.69.69,0,0,0,.69-.69V99.08a.7.7,0,0,0-1.39,0V147.4A.69.69,0,0,0,73.88,148.09Z" fill="#fff"/><path d="M73.87,99.78a.71.71,0,0,0,.61-.35.69.69,0,0,0-.26-1L32.38,74.32a.69.69,0,0,0-.7,1.2L73.53,99.68A.63.63,0,0,0,73.87,99.78Z" fill="#fff"/><path d="M73.88,99.78a.63.63,0,0,0,.34-.1l41.85-24.16a.69.69,0,0,0-.7-1.2L73.53,98.48a.7.7,0,0,0-.26,1A.72.72,0,0,0,73.88,99.78Z" fill="#fff"/><path d="M73.88,148.44a1,1,0,0,0,.52-.14l15.22-8.79a1,1,0,0,0-1-1.8L73.36,146.5a1,1,0,0,0,.52,1.94Z" fill="#fff"/><path d="M115.72,93.54a1,1,0,0,0,1-1V74.92a1,1,0,1,0-2.08,0V92.5A1,1,0,0,0,115.72,93.54Z" fill="#fff"/><path d="M89.1,157.23a1,1,0,0,0,1-1V108.47l41.33-23.86a1,1,0,1,0-1-1.8L88.58,107a1,1,0,0,0-.52.9v48.32A1,1,0,0,0,89.1,157.23Z" fill="#fff"/><path d="M97,161.44a.69.69,0,0,0,.7-.69V112.83l41.5-24a.69.69,0,0,0-.7-1.2L96.65,111.83a.68.68,0,0,0-.35.6v48.32A.69.69,0,0,0,97,161.44Z" fill="#fff"/><path d="M95,111.61a.34.34,0,0,0,.17,0L137,87.4a.36.36,0,0,0,.13-.47.35.35,0,0,0-.48-.13L94.8,111a.34.34,0,0,0-.13.47A.35.35,0,0,0,95,111.61Z" fill="#fff"/><path d="M93.22,110.59a.35.35,0,0,0,.17,0l41.85-24.16a.34.34,0,0,0,.12-.47.33.33,0,0,0-.47-.13L93,110a.34.34,0,0,0,.18.64Z" fill="#fff"/><path d="M91.46,109.58a.39.39,0,0,0,.18,0l41.84-24.16a.35.35,0,0,0,.13-.48.34.34,0,0,0-.47-.12L91.29,108.94a.34.34,0,0,0-.13.47A.36.36,0,0,0,91.46,109.58Z" fill="#fff"/><path d="M95,159.93a.35.35,0,0,0,.35-.35V111.26a.35.35,0,1,0-.7,0v48.32A.35.35,0,0,0,95,159.93Z" fill="#fff"/><path d="M93.22,158.91a.34.34,0,0,0,.34-.34V110.25a.35.35,0,0,0-.34-.35.35.35,0,0,0-.35.35v48.32A.35.35,0,0,0,93.22,158.91Z" fill="#fff"/><path d="M91.46,157.9a.34.34,0,0,0,.35-.34V109.24a.35.35,0,1,0-.69,0v48.32A.34.34,0,0,0,91.46,157.9Z" fill="#fff"/><path d="M97,161.79a1.07,1.07,0,0,0,.91-.52,1,1,0,0,0-.38-1.42l-7.9-4.56a1,1,0,1,0-1,1.8l7.89,4.56A1.13,1.13,0,0,0,97,161.79Z" fill="#fff"/><path d="M97,113.12a.71.71,0,0,0,.61-.34.7.7,0,0,0-.26-1l-7.89-4.56a.69.69,0,1,0-.7,1.2l7.9,4.56A.69.69,0,0,0,97,113.12Z" fill="#fff"/><path d="M138.84,89.31a1,1,0,0,0,.52-1.94l-7.89-4.56a1,1,0,1,0-1,1.8l7.89,4.56A1,1,0,0,0,138.84,89.31Z" fill="#fff"/><path d="M80.36,137.37a.26.26,0,0,0,.17-.05l8.79-5.07a.35.35,0,0,0,.13-.47.36.36,0,0,0-.48-.13l-8.78,5.07a.35.35,0,0,0-.13.48A.34.34,0,0,0,80.36,137.37Z" fill="#fff"/><path d="M80.36,134.42a.41.41,0,0,0,.17,0l8.75-5.05a.34.34,0,0,0,.12-.47.34.34,0,0,0-.47-.13l-8.75,5.05a.35.35,0,0,0,.18.65Z" fill="#fff"/><path d="M80.37,140.33a.37.37,0,0,0,.17-.05l8.73-5a.35.35,0,0,0,.13-.48.34.34,0,0,0-.47-.12l-8.74,5a.34.34,0,0,0-.12.47A.35.35,0,0,0,80.37,140.33Z" fill="#fff"/><path d="M80.35,131.47a.34.34,0,0,0,.17-.05l8.75-5a.34.34,0,0,0,.13-.47.34.34,0,0,0-.47-.13l-8.75,5a.34.34,0,0,0-.13.47A.35.35,0,0,0,80.35,131.47Z" fill="#fff"/><path d="M80.35,128.51a.38.38,0,0,0,.17,0l8.76-5.06a.35.35,0,0,0-.35-.6l-8.76,5.06a.35.35,0,0,0-.13.47A.37.37,0,0,0,80.35,128.51Z" fill="#fff"/><path d="M80.34,125.56a.32.32,0,0,0,.16,0l8.93-4.69a.34.34,0,1,0-.32-.61l-8.93,4.68a.35.35,0,0,0-.15.47A.34.34,0,0,0,80.34,125.56Z" fill="#fff"/><path d="M80.33,122.6a.39.39,0,0,0,.18,0l8.76-5.06a.35.35,0,0,0,.13-.48.36.36,0,0,0-.47-.13L80.16,122a.34.34,0,0,0-.13.47A.35.35,0,0,0,80.33,122.6Z" fill="#fff"/><path d="M80.33,119.65a.26.26,0,0,0,.17-.05l8.77-5.06a.35.35,0,0,0,.13-.48.34.34,0,0,0-.47-.12L80.15,119a.35.35,0,0,0-.12.48A.34.34,0,0,0,80.33,119.65Z" fill="#fff"/><path d="M80.32,116.7a.41.41,0,0,0,.18,0l8.77-5.06a.35.35,0,0,0,.13-.48.36.36,0,0,0-.47-.13l-8.78,5.07a.36.36,0,0,0-.13.48A.35.35,0,0,0,80.32,116.7Z" fill="#fff"/><path d="M80.31,113.75a.41.41,0,0,0,.18,0l8.79-5.07a.35.35,0,0,0,.12-.48.34.34,0,0,0-.47-.12l-8.79,5.07a.34.34,0,0,0-.13.47A.38.38,0,0,0,80.31,113.75Z" fill="#fff"/><path d="M80.31,110.79a.33.33,0,0,0,.17,0l34.7-20a.35.35,0,0,0-.35-.6l-34.69,20a.35.35,0,0,0-.13.48A.34.34,0,0,0,80.31,110.79Z" fill="#fff"/><path d="M80.3,107.84a.41.41,0,0,0,.18,0l34.69-20a.35.35,0,1,0-.35-.6l-34.69,20a.36.36,0,0,0-.13.48A.35.35,0,0,0,80.3,107.84Z" fill="#fff"/><path d="M80.3,104.89a.34.34,0,0,0,.17,0l34.7-20a.35.35,0,0,0,.12-.48.34.34,0,0,0-.47-.13l-34.7,20a.34.34,0,0,0-.12.47A.35.35,0,0,0,80.3,104.89Z" fill="#fff"/><path d="M97,161.79a1.13,1.13,0,0,0,.53-.14l15.22-8.79a1,1,0,0,0-1-1.8l-15.23,8.79a1,1,0,0,0-.38,1.42A1.07,1.07,0,0,0,97,161.79Z" fill="#fff"/><path d="M138.84,106.89a1,1,0,0,0,1-1V88.27a1,1,0,0,0-2.08,0v17.58A1,1,0,0,0,138.84,106.89Z" fill="#fff"/><path d="M112.22,170.58a1,1,0,0,0,1-1V121.82L154.59,98a1,1,0,1,0-1.05-1.8L111.7,120.32a1,1,0,0,0-.52.9v48.32A1,1,0,0,0,112.22,170.58Z" fill="#fff"/><path d="M120.11,174.79a.7.7,0,0,0,.7-.7V126.18l41.5-24a.7.7,0,0,0-.7-1.21l-41.85,24.16a.71.71,0,0,0-.34.6v48.32A.69.69,0,0,0,120.11,174.79Z" fill="#fff"/><path d="M118.09,125a.33.33,0,0,0,.17,0l41.85-24.16a.35.35,0,0,0,.12-.48.34.34,0,0,0-.47-.12l-41.85,24.16a.34.34,0,0,0,.18.64Z" fill="#fff"/><path d="M116.34,123.94a.3.3,0,0,0,.17,0l41.85-24.15a.35.35,0,0,0,.12-.48.34.34,0,0,0-.47-.12l-41.85,24.15a.35.35,0,0,0-.12.48A.33.33,0,0,0,116.34,123.94Z" fill="#fff"/><path d="M114.58,122.93a.39.39,0,0,0,.18,0L156.6,98.72a.33.33,0,0,0,.13-.47.35.35,0,0,0-.47-.13l-41.85,24.16a.36.36,0,0,0-.13.48A.35.35,0,0,0,114.58,122.93Z" fill="#fff"/><path d="M118.09,173.27a.34.34,0,0,0,.34-.34V124.61a.35.35,0,1,0-.69,0v48.32A.34.34,0,0,0,118.09,173.27Z" fill="#fff"/><path d="M116.34,172.26a.34.34,0,0,0,.34-.35V123.59a.35.35,0,0,0-.69,0v48.32A.34.34,0,0,0,116.34,172.26Z" fill="#fff"/><path d="M114.58,171.25a.35.35,0,0,0,.35-.35V122.58a.35.35,0,0,0-.35-.34.34.34,0,0,0-.34.34V170.9A.35.35,0,0,0,114.58,171.25Z" fill="#fff"/><path d="M120.11,175.14a1.07,1.07,0,0,0,.52-.14l41.85-24.16a1,1,0,0,0,.52-.9V101.62a1,1,0,1,0-2.08,0v47.71l-41.33,23.86a1,1,0,0,0,.52,1.95Z" fill="#fff"/><path d="M120.11,175.14a1,1,0,0,0,.52-1.95l-7.89-4.55a1,1,0,0,0-1,1.8l7.89,4.56A1.07,1.07,0,0,0,120.11,175.14Z" fill="#fff"/><path d="M120.11,126.47a.7.7,0,0,0,.6-.35.69.69,0,0,0-.25-1l-7.9-4.55a.68.68,0,0,0-.94.25.7.7,0,0,0,.25.95l7.89,4.56A.73.73,0,0,0,120.11,126.47Z" fill="#fff"/><path d="M162,102.66a1,1,0,0,0,.52-2l-7.89-4.55a1,1,0,1,0-1.05,1.8l7.9,4.56A1.07,1.07,0,0,0,162,102.66Z" fill="#fff"/><path d="M103.48,150.72a.34.34,0,0,0,.17-.05l8.78-5.07a.34.34,0,0,0-.34-.6l-8.79,5.07a.35.35,0,0,0-.12.48A.34.34,0,0,0,103.48,150.72Z" fill="#fff"/><path d="M103.47,147.77a.41.41,0,0,0,.18-.05l8.74-5.05a.34.34,0,0,0,.13-.47.36.36,0,0,0-.48-.13l-8.74,5.05a.35.35,0,0,0-.13.47A.38.38,0,0,0,103.47,147.77Z" fill="#fff"/><path d="M103.48,153.67a.39.39,0,0,0,.18,0l8.73-5a.34.34,0,0,0,.13-.47A.36.36,0,0,0,112,148l-8.73,5a.36.36,0,0,0-.13.48A.36.36,0,0,0,103.48,153.67Z" fill="#fff"/><path d="M103.47,144.81a.35.35,0,0,0,.17,0l8.75-5a.35.35,0,1,0-.35-.6l-8.75,5a.35.35,0,0,0-.12.48A.34.34,0,0,0,103.47,144.81Z" fill="#fff"/><path d="M103.46,141.86a.41.41,0,0,0,.18-.05l8.75-5.05a.35.35,0,1,0-.35-.6l-8.75,5.05a.36.36,0,0,0-.13.48A.34.34,0,0,0,103.46,141.86Z" fill="#fff"/><path d="M103.46,138.9l.16,0,8.93-4.69a.35.35,0,0,0,.15-.47.35.35,0,0,0-.47-.14l-8.94,4.68a.35.35,0,0,0-.14.47A.33.33,0,0,0,103.46,138.9Z" fill="#fff"/><path d="M103.45,136a.33.33,0,0,0,.17,0l8.77-5.07a.34.34,0,0,0,.13-.47.36.36,0,0,0-.48-.13l-8.76,5.07a.33.33,0,0,0-.13.47A.34.34,0,0,0,103.45,136Z" fill="#fff"/><path d="M103.45,133a.41.41,0,0,0,.17-.05l8.77-5.06a.35.35,0,1,0-.35-.6l-8.77,5.06a.35.35,0,0,0,.18.65Z" fill="#fff"/><path d="M103.44,130.05a.34.34,0,0,0,.17-.05l8.78-5.07a.34.34,0,0,0,.13-.47.36.36,0,0,0-.48-.13l-8.77,5.07a.34.34,0,0,0-.13.47A.35.35,0,0,0,103.44,130.05Z" fill="#fff"/><path d="M103.43,127.09a.39.39,0,0,0,.18,0l8.78-5.07a.35.35,0,0,0,.13-.48.36.36,0,0,0-.48-.13l-8.78,5.08a.34.34,0,0,0-.13.47A.35.35,0,0,0,103.43,127.09Z" fill="#fff"/><path d="M103.43,124.14a.28.28,0,0,0,.17,0l34.7-20a.35.35,0,0,0,.12-.48.34.34,0,0,0-.47-.12l-34.7,20a.35.35,0,0,0-.12.48A.34.34,0,0,0,103.43,124.14Z" fill="#fff"/><path d="M103.42,121.19a.41.41,0,0,0,.18,0l34.69-20a.35.35,0,1,0-.35-.6l-34.69,20a.35.35,0,0,0-.13.47A.36.36,0,0,0,103.42,121.19Z" fill="#fff"/><path d="M103.41,118.23a.39.39,0,0,0,.18,0l34.7-20a.34.34,0,0,0,.12-.47.34.34,0,0,0-.47-.13l-34.7,20a.36.36,0,0,0-.13.48A.35.35,0,0,0,103.41,118.23Z" fill="#fff"/><path d="M148.64,147.5a.35.35,0,0,0,.35-.34V118.1a.35.35,0,0,0-.7,0v29.06A.35.35,0,0,0,148.64,147.5Z" fill="#fff"/><path d="M152.42,145.33a.35.35,0,0,0,.35-.35V115.92a.35.35,0,1,0-.69,0V145A.34.34,0,0,0,152.42,145.33Z" fill="#fff"/><path d="M150.53,146.42a.35.35,0,0,0,.35-.35V117a.35.35,0,0,0-.35-.35.35.35,0,0,0-.34.35v29.06A.35.35,0,0,0,150.53,146.42Z" fill="#fff"/><path d="M146.75,148.59a.35.35,0,0,0,.35-.35V119.18a.35.35,0,0,0-.7,0v29.06A.35.35,0,0,0,146.75,148.59Z" fill="#fff"/><path d="M144.86,149.68a.35.35,0,0,0,.35-.35V120.27a.35.35,0,0,0-.7,0v29.06A.35.35,0,0,0,144.86,149.68Z" fill="#fff"/><path d="M143,150.77a.35.35,0,0,0,.34-.35V121.35A.34.34,0,0,0,143,121a.35.35,0,0,0-.35.34v29.07A.35.35,0,0,0,143,150.77Z" fill="#fff"/><path d="M141.08,151.85a.34.34,0,0,0,.34-.34V122.44a.35.35,0,0,0-.34-.35.35.35,0,0,0-.35.35v29.07A.35.35,0,0,0,141.08,151.85Z" fill="#fff"/><path d="M139.19,152.94h0a.34.34,0,0,0,.34-.35V123.53a.35.35,0,0,0-.34-.35h0a.35.35,0,0,0-.35.35v29.06A.34.34,0,0,0,139.19,152.94Z" fill="#fff"/><path d="M137.3,154a.35.35,0,0,0,.34-.35V124.62a.35.35,0,1,0-.69,0v29.06A.35.35,0,0,0,137.3,154Z" fill="#fff"/><path d="M135.4,155.12a.35.35,0,0,0,.35-.35V125.71a.35.35,0,0,0-.35-.35.34.34,0,0,0-.34.35v29.06A.35.35,0,0,0,135.4,155.12Z" fill="#fff"/><path d="M133.51,156.2a.35.35,0,0,0,.35-.35V126.79a.35.35,0,0,0-.35-.35.35.35,0,0,0-.34.35v29.06A.34.34,0,0,0,133.51,156.2Z" fill="#fff"/><path d="M131.62,157.29a.35.35,0,0,0,.35-.35V127.88a.35.35,0,0,0-.35-.35.35.35,0,0,0-.34.35v29.06A.35.35,0,0,0,131.62,157.29Z" fill="#fff"/><path d="M129.73,158.37a.35.35,0,0,0,.35-.34V129a.35.35,0,0,0-.7,0V158A.35.35,0,0,0,129.73,158.37Z" fill="#fff"/><path d="M48,75.19a.69.69,0,0,0,.7-.69V52.14a25.15,25.15,0,1,1,50.3,0V74.5a.7.7,0,0,0,1.39,0V52.14a26.54,26.54,0,0,0-53.08,0V74.5A.69.69,0,0,0,48,75.19Z" fill="#fff"/><path d="M48,66.7a1,1,0,0,0,1.05-1V52.14a24.8,24.8,0,1,1,49.6,0V65.65a1,1,0,1,0,2.09,0V52.14a26.89,26.89,0,0,0-53.78,0V65.65A1,1,0,0,0,48,66.7Z" fill="#fff"/><path d="M32,76a1,1,0,0,0,.52-.14l15.94-9.2a1,1,0,0,0-1-1.8L31.51,74a1,1,0,0,0-.38,1.42A1,1,0,0,0,32,76Z" fill="#fff"/><path d="M115.72,76a1,1,0,0,0,.9-.52,1,1,0,0,0-.38-1.42l-16-9.27a1,1,0,0,0-1.43.38,1.06,1.06,0,0,0,.39,1.43l16,9.26A1,1,0,0,0,115.72,76Z" fill="#fff"/><path d="M88.58,64.8a.31.31,0,0,0,.13,0,21.79,21.79,0,0,0,8.74-6.7.35.35,0,0,0-.07-.49.34.34,0,0,0-.48.06,21.11,21.11,0,0,1-8.45,6.49.35.35,0,0,0-.19.46A.34.34,0,0,0,88.58,64.8Z" fill="#fff"/><path d="M91,60.74a.33.33,0,0,0,.17,0A17.62,17.62,0,0,0,97.44,55a.34.34,0,1,0-.58-.37,16.85,16.85,0,0,1-6.07,5.44.35.35,0,0,0-.13.48A.34.34,0,0,0,91,60.74Z" fill="#fff"/><path d="M87.14,68.24l.1,0c4.34-1.38,7.86-4.67,10.13-7a.35.35,0,1,0-.5-.48C94.66,63,91.22,66.23,87,67.56a.34.34,0,0,0-.23.44A.35.35,0,0,0,87.14,68.24Z" fill="#fff"/><path d="M87.14,71.51l.1,0C92.19,70,96,66,97.39,64.31a.34.34,0,0,0,0-.49.35.35,0,0,0-.49,0c-1.36,1.61-5,5.52-9.82,7a.35.35,0,0,0-.23.43A.35.35,0,0,0,87.14,71.51Z" fill="#fff"/><path d="M87.14,74.78h.1a21,21,0,0,0,10.17-7.34.35.35,0,0,0-.08-.49.34.34,0,0,0-.48.08,20.2,20.2,0,0,1-9.8,7.08.35.35,0,0,0,.09.68Z" fill="#fff"/><path d="M87.14,78.15h.1a19.44,19.44,0,0,0,10.18-7.59.35.35,0,0,0-.11-.48.34.34,0,0,0-.48.1,18.58,18.58,0,0,1-9.78,7.3.34.34,0,0,0-.24.42A.34.34,0,0,0,87.14,78.15Z" fill="#fff"/><path d="M87.15,81.52h.08a18.24,18.24,0,0,0,10.2-7.84.35.35,0,1,0-.61-.35,17.44,17.44,0,0,1-9.76,7.51.37.37,0,0,0-.25.43A.35.35,0,0,0,87.15,81.52Z" fill="#fff"/><path d="M87.15,84.89h.08a17.09,17.09,0,0,0,10.21-8.09.35.35,0,0,0-.63-.31,16.53,16.53,0,0,1-9.74,7.72.35.35,0,0,0,.08.69Z" fill="#fff"/><path d="M92.63,57a.36.36,0,0,0,.2-.06,14.72,14.72,0,0,0,4.72-5.2.35.35,0,0,0-.15-.47.34.34,0,0,0-.46.15,14.2,14.2,0,0,1-4.51,4.95.34.34,0,0,0-.08.49A.34.34,0,0,0,92.63,57Z" fill="#fff"/><path d="M93.43,53.66a.34.34,0,0,0,.23-.08,12.69,12.69,0,0,0,3.59-4.88.35.35,0,0,0-.65-.25,12,12,0,0,1-3.4,4.61.34.34,0,0,0,0,.49A.36.36,0,0,0,93.43,53.66Z" fill="#fff"/><path d="M93.64,50.48a.31.31,0,0,0,.24-.1,11.82,11.82,0,0,0,2.86-4.25.35.35,0,1,0-.65-.24,11.21,11.21,0,0,1-2.69,4,.34.34,0,0,0,.24.59Z" fill="#fff"/><path d="M93.45,47.52a.35.35,0,0,0,.26-.12,10.24,10.24,0,0,0,2.2-3.83.34.34,0,0,0-.23-.43.34.34,0,0,0-.43.23,9.8,9.8,0,0,1-2.06,3.57.35.35,0,0,0,0,.49A.35.35,0,0,0,93.45,47.52Z" fill="#fff"/><path d="M92.85,44.75a.36.36,0,0,0,.27-.12,10.18,10.18,0,0,0,1.8-3.13.34.34,0,0,0-.21-.44.35.35,0,0,0-.44.21,9.43,9.43,0,0,1-1.68,2.92.33.33,0,0,0,0,.48A.33.33,0,0,0,92.85,44.75Z" fill="#fff"/><path d="M91.94,42.2a.39.39,0,0,0,.28-.13,9.55,9.55,0,0,0,1.52-2.74.34.34,0,1,0-.65-.23,8.59,8.59,0,0,1-1.42,2.54.34.34,0,0,0,.06.48A.34.34,0,0,0,91.94,42.2Z" fill="#fff"/><path d="M90.87,40.07a.37.37,0,0,0,.28-.14,8.87,8.87,0,0,0,1.35-2.38.35.35,0,0,0-.65-.24,8.39,8.39,0,0,1-1.25,2.2.34.34,0,0,0,.06.48A.34.34,0,0,0,90.87,40.07Z" fill="#fff"/><path d="M89.62,38.14a.34.34,0,0,0,.27-.13A8.27,8.27,0,0,0,91,36.12a.33.33,0,0,0-.18-.45.34.34,0,0,0-.46.18,8.45,8.45,0,0,1-1,1.73.35.35,0,0,0,.05.49A.34.34,0,0,0,89.62,38.14Z" fill="#fff"/><path d="M88.26,36.49a.34.34,0,0,0,.27-.13,7.54,7.54,0,0,0,1-1.6.34.34,0,0,0-.17-.46.35.35,0,0,0-.46.17,7.29,7.29,0,0,1-.9,1.46.35.35,0,0,0,.05.49A.36.36,0,0,0,88.26,36.49Z" fill="#fff"/><path d="M86.72,35a.36.36,0,0,0,.27-.12,8.9,8.9,0,0,0,.87-1.26.35.35,0,0,0-.14-.47.33.33,0,0,0-.47.13,6.94,6.94,0,0,1-.79,1.15.34.34,0,0,0,0,.49A.35.35,0,0,0,86.72,35Z" fill="#fff"/><path d="M85,33.59a.34.34,0,0,0,.25-.11,6.89,6.89,0,0,0,.77-1A.35.35,0,0,0,85.9,32a.34.34,0,0,0-.48.1,5.61,5.61,0,0,1-.69.89.35.35,0,0,0,0,.49A.36.36,0,0,0,85,33.59Z" fill="#fff"/><path d="M83.22,32.46a.36.36,0,0,0,.25-.11,6.72,6.72,0,0,0,.65-.78.35.35,0,0,0-.08-.48.36.36,0,0,0-.49.08,6.14,6.14,0,0,1-.58.7.35.35,0,0,0,0,.49A.37.37,0,0,0,83.22,32.46Z" fill="#fff"/><path d="M81.37,31.55a.36.36,0,0,0,.24-.09,7.39,7.39,0,0,0,.56-.56.35.35,0,0,0-.52-.46,4.84,4.84,0,0,1-.51.5.35.35,0,0,0,0,.49A.32.32,0,0,0,81.37,31.55Z" fill="#fff"/><path d="M79.54,30.8a.31.31,0,0,0,.21-.07,5.46,5.46,0,0,0,.45-.36.35.35,0,0,0,0-.49.36.36,0,0,0-.49,0l-.39.33a.34.34,0,0,0,.2.62Z" fill="#fff"/><path d="M58.92,64.8a.35.35,0,0,0,.13-.67,21,21,0,0,1-8.45-6.49.35.35,0,0,0-.55.43,21.69,21.69,0,0,0,8.73,6.7A.35.35,0,0,0,58.92,64.8Z" fill="#fff"/><path d="M56.53,60.74a.36.36,0,0,0,.31-.17.37.37,0,0,0-.13-.48,16.85,16.85,0,0,1-6.07-5.44.34.34,0,0,0-.48-.11.35.35,0,0,0-.11.48,17.69,17.69,0,0,0,6.31,5.68A.38.38,0,0,0,56.53,60.74Z" fill="#fff"/><path d="M60.36,68.24a.37.37,0,0,0,.33-.24.36.36,0,0,0-.23-.44c-4.18-1.33-7.62-4.55-9.84-6.85a.35.35,0,0,0-.5.48c2.27,2.36,5.8,5.65,10.13,7Z" fill="#fff"/><path d="M60.35,71.51a.36.36,0,0,0,.34-.25.35.35,0,0,0-.23-.43c-4.78-1.45-8.46-5.36-9.83-7a.35.35,0,0,0-.49,0,.36.36,0,0,0,0,.49C51.51,66,55.3,70,60.25,71.49Z" fill="#fff"/><path d="M60.35,74.78a.36.36,0,0,0,.34-.25.35.35,0,0,0-.24-.43A20.2,20.2,0,0,1,50.65,67a.35.35,0,0,0-.49-.08.36.36,0,0,0-.07.49,21,21,0,0,0,10.16,7.34Z" fill="#fff"/><path d="M60.35,78.15a.36.36,0,0,0,.34-.26.34.34,0,0,0-.25-.42,18.62,18.62,0,0,1-9.78-7.3.35.35,0,0,0-.58.38,19.4,19.4,0,0,0,10.18,7.59Z" fill="#fff"/><path d="M60.35,81.52a.37.37,0,0,0,.34-.26.36.36,0,0,0-.26-.43,17.44,17.44,0,0,1-9.76-7.51.35.35,0,0,0-.47-.13.35.35,0,0,0-.13.48,18.22,18.22,0,0,0,10.19,7.84Z" fill="#fff"/><path d="M60.35,84.89a.34.34,0,0,0,.33-.27.34.34,0,0,0-.26-.42,16.53,16.53,0,0,1-9.74-7.72.36.36,0,0,0-.47-.16.35.35,0,0,0-.15.47,17.07,17.07,0,0,0,10.21,8.09Z" fill="#fff"/><path d="M54.87,57a.37.37,0,0,0,.28-.14.36.36,0,0,0-.08-.49,14.1,14.1,0,0,1-4.51-4.95.35.35,0,1,0-.62.32,14.85,14.85,0,0,0,4.73,5.2A.34.34,0,0,0,54.87,57Z" fill="#fff"/><path d="M54.07,53.66a.38.38,0,0,0,.26-.11.35.35,0,0,0,0-.49,12.07,12.07,0,0,1-3.41-4.61.35.35,0,0,0-.45-.2.34.34,0,0,0-.19.45,12.69,12.69,0,0,0,3.59,4.88A.34.34,0,0,0,54.07,53.66Z" fill="#fff"/><path d="M53.85,50.48a.35.35,0,0,0,.25-.1.36.36,0,0,0,0-.49,11.08,11.08,0,0,1-2.69-4,.36.36,0,0,0-.45-.21.35.35,0,0,0-.2.45,11.66,11.66,0,0,0,2.85,4.25A.34.34,0,0,0,53.85,50.48Z" fill="#fff"/><path d="M54.05,47.52a.35.35,0,0,0,.23-.09.36.36,0,0,0,0-.49,9.72,9.72,0,0,1-2.06-3.57.35.35,0,0,0-.67.2,10.4,10.4,0,0,0,2.21,3.83A.32.32,0,0,0,54.05,47.52Z" fill="#fff"/><path d="M54.64,44.75a.34.34,0,0,0,.23-.08.35.35,0,0,0,0-.49,9.28,9.28,0,0,1-1.68-2.91.35.35,0,0,0-.66.23,10.18,10.18,0,0,0,1.81,3.13A.34.34,0,0,0,54.64,44.75Z" fill="#fff"/><path d="M55.55,42.2a.37.37,0,0,0,.22-.08.34.34,0,0,0,.06-.48,8.71,8.71,0,0,1-1.42-2.54.34.34,0,0,0-.44-.21.35.35,0,0,0-.22.44,9.72,9.72,0,0,0,1.53,2.74A.37.37,0,0,0,55.55,42.2Z" fill="#fff"/><path d="M56.62,40.07a.37.37,0,0,0,.22-.08.34.34,0,0,0,.06-.48,8.43,8.43,0,0,1-1.25-2.2.35.35,0,0,0-.45-.2.33.33,0,0,0-.2.44,8.9,8.9,0,0,0,1.35,2.38A.35.35,0,0,0,56.62,40.07Z" fill="#fff"/><path d="M57.88,38.14a.33.33,0,0,0,.21-.07.35.35,0,0,0,.06-.49,8.08,8.08,0,0,1-1-1.73.34.34,0,1,0-.63.27A8.49,8.49,0,0,0,57.61,38,.32.32,0,0,0,57.88,38.14Z" fill="#fff"/><path d="M59.23,36.49a.36.36,0,0,0,.22-.07.35.35,0,0,0,.06-.49,7.29,7.29,0,0,1-.9-1.46.36.36,0,0,0-.47-.17.35.35,0,0,0-.17.46,8.45,8.45,0,0,0,1,1.6A.37.37,0,0,0,59.23,36.49Z" fill="#fff"/><path d="M60.77,35a.4.4,0,0,0,.23-.08.36.36,0,0,0,0-.49,6.94,6.94,0,0,1-.79-1.15.33.33,0,0,0-.47-.13.35.35,0,0,0-.14.47,7.69,7.69,0,0,0,.87,1.26A.34.34,0,0,0,60.77,35Z" fill="#fff"/><path d="M62.51,33.59a.35.35,0,0,0,.23-.09.35.35,0,0,0,0-.49,6.44,6.44,0,0,1-.69-.89.35.35,0,0,0-.48-.1.34.34,0,0,0-.1.48,7.8,7.8,0,0,0,.76,1A.36.36,0,0,0,62.51,33.59Z" fill="#fff"/><path d="M64.27,32.46a.39.39,0,0,0,.25-.1.35.35,0,0,0,0-.49,6.14,6.14,0,0,1-.58-.7.35.35,0,0,0-.48-.08.34.34,0,0,0-.08.48,5.17,5.17,0,0,0,.65.78A.32.32,0,0,0,64.27,32.46Z" fill="#fff"/><path d="M66.12,31.55a.32.32,0,0,0,.26-.12.34.34,0,0,0,0-.49,5.89,5.89,0,0,1-.5-.5.35.35,0,1,0-.52.46,5.92,5.92,0,0,0,.56.56A.35.35,0,0,0,66.12,31.55Z" fill="#fff"/><path d="M68,30.8a.34.34,0,0,0,.21-.62c-.14-.11-.28-.22-.4-.33a.35.35,0,0,0-.46.52c.14.12.29.25.44.36A.35.35,0,0,0,68,30.8Z" fill="#fff"/><path d="M73.81,90.16c14.64,0,26.55-7,26.55-15.66a.7.7,0,1,0-1.39,0c0,7.87-11.29,14.27-25.16,14.27S48.64,82.37,48.64,74.5a.69.69,0,1,0-1.38,0C47.26,83.13,59.17,90.16,73.81,90.16Z" fill="#fff"/><path d="M159.59,92.17,125.08,72.25a.7.7,0,0,1-.35-.6V31.8a.68.68,0,0,1,.35-.6l34.51-19.93a.71.71,0,0,1,.69,0L194.79,31.2a.68.68,0,0,1,.35.6V71.65a.7.7,0,0,1-.35.6L160.28,92.17a.64.64,0,0,1-.35.1A.59.59,0,0,1,159.59,92.17Zm34.16-60L159.93,12.67,126.12,32.2V71.25l33.81,19.52,33.82-19.52Z" fill="#fff"/><path d="M159.93,91.92a.35.35,0,0,0,.35-.35V51.72a.35.35,0,0,0-.69,0V91.57A.35.35,0,0,0,159.93,91.92Z" fill="#fff"/><path d="M159.93,52.07a.41.41,0,0,0,.18,0L194.62,32.1a.35.35,0,0,0,.12-.48.34.34,0,0,0-.47-.12L159.76,51.42a.36.36,0,0,0-.13.48A.35.35,0,0,0,159.93,52.07Z" fill="#fff"/><path d="M159.93,54.61a.39.39,0,0,0,.18,0l34.51-19.93a.34.34,0,0,0,.12-.47.33.33,0,0,0-.47-.13L159.76,54a.36.36,0,0,0-.13.48A.35.35,0,0,0,159.93,54.61Z" fill="#fff"/><path d="M159.93,57.25a.41.41,0,0,0,.18,0l34.51-19.92a.35.35,0,0,0-.35-.61L159.76,56.6a.34.34,0,0,0-.13.47A.36.36,0,0,0,159.93,57.25Z" fill="#fff"/><path d="M159.93,59.88a.39.39,0,0,0,.18,0l34.51-19.93a.34.34,0,0,0,.12-.47.33.33,0,0,0-.47-.13L159.76,59.23a.36.36,0,0,0-.13.48A.35.35,0,0,0,159.93,59.88Z" fill="#fff"/><path d="M159.93,62.52a.41.41,0,0,0,.18-.05l34.51-19.92a.35.35,0,0,0,.12-.48.34.34,0,0,0-.47-.12L159.76,61.87a.35.35,0,0,0-.13.47A.34.34,0,0,0,159.93,62.52Z" fill="#fff"/><path d="M159.93,65.15a.39.39,0,0,0,.18,0l34.51-19.93a.35.35,0,0,0-.35-.6L159.76,64.51a.34.34,0,0,0-.13.47A.35.35,0,0,0,159.93,65.15Z" fill="#fff"/><path d="M159.93,67.79a.41.41,0,0,0,.18-.05l34.51-19.92a.34.34,0,0,0,.12-.47.33.33,0,0,0-.47-.13L159.76,67.14a.36.36,0,0,0-.13.48A.35.35,0,0,0,159.93,67.79Z" fill="#fff"/><path d="M159.93,70.43a.41.41,0,0,0,.18-.05l34.51-19.93a.35.35,0,0,0-.35-.6L159.76,69.78a.34.34,0,0,0-.13.47A.36.36,0,0,0,159.93,70.43Z" fill="#fff"/><path d="M159.93,73.06a.31.31,0,0,0,.18,0l34.51-19.92a.34.34,0,0,0,.12-.47.33.33,0,0,0-.47-.13L159.76,72.41a.36.36,0,0,0-.13.48A.35.35,0,0,0,159.93,73.06Z" fill="#fff"/><path d="M159.93,75.7a.41.41,0,0,0,.18,0l34.51-19.92a.35.35,0,0,0-.35-.61L159.76,75.05a.35.35,0,0,0-.13.47A.34.34,0,0,0,159.93,75.7Z" fill="#fff"/><path d="M159.93,78.33a.39.39,0,0,0,.18,0l34.51-19.93a.35.35,0,0,0-.35-.6L159.76,77.69a.34.34,0,0,0-.13.47A.35.35,0,0,0,159.93,78.33Z" fill="#fff"/><path d="M159.93,81a.41.41,0,0,0,.18,0L194.62,61a.35.35,0,0,0,.12-.48.34.34,0,0,0-.47-.12L159.76,80.32a.36.36,0,0,0-.13.48A.35.35,0,0,0,159.93,81Z" fill="#fff"/><path d="M159.93,83.6a.39.39,0,0,0,.18,0l34.51-19.93a.35.35,0,0,0-.35-.6L159.76,83a.34.34,0,0,0-.13.47A.35.35,0,0,0,159.93,83.6Z" fill="#fff"/><path d="M159.93,86.24a.31.31,0,0,0,.18,0l34.51-19.92a.35.35,0,0,0,.12-.48.34.34,0,0,0-.47-.12L159.76,85.59a.36.36,0,0,0-.13.48A.35.35,0,0,0,159.93,86.24Z" fill="#fff"/><path d="M159.93,88.88a.41.41,0,0,0,.18,0L194.62,68.9a.35.35,0,0,0-.35-.6L159.76,88.23a.34.34,0,0,0-.13.47A.36.36,0,0,0,159.93,88.88Z" fill="#fff"/><path d="M159.93,52.07a.34.34,0,0,0,.3-.17.35.35,0,0,0-.12-.48L125.6,31.5a.35.35,0,1,0-.35.6L159.76,52A.37.37,0,0,0,159.93,52.07Z" fill="#fff"/><path d="M156.44,89.93a.34.34,0,0,0,.34-.35V49.73a.35.35,0,0,0-.69,0V89.58A.34.34,0,0,0,156.44,89.93Z" fill="#fff"/><path d="M153,87.93a.35.35,0,0,0,.35-.34V47.73a.35.35,0,0,0-.35-.34.34.34,0,0,0-.34.34V87.59A.35.35,0,0,0,153,87.93Z" fill="#fff"/><path d="M149.51,85.93a.35.35,0,0,0,.35-.34V45.74a.35.35,0,0,0-.35-.35.34.34,0,0,0-.35.35V85.59A.34.34,0,0,0,149.51,85.93Z" fill="#fff"/><path d="M146,83.93a.35.35,0,0,0,.35-.34V43.74a.35.35,0,0,0-.35-.35.34.34,0,0,0-.34.35V83.59A.34.34,0,0,0,146,83.93Z" fill="#fff"/><path d="M142.58,81.93a.35.35,0,0,0,.35-.34V41.74a.35.35,0,0,0-.7,0V81.59A.35.35,0,0,0,142.58,81.93Z" fill="#fff"/><path d="M139.12,79.93a.34.34,0,0,0,.34-.35V39.73a.35.35,0,0,0-.69,0V79.58A.34.34,0,0,0,139.12,79.93Z" fill="#fff"/><path d="M135.65,77.93a.35.35,0,0,0,.35-.35V37.73a.35.35,0,0,0-.35-.34.34.34,0,0,0-.34.34V77.58A.34.34,0,0,0,135.65,77.93Z" fill="#fff"/><path d="M132.19,75.93a.34.34,0,0,0,.34-.34V35.73a.35.35,0,0,0-.7,0V75.59A.34.34,0,0,0,132.19,75.93Z" fill="#fff"/><path d="M128.72,73.93a.34.34,0,0,0,.35-.34V33.74a.35.35,0,1,0-.69,0V73.59A.34.34,0,0,0,128.72,73.93Z" fill="#fff"/><path d="M13.87,169.38a25.86,25.86,0,1,1,25.86,25.86A25.9,25.9,0,0,1,13.87,169.38Zm.69,0a25.17,25.17,0,1,0,25.17-25.17A25.19,25.19,0,0,0,14.56,169.38Z" fill="#fff"/><path d="M39.38,195.49,17.29,182.73a.68.68,0,0,1-.35-.6V156.62a.68.68,0,0,1,.35-.6l22.09-12.76a.73.73,0,0,1,.7,0L62.17,156a.68.68,0,0,1,.35.6v25.51a.68.68,0,0,1-.35.6L40.08,195.49a.73.73,0,0,1-.7,0ZM61.13,157l-21.4-12.36L18.33,157v24.71l21.4,12.36,21.4-12.36Z" fill="#fff"/><path d="M39.73,195.24a.35.35,0,0,0,.35-.35V169.38a.35.35,0,1,0-.7,0v25.51A.35.35,0,0,0,39.73,195.24Z" fill="#fff"/><path d="M39.73,169.72a.34.34,0,0,0,.3-.17.35.35,0,0,0-.13-.48L17.81,156.32a.35.35,0,1,0-.35.6l22.1,12.75A.26.26,0,0,0,39.73,169.72Z" fill="#fff"/><path d="M39.73,172.48a.34.34,0,0,0,.3-.17.35.35,0,0,0-.13-.48L17.81,159.08a.35.35,0,1,0-.35.6l22.1,12.76A.33.33,0,0,0,39.73,172.48Z" fill="#fff"/><path d="M39.73,175.25a.35.35,0,0,0,.3-.18.34.34,0,0,0-.13-.47L17.81,161.84a.35.35,0,1,0-.35.6l22.1,12.76A.34.34,0,0,0,39.73,175.25Z" fill="#fff"/><path d="M39.73,178a.35.35,0,0,0,.3-.18.34.34,0,0,0-.13-.47L17.81,164.6a.35.35,0,1,0-.35.6L39.56,178A.34.34,0,0,0,39.73,178Z" fill="#fff"/><path d="M39.73,180.77a.33.33,0,0,0,.3-.18.34.34,0,0,0-.13-.47L17.81,167.36a.35.35,0,1,0-.35.6l22.1,12.76A.34.34,0,0,0,39.73,180.77Z" fill="#fff"/><path d="M39.73,183.53a.33.33,0,0,0,.3-.18.34.34,0,0,0-.13-.47L17.81,170.12a.36.36,0,0,0-.48.13.34.34,0,0,0,.13.47l22.1,12.76A.34.34,0,0,0,39.73,183.53Z" fill="#fff"/><path d="M39.73,186.29a.34.34,0,0,0,.3-.17.35.35,0,0,0-.13-.48L17.81,172.88a.36.36,0,0,0-.48.13.34.34,0,0,0,.13.47l22.1,12.76A.34.34,0,0,0,39.73,186.29Z" fill="#fff"/><path d="M39.73,189.05a.34.34,0,0,0,.3-.17.35.35,0,0,0-.13-.48L17.81,175.64a.37.37,0,0,0-.48.13.36.36,0,0,0,.13.48L39.56,189A.34.34,0,0,0,39.73,189.05Z" fill="#fff"/><path d="M39.73,191.81a.34.34,0,0,0,.3-.17.35.35,0,0,0-.13-.48L17.81,178.41a.35.35,0,1,0-.35.6l22.1,12.75A.26.26,0,0,0,39.73,191.81Z" fill="#fff"/><path d="M39.73,169.72a.26.26,0,0,0,.17-.05L62,156.92a.35.35,0,1,0-.35-.6L39.56,169.07a.35.35,0,0,0-.13.48A.34.34,0,0,0,39.73,169.72Z" fill="#fff"/><path d="M202.38,110.21a.67.67,0,0,0,.6-.35.69.69,0,0,0-.25-1L175.64,93.27a.69.69,0,0,0-.95.26.68.68,0,0,0,.25.94L202,110.12A.67.67,0,0,0,202.38,110.21Z" fill="#fff"/><path d="M202.38,118a.67.67,0,0,0,.6-.35.69.69,0,0,0-.25-1l-27.09-15.64a.7.7,0,0,0-.7,1.21L202,117.94A.67.67,0,0,0,202.38,118Z" fill="#fff"/><path d="M202.38,125.85a.68.68,0,0,0,.6-.34.69.69,0,0,0-.25-1l-27.09-15.65a.7.7,0,0,0-.95.26.69.69,0,0,0,.25,1L202,125.76A.67.67,0,0,0,202.38,125.85Z" fill="#fff"/><path d="M202.38,133.67a.68.68,0,0,0,.6-.34.69.69,0,0,0-.25-1l-27.09-15.65a.7.7,0,0,0-.95.26.69.69,0,0,0,.25,1L202,133.58A.67.67,0,0,0,202.38,133.67Z" fill="#fff"/><path d="M202.38,141.5a.7.7,0,0,0,.35-1.3l-27.09-15.64a.7.7,0,0,0-.95.25.69.69,0,0,0,.25,1L202,141.4A.59.59,0,0,0,202.38,141.5Z" fill="#fff"/><path d="M202.38,149.32a.7.7,0,0,0,.35-1.3l-27.09-15.64a.7.7,0,0,0-.95.25.69.69,0,0,0,.25,1L202,149.23A.67.67,0,0,0,202.38,149.32Z" fill="#fff"/><path d="M202.38,157.14a.67.67,0,0,0,.6-.35.69.69,0,0,0-.25-.95L175.64,140.2a.69.69,0,0,0-.95.26.68.68,0,0,0,.25.94L202,157.05A.67.67,0,0,0,202.38,157.14Z" fill="#fff"/><path d="M202.38,165a.68.68,0,0,0,.6-.34.69.69,0,0,0-.25-1L175.64,148a.7.7,0,0,0-.7,1.21L202,164.87A.67.67,0,0,0,202.38,165Z" fill="#fff"/><path d="M202.38,172.78a.68.68,0,0,0,.6-.34.69.69,0,0,0-.25-.95l-27.09-15.65a.7.7,0,0,0-.95.26.69.69,0,0,0,.25,1L202,172.69A.67.67,0,0,0,202.38,172.78Z" fill="#fff"/><path d="M202.38,180.61a.7.7,0,0,0,.35-1.3l-27.09-15.64a.7.7,0,0,0-.95.25.69.69,0,0,0,.25,1L202,180.51A.67.67,0,0,0,202.38,180.61Z" fill="#fff"/><path d="M202.38,188.43a.7.7,0,0,0,.35-1.3l-27.09-15.64a.7.7,0,0,0-.95.25.69.69,0,0,0,.25.95L202,188.33A.59.59,0,0,0,202.38,188.43Z" fill="#fff"/><path d="M136.08,18h0a.35.35,0,0,0,.34-.35V1.16a.34.34,0,0,0-.35-.34h0a.34.34,0,0,0-.34.34V17.63A.35.35,0,0,0,136.08,18Z" fill="#fff"/><path d="M132.51,20a.35.35,0,0,0,.35-.35V3.22a.35.35,0,1,0-.7,0V19.69A.35.35,0,0,0,132.51,20Z" fill="#fff"/><path d="M128.94,22.1a.35.35,0,0,0,.35-.35V5.28a.35.35,0,1,0-.69,0V21.75A.35.35,0,0,0,128.94,22.1Z" fill="#fff"/><path d="M125.38,24.16a.35.35,0,0,0,.34-.35V7.34a.35.35,0,0,0-.34-.35.35.35,0,0,0-.35.35V23.81A.35.35,0,0,0,125.38,24.16Z" fill="#fff"/><path d="M121.81,26.21a.35.35,0,0,0,.35-.34V9.4a.35.35,0,0,0-.7,0V25.87A.35.35,0,0,0,121.81,26.21Z" fill="#fff"/><path d="M118.24,28.27a.34.34,0,0,0,.35-.35V11.46a.35.35,0,1,0-.69,0V27.92A.34.34,0,0,0,118.24,28.27Z" fill="#fff"/><path d="M114.68,30.33A.35.35,0,0,0,115,30V13.51a.35.35,0,0,0-.7,0V30A.35.35,0,0,0,114.68,30.33Z" fill="#fff"/><path d="M111.12,32.39a.34.34,0,0,0,.34-.35V15.57a.35.35,0,0,0-.69,0V32A.34.34,0,0,0,111.12,32.39Z" fill="#fff"/><path d="M107.55,34.45a.35.35,0,0,0,.35-.35V17.63a.35.35,0,1,0-.7,0V34.1A.35.35,0,0,0,107.55,34.45Z" fill="#fff"/><path d="M104,36.51a.35.35,0,0,0,.35-.35V19.69a.35.35,0,1,0-.69,0V36.16A.35.35,0,0,0,104,36.51Z" fill="#fff"/><path d="M100.42,38.57a.35.35,0,0,0,.34-.35V21.75a.35.35,0,1,0-.69,0V38.22A.35.35,0,0,0,100.42,38.57Z" fill="#fff"/><path d="M145.74,186.77h0a.35.35,0,0,0,.35-.35V170a.35.35,0,0,0-.35-.35h0a.35.35,0,0,0-.35.35v16.47A.35.35,0,0,0,145.74,186.77Z" fill="#fff"/><path d="M142.17,188.82a.34.34,0,0,0,.35-.34V172a.35.35,0,1,0-.69,0v16.47A.34.34,0,0,0,142.17,188.82Z" fill="#fff"/><path d="M138.61,190.88a.35.35,0,0,0,.35-.34V174.07a.35.35,0,1,0-.7,0v16.47A.35.35,0,0,0,138.61,190.88Z" fill="#fff"/><path d="M135,192.94a.35.35,0,0,0,.35-.35V176.12a.35.35,0,0,0-.35-.34.34.34,0,0,0-.34.34v16.47A.34.34,0,0,0,135,192.94Z" fill="#fff"/><path d="M131.48,195a.35.35,0,0,0,.34-.35V178.18a.34.34,0,0,0-.34-.34.35.35,0,0,0-.35.34v16.47A.35.35,0,0,0,131.48,195Z" fill="#fff"/><path d="M127.91,197.06a.35.35,0,0,0,.35-.35V180.24a.35.35,0,1,0-.7,0v16.47A.35.35,0,0,0,127.91,197.06Z" fill="#fff"/><path d="M124.34,199.12a.35.35,0,0,0,.35-.35V182.3a.35.35,0,1,0-.69,0v16.47A.35.35,0,0,0,124.34,199.12Z" fill="#fff"/><path d="M120.78,201.18a.35.35,0,0,0,.35-.35V184.36a.35.35,0,1,0-.7,0v16.47A.35.35,0,0,0,120.78,201.18Z" fill="#fff"/><path d="M117.21,203.23a.35.35,0,0,0,.35-.34V186.42a.35.35,0,1,0-.69,0v16.47A.34.34,0,0,0,117.21,203.23Z" fill="#fff"/><path d="M113.65,205.29A.35.35,0,0,0,114,205V188.48a.35.35,0,0,0-.7,0V205A.35.35,0,0,0,113.65,205.29Z" fill="#fff"/><path d="M110.08,207.35a.35.35,0,0,0,.35-.35V190.54a.35.35,0,1,0-.7,0V207A.35.35,0,0,0,110.08,207.35Z" fill="#fff"/><path d="M150.76,201.54a.35.35,0,0,0,.3-.17.35.35,0,0,0-.13-.48L65.23,151a.36.36,0,0,0-.48.13.35.35,0,0,0,.13.48l85.7,49.86A.31.31,0,0,0,150.76,201.54Z" fill="#fff"/><path d="M150.75,205a.35.35,0,0,0,.3-.17.36.36,0,0,0-.13-.48L65.21,154.46a.35.35,0,0,0-.47.13.34.34,0,0,0,.13.47l85.7,49.87A.41.41,0,0,0,150.75,205Z" fill="#fff"/><path d="M150.73,208.42a.35.35,0,0,0,.18-.65L65.2,157.9a.34.34,0,0,0-.34.6l85.7,49.87A.34.34,0,0,0,150.73,208.42Z" fill="#fff"/><path d="M150.72,211.85a.34.34,0,0,0,.18-.64L65.19,161.34a.34.34,0,0,0-.47.12.35.35,0,0,0,.12.48l85.71,49.87A.33.33,0,0,0,150.72,211.85Z" fill="#fff"/><path d="M150.71,215.29a.34.34,0,0,0,.3-.17.35.35,0,0,0-.12-.48L65.18,164.78a.33.33,0,0,0-.47.12.34.34,0,0,0,.12.48l85.71,49.86A.26.26,0,0,0,150.71,215.29Z" fill="#fff"/><path d="M150.7,218.73a.34.34,0,0,0,.3-.17.35.35,0,0,0-.12-.48L65.17,168.21a.36.36,0,0,0-.48.13.34.34,0,0,0,.13.47l85.71,49.87A.26.26,0,0,0,150.7,218.73Z" fill="#fff"/><path d="M150.69,222.17a.34.34,0,0,0,.3-.18.35.35,0,0,0-.13-.47l-85.7-49.87a.36.36,0,0,0-.48.13.35.35,0,0,0,.13.47l85.7,49.87A.41.41,0,0,0,150.69,222.17Z" fill="#fff"/><path d="M201.91,151.66l-27-15.76a.68.68,0,0,1-.35-.6l.12-31.28a.71.71,0,0,1,.36-.6l27.15-15.54a.7.7,0,0,1,.7,0l27,15.75a.69.69,0,0,1,.34.6l-.12,31.28a.68.68,0,0,1-.35.6L202.6,151.66a.67.67,0,0,1-.34.09A.73.73,0,0,1,201.91,151.66Zm26.93-47L202.51,89.29,176,104.42l-.12,30.49,26.34,15.34,26.46-15.13Z" fill="#fff"/><path d="M202.26,151.4a.35.35,0,0,0,.35-.34l.12-31.29a.35.35,0,0,0-.34-.35.33.33,0,0,0-.35.35l-.13,31.29a.34.34,0,0,0,.35.34Z" fill="#fff"/><path d="M202.38,120.12a.41.41,0,0,0,.18-.05l27.15-15.53a.35.35,0,0,0,.13-.48.35.35,0,0,0-.47-.13l-27.16,15.54a.34.34,0,0,0-.13.47A.34.34,0,0,0,202.38,120.12Z" fill="#fff"/><path d="M202.37,123.5a.33.33,0,0,0,.17,0l27.16-15.54a.34.34,0,0,0,.13-.47.36.36,0,0,0-.48-.13L202.2,122.86a.33.33,0,0,0-.13.47A.34.34,0,0,0,202.37,123.5Z" fill="#fff"/><path d="M202.36,126.89a.41.41,0,0,0,.17,0l27.15-15.53a.34.34,0,0,0,.13-.47.33.33,0,0,0-.47-.13l-27.16,15.53a.34.34,0,0,0-.12.47A.35.35,0,0,0,202.36,126.89Z" fill="#fff"/><path d="M202.34,130.27a.33.33,0,0,0,.17,0l27.16-15.54a.34.34,0,0,0-.34-.6l-27.16,15.54a.34.34,0,0,0-.13.47A.35.35,0,0,0,202.34,130.27Z" fill="#fff"/><path d="M202.33,133.66a.34.34,0,0,0,.17,0l27.16-15.53a.36.36,0,0,0,.13-.47.35.35,0,0,0-.48-.13L202.16,133a.34.34,0,0,0-.13.47A.33.33,0,0,0,202.33,133.66Z" fill="#fff"/><path d="M202.32,137.05a.37.37,0,0,0,.17-.05l27.15-15.53a.35.35,0,0,0,.13-.48.34.34,0,0,0-.47-.13L202.14,136.4a.34.34,0,0,0-.12.47A.35.35,0,0,0,202.32,137.05Z" fill="#fff"/><path d="M202.3,140.43a.33.33,0,0,0,.17,0l27.16-15.54a.35.35,0,0,0,.13-.47.34.34,0,0,0-.47-.13l-27.16,15.53a.35.35,0,0,0-.13.48A.34.34,0,0,0,202.3,140.43Z" fill="#fff"/><path d="M202.29,143.82a.34.34,0,0,0,.17,0l27.16-15.53a.37.37,0,0,0,.13-.48.36.36,0,0,0-.48-.13l-27.15,15.54a.34.34,0,0,0-.13.47A.35.35,0,0,0,202.29,143.82Z" fill="#fff"/><path d="M202.28,147.2a.38.38,0,0,0,.17,0l27.15-15.54a.34.34,0,0,0-.34-.6L202.1,146.55a.35.35,0,0,0-.12.48A.33.33,0,0,0,202.28,147.2Z" fill="#fff"/><path d="M202.38,120.12a.34.34,0,0,0,.3-.17.35.35,0,0,0-.12-.48l-27-15.75a.34.34,0,0,0-.47.12.35.35,0,0,0,.13.48l27,15.75A.34.34,0,0,0,202.38,120.12Z" fill="#fff"/><path d="M100.28,103.46a7.34,7.34,0,1,1,7.34,7.34A7.34,7.34,0,0,1,100.28,103.46Zm.7,0a6.64,6.64,0,1,0,6.64-6.64A6.65,6.65,0,0,0,101,103.46Z" fill="#fff"/><path d="M107.62,104.15a.69.69,0,0,0,.69-.69V24.8a.7.7,0,1,0-1.39,0v78.66A.69.69,0,0,0,107.62,104.15Z" fill="#fff"/><path d="M107.62,25.14a.33.33,0,0,0,.17,0L142.3,5.17a.34.34,0,0,0-.34-.6L107.45,24.49a.35.35,0,0,0-.13.48A.34.34,0,0,0,107.62,25.14Z" fill="#fff"/><path d="M107.62,27.69a.34.34,0,0,0,.17-.05L142.3,7.71a.33.33,0,0,0,.13-.47.35.35,0,0,0-.47-.13L107.45,27a.34.34,0,0,0-.13.47A.35.35,0,0,0,107.62,27.69Z" fill="#fff"/><path d="M107.62,30.32a.34.34,0,0,0,.17-.05L142.3,10.35a.34.34,0,0,0-.34-.6L107.45,29.67a.35.35,0,0,0-.13.48A.34.34,0,0,0,107.62,30.32Z" fill="#fff"/><path d="M107.62,33a.34.34,0,0,0,.17-.05L142.3,13a.33.33,0,0,0,.13-.47.35.35,0,0,0-.47-.13L107.45,32.31a.34.34,0,0,0-.13.47A.35.35,0,0,0,107.62,33Z" fill="#fff"/><path d="M107.62,35.59a.33.33,0,0,0,.17,0L142.3,15.62A.34.34,0,0,0,142,15L107.45,34.94a.35.35,0,0,0-.13.48A.34.34,0,0,0,107.62,35.59Z" fill="#fff"/><path d="M107.62,38.23a.34.34,0,0,0,.17,0L142.3,18.26a.35.35,0,0,0,.13-.48.34.34,0,0,0-.47-.12L107.45,37.58a.34.34,0,0,0-.13.47A.35.35,0,0,0,107.62,38.23Z" fill="#fff"/><path d="M107.62,40.86a.33.33,0,0,0,.17,0L142.3,20.89a.34.34,0,0,0,.13-.47.35.35,0,0,0-.47-.13L107.45,40.21a.35.35,0,0,0-.13.48A.34.34,0,0,0,107.62,40.86Z" fill="#fff"/><path d="M107.62,43.5a.34.34,0,0,0,.17,0L142.3,23.53a.35.35,0,0,0,.13-.48.34.34,0,0,0-.47-.12L107.45,42.85a.35.35,0,0,0-.13.48A.34.34,0,0,0,107.62,43.5Z" fill="#fff"/><path d="M107.62,46.13a.33.33,0,0,0,.17,0L142.3,26.16a.33.33,0,0,0,.13-.47.35.35,0,0,0-.47-.13L107.45,45.49a.34.34,0,0,0,.17.64Z" fill="#fff"/><path d="M107.62,48.77a.34.34,0,0,0,.17-.05L142.3,28.8a.34.34,0,0,0-.34-.6L107.45,48.12a.35.35,0,0,0-.13.48A.34.34,0,0,0,107.62,48.77Z" fill="#fff"/><path d="M107.62,51.41a.34.34,0,0,0,.17,0L142.3,31.44a.35.35,0,0,0,.13-.48.36.36,0,0,0-.47-.13L107.45,50.76a.34.34,0,0,0-.13.47A.35.35,0,0,0,107.62,51.41Z" fill="#fff"/><path d="M107.62,54a.33.33,0,0,0,.17,0L142.3,34.07a.34.34,0,1,0-.34-.6L107.45,53.39a.35.35,0,0,0-.13.48A.34.34,0,0,0,107.62,54Z" fill="#fff"/><path d="M107.62,56.68a.34.34,0,0,0,.17,0L142.3,36.71a.35.35,0,0,0,.13-.48.34.34,0,0,0-.47-.12L107.45,56a.34.34,0,0,0-.13.47A.33.33,0,0,0,107.62,56.68Z" fill="#fff"/><path d="M107.62,59.31a.33.33,0,0,0,.17,0L142.3,39.34a.34.34,0,0,0,.13-.47.35.35,0,0,0-.47-.13L107.45,58.66a.35.35,0,0,0-.13.48A.34.34,0,0,0,107.62,59.31Z" fill="#fff"/><path d="M107.62,62a.34.34,0,0,0,.17-.05L142.3,42a.35.35,0,0,0,.13-.48.34.34,0,0,0-.47-.12L107.45,61.3a.34.34,0,0,0-.13.47A.33.33,0,0,0,107.62,62Z" fill="#fff"/><path d="M54.35,97.68a82.6,82.6,0,1,1,82.6,82.6A82.7,82.7,0,0,1,54.35,97.68Zm.34,0A82.26,82.26,0,1,0,137,15.42,82.35,82.35,0,0,0,54.69,97.68Z" fill="#fff"/><path d="M208.34,57.68a.18.18,0,0,0,.17-.18v-1a.16.16,0,0,0-.09-.15l-.9-.52a.17.17,0,1,0-.17.3l.81.47v.94A.18.18,0,0,0,208.34,57.68Z" fill="#fff"/><path d="M205.56,55.06l-1.78-1a.18.18,0,0,1-.06-.24.17.17,0,0,1,.23-.06l1.79,1a.17.17,0,0,1-.09.32A.15.15,0,0,1,205.56,55.06ZM202,53l-1.78-1a.17.17,0,1,1,.18-.3l1.78,1a.17.17,0,0,1-.09.32A.15.15,0,0,1,202,53Zm-3.56-2.06-1.79-1a.17.17,0,1,1,.18-.3l1.78,1a.17.17,0,0,1-.09.32A.11.11,0,0,1,198.43,50.94Zm-3.57-2.06-1.79-1a.18.18,0,0,1-.06-.24.18.18,0,0,1,.24-.06l1.78,1a.17.17,0,0,1-.09.32A.13.13,0,0,1,194.86,48.88Zm-3.57-2.06-1.79-1a.17.17,0,1,1,.18-.3l1.78,1a.18.18,0,0,1,.07.24.19.19,0,0,1-.15.08A.15.15,0,0,1,191.29,46.82Zm-3.57-2.06-1.78-1a.19.19,0,0,1-.07-.24.18.18,0,0,1,.24-.06l1.78,1a.17.17,0,0,1,.07.24.18.18,0,0,1-.15.08Zm-3.57-2.06-1.78-1a.18.18,0,0,1-.06-.24.16.16,0,0,1,.23-.06l1.79,1a.17.17,0,0,1-.09.32Zm-3.57-2.06-1.78-1a.18.18,0,0,1-.06-.24.18.18,0,0,1,.24-.06l1.78,1a.17.17,0,0,1-.09.32ZM177,38.58l-1.79-1a.17.17,0,0,1,.18-.3l1.78,1a.17.17,0,0,1-.09.32Zm-3.57-2.06-1.79-1a.17.17,0,1,1,.18-.3l1.78,1a.17.17,0,0,1,.07.23.18.18,0,0,1-.15.09Zm-3.57-2.06-1.78-1a.17.17,0,0,1-.07-.24.18.18,0,0,1,.24-.06l1.78,1a.17.17,0,0,1,.07.23.16.16,0,0,1-.15.09Zm-3.57-2.06-1.78-1a.18.18,0,0,1-.07-.24.18.18,0,0,1,.24-.06l1.78,1a.16.16,0,0,1,.07.23.16.16,0,0,1-.15.09Zm-3.57-2.06-1.78-1a.19.19,0,0,1-.07-.24.18.18,0,0,1,.24-.06l1.79,1a.17.17,0,0,1-.09.32Zm-3.56-2.06-1.79-1a.18.18,0,0,1-.06-.24.17.17,0,0,1,.23-.06l1.79,1a.17.17,0,0,1-.09.32Zm-3.57-2.06-1.79-1a.18.18,0,0,1-.06-.24.18.18,0,0,1,.24-.06l1.78,1a.17.17,0,0,1-.09.32ZM152,24.16l-1.79-1a.17.17,0,1,1,.18-.3l1.78,1a.17.17,0,0,1,.07.23.18.18,0,0,1-.15.09Zm-3.57-2.06-1.78-1a.17.17,0,0,1-.07-.24.18.18,0,0,1,.24-.06l1.78,1a.16.16,0,0,1,.07.23.16.16,0,0,1-.15.09ZM144.9,20l-1.78-1a.18.18,0,0,1-.06-.24.16.16,0,0,1,.23-.06l1.79,1a.17.17,0,0,1-.09.32ZM141.33,18l-1.78-1a.18.18,0,0,1-.06-.24.16.16,0,0,1,.23-.06l1.79,1a.17.17,0,0,1-.09.32Z" fill="#fff"/><path d="M136.05,15.94l.09,0,.81-.47.82.47a.17.17,0,0,0,.23-.07.16.16,0,0,0-.06-.23l-.9-.53a.19.19,0,0,0-.18,0l-.9.53a.17.17,0,0,0,.09.32Z" fill="#fff"/><path d="M68.1,55a.18.18,0,0,1,.06-.24l1.79-1a.17.17,0,0,1,.23.06.18.18,0,0,1-.06.24l-1.78,1a.15.15,0,0,1-.09,0A.18.18,0,0,1,68.1,55Zm3.57-2.06a.18.18,0,0,1,.06-.24l1.79-1a.16.16,0,0,1,.23.06.18.18,0,0,1-.06.24L71.9,53a.11.11,0,0,1-.08,0A.18.18,0,0,1,71.67,52.94Zm3.57-2.06a.18.18,0,0,1,.06-.24l1.78-1a.18.18,0,0,1,.24.06.18.18,0,0,1-.06.24l-1.79,1a.11.11,0,0,1-.08,0A.18.18,0,0,1,75.24,50.88Zm3.56-2.06a.18.18,0,0,1,.07-.24l1.78-1a.18.18,0,0,1,.24.06.17.17,0,0,1-.07.24l-1.78,1a.15.15,0,0,1-.09,0A.21.21,0,0,1,78.8,48.82Zm3.57-2.06a.17.17,0,0,1,.07-.24l1.78-1a.17.17,0,1,1,.17.3l-1.78,1a.15.15,0,0,1-.09,0A.19.19,0,0,1,82.37,46.76Zm3.57-2.06a.18.18,0,0,1,.06-.24l1.79-1a.18.18,0,0,1,.24.06.19.19,0,0,1-.07.24l-1.78,1a.15.15,0,0,1-.09,0A.18.18,0,0,1,85.94,44.7Zm3.57-2.06a.18.18,0,0,1,.06-.24l1.79-1a.17.17,0,0,1,.23.06.18.18,0,0,1-.06.24l-1.78,1-.09,0A.18.18,0,0,1,89.51,42.64Zm3.57-2.06a.18.18,0,0,1,.06-.24l1.78-1a.18.18,0,0,1,.24.06.18.18,0,0,1-.06.24l-1.79,1-.08,0A.18.18,0,0,1,93.08,40.58Zm3.57-2.07a.17.17,0,0,1,.06-.23l1.78-1a.17.17,0,1,1,.18.3l-1.79,1-.08,0A.16.16,0,0,1,96.65,38.51Zm3.56-2.06a.18.18,0,0,1,.07-.23l1.78-1a.17.17,0,0,1,.18.3l-1.79,1-.08,0A.18.18,0,0,1,100.21,36.45Zm3.57-2.06a.16.16,0,0,1,.07-.23l1.78-1a.18.18,0,0,1,.24.06.17.17,0,0,1-.07.24l-1.78,1-.09,0A.16.16,0,0,1,103.78,34.39Zm3.57-2.06a.17.17,0,0,1,.06-.23l1.79-1a.18.18,0,0,1,.24.06.18.18,0,0,1-.07.24l-1.78,1-.09,0A.16.16,0,0,1,107.35,32.33Zm3.57-2.06A.17.17,0,0,1,111,30l1.79-1a.16.16,0,0,1,.23.06.18.18,0,0,1-.06.24l-1.78,1-.09,0A.16.16,0,0,1,110.92,30.27Zm3.57-2.06a.16.16,0,0,1,.06-.23l1.79-1a.16.16,0,0,1,.23.06.18.18,0,0,1-.06.24l-1.79,1-.08,0A.16.16,0,0,1,114.49,28.21Zm3.57-2.06a.16.16,0,0,1,.06-.23l1.78-1a.18.18,0,0,1,.24.06.18.18,0,0,1-.06.24l-1.79,1-.08,0A.16.16,0,0,1,118.06,26.15Zm3.56-2.06a.17.17,0,0,1,.07-.23l1.78-1a.18.18,0,0,1,.24.06.17.17,0,0,1-.07.24l-1.78,1-.09,0A.18.18,0,0,1,121.62,24.09ZM125.19,22a.16.16,0,0,1,.07-.23l1.78-1a.18.18,0,0,1,.24.06.18.18,0,0,1-.07.24l-1.78,1-.09,0A.16.16,0,0,1,125.19,22ZM128.76,20a.16.16,0,0,1,.06-.23l1.79-1a.18.18,0,0,1,.24.06.18.18,0,0,1-.07.24L129,20l-.09,0A.16.16,0,0,1,128.76,20Zm3.57-2.06a.16.16,0,0,1,.06-.23l1.79-1a.17.17,0,0,1,.24.06.19.19,0,0,1-.07.24l-1.78,1-.09,0A.16.16,0,0,1,132.33,17.91Z" fill="#fff"/><path d="M65.56,57.68a.18.18,0,0,0,.18-.18v-.94l.81-.47a.19.19,0,0,0,.07-.24.18.18,0,0,0-.24-.06l-.9.52a.16.16,0,0,0-.09.15v1A.18.18,0,0,0,65.56,57.68Z" fill="#fff"/><path d="M65.39,135.79v-2.06a.17.17,0,0,1,.17-.17.17.17,0,0,1,.18.17v2.06a.18.18,0,0,1-.18.17A.18.18,0,0,1,65.39,135.79Zm0-4.12v-2.06a.18.18,0,0,1,.17-.18.18.18,0,0,1,.18.18v2.06a.18.18,0,0,1-.18.17A.18.18,0,0,1,65.39,131.67Zm0-4.12v-2.06a.18.18,0,0,1,.17-.18.18.18,0,0,1,.18.18v2.06a.18.18,0,0,1-.18.17A.18.18,0,0,1,65.39,127.55Zm0-4.12v-2.06a.18.18,0,0,1,.17-.18.18.18,0,0,1,.18.18v2.06a.18.18,0,0,1-.18.17A.18.18,0,0,1,65.39,123.43Zm0-4.12v-2.06a.18.18,0,0,1,.17-.18.18.18,0,0,1,.18.18v2.06a.18.18,0,0,1-.18.17A.18.18,0,0,1,65.39,119.31Zm0-4.12v-2.06a.18.18,0,0,1,.17-.18.18.18,0,0,1,.18.18v2.06a.18.18,0,0,1-.18.17A.18.18,0,0,1,65.39,115.19Zm0-4.12V109a.18.18,0,0,1,.17-.18.18.18,0,0,1,.18.18v2.06a.18.18,0,0,1-.18.17A.18.18,0,0,1,65.39,111.07Zm0-4.12v-2.06a.18.18,0,0,1,.17-.18.18.18,0,0,1,.18.18V107a.18.18,0,0,1-.18.17A.18.18,0,0,1,65.39,107Zm0-4.12v-2.06a.18.18,0,0,1,.17-.18.18.18,0,0,1,.18.18v2.06a.18.18,0,0,1-.18.17A.18.18,0,0,1,65.39,102.83Zm0-4.12V96.65a.18.18,0,0,1,.17-.18.18.18,0,0,1,.18.18v2.06a.18.18,0,0,1-.18.17A.18.18,0,0,1,65.39,98.71Zm0-4.12V92.52a.18.18,0,0,1,.17-.17.18.18,0,0,1,.18.17v2.07a.18.18,0,0,1-.18.17A.18.18,0,0,1,65.39,94.59Zm0-4.13V88.4a.18.18,0,0,1,.17-.17.18.18,0,0,1,.18.17v2.06a.18.18,0,0,1-.18.18A.18.18,0,0,1,65.39,90.46Zm0-4.12V84.28a.18.18,0,0,1,.17-.17.18.18,0,0,1,.18.17v2.06a.18.18,0,0,1-.18.18A.18.18,0,0,1,65.39,86.34Zm0-4.12V80.16a.18.18,0,0,1,.17-.17.18.18,0,0,1,.18.17v2.06a.18.18,0,0,1-.18.18A.18.18,0,0,1,65.39,82.22Zm0-4.12V76a.18.18,0,0,1,.17-.17.18.18,0,0,1,.18.17V78.1a.18.18,0,0,1-.18.18A.18.18,0,0,1,65.39,78.1Zm0-4.12V71.92a.18.18,0,0,1,.17-.17.18.18,0,0,1,.18.17V74a.18.18,0,0,1-.18.18A.18.18,0,0,1,65.39,74Zm0-4.12V67.8a.18.18,0,0,1,.17-.17.18.18,0,0,1,.18.17v2.06a.18.18,0,0,1-.18.18A.18.18,0,0,1,65.39,69.86Zm0-4.12V63.68a.18.18,0,0,1,.17-.17.18.18,0,0,1,.18.17v2.06a.18.18,0,0,1-.18.18A.18.18,0,0,1,65.39,65.74Zm0-4.12V59.56a.18.18,0,0,1,.17-.17.18.18,0,0,1,.18.17v2.06a.18.18,0,0,1-.18.18A.18.18,0,0,1,65.39,61.62Z" fill="#fff"/><path d="M66.46,139.58a.19.19,0,0,0,.16-.08.19.19,0,0,0-.07-.24l-.81-.47v-.94a.18.18,0,0,0-.18-.18.18.18,0,0,0-.17.18v1a.16.16,0,0,0,.09.15l.9.52A.12.12,0,0,0,66.46,139.58Z" fill="#fff"/><path d="M134.18,178.71l-1.79-1a.16.16,0,0,1-.06-.23.18.18,0,0,1,.24-.07l1.78,1a.18.18,0,0,1,.07.24.19.19,0,0,1-.15.09Zm-3.57-2.07-1.78-1a.17.17,0,0,1-.07-.23.18.18,0,0,1,.24-.07l1.78,1a.18.18,0,0,1,.07.24.18.18,0,0,1-.15.09A.16.16,0,0,1,130.61,176.64ZM127,174.58l-1.78-1a.18.18,0,1,1,.17-.31l1.78,1a.18.18,0,0,1,.07.24.16.16,0,0,1-.15.09Zm-3.57-2.06-1.78-1a.18.18,0,0,1-.07-.23.17.17,0,0,1,.24-.07l1.78,1a.17.17,0,0,1,.07.24.16.16,0,0,1-.15.09Zm-3.57-2.06-1.78-1a.16.16,0,0,1-.06-.23.16.16,0,0,1,.23-.07l1.79,1a.18.18,0,0,1,.06.24.16.16,0,0,1-.15.09Zm-3.56-2.06-1.79-1a.16.16,0,0,1-.06-.23.17.17,0,0,1,.23-.07l1.79,1a.18.18,0,0,1,.06.24.19.19,0,0,1-.15.09A.11.11,0,0,1,116.34,168.4Zm-3.57-2.06-1.79-1a.16.16,0,0,1-.06-.23.17.17,0,0,1,.24-.07l1.78,1a.18.18,0,0,1,.06.24.16.16,0,0,1-.15.09A.11.11,0,0,1,112.77,166.34Zm-3.57-2.06-1.79-1a.16.16,0,0,1-.06-.23.17.17,0,0,1,.24-.07l1.78,1a.18.18,0,0,1,.07.24.18.18,0,0,1-.15.09A.14.14,0,0,1,109.2,164.28Zm-3.57-2.06-1.78-1a.16.16,0,0,1-.07-.23.17.17,0,0,1,.24-.07l1.78,1a.17.17,0,0,1,.07.24.16.16,0,0,1-.15.09A.16.16,0,0,1,105.63,162.22Zm-3.57-2.06-1.78-1a.19.19,0,0,1-.07-.24.18.18,0,0,1,.24-.06l1.79,1a.18.18,0,0,1,.06.24.19.19,0,0,1-.15.09A.16.16,0,0,1,102.06,160.16Zm-3.57-2.06-1.78-1a.16.16,0,0,1-.06-.23.16.16,0,0,1,.23-.07l1.79,1a.18.18,0,0,1,.06.24.19.19,0,0,1-.15.09A.16.16,0,0,1,98.49,158.1ZM94.93,156l-1.79-1a.17.17,0,0,1-.06-.23.16.16,0,0,1,.23-.07l1.79,1a.17.17,0,0,1-.09.32A.11.11,0,0,1,94.93,156ZM91.36,154l-1.79-1a.17.17,0,0,1-.06-.23.17.17,0,0,1,.24-.07l1.78,1a.19.19,0,0,1,.07.24.19.19,0,0,1-.15.09A.12.12,0,0,1,91.36,154Zm-3.57-2.06-1.79-1a.18.18,0,0,1-.06-.24.18.18,0,0,1,.24-.06l1.78,1a.19.19,0,0,1,.07.24.2.2,0,0,1-.15.09A.16.16,0,0,1,87.79,151.92Zm-3.57-2.06-1.78-1a.17.17,0,0,1-.07-.24.18.18,0,0,1,.24-.06l1.78,1a.18.18,0,0,1,.07.24.19.19,0,0,1-.15.09Zm-3.57-2.06-1.78-1a.17.17,0,1,1,.17-.3l1.79,1a.17.17,0,0,1-.09.32A.15.15,0,0,1,80.65,147.8Zm-3.57-2.06-1.78-1a.17.17,0,0,1-.06-.23.16.16,0,0,1,.23-.07l1.79,1a.17.17,0,0,1-.09.32A.15.15,0,0,1,77.08,145.74Zm-3.56-2.06-1.79-1a.18.18,0,0,1-.06-.24.17.17,0,0,1,.23-.06l1.79,1a.17.17,0,0,1-.09.32A.11.11,0,0,1,73.52,143.68ZM70,141.62l-1.79-1a.18.18,0,0,1-.06-.24.18.18,0,0,1,.24-.06l1.78,1a.17.17,0,0,1-.09.32A.11.11,0,0,1,70,141.62Z" fill="#fff"/><path d="M137,180.28l.09,0,.9-.53a.16.16,0,0,0,.06-.23.17.17,0,0,0-.23-.07l-.82.47-.81-.47a.18.18,0,0,0-.24.07.16.16,0,0,0,.06.23l.9.53Z" fill="#fff"/><path d="M139.49,178.64a.18.18,0,0,1,.06-.24l1.78-1a.18.18,0,0,1,.24.07.16.16,0,0,1-.06.23l-1.79,1a.11.11,0,0,1-.08,0A.16.16,0,0,1,139.49,178.64Zm3.57-2.06a.18.18,0,0,1,.06-.24l1.78-1a.18.18,0,0,1,.24.07.16.16,0,0,1-.06.23l-1.79,1a.13.13,0,0,1-.08,0A.16.16,0,0,1,143.06,176.58Zm3.56-2.06a.17.17,0,0,1,.07-.24l1.78-1a.18.18,0,0,1,.24.07.16.16,0,0,1-.07.23l-1.78,1-.09,0A.16.16,0,0,1,146.62,174.52Zm3.57-2.06a.18.18,0,0,1,.06-.24l1.79-1a.17.17,0,0,1,.24.07.17.17,0,0,1-.07.23l-1.78,1-.09,0A.16.16,0,0,1,150.19,172.46Zm3.57-2.06a.18.18,0,0,1,.06-.24l1.79-1a.16.16,0,0,1,.23.07.16.16,0,0,1-.06.23l-1.78,1-.09,0A.16.16,0,0,1,153.76,170.4Zm3.57-2.06a.18.18,0,0,1,.06-.24l1.79-1a.17.17,0,0,1,.17.3l-1.79,1a.11.11,0,0,1-.08,0A.19.19,0,0,1,157.33,168.34Zm3.56-2.06A.19.19,0,0,1,161,166l1.78-1a.18.18,0,0,1,.24.06.18.18,0,0,1-.06.24l-1.79,1a.11.11,0,0,1-.08,0A.22.22,0,0,1,160.89,166.28Zm3.57-2.06a.19.19,0,0,1,.07-.24l1.78-1a.17.17,0,0,1,.24.07.16.16,0,0,1-.07.23l-1.78,1a.16.16,0,0,1-.09,0A.19.19,0,0,1,164.46,164.22Zm3.57-2.06a.18.18,0,0,1,.07-.24l1.78-1a.17.17,0,0,1,.24.07.17.17,0,0,1-.07.23l-1.78,1a.16.16,0,0,1-.09,0A.18.18,0,0,1,168,162.16Zm3.57-2.06a.18.18,0,0,1,.06-.24l1.79-1a.17.17,0,1,1,.17.3l-1.78,1a.16.16,0,0,1-.09,0A.19.19,0,0,1,171.6,160.1Zm3.57-2.06a.18.18,0,0,1,.06-.24l1.79-1a.16.16,0,0,1,.23.06.18.18,0,0,1-.06.24l-1.78,1a.16.16,0,0,1-.09,0A.19.19,0,0,1,175.17,158Zm3.57-2.06a.18.18,0,0,1,.06-.24l1.78-1a.17.17,0,0,1,.24.07.17.17,0,0,1-.06.23L179,156a.15.15,0,0,1-.09,0A.18.18,0,0,1,178.74,156Zm3.57-2.06a.18.18,0,0,1,.06-.24l1.78-1a.18.18,0,0,1,.24.06.18.18,0,0,1-.06.24l-1.79,1a.13.13,0,0,1-.08,0A.19.19,0,0,1,182.31,153.92Zm3.56-2.06a.19.19,0,0,1,.07-.24l1.78-1a.17.17,0,1,1,.18.3l-1.79,1a.16.16,0,0,1-.09,0A.22.22,0,0,1,185.87,151.86Zm3.57-2.06a.18.18,0,0,1,.06-.24l1.79-1a.18.18,0,0,1,.24.06.18.18,0,0,1-.06.24l-1.79,1-.09,0A.2.2,0,0,1,189.44,149.8Zm3.57-2.06a.18.18,0,0,1,.06-.24l1.79-1a.17.17,0,1,1,.17.3l-1.78,1a.15.15,0,0,1-.09,0A.18.18,0,0,1,193,147.74Zm3.57-2.06a.18.18,0,0,1,.06-.24l1.79-1a.16.16,0,0,1,.23.06.18.18,0,0,1-.06.24l-1.78,1a.15.15,0,0,1-.09,0A.18.18,0,0,1,196.58,145.68Zm3.57-2.06a.18.18,0,0,1,.06-.24l1.78-1a.17.17,0,0,1,.18.3l-1.78,1a.15.15,0,0,1-.09,0A.18.18,0,0,1,200.15,143.62Zm3.57-2.06a.18.18,0,0,1,.06-.24l1.78-1a.18.18,0,0,1,.24.06.18.18,0,0,1-.06.24l-1.79,1a.12.12,0,0,1-.08,0A.18.18,0,0,1,203.72,141.56Z" fill="#fff"/><path d="M207.43,139.58a.13.13,0,0,0,.09,0l.9-.52a.16.16,0,0,0,.09-.15v-1a.18.18,0,0,0-.17-.18.18.18,0,0,0-.18.18v.94l-.81.47a.18.18,0,0,0-.07.24A.21.21,0,0,0,207.43,139.58Z" fill="#fff"/><path d="M208.16,135.79v-2.06a.17.17,0,0,1,.18-.17.17.17,0,0,1,.17.17v2.06a.18.18,0,0,1-.17.17A.18.18,0,0,1,208.16,135.79Zm0-4.12v-2.06a.18.18,0,0,1,.18-.18.18.18,0,0,1,.17.18v2.06a.18.18,0,0,1-.17.17A.18.18,0,0,1,208.16,131.67Zm0-4.12v-2.06a.18.18,0,0,1,.18-.18.18.18,0,0,1,.17.18v2.06a.18.18,0,0,1-.17.17A.18.18,0,0,1,208.16,127.55Zm0-4.12v-2.06a.18.18,0,0,1,.18-.18.18.18,0,0,1,.17.18v2.06a.18.18,0,0,1-.17.17A.18.18,0,0,1,208.16,123.43Zm0-4.12v-2.06a.18.18,0,0,1,.18-.18.18.18,0,0,1,.17.18v2.06a.18.18,0,0,1-.17.17A.18.18,0,0,1,208.16,119.31Zm0-4.12v-2.06a.18.18,0,0,1,.18-.18.18.18,0,0,1,.17.18v2.06a.18.18,0,0,1-.17.17A.18.18,0,0,1,208.16,115.19Zm0-4.12V109a.18.18,0,0,1,.18-.18.18.18,0,0,1,.17.18v2.06a.18.18,0,0,1-.17.17A.18.18,0,0,1,208.16,111.07Zm0-4.12v-2.06a.18.18,0,0,1,.18-.18.18.18,0,0,1,.17.18V107a.18.18,0,0,1-.17.17A.18.18,0,0,1,208.16,107Zm0-4.12v-2.06a.18.18,0,0,1,.18-.18.18.18,0,0,1,.17.18v2.06a.18.18,0,0,1-.17.17A.18.18,0,0,1,208.16,102.83Zm0-4.12V96.65a.18.18,0,0,1,.18-.18.18.18,0,0,1,.17.18v2.06a.18.18,0,0,1-.17.17A.18.18,0,0,1,208.16,98.71Zm0-4.12V92.52a.18.18,0,0,1,.18-.17.18.18,0,0,1,.17.17v2.07a.18.18,0,0,1-.17.17A.18.18,0,0,1,208.16,94.59Zm0-4.13V88.4a.18.18,0,0,1,.18-.17.18.18,0,0,1,.17.17v2.06a.18.18,0,0,1-.17.18A.18.18,0,0,1,208.16,90.46Zm0-4.12V84.28a.18.18,0,0,1,.18-.17.18.18,0,0,1,.17.17v2.06a.18.18,0,0,1-.17.18A.18.18,0,0,1,208.16,86.34Zm0-4.12V80.16a.18.18,0,0,1,.18-.17.18.18,0,0,1,.17.17v2.06a.18.18,0,0,1-.17.18A.18.18,0,0,1,208.16,82.22Zm0-4.12V76a.18.18,0,0,1,.18-.17.18.18,0,0,1,.17.17V78.1a.18.18,0,0,1-.17.18A.18.18,0,0,1,208.16,78.1Zm0-4.12V71.92a.18.18,0,0,1,.18-.17.18.18,0,0,1,.17.17V74a.18.18,0,0,1-.17.18A.18.18,0,0,1,208.16,74Zm0-4.12V67.8a.18.18,0,0,1,.18-.17.18.18,0,0,1,.17.17v2.06a.18.18,0,0,1-.17.18A.18.18,0,0,1,208.16,69.86Zm0-4.12V63.68a.18.18,0,0,1,.18-.17.18.18,0,0,1,.17.17v2.06a.18.18,0,0,1-.17.18A.18.18,0,0,1,208.16,65.74Zm0-4.12V59.56a.18.18,0,0,1,.18-.17.18.18,0,0,1,.17.17v2.06a.18.18,0,0,1-.17.18A.18.18,0,0,1,208.16,61.62Z" fill="#fff"/><path d="M136.78,147.6l-43-24.81a.34.34,0,0,1-.17-.3V72.86a.35.35,0,0,1,.17-.3l43-24.81a.34.34,0,0,1,.34,0l43,24.81a.35.35,0,0,1,.17.3v49.63a.34.34,0,0,1-.17.3l-43,24.81a.38.38,0,0,1-.34,0Zm42.8-74.54L137,48.45,94.32,73.06v49.23L137,146.9l42.63-24.61Z" fill="#fff"/><path d="M137,196.13a.16.16,0,0,0,.17-.17V185.78a.17.17,0,1,0-.34,0V196A.16.16,0,0,0,137,196.13Z" fill="#fff"/><path d="M137,10.53a.17.17,0,0,0,.17-.17V.17a.17.17,0,1,0-.34,0V10.36A.17.17,0,0,0,137,10.53Z" fill="#fff"/><path d="M52.18,147.19a.11.11,0,0,0,.08,0l8.82-5.09a.16.16,0,0,0,.07-.23.18.18,0,0,0-.24-.07l-8.82,5.09a.18.18,0,0,0-.06.24A.16.16,0,0,0,52.18,147.19Z" fill="#fff"/><path d="M212.91,54.39a.16.16,0,0,0,.09,0l8.82-5.09a.18.18,0,0,0,.07-.23.18.18,0,0,0-.24-.07l-8.82,5.09a.18.18,0,0,0-.07.24A.16.16,0,0,0,212.91,54.39Z" fill="#fff"/><path d="M61,54.39a.18.18,0,0,0,.15-.08.17.17,0,0,0-.07-.24L52.27,49a.17.17,0,1,0-.18.3l8.82,5.09A.15.15,0,0,0,61,54.39Z" fill="#fff"/><path d="M221.73,147.19a.21.21,0,0,0,.16-.08.19.19,0,0,0-.07-.24L213,141.78a.18.18,0,0,0-.24.06.18.18,0,0,0,.07.24l8.82,5.09A.11.11,0,0,0,221.73,147.19Z" fill="#fff"/><path d="M136.78,179.79v-2.08a.17.17,0,1,1,.34,0v2.08a.17.17,0,1,1-.34,0Zm0-4.17v-2.08a.17.17,0,1,1,.34,0v2.08a.17.17,0,1,1-.34,0Zm0-4.16v-2.09a.17.17,0,1,1,.34,0v2.09a.17.17,0,1,1-.34,0Zm0-4.17v-2.08a.17.17,0,1,1,.34,0v2.08a.17.17,0,1,1-.34,0Zm0-4.16V161a.17.17,0,1,1,.34,0v2.09a.17.17,0,1,1-.34,0Zm0-4.17v-2.08a.17.17,0,1,1,.34,0V159a.17.17,0,0,1-.34,0Zm0-4.17v-2.08a.17.17,0,0,1,.34,0v2.08a.17.17,0,1,1-.34,0Zm0-4.16v-2.08a.17.17,0,1,1,.34,0v2.08a.17.17,0,1,1-.34,0Zm0-4.17v-2.08a.17.17,0,1,1,.34,0v2.08a.17.17,0,1,1-.34,0Zm0-4.16v-2.09a.17.17,0,1,1,.34,0v2.09a.17.17,0,0,1-.34,0Zm0-4.17v-2.08a.17.17,0,1,1,.34,0v2.08a.17.17,0,1,1-.34,0Zm0-4.16v-2.09a.17.17,0,1,1,.34,0V134a.17.17,0,1,1-.34,0Zm0-4.17v-2.08a.17.17,0,1,1,.34,0v2.08a.17.17,0,0,1-.34,0Zm0-4.17v-2.08a.17.17,0,0,1,.34,0v2.08a.17.17,0,1,1-.34,0Zm0-4.16v-2.08a.17.17,0,1,1,.34,0v2.08a.17.17,0,0,1-.34,0Zm0-4.17v-2.08a.17.17,0,1,1,.34,0v2.08a.17.17,0,1,1-.34,0Zm0-4.16v-2.08a.17.17,0,1,1,.34,0v2.08a.17.17,0,1,1-.34,0Zm0-4.17v-2.08a.17.17,0,1,1,.34,0V109a.17.17,0,1,1-.34,0Zm0-4.16v-2.09a.17.17,0,1,1,.34,0v2.09a.17.17,0,1,1-.34,0Zm0-4.17V98.56a.17.17,0,1,1,.34,0v2.08a.17.17,0,1,1-.34,0Zm0-4.16V94.39a.17.17,0,1,1,.34,0v2.09a.17.17,0,1,1-.34,0Zm0-4.17V90.23a.17.17,0,1,1,.34,0v2.08a.17.17,0,1,1-.34,0Zm0-4.17V86.06a.17.17,0,1,1,.34,0v2.08a.17.17,0,1,1-.34,0Zm0-4.16V81.9a.17.17,0,1,1,.34,0V84a.17.17,0,1,1-.34,0Zm0-4.17V77.73a.17.17,0,1,1,.34,0v2.08a.17.17,0,1,1-.34,0Zm0-4.16V73.56a.17.17,0,1,1,.34,0v2.09a.17.17,0,1,1-.34,0Zm0-4.17V69.4a.17.17,0,1,1,.34,0v2.08a.17.17,0,1,1-.34,0Zm0-4.16V65.23a.17.17,0,1,1,.34,0v2.09a.17.17,0,1,1-.34,0Zm0-4.17V61.07a.17.17,0,1,1,.34,0v2.08a.17.17,0,1,1-.34,0Zm0-4.17V56.9a.17.17,0,1,1,.34,0V59a.17.17,0,1,1-.34,0Zm0-4.16V52.74a.17.17,0,1,1,.34,0v2.08a.17.17,0,1,1-.34,0Zm0-4.17V48.57a.17.17,0,1,1,.34,0v2.08a.17.17,0,1,1-.34,0Zm0-4.16V44.4a.17.17,0,1,1,.34,0v2.09a.17.17,0,0,1-.34,0Zm0-4.17V40.24a.17.17,0,1,1,.34,0v2.08a.17.17,0,1,1-.34,0Zm0-4.16V36.07a.17.17,0,1,1,.34,0v2.09a.17.17,0,1,1-.34,0Zm0-4.17V31.91a.17.17,0,1,1,.34,0V34a.17.17,0,0,1-.34,0Zm0-4.17V27.74a.17.17,0,1,1,.34,0v2.08a.17.17,0,1,1-.34,0Zm0-4.16V23.58a.17.17,0,1,1,.34,0v2.08a.17.17,0,0,1-.34,0Zm0-4.17V19.41a.17.17,0,1,1,.34,0v2.08a.17.17,0,1,1-.34,0Zm0-4.16V15.25a.17.17,0,1,1,.34,0v2.08a.17.17,0,1,1-.34,0Z" fill="#fff"/><path d="M208.25,139l-1.8-1a.17.17,0,0,1-.07-.24.18.18,0,0,1,.24-.06l1.8,1a.18.18,0,0,1,.07.24.21.21,0,0,1-.15.08A.15.15,0,0,1,208.25,139ZM204.64,137l-1.8-1a.18.18,0,0,1-.07-.24.17.17,0,0,1,.24-.06l1.8,1a.16.16,0,0,1,.07.23.16.16,0,0,1-.15.09Zm-3.6-2.09-1.81-1a.17.17,0,0,1-.06-.23.16.16,0,0,1,.23-.07l1.81,1a.18.18,0,0,1,.06.24.16.16,0,0,1-.15.09A.11.11,0,0,1,201,134.87Zm-3.61-2.08-1.81-1a.18.18,0,0,1-.06-.24.18.18,0,0,1,.24-.06l1.8,1a.17.17,0,0,1-.09.32A.11.11,0,0,1,197.43,132.79Zm-3.61-2.08-1.8-1a.17.17,0,0,1-.07-.24.18.18,0,0,1,.24-.06l1.8,1a.18.18,0,0,1,.07.23.18.18,0,0,1-.15.09A.15.15,0,0,1,193.82,130.71Zm-3.61-2.08-1.8-1a.17.17,0,0,1-.07-.23.18.18,0,0,1,.24-.07l1.81,1a.18.18,0,0,1,.06.24.16.16,0,0,1-.15.09Zm-3.61-2.09-1.8-1a.17.17,0,1,1,.18-.3l1.8,1a.18.18,0,0,1,.06.24.16.16,0,0,1-.15.08A.15.15,0,0,1,186.6,126.54Zm-3.6-2.08-1.81-1a.17.17,0,1,1,.18-.3l1.8,1a.17.17,0,0,1-.09.32A.11.11,0,0,1,183,124.46Zm-3.61-2.08-1.81-1a.19.19,0,0,1-.06-.24.17.17,0,0,1,.24-.06l1.8,1a.17.17,0,0,1-.08.32Zm-3.61-2.09-1.8-1a.17.17,0,0,1-.07-.23.17.17,0,0,1,.24-.07l1.81,1a.18.18,0,0,1,.06.24.16.16,0,0,1-.15.09A.16.16,0,0,1,175.78,120.29Zm-3.61-2.08-1.8-1a.18.18,0,0,1-.06-.24.16.16,0,0,1,.23-.06l1.81,1a.17.17,0,0,1-.09.32A.15.15,0,0,1,172.17,118.21Zm-3.61-2.08-1.8-1a.17.17,0,0,1,.18-.3l1.8,1a.17.17,0,0,1-.09.32Zm-3.6-2.08-1.81-1a.16.16,0,0,1-.06-.23.18.18,0,0,1,.24-.07l1.8,1a.18.18,0,0,1,.07.24.19.19,0,0,1-.15.09ZM161.35,112l-1.8-1a.17.17,0,0,1-.07-.23.17.17,0,0,1,.24-.07l1.8,1a.17.17,0,0,1,.07.24.16.16,0,0,1-.15.09A.16.16,0,0,1,161.35,112Zm-3.61-2.08-1.8-1a.18.18,0,0,1-.06-.24.17.17,0,0,1,.23-.06l1.81,1a.17.17,0,0,1-.09.32A.15.15,0,0,1,157.74,109.88Zm-3.6-2.08-1.81-1a.18.18,0,0,1-.06-.24.17.17,0,0,1,.23-.06l1.81,1a.17.17,0,0,1-.09.32Zm-3.61-2.08-1.81-1a.16.16,0,0,1-.06-.23.18.18,0,0,1,.24-.07l1.8,1a.18.18,0,0,1-.09.33Zm-3.61-2.09-1.8-1a.17.17,0,0,1-.07-.24.18.18,0,0,1,.24-.06l1.8,1a.17.17,0,0,1,.07.24.19.19,0,0,1-.15.09A.16.16,0,0,1,146.92,103.63Zm-3.61-2.08-1.8-1a.18.18,0,0,1-.06-.24.16.16,0,0,1,.23-.06l1.81,1a.17.17,0,0,1-.09.32A.15.15,0,0,1,143.31,101.55Zm-3.6-2.08-1.81-1a.16.16,0,0,1-.06-.23.18.18,0,0,1,.24-.07l1.8,1a.17.17,0,0,1-.09.32Zm-3.61-2.09-1.81-1a.17.17,0,0,1-.06-.23.17.17,0,0,1,.24-.07l1.8,1a.18.18,0,0,1,.06.24.16.16,0,0,1-.15.09A.13.13,0,0,1,136.1,97.38Zm-3.61-2.08-1.8-1a.17.17,0,0,1-.07-.24.18.18,0,0,1,.24-.06l1.8,1a.17.17,0,0,1,.07.24.18.18,0,0,1-.15.08A.15.15,0,0,1,132.49,95.3Zm-3.61-2.08-1.8-1a.18.18,0,0,1-.06-.24.16.16,0,0,1,.23-.06l1.81,1a.17.17,0,0,1-.09.32Zm-3.6-2.09-1.81-1a.16.16,0,0,1-.06-.23.17.17,0,0,1,.23-.07l1.81,1a.17.17,0,0,1-.09.32A.11.11,0,0,1,125.28,91.13Zm-3.61-2.08-1.8-1a.17.17,0,0,1-.07-.24.18.18,0,0,1,.24-.06l1.8,1a.19.19,0,0,1,.07.24.22.22,0,0,1-.16.09A.13.13,0,0,1,121.67,89.05ZM118.06,87l-1.8-1a.17.17,0,0,1-.07-.24.18.18,0,0,1,.24-.06l1.8,1a.18.18,0,0,1,.07.24.19.19,0,0,1-.15.08A.15.15,0,0,1,118.06,87Zm-3.61-2.08-1.8-1a.18.18,0,0,1,.17-.31l1.8,1a.16.16,0,0,1,.07.23.16.16,0,0,1-.15.09Zm-3.6-2.09-1.81-1a.17.17,0,0,1-.06-.23.16.16,0,0,1,.23-.07l1.81,1a.18.18,0,0,1,.06.24.16.16,0,0,1-.15.09A.11.11,0,0,1,110.85,82.8Zm-3.61-2.08-1.81-1a.18.18,0,0,1-.06-.24.18.18,0,0,1,.24-.06l1.8,1a.17.17,0,0,1-.09.32A.11.11,0,0,1,107.24,80.72Zm-3.61-2.08-1.8-1a.17.17,0,0,1-.07-.24.18.18,0,0,1,.24-.06l1.8,1a.17.17,0,0,1-.08.32ZM100,76.56l-1.8-1a.17.17,0,0,1-.07-.23.17.17,0,0,1,.24-.07l1.81,1a.18.18,0,0,1,.06.24.16.16,0,0,1-.15.09Zm-3.61-2.09-1.8-1a.17.17,0,1,1,.18-.3l1.8,1a.18.18,0,0,1,.06.24.19.19,0,0,1-.15.09A.16.16,0,0,1,96.41,74.47Zm-3.6-2.08-1.81-1a.17.17,0,0,1,.18-.3l1.8,1a.17.17,0,0,1-.09.32A.11.11,0,0,1,92.81,72.39ZM89.2,70.31l-1.81-1a.19.19,0,0,1-.06-.24.18.18,0,0,1,.24-.06l1.8,1a.17.17,0,0,1,.07.23.18.18,0,0,1-.15.09Zm-3.61-2.09-1.8-1a.18.18,0,0,1-.07-.23.18.18,0,0,1,.24-.07l1.81,1a.18.18,0,0,1,.06.24.16.16,0,0,1-.15.09A.16.16,0,0,1,85.59,68.22ZM82,66.14l-1.8-1a.18.18,0,0,1-.06-.24.17.17,0,0,1,.23-.06l1.81,1a.17.17,0,0,1-.09.32A.15.15,0,0,1,82,66.14Zm-3.6-2.08-1.81-1a.17.17,0,0,1,.18-.3l1.8,1a.17.17,0,0,1-.09.32ZM74.77,62l-1.81-1a.16.16,0,0,1-.06-.23.18.18,0,0,1,.24-.07l1.8,1a.17.17,0,0,1,.07.23.19.19,0,0,1-.15.09Zm-3.61-2.09-1.8-1a.17.17,0,1,1,.17-.3l1.8,1a.17.17,0,0,1,.07.24.16.16,0,0,1-.15.09Zm-3.61-2.08-1.8-1a.18.18,0,0,1-.06-.24.17.17,0,0,1,.23-.06l1.81,1a.17.17,0,0,1-.09.32A.15.15,0,0,1,67.55,57.81Z" fill="#fff"/><path d="M65.69,138.82a.18.18,0,0,1,.06-.24l1.8-1a.18.18,0,0,1,.24.06.18.18,0,0,1-.06.24l-1.81,1a.12.12,0,0,1-.08,0A.18.18,0,0,1,65.69,138.82Zm3.6-2.09a.17.17,0,0,1,.07-.23l1.8-1a.18.18,0,0,1,.24.06.17.17,0,0,1-.07.24l-1.8,1-.09,0A.18.18,0,0,1,69.29,136.73Zm3.61-2.08a.16.16,0,0,1,.06-.23l1.81-1a.18.18,0,0,1,.24.07.17.17,0,0,1-.07.23l-1.8,1.05-.09,0A.16.16,0,0,1,72.9,134.65Zm3.61-2.08a.18.18,0,0,1,.06-.24l1.81-1a.17.17,0,0,1,.23.06.18.18,0,0,1-.06.24l-1.8,1a.16.16,0,0,1-.09,0A.16.16,0,0,1,76.51,132.57Zm3.61-2.08a.18.18,0,0,1,.06-.24l1.8-1a.17.17,0,0,1,.18.3l-1.81,1a.11.11,0,0,1-.08,0A.18.18,0,0,1,80.12,130.49Zm3.6-2.09a.18.18,0,0,1,.07-.23l1.8-1a.17.17,0,0,1,.18.3l-1.81,1-.09,0A.18.18,0,0,1,83.72,128.4Zm3.61-2.08a.19.19,0,0,1,.06-.24l1.81-1a.17.17,0,0,1,.24.07.17.17,0,0,1-.07.23l-1.8,1-.09,0A.18.18,0,0,1,87.33,126.32Zm3.61-2.08A.18.18,0,0,1,91,124l1.81-1A.17.17,0,0,1,93,123a.18.18,0,0,1-.06.24l-1.8,1a.15.15,0,0,1-.09,0A.18.18,0,0,1,90.94,124.24Zm3.61-2.08a.18.18,0,0,1,.06-.24l1.8-1a.18.18,0,0,1,.24.06.18.18,0,0,1-.06.24l-1.8,1-.09,0A.18.18,0,0,1,94.55,122.16Zm3.6-2.09a.17.17,0,0,1,.07-.23l1.8-1a.17.17,0,0,1,.24.06.16.16,0,0,1-.06.23l-1.81,1-.09,0A.18.18,0,0,1,98.15,120.07Zm3.61-2.08a.17.17,0,0,1,.07-.24l1.8-1a.17.17,0,0,1,.24.07.18.18,0,0,1-.07.23l-1.8,1a.16.16,0,0,1-.09,0A.16.16,0,0,1,101.76,118Zm3.61-2.08a.18.18,0,0,1,.06-.24l1.81-1a.16.16,0,0,1,.23.06.18.18,0,0,1-.06.24l-1.8,1a.15.15,0,0,1-.09,0A.18.18,0,0,1,105.37,115.91Zm3.61-2.09a.17.17,0,0,1,.06-.23l1.81-1a.17.17,0,0,1,.23.06.18.18,0,0,1-.06.24l-1.81,1-.08,0A.16.16,0,0,1,109,113.82Zm3.6-2.08a.18.18,0,0,1,.07-.24l1.8-1a.17.17,0,0,1,.24.07.16.16,0,0,1-.07.23l-1.8,1-.09,0A.19.19,0,0,1,112.58,111.74Zm3.61-2.08a.17.17,0,0,1,.07-.24l1.8-1a.17.17,0,1,1,.17.3l-1.8,1a.16.16,0,0,1-.09,0A.19.19,0,0,1,116.19,109.66Zm3.61-2.08a.17.17,0,0,1,.07-.24l1.8-1a.18.18,0,0,1,.24.06.19.19,0,0,1-.07.24l-1.8,1a.15.15,0,0,1-.09,0A.18.18,0,0,1,119.8,107.58Zm3.61-2.09a.16.16,0,0,1,.06-.23l1.81-1a.16.16,0,0,1,.23.06.16.16,0,0,1-.06.23l-1.81,1-.08,0A.16.16,0,0,1,123.41,105.49Zm3.61-2.08a.18.18,0,0,1,.06-.24l1.8-1a.17.17,0,0,1,.24.07.16.16,0,0,1-.06.23l-1.81,1a.11.11,0,0,1-.08,0A.16.16,0,0,1,127,103.41Zm3.6-2.08a.17.17,0,0,1,.07-.24l1.8-1a.18.18,0,0,1,.24.06.17.17,0,0,1-.07.24l-1.8,1a.15.15,0,0,1-.09,0A.18.18,0,0,1,130.62,101.33Zm3.61-2.08a.18.18,0,0,1,.06-.24l1.81-1a.16.16,0,0,1,.23.06.18.18,0,0,1-.06.24l-1.8,1-.09,0A.18.18,0,0,1,134.23,99.25Zm3.61-2.09a.18.18,0,0,1,.06-.24l1.81-1a.17.17,0,0,1,.23.07.16.16,0,0,1-.06.23l-1.8,1-.09,0A.16.16,0,0,1,137.84,97.16Zm3.61-2.08a.18.18,0,0,1,.06-.24l1.8-1a.18.18,0,0,1,.24.06.18.18,0,0,1-.06.24l-1.81,1a.11.11,0,0,1-.08,0A.19.19,0,0,1,141.45,95.08Zm3.6-2.08a.17.17,0,0,1,.07-.24l1.8-1a.18.18,0,0,1,.24.06.17.17,0,0,1-.07.24l-1.8,1a.15.15,0,0,1-.09,0A.19.19,0,0,1,145.05,93Zm3.61-2.09a.16.16,0,0,1,.06-.23l1.81-1a.18.18,0,0,1,.24.06.19.19,0,0,1-.07.24l-1.8,1-.09,0A.16.16,0,0,1,148.66,90.91Zm3.61-2.08a.18.18,0,0,1,.06-.24l1.81-1a.16.16,0,0,1,.23.07.16.16,0,0,1-.06.23l-1.81,1a.11.11,0,0,1-.08,0A.16.16,0,0,1,152.27,88.83Zm3.61-2.08a.18.18,0,0,1,.06-.24l1.8-1a.18.18,0,0,1,.24.06.18.18,0,0,1-.06.24l-1.81,1a.13.13,0,0,1-.08,0A.19.19,0,0,1,155.88,86.75Zm3.6-2.09a.17.17,0,0,1,.07-.23l1.8-1a.18.18,0,0,1,.24.06.17.17,0,0,1-.07.24l-1.8,1-.09,0A.18.18,0,0,1,159.48,84.66Zm3.61-2.08a.16.16,0,0,1,.06-.23l1.81-1a.18.18,0,0,1,.24.07.17.17,0,0,1-.07.23l-1.8,1.05-.09,0A.16.16,0,0,1,163.09,82.58Zm3.61-2.08a.18.18,0,0,1,.06-.24l1.8-1a.17.17,0,1,1,.18.3l-1.8,1a.16.16,0,0,1-.09,0A.16.16,0,0,1,166.7,80.5Zm3.61-2.08a.18.18,0,0,1,.06-.24l1.8-1a.17.17,0,1,1,.18.3l-1.81,1a.11.11,0,0,1-.08,0A.18.18,0,0,1,170.31,78.42Zm3.6-2.09a.17.17,0,0,1,.07-.23l1.8-1a.17.17,0,1,1,.18.3l-1.81,1-.09,0A.18.18,0,0,1,173.91,76.33Zm3.61-2.08a.19.19,0,0,1,.06-.24l1.81-1a.17.17,0,0,1,.24.07.18.18,0,0,1-.07.23l-1.8,1a.16.16,0,0,1-.09,0A.18.18,0,0,1,177.52,74.25Zm3.61-2.08a.18.18,0,0,1,.06-.24l1.81-1a.16.16,0,0,1,.23.06.18.18,0,0,1-.06.24l-1.8,1a.16.16,0,0,1-.09,0A.19.19,0,0,1,181.13,72.17Zm3.61-2.08a.18.18,0,0,1,.06-.24l1.8-1a.18.18,0,0,1,.24.06.18.18,0,0,1-.06.24l-1.8,1-.09,0A.18.18,0,0,1,184.74,70.09Zm3.6-2.09a.17.17,0,0,1,.07-.23l1.8-1a.18.18,0,0,1,.18.31l-1.81,1-.09,0A.18.18,0,0,1,188.34,68ZM192,65.92a.17.17,0,0,1,.07-.24l1.8-1a.17.17,0,0,1,.24.07.18.18,0,0,1-.07.23l-1.8,1a.16.16,0,0,1-.09,0A.16.16,0,0,1,192,65.92Zm3.61-2.08a.18.18,0,0,1,.06-.24l1.81-1a.16.16,0,0,1,.23.06.18.18,0,0,1-.06.24l-1.8,1a.15.15,0,0,1-.09,0A.18.18,0,0,1,195.56,63.84Zm3.61-2.09a.17.17,0,0,1,.06-.23l1.81-1a.16.16,0,0,1,.23.06.18.18,0,0,1-.06.24l-1.81,1-.08,0A.16.16,0,0,1,199.17,61.75Zm3.6-2.08a.18.18,0,0,1,.07-.24l1.8-1a.17.17,0,0,1,.24.07.16.16,0,0,1-.07.23L203,59.74l-.09,0A.19.19,0,0,1,202.77,59.67Zm3.61-2.08a.17.17,0,0,1,.07-.24l1.8-1a.17.17,0,1,1,.17.3l-1.8,1a.16.16,0,0,1-.09,0A.19.19,0,0,1,206.38,57.59Z" fill="#fff"/><path d="M137,98.26a.34.34,0,0,0,.18-.64l-43-25.06a.36.36,0,0,0-.48.13.34.34,0,0,0,.13.47l43,25.06A.33.33,0,0,0,137,98.26Z" fill="#fff"/><path d="M137,98.26a.39.39,0,0,0,.18,0l43-25.06a.34.34,0,0,0,.13-.47.36.36,0,0,0-.48-.13l-43,25.06a.33.33,0,0,0-.13.47A.35.35,0,0,0,137,98.26Z" fill="#fff"/><path d="M137,147.64a.35.35,0,0,0,.35-.34V97.91a.35.35,0,0,0-.7,0V147.3A.35.35,0,0,0,137,147.64Z" fill="#fff"/><path d="M141.33,10.56a.08.08,0,0,0,.09-.08l.27-5.08a.09.09,0,0,0-.09-.09h0a.08.08,0,0,0-.09.08l-.26,5.08a.08.08,0,0,0,.08.09Z" fill="#fff"/><path d="M131.89,190.83a.09.09,0,0,0,.08-.09l.27-5.08a.09.09,0,0,0-.08-.09h0a.11.11,0,0,0-.09.08l-.26,5.09a.09.09,0,0,0,.08.09Z" fill="#fff"/><path d="M145.91,10.92a.1.1,0,0,0,.09-.07l.53-5.07a.08.08,0,0,0-.08-.09.08.08,0,0,0-.09.07l-.54,5.07a.08.08,0,0,0,.08.09Z" fill="#fff"/><path d="M127,190.45a.11.11,0,0,0,.09-.08l.53-5.06a.1.1,0,0,0-.08-.1.08.08,0,0,0-.09.08l-.53,5.06a.08.08,0,0,0,.07.1Z" fill="#fff"/><path d="M150.46,11.52a.1.1,0,0,0,.09-.07l.79-5a.08.08,0,0,0-.07-.1.09.09,0,0,0-.1.07l-.79,5a.08.08,0,0,0,.07.1Z" fill="#fff"/><path d="M122.22,189.81a.09.09,0,0,0,.09-.07l.8-5a.1.1,0,0,0-.08-.1.09.09,0,0,0-.1.07l-.79,5a.08.08,0,0,0,.07.1Z" fill="#fff"/><path d="M155,12.36a.08.08,0,0,0,.08-.07l1.06-5a.08.08,0,0,0-.07-.1.09.09,0,0,0-.1.07l-1.06,5a.09.09,0,0,0,.07.11Z" fill="#fff"/><path d="M117.45,188.93a.08.08,0,0,0,.08-.07l1.06-5a.09.09,0,0,0-.07-.11.08.08,0,0,0-.1.07l-1.06,5a.08.08,0,0,0,.07.1Z" fill="#fff"/><path d="M159.44,13.43a.09.09,0,0,0,.09-.06l1.31-4.92s0-.09-.06-.11a.11.11,0,0,0-.11.06l-1.31,4.92a.09.09,0,0,0,.06.11Z" fill="#fff"/><path d="M112.72,187.79a.1.1,0,0,0,.09-.06l1.31-4.92a.09.09,0,0,0-.06-.11.09.09,0,0,0-.1.07l-1.32,4.91a.08.08,0,0,0,.06.11Z" fill="#fff"/><path d="M163.84,14.74a.11.11,0,0,0,.09-.06l1.57-4.85a.08.08,0,1,0-.16-.05l-1.58,4.84a.09.09,0,0,0,.06.11Z" fill="#fff"/><path d="M108.06,186.41a.1.1,0,0,0,.09-.06l1.57-4.84a.09.09,0,0,0-.06-.11.09.09,0,0,0-.11.06L108,186.3a.09.09,0,0,0,.06.11Z" fill="#fff"/><path d="M168.17,16.27a.08.08,0,0,0,.08-.06l1.83-4.75a.09.09,0,0,0-.05-.11.08.08,0,0,0-.11.05l-1.83,4.75a.08.08,0,0,0,0,.11Z" fill="#fff"/><path d="M103.48,184.79a.08.08,0,0,0,.08-.06l1.83-4.75a.09.09,0,0,0,0-.11.08.08,0,0,0-.11,0l-1.83,4.75a.1.1,0,0,0,0,.12Z" fill="#fff"/><path d="M172.42,18a.07.07,0,0,0,.07-.06l2.07-4.65a.08.08,0,0,0-.15-.07l-2.07,4.65a.09.09,0,0,0,0,.12Z" fill="#fff"/><path d="M99,182.93a.08.08,0,0,0,.08-.05l2.08-4.65a.09.09,0,0,0-.05-.12.08.08,0,0,0-.11,0l-2.08,4.65a.08.08,0,0,0,0,.11Z" fill="#fff"/><path d="M176.56,20a.08.08,0,0,0,.08-.05L179,15.42a.1.1,0,0,0,0-.12.1.1,0,0,0-.12,0l-2.31,4.54a.08.08,0,0,0,0,.11Z" fill="#fff"/><path d="M94.61,180.84a.1.1,0,0,0,.08-.05L97,176.25a.08.08,0,0,0,0-.11.08.08,0,0,0-.12,0l-2.31,4.53a.09.09,0,0,0,0,.12Z" fill="#fff"/><path d="M180.6,22.19a.08.08,0,0,0,.07,0l2.55-4.41a.09.09,0,0,0,0-.12.1.1,0,0,0-.12,0l-2.54,4.41a.09.09,0,0,0,0,.12Z" fill="#fff"/><path d="M90.34,178.52a.08.08,0,0,0,.07,0L93,174.07a.09.09,0,0,0,0-.12.08.08,0,0,0-.12,0l-2.55,4.41a.1.1,0,0,0,0,.12Z" fill="#fff"/><path d="M184.51,24.59a.08.08,0,0,0,.07,0l2.77-4.27a.08.08,0,0,0,0-.12.1.1,0,0,0-.12,0l-2.77,4.27a.08.08,0,0,0,0,.12Z" fill="#fff"/><path d="M86.2,176a.09.09,0,0,0,.07,0L89,171.67a.08.08,0,0,0,0-.12.09.09,0,0,0-.12,0l-2.78,4.27a.1.1,0,0,0,0,.12Z" fill="#fff"/><path d="M188.3,27.19a.11.11,0,0,0,.07,0l3-4.12a.08.08,0,0,0,0-.12.08.08,0,0,0-.12,0l-3,4.12a.09.09,0,0,0,0,.12Z" fill="#fff"/><path d="M82.19,173.23a.08.08,0,0,0,.07,0l3-4.12a.09.09,0,0,0-.15-.1l-3,4.12a.08.08,0,0,0,0,.12Z" fill="#fff"/><path d="M191.94,30a.07.07,0,0,0,.06,0l3.21-4a.09.09,0,0,0,0-.12.09.09,0,0,0-.13,0l-3.2,4a.09.09,0,0,0,0,.12Z" fill="#fff"/><path d="M78.34,170.27a.07.07,0,0,0,.06,0l3.21-4a.09.09,0,0,0,0-.12.1.1,0,0,0-.13,0l-3.2,4a.09.09,0,0,0,0,.12Z" fill="#fff"/><path d="M195.43,33a.07.07,0,0,0,.06,0l3.41-3.78a.09.09,0,0,0-.13-.12l-3.41,3.79a.09.09,0,0,0,0,.12Z" fill="#fff"/><path d="M74.64,167.12a.09.09,0,0,0,.07,0l3.4-3.79a.09.09,0,0,0,0-.12.09.09,0,0,0-.13,0L74.58,167a.09.09,0,0,0,0,.12A.09.09,0,0,0,74.64,167.12Z" fill="#fff"/><path d="M198.76,36.13l.06,0,3.6-3.6a.11.11,0,0,0,0-.13.09.09,0,0,0-.12,0L198.7,36a.09.09,0,0,0,0,.13Z" fill="#fff"/><path d="M71.12,163.77l.06,0,3.6-3.59a.11.11,0,0,0,0-.13.09.09,0,0,0-.12,0l-3.6,3.6a.09.09,0,0,0,0,.12A.07.07,0,0,0,71.12,163.77Z" fill="#fff"/><path d="M201.92,39.46a.07.07,0,0,0,.06,0L205.76,36a.08.08,0,0,0,0-.12.09.09,0,0,0-.13,0l-3.78,3.4a.08.08,0,0,0,0,.12A.07.07,0,0,0,201.92,39.46Z" fill="#fff"/><path d="M67.78,160.25a.05.05,0,0,0,0,0l3.79-3.4a.09.09,0,0,0,0-.12.08.08,0,0,0-.12,0l-3.78,3.4a.09.09,0,0,0,0,.13A.09.09,0,0,0,67.78,160.25Z" fill="#fff"/><path d="M204.9,43H205l3.95-3.21a.08.08,0,0,0,0-.12.08.08,0,0,0-.12,0l-4,3.2a.09.09,0,0,0,0,.12A.11.11,0,0,0,204.9,43Z" fill="#fff"/><path d="M64.62,156.55s0,0,0,0l4-3.2a.09.09,0,0,0-.11-.14l-4,3.21a.09.09,0,0,0,.06.15Z" fill="#fff"/><path d="M207.7,46.6l.05,0,4.12-3a.09.09,0,0,0,0-.12.09.09,0,0,0-.13,0l-4.12,3a.09.09,0,0,0,0,.12A.08.08,0,0,0,207.7,46.6Z" fill="#fff"/><path d="M61.66,152.7l.05,0,4.12-3a.09.09,0,0,0-.1-.14l-4.12,3a.08.08,0,0,0,0,.12A.1.1,0,0,0,61.66,152.7Z" fill="#fff"/><path d="M210.3,50.38h0l4.27-2.78a.09.09,0,1,0-.1-.14l-4.27,2.77a.08.08,0,0,0,0,.12A.07.07,0,0,0,210.3,50.38Z" fill="#fff"/><path d="M58.91,148.69H59l4.27-2.77a.08.08,0,0,0,0-.12.09.09,0,0,0-.12,0l-4.27,2.77a.08.08,0,0,0,0,.12A.08.08,0,0,0,58.91,148.69Z" fill="#fff"/><path d="M214.89,58.33h0L219.47,56a.08.08,0,0,0,0-.12.07.07,0,0,0-.11,0l-4.54,2.31a.08.08,0,0,0,0,.11A.1.1,0,0,0,214.89,58.33Z" fill="#fff"/><path d="M54.05,140.28h0L58.63,138a.09.09,0,1,0-.08-.15L54,140.12a.08.08,0,0,0,0,.11A.08.08,0,0,0,54.05,140.28Z" fill="#fff"/><path d="M216.87,62.48h0l4.65-2.07a.09.09,0,0,0,0-.12.09.09,0,0,0-.12,0l-4.65,2.07a.08.08,0,0,0,0,.11A.08.08,0,0,0,216.87,62.48Z" fill="#fff"/><path d="M52,135.9h0l4.65-2.07a.09.09,0,0,0,0-.12.08.08,0,0,0-.11,0l-4.65,2.07a.08.08,0,0,0,0,.11A.09.09,0,0,0,52,135.9Z" fill="#fff"/><path d="M218.62,66.72h0l4.76-1.82a.09.09,0,1,0-.07-.16l-4.75,1.82a.1.1,0,0,0-.05.11A.09.09,0,0,0,218.62,66.72Z" fill="#fff"/><path d="M50.1,131.41h0l4.76-1.82a.1.1,0,0,0,0-.11.09.09,0,0,0-.12-.05l-4.75,1.82a.09.09,0,0,0,0,.11A.09.09,0,0,0,50.1,131.41Z" fill="#fff"/><path d="M220.15,71.05h0L225,69.47a.08.08,0,0,0,.06-.11.09.09,0,0,0-.11,0l-4.84,1.57a.09.09,0,0,0-.06.11A.1.1,0,0,0,220.15,71.05Z" fill="#fff"/><path d="M48.48,126.83h0l4.84-1.57a.08.08,0,0,0,0-.11.09.09,0,0,0-.11-.06l-4.84,1.58a.08.08,0,0,0-.05.11A.09.09,0,0,0,48.48,126.83Z" fill="#fff"/><path d="M221.46,75.45h0l4.92-1.32a.08.08,0,0,0,.06-.11.09.09,0,0,0-.1-.06l-4.92,1.32a.07.07,0,0,0-.06.1A.08.08,0,0,0,221.46,75.45Z" fill="#fff"/><path d="M47.1,122.17h0L52,120.85a.08.08,0,0,0,.06-.11.09.09,0,0,0-.1-.06L47.08,122a.08.08,0,0,0-.06.11A.09.09,0,0,0,47.1,122.17Z" fill="#fff"/><path d="M222.53,79.91h0l5-1.06a.08.08,0,0,0,.07-.1.09.09,0,0,0-.11-.06l-5,1a.09.09,0,0,0-.06.1A.08.08,0,0,0,222.53,79.91Z" fill="#fff"/><path d="M46,117.45h0l5-1a.09.09,0,0,0,.06-.11.08.08,0,0,0-.1-.06l-5,1a.09.09,0,0,0-.07.11A.09.09,0,0,0,46,117.45Z" fill="#fff"/><path d="M223.37,84.43h0l5-.8a.08.08,0,0,0,.07-.1s0-.07-.1-.07l-5,.8a.09.09,0,0,0-.08.1A.1.1,0,0,0,223.37,84.43Z" fill="#fff"/><path d="M45.08,112.67h0l5-.8a.08.08,0,0,0,.07-.1.07.07,0,0,0-.09-.07l-5,.79a.09.09,0,0,0-.07.1A.08.08,0,0,0,45.08,112.67Z" fill="#fff"/><path d="M224,89h0l5.06-.53a.1.1,0,0,0,.08-.1.09.09,0,0,0-.1-.07l-5.06.53a.09.09,0,0,0,0,.17Z" fill="#fff"/><path d="M44.45,107.85h0l5.06-.53a.1.1,0,0,0,.08-.1.1.1,0,0,0-.1-.07l-5.06.53a.09.09,0,0,0-.08.09A.08.08,0,0,0,44.45,107.85Z" fill="#fff"/><path d="M224.33,93.56h0l5.09-.27a.08.08,0,0,0,.08-.09.09.09,0,0,0-.09-.08h0l-5.09.26a.11.11,0,0,0-.08.1A.09.09,0,0,0,224.33,93.56Z" fill="#fff"/><path d="M44.06,103h0l5.08-.27a.09.09,0,0,0,.09-.09.09.09,0,0,0-.09-.08h0l-5.08.26a.09.09,0,0,0-.08.09A.09.09,0,0,0,44.06,103Z" fill="#fff"/><path d="M229.54,98.15a.09.09,0,0,0,.09-.09.09.09,0,0,0-.09-.08h-5.09a.09.09,0,0,0,0,.18Z" fill="#fff"/><path d="M49,98.15a.09.09,0,0,0,.09-.09A.09.09,0,0,0,49,98H43.94a.09.09,0,0,0-.09.08.09.09,0,0,0,.09.09Z" fill="#fff"/><path d="M229.41,103a.09.09,0,0,0,.09-.09.09.09,0,0,0-.08-.09l-5.09-.26h0a.08.08,0,0,0-.09.08.1.1,0,0,0,.08.09l5.09.27Z" fill="#fff"/><path d="M49.15,93.56a.1.1,0,0,0,.09-.08.09.09,0,0,0-.09-.09l-5.08-.27h0a.08.08,0,0,0-.08.08.08.08,0,0,0,.08.09l5.08.27Z" fill="#fff"/><path d="M229,107.85a.09.09,0,1,0,0-.17l-5.06-.54a.09.09,0,0,0-.1.08.1.1,0,0,0,.08.1l5.06.53Z" fill="#fff"/><path d="M49.51,89a.09.09,0,0,0,.09-.08.09.09,0,0,0-.08-.09l-5.06-.53a.09.09,0,0,0-.1.07.1.1,0,0,0,.08.1L49.5,89Z" fill="#fff"/><path d="M228.4,112.67a.08.08,0,0,0,.08-.08.09.09,0,0,0-.07-.1l-5-.79a.09.09,0,0,0-.1.07.1.1,0,0,0,.08.1l5,.8Z" fill="#fff"/><path d="M50.11,84.43a.1.1,0,0,0,.09-.07.09.09,0,0,0-.08-.1l-5-.8a.08.08,0,0,0-.1.07.08.08,0,0,0,.07.1l5,.8Z" fill="#fff"/><path d="M227.51,117.44a.09.09,0,0,0,.09-.06.09.09,0,0,0-.07-.11l-5-1.06a.09.09,0,0,0-.1.07.08.08,0,0,0,.06.1l5,1.06Z" fill="#fff"/><path d="M51,79.91a.08.08,0,0,0,.08-.06.09.09,0,0,0-.06-.11l-5-1.06a.09.09,0,0,0-.1.07.08.08,0,0,0,.07.1l5,1.06Z" fill="#fff"/><path d="M226.38,122.17a.08.08,0,0,0,.08-.07.07.07,0,0,0-.06-.1l-4.92-1.32a.08.08,0,1,0,0,.16l4.92,1.32S226.37,122.17,226.38,122.17Z" fill="#fff"/><path d="M52,75.45a.08.08,0,0,0,.08-.07.07.07,0,0,0-.06-.1L47.12,74A.09.09,0,0,0,47,74a.08.08,0,0,0,.06.11L52,75.45Z" fill="#fff"/><path d="M225,126.83a.09.09,0,0,0,.08-.06.08.08,0,0,0-.05-.11l-4.85-1.58c-.05,0-.09,0-.11.06a.1.1,0,0,0,.06.11l4.84,1.57Z" fill="#fff"/><path d="M53.32,71.05A.09.09,0,0,0,53.4,71a.08.08,0,0,0,0-.11L48.51,69.3a.09.09,0,1,0,0,.17L53.29,71Z" fill="#fff"/><path d="M223.38,131.41a.09.09,0,0,0,.08-.06.09.09,0,0,0-.05-.11l-4.75-1.83a.1.1,0,0,0-.12.05.09.09,0,0,0,.05.11l4.76,1.83Z" fill="#fff"/><path d="M54.86,66.72a.09.09,0,0,0,.08-.06.09.09,0,0,0,0-.11l-4.76-1.83a.1.1,0,0,0-.11,0,.1.1,0,0,0,0,.12l4.75,1.82Z" fill="#fff"/><path d="M221.52,135.89a.08.08,0,0,0,.08,0,.08.08,0,0,0,0-.11l-4.65-2.08a.1.1,0,0,0-.11,0,.08.08,0,0,0,0,.11l4.65,2.08Z" fill="#fff"/><path d="M56.61,62.47s.07,0,.08,0a.08.08,0,0,0,0-.11L52,60.24a.09.09,0,0,0-.12,0,.09.09,0,0,0,0,.12l4.65,2.07Z" fill="#fff"/><path d="M219.43,140.28a.08.08,0,0,0,.07-.05.07.07,0,0,0,0-.11l-4.54-2.32a.09.09,0,1,0-.08.16l4.54,2.31Z" fill="#fff"/><path d="M58.59,58.33a.1.1,0,0,0,.08,0,.1.1,0,0,0,0-.12l-4.54-2.31a.08.08,0,0,0-.11,0A.09.09,0,0,0,54,56l4.53,2.31Z" fill="#fff"/><path d="M214.57,148.69a.07.07,0,0,0,.07,0,.08.08,0,0,0,0-.12l-4.27-2.77a.09.09,0,1,0-.1.14l4.27,2.78Z" fill="#fff"/><path d="M63.18,50.38a.08.08,0,0,0,.07,0,.08.08,0,0,0,0-.12L59,47.45a.08.08,0,0,0-.12,0,.08.08,0,0,0,0,.12l4.27,2.77Z" fill="#fff"/><path d="M211.82,152.69a.09.09,0,0,0,.07,0,.08.08,0,0,0,0-.12l-4.12-3a.08.08,0,0,0-.12,0,.08.08,0,0,0,0,.12l4.12,3Z" fill="#fff"/><path d="M65.78,46.59a.08.08,0,0,0,.07,0,.08.08,0,0,0,0-.12l-4.12-3a.08.08,0,0,0-.12,0,.08.08,0,0,0,0,.12l4.12,3Z" fill="#fff"/><path d="M208.86,156.55a.09.09,0,0,0,.07,0,.11.11,0,0,0,0-.13l-4-3.2a.09.09,0,1,0-.11.13l4,3.21Z" fill="#fff"/><path d="M68.58,43a.07.07,0,0,0,.06,0,.08.08,0,0,0,0-.12l-3.95-3.21a.09.09,0,0,0-.13,0,.08.08,0,0,0,0,.12l4,3.2Z" fill="#fff"/><path d="M205.71,160.24l.06,0a.09.09,0,0,0,0-.13L202,156.68a.09.09,0,1,0-.11.13l3.78,3.41S205.68,160.24,205.71,160.24Z" fill="#fff"/><path d="M71.56,39.46a.07.07,0,0,0,.06,0,.09.09,0,0,0,0-.12L67.84,35.9a.09.09,0,0,0-.13,0,.08.08,0,0,0,0,.12l3.78,3.41Z" fill="#fff"/><path d="M202.36,163.77a.07.07,0,0,0,.06,0,.07.07,0,0,0,0-.12l-3.6-3.6a.08.08,0,0,0-.12,0,.09.09,0,0,0,0,.12l3.6,3.6A.09.09,0,0,0,202.36,163.77Z" fill="#fff"/><path d="M74.72,36.13l.06,0a.09.09,0,0,0,0-.12l-3.6-3.6a.08.08,0,0,0-.12,0,.09.09,0,0,0,0,.12l3.6,3.6A.07.07,0,0,0,74.72,36.13Z" fill="#fff"/><path d="M198.84,167.11l0,0a.08.08,0,0,0,0-.12l-3.4-3.79a.09.09,0,0,0-.13,0,.11.11,0,0,0,0,.13l3.4,3.78A.09.09,0,0,0,198.84,167.11Z" fill="#fff"/><path d="M78.05,33a.09.09,0,0,0,.06,0,.09.09,0,0,0,0-.12L74.71,29a.09.09,0,1,0-.13.11L78,32.94A.11.11,0,0,0,78.05,33Z" fill="#fff"/><path d="M195.14,170.27l.06,0a.09.09,0,0,0,0-.12l-3.2-4a.09.09,0,0,0-.12,0,.1.1,0,0,0,0,.13l3.2,3.95A.09.09,0,0,0,195.14,170.27Z" fill="#fff"/><path d="M81.54,30a.07.07,0,0,0,.06,0,.09.09,0,0,0,0-.12l-3.2-3.95a.08.08,0,0,0-.12,0,.09.09,0,0,0,0,.13L81.47,30A.11.11,0,0,0,81.54,30Z" fill="#fff"/><path d="M191.29,173.23l.05,0a.08.08,0,0,0,0-.12l-3-4.12a.09.09,0,1,0-.14.1l3,4.12A.1.1,0,0,0,191.29,173.23Z" fill="#fff"/><path d="M85.18,27.19l.06,0a.09.09,0,0,0,0-.12l-3-4.12a.08.08,0,0,0-.12,0,.11.11,0,0,0,0,.12l3,4.12A.09.09,0,0,0,85.18,27.19Z" fill="#fff"/><path d="M187.29,176l0,0a.08.08,0,0,0,0-.12l-2.77-4.27a.08.08,0,0,0-.12,0,.07.07,0,0,0,0,.11l2.77,4.28A.12.12,0,0,0,187.29,176Z" fill="#fff"/><path d="M89,24.59l0,0a.08.08,0,0,0,0-.12l-2.77-4.27a.08.08,0,0,0-.12,0,.09.09,0,0,0,0,.12l2.78,4.27A.08.08,0,0,0,89,24.59Z" fill="#fff"/><path d="M183.14,178.52l.05,0a.08.08,0,0,0,0-.11L180.67,174a.08.08,0,0,0-.11,0,.09.09,0,0,0,0,.12l2.55,4.41A.08.08,0,0,0,183.14,178.52Z" fill="#fff"/><path d="M92.88,22.19h.05a.1.1,0,0,0,0-.12l-2.54-4.41a.09.09,0,0,0-.12,0,.08.08,0,0,0,0,.12l2.54,4.41A.13.13,0,0,0,92.88,22.19Z" fill="#fff"/><path d="M178.87,180.83h0a.08.08,0,0,0,0-.11l-2.31-4.54a.09.09,0,0,0-.12,0,.11.11,0,0,0,0,.12l2.32,4.54A.07.07,0,0,0,178.87,180.83Z" fill="#fff"/><path d="M96.92,20h0a.1.1,0,0,0,0-.12l-2.31-4.53a.08.08,0,0,0-.12,0,.08.08,0,0,0,0,.11L96.84,20A.1.1,0,0,0,96.92,20Z" fill="#fff"/><path d="M174.49,182.93h0a.09.09,0,0,0,0-.12l-2.07-4.65a.09.09,0,0,0-.12,0,.08.08,0,0,0,0,.11l2.07,4.65A.08.08,0,0,0,174.49,182.93Z" fill="#fff"/><path d="M101.07,18h0a.08.08,0,0,0,.05-.11l-2.08-4.65A.08.08,0,0,0,99,13.2a.09.09,0,0,0,0,.12L101,18A.08.08,0,0,0,101.07,18Z" fill="#fff"/><path d="M170,184.79h0a.09.09,0,0,0,.05-.11l-1.82-4.76a.1.1,0,0,0-.12,0,.08.08,0,0,0,0,.11l1.82,4.76A.1.1,0,0,0,170,184.79Z" fill="#fff"/><path d="M105.31,16.26h0a.09.09,0,0,0,0-.12l-1.82-4.75a.09.09,0,0,0-.11-.05.08.08,0,0,0,0,.11l1.82,4.76A.09.09,0,0,0,105.31,16.26Z" fill="#fff"/><path d="M165.42,186.41h0a.08.08,0,0,0,.05-.11l-1.57-4.84a.09.09,0,0,0-.11-.06.11.11,0,0,0-.06.11l1.58,4.85A.09.09,0,0,0,165.42,186.41Z" fill="#fff"/><path d="M109.64,14.73h0a.09.09,0,0,0,0-.11l-1.57-4.85a.09.09,0,0,0-.11,0,.09.09,0,0,0-.06.11l1.58,4.84A.08.08,0,0,0,109.64,14.73Z" fill="#fff"/><path d="M160.76,187.79h0a.07.07,0,0,0,.06-.1l-1.31-4.92a.08.08,0,0,0-.11-.06.09.09,0,0,0-.06.1l1.32,4.92A.08.08,0,0,0,160.76,187.79Z" fill="#fff"/><path d="M114,13.42h0a.09.09,0,0,0,.07-.1L112.81,8.4a.09.09,0,0,0-.11-.06.09.09,0,0,0-.06.1L114,13.36A.08.08,0,0,0,114,13.42Z" fill="#fff"/><path d="M156,188.92h0a.09.09,0,0,0,.06-.11l-1.06-5s-.05-.07-.1-.06a.08.08,0,0,0-.06.1l1,5A.1.1,0,0,0,156,188.92Z" fill="#fff"/><path d="M118.51,12.35h0a.08.08,0,0,0,.06-.1l-1.06-5a.08.08,0,1,0-.16,0l1,5A.09.09,0,0,0,118.51,12.35Z" fill="#fff"/><path d="M151.26,189.81h0a.11.11,0,0,0,.08-.1l-.8-5a.09.09,0,0,0-.1-.07.08.08,0,0,0-.07.1l.8,5A.08.08,0,0,0,151.26,189.81Z" fill="#fff"/><path d="M123,11.52h0a.1.1,0,0,0,.07-.1l-.8-5a.08.08,0,0,0-.1-.07.08.08,0,0,0-.07.1l.8,5A.08.08,0,0,0,123,11.52Z" fill="#fff"/><path d="M146.44,190.44h0a.09.09,0,0,0,.08-.1l-.53-5.06a.1.1,0,0,0-.1-.08.09.09,0,0,0-.07.1l.53,5.06A.08.08,0,0,0,146.44,190.44Z" fill="#fff"/><path d="M127.57,10.92h0a.09.09,0,0,0,.08-.1l-.53-5.06a.09.09,0,0,0-.09-.08.09.09,0,0,0-.08.1l.53,5.06A.09.09,0,0,0,127.57,10.92Z" fill="#fff"/><path d="M141.6,190.82h0a.09.09,0,0,0,.09-.09l-.27-5.09a.09.09,0,0,0-.08-.08h0a.09.09,0,0,0-.08.09l.26,5.09A.08.08,0,0,0,141.6,190.82Z" fill="#fff"/><path d="M132.15,10.56h0a.09.09,0,0,0,.08-.09L132,5.38a.1.1,0,0,0-.1-.08.08.08,0,0,0-.08.09l.27,5.08A.09.09,0,0,0,132.15,10.56Z" fill="#fff"/><path d="M240.68,169.75a.68.68,0,0,0,.6-.35.7.7,0,0,0-.25-1,11.07,11.07,0,0,0-7.09-1.5,10.33,10.33,0,0,1-10.61-6.13,11.74,11.74,0,0,0-11.93-6.89,9.74,9.74,0,0,1-6.31-1.32,9.84,9.84,0,0,1-4.3-4.8,11.72,11.72,0,0,0-11.92-6.89,10.34,10.34,0,0,1-10.61-6.12,11.74,11.74,0,0,0-11.93-6.89,10.31,10.31,0,0,1-10.6-6.12,11.74,11.74,0,0,0-11.93-6.89,10.34,10.34,0,0,1-10.61-6.12,11.72,11.72,0,0,0-11.92-6.89,10.34,10.34,0,0,1-10.61-6.12,11.74,11.74,0,0,0-11.93-6.89,9.74,9.74,0,0,1-6.31-1.32,9.84,9.84,0,0,1-4.3-4.8A11.72,11.72,0,0,0,76.2,75.87a10.34,10.34,0,0,1-10.61-6.12,11.74,11.74,0,0,0-11.93-6.89,10.33,10.33,0,0,1-10.6-6.12,11,11,0,0,0-4.85-5.38.69.69,0,1,0-.69,1.2,9.86,9.86,0,0,1,4.3,4.81,11.73,11.73,0,0,0,11.92,6.88,10.33,10.33,0,0,1,10.61,6.13,11.75,11.75,0,0,0,11.92,6.88,10.32,10.32,0,0,1,10.61,6.12,11.74,11.74,0,0,0,11.93,6.89,10.34,10.34,0,0,1,10.61,6.12,11.72,11.72,0,0,0,11.92,6.89A10.34,10.34,0,0,1,132,109.4a11.74,11.74,0,0,0,11.92,6.89,10.32,10.32,0,0,1,10.61,6.12,11.74,11.74,0,0,0,11.93,6.89,9.68,9.68,0,0,1,6.31,1.32,9.79,9.79,0,0,1,4.3,4.8,11.72,11.72,0,0,0,11.92,6.89,10.33,10.33,0,0,1,10.61,6.13,11.75,11.75,0,0,0,11.93,6.88,10.33,10.33,0,0,1,10.61,6.13A11.71,11.71,0,0,0,234,168.33a9.75,9.75,0,0,1,6.31,1.33A.73.73,0,0,0,240.68,169.75Z" fill="#fff"/><path d="M232.41,131.41a.09.09,0,0,0,0-.16,10.57,10.57,0,0,0-6.74-1.43,10.37,10.37,0,0,1-6.65-1.4.1.1,0,0,0-.12,0,.09.09,0,0,0,0,.12,10.6,10.6,0,0,0,6.75,1.43,10.35,10.35,0,0,1,6.64,1.4Z" fill="#fff"/><path d="M181.31,116.09a.34.34,0,0,0,.3-.18.35.35,0,0,0-.13-.47A10.7,10.7,0,0,0,174.6,114a10.67,10.67,0,0,1-10.94-6.32,11.38,11.38,0,0,0-11.6-6.69,10.7,10.7,0,0,1-10.94-6.31,10.75,10.75,0,0,0-4.7-5.24.36.36,0,0,0-.48.13.34.34,0,0,0,.13.47,10.1,10.1,0,0,1,4.44,5,11.32,11.32,0,0,0,11.59,6.69A10.69,10.69,0,0,1,163,108a11.38,11.38,0,0,0,11.59,6.69,10.1,10.1,0,0,1,6.5,1.37A.41.41,0,0,0,181.31,116.09Z" fill="#fff"/><path d="M97.2,53.35a.1.1,0,0,0,.08-.05.08.08,0,0,0,0-.11,10.56,10.56,0,0,0-6.74-1.43A10.93,10.93,0,0,1,79.32,45.3a10.57,10.57,0,0,0-4.61-5.12.09.09,0,0,0-.12,0,.1.1,0,0,0,0,.12,10.32,10.32,0,0,1,4.54,5.05,11.1,11.1,0,0,0,11.35,6.55,10.39,10.39,0,0,1,6.65,1.41Z" fill="#fff"/><path d="M202.46,157.52a.33.33,0,0,0,.3-.18.34.34,0,0,0-.13-.47,9.94,9.94,0,0,1-4.43-5,11.38,11.38,0,0,0-11.6-6.69,10.69,10.69,0,0,1-10.94-6.32,11.38,11.38,0,0,0-11.59-6.69,10.67,10.67,0,0,1-10.94-6.32,10.72,10.72,0,0,0-4.71-5.23.34.34,0,0,0-.47.12.35.35,0,0,0,.12.48,10,10,0,0,1,4.44,5,11.38,11.38,0,0,0,11.59,6.69A10.67,10.67,0,0,1,175,139.23a11.38,11.38,0,0,0,11.6,6.69,10.7,10.7,0,0,1,10.94,6.31,10.73,10.73,0,0,0,4.71,5.24A.34.34,0,0,0,202.46,157.52Z" fill="#fff"/><path d="M200.34,160.94s0,0,.07-.05a.1.1,0,0,0,0-.12,10.37,10.37,0,0,1-4.54-5.05,11.13,11.13,0,0,0-11.35-6.56,10.92,10.92,0,0,1-11.18-6.45A11.13,11.13,0,0,0,162,136.15a10.95,10.95,0,0,1-11.19-6.45,10.51,10.51,0,0,0-4.6-5.13.09.09,0,0,0-.09.15,10.37,10.37,0,0,1,4.54,5.05A11.11,11.11,0,0,0,162,136.33a10.93,10.93,0,0,1,11.18,6.46,11.14,11.14,0,0,0,11.35,6.55,10.94,10.94,0,0,1,11.19,6.46,10.54,10.54,0,0,0,4.6,5.12Z" fill="#fff"/><path d="M215.14,135.3a.08.08,0,0,0,.07,0,.09.09,0,0,0,0-.12,10.48,10.48,0,0,1-4.54-5.06,11.12,11.12,0,0,0-11.35-6.55,10.45,10.45,0,0,1-6.65-1.4.07.07,0,0,0-.11,0,.09.09,0,0,0,0,.12,10.54,10.54,0,0,0,6.74,1.42,11,11,0,0,1,11.19,6.46,10.51,10.51,0,0,0,4.6,5.13Z" fill="#fff"/><path d="M170.07,109.28a.08.08,0,0,0,.07,0,.08.08,0,0,0,0-.12,10.48,10.48,0,0,1-4.54-5.06,10.5,10.5,0,0,0-4.6-5.13.09.09,0,0,0-.12,0,.07.07,0,0,0,0,.11,10.48,10.48,0,0,1,4.54,5.06,10.58,10.58,0,0,0,4.61,5.13Z" fill="#fff"/><path d="M58.11,69a.1.1,0,0,0,.08,0,.1.1,0,0,0,0-.12,10.48,10.48,0,0,0-6.74-1.42A10.93,10.93,0,0,1,40.23,61a10.53,10.53,0,0,0-4.61-5.12.09.09,0,0,0-.12,0,.09.09,0,0,0,0,.12,10.39,10.39,0,0,1,4.53,5A11.1,11.1,0,0,0,51.42,67.6,10.45,10.45,0,0,1,58.07,69Z" fill="#fff"/><path d="M231.61,158.74a13.49,13.49,0,0,1-1.25-.81.17.17,0,0,1,0-.24.17.17,0,0,1,.24,0,12.65,12.65,0,0,0,1.21.79.17.17,0,0,1-.09.32Zm-2.8-2.24a9.27,9.27,0,0,1-1.21-1.73.16.16,0,0,1,.06-.23.18.18,0,0,1,.24.06,10.1,10.1,0,0,0,1.16,1.68.16.16,0,0,1,0,.24.15.15,0,0,1-.11,0A.16.16,0,0,1,228.81,156.5Zm-2.18-3.57a11.94,11.94,0,0,0-1.08-1.75.17.17,0,0,1,.28-.2,12.52,12.52,0,0,1,1.11,1.78.19.19,0,0,1-.07.24l-.08,0A.19.19,0,0,1,226.63,152.93Zm-2.49-3.21a10.34,10.34,0,0,0-1.68-1.16.19.19,0,0,1-.07-.24.18.18,0,0,1,.24-.07,12.35,12.35,0,0,1,1.74,1.2.17.17,0,0,1,0,.24.19.19,0,0,1-.14.07A.25.25,0,0,1,224.14,149.72Z" fill="#fff"/><path d="M199.21,135.16a9.87,9.87,0,0,0-1.91-.74.18.18,0,0,1-.12-.21.18.18,0,0,1,.21-.13,10.28,10.28,0,0,1,2,.77.17.17,0,0,1,.08.23.18.18,0,0,1-.15.1Zm-8.09-1a8.88,8.88,0,0,1-2.08-.36.18.18,0,0,1-.12-.22.19.19,0,0,1,.22-.12,8.93,8.93,0,0,0,2,.36.17.17,0,0,1,.17.18.18.18,0,0,1-.18.16ZM193,134a.18.18,0,0,1,.16-.18h.1a18.81,18.81,0,0,1,2-.05.18.18,0,0,1,.17.18.17.17,0,0,1-.17.17h0c-.68,0-1.33,0-2,0h-.11A.18.18,0,0,1,193,134Zm-6-1-.55-.3c-.45-.26-.86-.54-1.24-.81a.19.19,0,0,1,0-.25.17.17,0,0,1,.24,0,11.49,11.49,0,0,0,1.21.78l.53.3a.17.17,0,0,1,.08.23.19.19,0,0,1-.16.1Zm-3.35-2.54a10.32,10.32,0,0,1-1.21-1.73.18.18,0,0,1,.07-.23.18.18,0,0,1,.24.06,9.6,9.6,0,0,0,1.16,1.67.17.17,0,0,1-.13.29A.19.19,0,0,1,183.73,130.48Zm-2.17-3.58a12.45,12.45,0,0,0-1.08-1.74.17.17,0,0,1,0-.24.19.19,0,0,1,.25,0,13.8,13.8,0,0,1,1.11,1.79.18.18,0,0,1-.08.24l-.08,0A.18.18,0,0,1,181.56,126.9Zm-2.49-3.21a11.77,11.77,0,0,0-1.68-1.16.18.18,0,0,1-.07-.23.17.17,0,0,1,.24-.07,12.35,12.35,0,0,1,1.74,1.2.17.17,0,0,1,0,.24.2.2,0,0,1-.14.06A.17.17,0,0,1,179.07,123.69Z" fill="#fff"/><path d="M109.79,83.5a15,15,0,0,0-1.45-.72.16.16,0,0,1-.09-.22.18.18,0,0,1,.22-.1,12.12,12.12,0,0,1,1.49.74.18.18,0,0,1,.06.24.16.16,0,0,1-.15.09A.11.11,0,0,1,109.79,83.5Zm-3.41-1.3a10.52,10.52,0,0,0-1.75-.14h-.29a.17.17,0,1,1,0-.34h.29a10.39,10.39,0,0,1,1.82.15.19.19,0,0,1,.14.2.18.18,0,0,1-.18.15Zm-6.22-.14a.18.18,0,0,1-.15-.2.18.18,0,0,1,.2-.15,10.24,10.24,0,0,0,1.52.11h.53a.17.17,0,0,1,.17.17.18.18,0,0,1-.16.18h-.54A11,11,0,0,1,100.16,82.06Zm-2-.55a14,14,0,0,1-1.71-.83l-.18-.11a.17.17,0,0,1-.06-.23.17.17,0,0,1,.24-.06l.17.1a13.38,13.38,0,0,0,1.67.81.17.17,0,0,1-.06.33Zm-3.6-2.16a8.8,8.8,0,0,1-1.43-1.56.17.17,0,1,1,.28-.2,8.87,8.87,0,0,0,1.38,1.5.16.16,0,0,1,0,.24.16.16,0,0,1-.13.06A.15.15,0,0,1,94.51,79.35ZM92,76l-.23-.46c-.23-.45-.47-.92-.74-1.37a.18.18,0,0,1,.07-.24.16.16,0,0,1,.23.06c.28.46.51.94.74,1.39l.24.46a.17.17,0,0,1-.08.23.11.11,0,0,1-.08,0A.16.16,0,0,1,92,76Zm-2.17-3.48a9.17,9.17,0,0,0-1.53-1.35.16.16,0,0,1,0-.24.18.18,0,0,1,.24,0,9.84,9.84,0,0,1,1.59,1.39.18.18,0,0,1,0,.25.17.17,0,0,1-.12,0A.18.18,0,0,1,89.83,72.51Zm-3.29-2.4a9.63,9.63,0,0,0-1.91-.74.18.18,0,0,1-.12-.21.18.18,0,0,1,.22-.13,10.81,10.81,0,0,1,2,.77.18.18,0,0,1,.08.23.2.2,0,0,1-.16.1Zm-8.08-1a9.05,9.05,0,0,1-2.09-.36.18.18,0,0,1-.12-.22.17.17,0,0,1,.22-.11,9.5,9.5,0,0,0,2,.35.17.17,0,0,1,.16.18.18.18,0,0,1-.18.16Zm1.91-.19a.18.18,0,0,1,.17-.18h.09c.65,0,1.31-.07,2-.05a.18.18,0,0,1,.17.18.16.16,0,0,1-.18.17c-.68,0-1.33,0-2,0h-.1A.18.18,0,0,1,80.37,68.94Zm-6-1-.54-.31a10.59,10.59,0,0,1-1.24-.8.18.18,0,0,1,0-.25.17.17,0,0,1,.24,0,14,14,0,0,0,1.21.78l.53.3a.17.17,0,0,1,.08.23.18.18,0,0,1-.16.1Zm-3.34-2.54a9.77,9.77,0,0,1-1.21-1.73.16.16,0,0,1,.06-.23.18.18,0,0,1,.24.06,9.11,9.11,0,0,0,1.17,1.67.18.18,0,0,1,0,.25.15.15,0,0,1-.11,0A.16.16,0,0,1,71.07,65.43Zm-2.18-3.58a12.45,12.45,0,0,0-1.08-1.74.18.18,0,0,1,0-.24.17.17,0,0,1,.24,0,13.16,13.16,0,0,1,1.11,1.79.18.18,0,0,1-.08.24L69,62A.18.18,0,0,1,68.89,61.85ZM66.4,58.64a11.77,11.77,0,0,0-1.68-1.16.17.17,0,0,1-.06-.23.16.16,0,0,1,.23-.07,11.8,11.8,0,0,1,1.74,1.2.17.17,0,0,1,0,.24.18.18,0,0,1-.13.06A.19.19,0,0,1,66.4,58.64Z" fill="#fff"/><polygon points="35.58 48 40.15 48 42.44 51.96 40.15 55.92 35.58 55.92 33.29 51.96 35.58 48" fill="#fff"/><polygon points="126.8 101.54 129.86 101.54 131.39 104.19 129.86 106.84 126.8 106.84 125.27 104.19 126.8 101.54" fill="#fff"/><polygon points="111.66 50.3 113.7 50.3 114.72 52.06 113.7 53.83 111.66 53.83 110.65 52.06 111.66 50.3" fill="#fff"/><polygon points="251.33 141.17 253.37 141.17 254.38 142.94 253.37 144.7 251.33 144.7 250.31 142.94 251.33 141.17" fill="#fff"/><polygon points="216.31 153.22 219.37 153.22 220.9 155.87 219.37 158.52 216.31 158.52 214.78 155.87 216.31 153.22" fill="#fff"/><polygon points="194.17 140.44 197.23 140.44 198.76 143.09 197.23 145.74 194.17 145.74 192.64 143.09 194.17 140.44" fill="#fff"/><path d="M112.68,52.41a.35.35,0,1,0,0-.69l-74.81-.11h0a.35.35,0,1,0,0,.7l74.81.1Z" fill="#fff"/><path d="M185.38,104.36a.09.09,0,0,0,0-.18l-57-.08h0a.09.09,0,0,0,0,.18l57,.08Z" fill="#fff"/><path d="M252.35,143.28a.35.35,0,0,0,.35-.34.35.35,0,0,0-.35-.35l-57-.08h0a.35.35,0,0,0,0,.7l57,.07Z" fill="#fff"/></svg>