<svg xmlns="http://www.w3.org/2000/svg" viewBox="0 0 54.11 54"><g style="isolation:isolate"><circle cx="27.11" cy="27" r="27" fill="#fff"/><path fill="#dc483c" d="M27.16 0A27.36 27.36 0 0 0 4.35 12.38L15.9 31.55a11.77 11.77 0 0 1-.48-4.43c0-7.23 6.59-11.83 11.85-11.83L51.36 15a27 27 0 0 0-24.2-15z"/><path fill="#959595" d="M4.5 12.3l13.06 20.97 5.14-3.03L4.5 12.3z" opacity=".2"/><path fill="#ffd141" d="M51.42 14.92L28.59 15a13 13 0 0 1 4.12 1.7c3.79 2 7.67 10.54 4.32 16.28L25.4 53.85c10 .62 20.26-4.09 25.34-13.42a28.4 28.4 0 0 0 .68-25.51z"/><path fill="#959595" d="M27.11 15zm24 0h-24v6z" opacity=".2"/><path fill="#00a651" d="M33.63 37a9.22 9.22 0 0 1-1.61.72 12.11 12.11 0 0 1-4.75 1C22 38.66 18 36 16.34 31.28l-11.87-19a26.6 26.6 0 0 0-.85 28.15 26.81 26.81 0 0 0 21.86 13.44L37 34.38A10.87 10.87 0 0 1 33.63 37z"/><path fill="#959595" d="M32.42 30.31l-6.94 23.62 12.14-20.62-5.2-3z" opacity=".2"/><circle cx="27.11" cy="27" r="12" fill="#f1f1f1"/><circle cx="27.11" cy="27" r="10" fill="#4888f3"/></g></svg>