<?xml version="1.0" encoding="utf-8"?>
<!-- Generator: Adobe Illustrator 24.1.0, SVG Export Plug-In . SVG Version: 6.00 Build 0)  -->
<svg version="1.1" id="Layer_1" xmlns="http://www.w3.org/2000/svg" xmlns:xlink="http://www.w3.org/1999/xlink" x="0px" y="0px"
	 viewBox="0 0 233.7 234" style="enable-background:new 0 0 233.7 234;" xml:space="preserve">
<style type="text/css">
	.st0{fill:url(#SVGID_1_);}
	.st1{fill-rule:evenodd;clip-rule:evenodd;fill:url(#SVGID_2_);}
	.st2{fill-rule:evenodd;clip-rule:evenodd;fill:url(#SVGID_3_);}
	.st3{fill-rule:evenodd;clip-rule:evenodd;fill:url(#SVGID_4_);}
</style>
<linearGradient id="SVGID_1_" gradientUnits="userSpaceOnUse" x1="34.9218" y1="201.1523" x2="207.3818" y2="126.7723" gradientTransform="matrix(1 0 0 -1 0 285.9847)">
	<stop  offset="0" style="stop-color:#00A0D2"/>
	<stop  offset="1" style="stop-color:#005397"/>
</linearGradient>
<path class="st0" d="M150.9,36.3c-2.7-6.6-6.7-12.5-11.7-17.5c-3.4-3.4-7.1-6.3-11.3-8.7c-8.2-4.8-17.5-7.3-27-7.3
	c-4.7,0-9.4,0.6-14,1.9l0,0C82,6,77.1,7.6,72.4,9.6c-4.7,1.9-9.3,4.2-13.7,6.7C36.4,29.2,19,49.1,9.1,72.9C3.2,87.2,0.1,102.5,0,118
	c-0.1,15.4,2.9,30.7,8.7,45c5.6,13.8,14.8,25.8,25.9,36.9c-21.1-21.2-21.1-55.4,0-76.6c6.7-6.7,15.1-11.6,24.3-14
	c9.3-2.4,19-2.4,28.3,0.1l0,0c1,0.3,2,0.5,3,0.7c3.5-14.6,18.1-23.5,32.7-20c5.2,1.2,9.9,4,13.5,7.9c1-0.9,2-1.8,2.9-2.7
	c5-5,9-10.9,11.7-17.5C156.4,64.5,156.4,49.6,150.9,36.3z"/>
<linearGradient id="SVGID_2_" gradientUnits="userSpaceOnUse" x1="169.9184" y1="206.0898" x2="39.8083" y2="137.7598" gradientTransform="matrix(1 0 0 -1 0 285.9847)">
	<stop  offset="0" style="stop-color:#80BA41"/>
	<stop  offset="1" style="stop-color:#527837"/>
</linearGradient>
<path class="st1" d="M232.7,102.3c-2.7-20.4-10.7-39.7-23.2-56C200,34,188.3,23.6,174.9,15.8c-13.3-7.8-28-12.9-43.3-15
	c-14.8-2-29.8-0.1-44.9,3.9c28.9-7.6,58.5,9.5,66.3,38.3c2.5,9.2,2.5,18.9,0,28.1c-2.5,9.2-7.4,17.7-14.2,24.4l0,0
	c-0.8,0.8-1.6,1.7-2.4,2.6c10.2,11,9.6,28.1-1.3,38.3c-3.2,3-7,5.1-11.2,6.3c0.3,1.7,0.6,3.3,1.1,5c1.8,6.9,5,13.3,9.3,18.9
	c8.8,11.4,21.7,18.9,36,20.8c7,0.9,14.2,0.5,21-1.4c4.6-1.2,9-3,13.1-5.4c12.5-7.2,21.5-19,25.2-32.9l0,0c1.3-4.9,2.3-9.9,3-15
	C234,122.6,234,112.4,232.7,102.3L232.7,102.3z"/>
<linearGradient id="SVGID_3_" gradientUnits="userSpaceOnUse" x1="122.6093" y1="104.4225" x2="128.1693" y2="216.5625" gradientTransform="matrix(1 0 0 -1 0 285.9847)">
	<stop  offset="0" style="stop-color:#FFFF3B"/>
	<stop  offset="1" style="stop-color:#A7A757"/>
</linearGradient>
<path class="st2" d="M163.2,185.7c-9.2-2.4-17.6-7.3-24.3-14.1c-6.7-6.8-11.6-15.3-14-24.5l0,0c-0.4-1.4-0.9-2.9-1.4-4.3
	c-14.5,3.8-29.3-4.8-33.2-19.2c-1.2-4.4-1.2-9-0.1-13.4c-1.2-0.4-2.4-0.8-3.6-1.1c-6.8-1.8-14-2.3-21-1.4
	c-14.3,1.9-27.2,9.4-36,20.8c-4.3,5.6-7.5,12-9.3,18.9c-5.1,18.7,0.3,38.7,14,52.4l0,0c7.2,7.2,15.3,13.5,24.1,18.6
	c4.4,2.5,9,4.8,13.7,6.7c19,7.9,39.7,10.6,60.1,7.9c15.4-2,30.2-7,43.7-14.7c13.4-7.6,25.2-17.8,34.6-30c9.1-11.7,15-25.7,19.1-40.9
	C221.7,176.3,192.1,193.4,163.2,185.7z"/>
<radialGradient id="SVGID_4_" cx="116.5318" cy="169.3824" r="74.19" gradientTransform="matrix(1 0 0 -1 0 285.9847)" gradientUnits="userSpaceOnUse">
	<stop  offset="0" style="stop-color:#FFFFFF;stop-opacity:0.5"/>
	<stop  offset="8.000000e-02" style="stop-color:#D9D9D9;stop-opacity:0.43"/>
	<stop  offset="0.28" style="stop-color:#8C8C8C;stop-opacity:0.27"/>
	<stop  offset="0.47" style="stop-color:#4F4F4F;stop-opacity:0.15"/>
	<stop  offset="0.65" style="stop-color:#232323;stop-opacity:7.000000e-02"/>
	<stop  offset="0.83" style="stop-color:#090909;stop-opacity:2.000000e-02"/>
	<stop  offset="1" style="stop-color:#000000;stop-opacity:0"/>
	<stop  offset="1" style="stop-color:#FFFFFF;stop-opacity:0"/>
</radialGradient>
<path class="st3" d="M116.5,42.4c-41,0-74.2,33.2-74.2,74.2c0,41,33.2,74.2,74.2,74.2s74.2-33.2,74.2-74.2c0,0,0,0,0,0
	C190.7,75.6,157.5,42.4,116.5,42.4z M116.5,143.7c-15,0-27.1-12.1-27.1-27.1s12.1-27.1,27.1-27.1c15,0,27.1,12.1,27.1,27.1
	c0,0,0,0,0,0C143.7,131.6,131.5,143.7,116.5,143.7z"/>
</svg>
