<svg xmlns="http://www.w3.org/2000/svg" viewBox="0 0 512 397.57"><path fill="#445ea0" d="M185.72 299.57h78.71v41.23h-78.71z"/><path fill="#2e4c89" d="M185.72 299.57h19.84v41.23h-19.84z"/><path fill="#293d7c" d="M316.86 339.8h-189.3a5.11 5.11 0 0 0-5.1 5.1v25.57a5.11 5.11 0 0 0 5.1 5.1h189.3V339.8z"/><path fill="#1a2b63" d="M142.3 370.47V344.9a5.11 5.11 0 0 1 5.1-5.1h-19.84a5.11 5.11 0 0 0-5.1 5.1v25.57a5.11 5.11 0 0 0 5.1 5.1h19.84a5.11 5.11 0 0 1-5.1-5.1z"/><path fill="#293d7c" d="M445.05 0H5.1A5.12 5.12 0 0 0 0 5.1v290.37a5.12 5.12 0 0 0 5.1 5.1h311.76V147.8a7 7 0 0 1 7-7h126.3V5.1a5.12 5.12 0 0 0-5.11-5.1z"/><path fill="#fff" d="M22.4 249.55a3.07 3.07 0 0 0 3.06 3.06h291.4V147.8a7 7 0 0 1 7-7h103.9V50H22.4z"/><path fill="#d9eafc" d="M42.24 249.55V50H22.4v199.55a3.07 3.07 0 0 0 3.06 3.06H45.3a3.07 3.07 0 0 1-3.06-3.06z"/><circle cx="225.08" cy="276.5" r="13.77" fill="#445ea0"/><path fill="#c3ddf4" d="M316.86 164.18h-53.43a3 3 0 0 0-3 3v59.64a3 3 0 0 0 3 3h53.43z"/><path fill="#aec1ed" d="M280.27 226.82v-59.64a3 3 0 0 1 3-3h-19.84a3 3 0 0 0-3 3v59.64a3 3 0 0 0 3 3h19.84a3 3 0 0 1-3-3z"/><path fill="#c3ddf4" d="M323.86 140.8h46.61V75.42a5 5 0 0 0-5-5H84.68a5 5 0 0 0-5 5V142a5 5 0 0 0 5 5h232.24a7 7 0 0 1 6.94-6.2z"/><path fill="#aec1ed" d="M99.52 142V75.42a5 5 0 0 1 5-5H84.68a5 5 0 0 0-5 5V142a5 5 0 0 0 5 5h19.84a5 5 0 0 1-5-5z"/><path fill="#29abe2" d="M424.7 26H25.46a3.07 3.07 0 0 0-3.06 3.06V51h405.36V29a3.07 3.07 0 0 0-3.06-3z"/><path fill="#0071bc" d="M45.3 26H25.46a3.07 3.07 0 0 0-3.06 3.06V51h19.84V29a3.07 3.07 0 0 1 3.06-3z"/><g fill="#8cc63f"><path d="M171.5 180H87.33a7.5 7.5 0 0 1 0-15h84.17a7.5 7.5 0 0 1 0 15zM171.5 204.5H87.33a7.5 7.5 0 1 1 0-15h84.17a7.5 7.5 0 0 1 0 15zM171.5 229H87.33a7.5 7.5 0 1 1 0-15h84.17a7.5 7.5 0 0 1 0 15zM237.56 180h-43.33a7.5 7.5 0 0 1 0-15h43.33a7.5 7.5 0 0 1 0 15zM237.56 204.5h-43.33a7.5 7.5 0 0 1 0-15h43.33a7.5 7.5 0 0 1 0 15zM237.56 229h-43.33a7.5 7.5 0 0 1 0-15h43.33a7.5 7.5 0 0 1 0 15z"/></g><path fill="#445ea0" d="M504 139.8a8 8 0 0 1 8 8v241.77a8 8 0 0 1-8 8H323.86a8 8 0 0 1-8-8V147.8a8 8 0 0 1 8-8z"/><path fill="#fff" d="M337.57 366.16a5 5 0 0 1-5-5V160.22a5 5 0 0 1 5-5h152.72a5 5 0 0 1 5 5v200.94a5 5 0 0 1-5 5z"/><path fill="#d9eafc" d="M352.41 361.16V160.22a5 5 0 0 1 5-5h-19.84a5 5 0 0 0-5 5v200.94a5 5 0 0 0 5 5h19.84a5 5 0 0 1-5-5z"/><path fill="#445ea0" d="M404.57 386.16a5 5 0 0 1-5-5v-1.94a5 5 0 0 1 5-5h18.72a5 5 0 0 1 5 5v1.94a5 5 0 0 1-5 5z"/><path fill="#29abe2" d="M495.29 174.51v-14.29a5 5 0 0 0-5-5H337.57a5 5 0 0 0-5 5v14.29z"/><path fill="#0071bc" d="M357.41 155.22h-19.84a5 5 0 0 0-5 5v14.29h19.84v-14.29a5 5 0 0 1 5-5z"/><g fill="#8cc63f"><path d="M448 266h-68.16a7.5 7.5 0 1 1 0-15H448a7.5 7.5 0 0 1 0 15zM448 289.1h-68.16a7.5 7.5 0 0 1 0-15H448a7.5 7.5 0 0 1 0 15zM448 312.22h-68.16a7.5 7.5 0 1 1 0-15H448a7.5 7.5 0 0 1 0 15z"/></g><path fill="#c3ddf4" d="M479.76 233.29a5 5 0 0 1-5 5H353.1a5 5 0 0 1-5-5v-41.24a5 5 0 0 1 5-5h121.66a5 5 0 0 1 5 5z"/><path fill="#aec1ed" d="M367.94 233.29v-41.24a5 5 0 0 1 5-5H353.1a5 5 0 0 0-5 5v41.24a5 5 0 0 0 5 5h19.84a5 5 0 0 1-5-5z"/><path fill="#c3ddf4" d="M461.76 350.45a5 5 0 0 1-5 5H371.1a5 5 0 0 1-5-5v-16.91a5 5 0 0 1 5-5h85.66a5 5 0 0 1 5 5v16.91z"/><path fill="#aec1ed" d="M385.94 350.45v-16.91a5 5 0 0 1 5-5H371.1a5 5 0 0 0-5 5v16.91a5 5 0 0 0 5 5h19.84a5 5 0 0 1-5-5z"/></svg>