<svg xmlns="http://www.w3.org/2000/svg" viewBox="0 0 54.02 54.01"><path fill="#2196f3" d="M41.7 6.05c4.49-1.6 8.14-1.6 10.13.39s2 5.86.24 10.55c2.58-6.43 2.7-11.87-.24-14.81-3.41-3.4-10.17-2.68-17.91 1.17a23.83 23.83 0 0 0-27.5 19.14c2-2.31 8.4-8.26 12.56-9.49a77.42 77.42 0 0 0-12.9 16.08C0 38.77-1.91 47.73 2.19 51.82c2.94 2.94 8.38 2.82 14.8.25-4.69 1.75-8.5 1.8-10.55-.25C3.79 49.18 4.67 43.58 8.17 37a24 24 0 0 0 44.07-1h-13A11.08 11.08 0 0 1 19 31h34.65A23.77 23.77 0 0 0 41.7 6.05zM19 24a11 11 0 0 1 22 0z"/></svg>