<svg xmlns="http://www.w3.org/2000/svg" xmlns:xlink="http://www.w3.org/1999/xlink" viewBox="0 0 1342.6 253.18"><defs><linearGradient id="a" x1="671.3" y1="325.67" x2="671.3" y2="139.01" gradientTransform="translate(0 -122)" gradientUnits="userSpaceOnUse"><stop offset="0" stop-color="#fff" stop-opacity="0.4"/><stop offset="1" stop-color="#fff" stop-opacity="0"/></linearGradient></defs><title>faq</title><path d="M1342.6,177.7V0H0V173.7q342.75-52.2,671.3,24.1c66.7,15.5,157.36,33.91,271.26,33.91S1191.7,212.9,1191.7,212.9C1243.2,207.9,1290.6,187.7,1342.6,177.7Z" fill-rule="evenodd" fill="url(#a)"/><polygon points="951.88 203.2 951.88 251.5 910.88 227.8 910.88 179.4 951.88 203.2" fill="none" stroke="#fff" stroke-miterlimit="10" stroke-width="1.94"/><polygon points="951.88 203.2 1003.28 173.5 962.28 149.8 910.88 179.4 951.88 203.2" fill="none" stroke="#fff" stroke-miterlimit="10" stroke-width="1.94"/><polygon points="926.28 206.1 951.98 203.1 911.08 179.3 885.38 182.3 926.28 206.1" fill="none" stroke="#fff" stroke-miterlimit="10" stroke-width="1.94"/><polygon points="1002.38 173.6 1028.08 146.9 987.18 123.1 961.48 149.8 1002.38 173.6" fill="none" stroke="#fff" stroke-miterlimit="10" stroke-width="1.94"/><polygon points="951.88 251.5 1003.28 221.9 1003.28 173.5 951.88 203.2 951.88 251.5" fill="none" stroke="#fff" stroke-miterlimit="10" stroke-width="1.94"/><polygon points="982.78 201.1 998.78 191.9 998.78 181.1 982.78 190.4 982.78 201.1" fill="none" stroke="#fff" stroke-miterlimit="10" stroke-width="1.94"/><polygon points="990.78 213.7 998.78 209.1 998.78 198.4 990.78 203 990.78 213.7" fill="none" stroke="#fff" stroke-miterlimit="10" stroke-width="1.94"/><polygon points="972.28 203.3 1023.68 173.6 1003.28 173.6 951.88 203.3 972.28 203.3" fill="none" stroke="#fff" stroke-miterlimit="10" stroke-width="1.94"/><polygon points="911.88 178.9 961.48 150.4 940.98 126.6 891.48 155.1 911.88 178.9" fill="none" stroke="#fff" stroke-miterlimit="10" stroke-width="1.94"/><polygon points="961.48 149.8 961.48 197.6 951.88 203.3 911.08 179.3 961.48 149.8" fill="none" stroke="#fff" stroke-miterlimit="10" stroke-width="1.94"/></svg>