<svg xmlns="http://www.w3.org/2000/svg" viewBox="0 0 53.99 54"><g style="isolation:isolate"><circle cx="26.94" cy="26" r="26" fill="#2196f3"/><path fill="#959595" d="M50.73 15.5a26 26 0 0 1-47.57 0 26 26 0 1 0 47.57 0z" opacity=".3"/><ellipse cx="26.94" cy="7" fill="#fff" opacity=".2" rx="9" ry="5"/><path fill="#ffa726" d="M53.5 28.11c-.37-.25-.89-.12-1.29.42a5.44 5.44 0 0 1-1.28 1.12c.06-.56.12-1.13.22-1.66.23-1.25.46-2.54.59-3.87.29-3.12.5-6.38-.46-9a1 1 0 0 0-1.13-.64 1 1 0 0 0-.4.17 38.45 38.45 0 0 0-2.45-3.17l-.6-.71a18 18 0 0 0-5.3-4.42 1 1 0 0 0-1.33.29A1 1 0 0 0 40.24 8a17.69 17.69 0 0 1 3.57 4.42l.26.49-.81-.72-.32-.28a1 1 0 0 0-1.34 0 1 1 0 0 0-.14 1.32A18.21 18.21 0 0 1 44.66 24a8.59 8.59 0 0 0-.4-.87 1 1 0 0 0-1.26-.48 1 1 0 0 0-.57 1.23 10.73 10.73 0 0 1-.06 4.06c-.06.41-.11.8-.14 1.16-.08.82-.19 1.71-.35 2.6a1 1 0 0 0-.58-.06 1 1 0 0 0-.81 1 9.9 9.9 0 0 1-2.18 5l-.07.09a22.64 22.64 0 0 1-1.52 1.85 1 1 0 0 0-.54-.43 1 1 0 0 0-.87.11 8.63 8.63 0 0 1-1.66.87c-2.65.87-5.65 1.59-8.5.53a9.92 9.92 0 0 1-3.56-2.45l-.2-.19a15.35 15.35 0 0 1-1.18-1.26l-.12-.15a10.09 10.09 0 0 0 2.59.35 8.67 8.67 0 0 0 2.84-.46 11.35 11.35 0 0 0 2.23-1.13 10.3 10.3 0 0 1 1.55-.85 4 4 0 0 1 1.25-.14 4 4 0 0 0 2.54-.66 1 1 0 0 0 .3-1.14A4.42 4.42 0 0 0 28 30.15c-.71.17-1.32.38-1.91.58a8.4 8.4 0 0 1-3.35.63C21.37 31.29 18.2 29 17.62 27a1.55 1.55 0 0 1 .59-1.78 2.19 2.19 0 0 1 1.41.54 1 1 0 0 0 1.05.17 1 1 0 0 0 .61-.86 8.59 8.59 0 0 0-.06-1.53 3.59 3.59 0 0 1 .83-.52l.59-.3c.7-.38 1.36-.81 2-1.23l.62-.4c.82-.52 1.61-1.1 1.54-1.95a1.23 1.23 0 0 0-.78-1 3.06 3.06 0 0 0-1.32-.15h-.21a7.86 7.86 0 0 1-1.11-.1 7.57 7.57 0 0 1-2.73-.89 9.09 9.09 0 0 1-2.07-1.5 7.13 7.13 0 0 1 .46-2c.69-1.66 1.77-2.52 3.48-3.8a1 1 0 0 0 .34-1.16 1 1 0 0 0-1-.64 12 12 0 0 0-3.5 1.07 14.2 14.2 0 0 0-3.54 2.49 11.53 11.53 0 0 0-5.71.5 6.5 6.5 0 0 1-1.46-1.86A3 3 0 0 1 7.36 9a6.83 6.83 0 0 0-.2-1 1 1 0 0 0-1-.71 1 1 0 0 0-.94.71c-.1.45-.24.9-.39 1.37s-.28.9-.39 1.37a24.25 24.25 0 0 0-.63 4.83 15.71 15.71 0 0 0-3 5.68C-.73 27.54-.06 32.84 2.77 39a26.5 26.5 0 0 0 23.78 15c3.24 0 9.48-.69 11.84-1.83a1 1 0 0 0 .5-1.09 1 1 0 0 0-.89-.78h-.24c1.58-.68 3.13-1.43 4.63-2.23.36-.19.75-.39 1.15-.58 2.35-1.19 5-2.53 6.2-5.08a1 1 0 0 0-1.5-1.23l-.81.57q.33-.45.69-.9a26.39 26.39 0 0 0 3-4.54 33.22 33.22 0 0 0 2.84-7v-.07A.42.42 0 0 0 54 29a1.09 1.09 0 0 0-.5-.89z"/><path fill="#fede00" d="M44.1 43.37l-.07.32a1.14 1.14 0 0 1 .07-.32zM50.94 31a.81.81 0 0 1-1 0c-.35-.22-.07-.6 0-1 .11-.59-.9.42-.83-.25s.15-1.41.27-2.09c.24-1.29.46-2.48.58-3.72.19-2 1.18-4.13 1-5.94-.36 0-.85-.67-1-1-.56-1.23-3-3.84-4-5 .48 1.26-.16 1.93 0 3a5.67 5.67 0 0 0-.59 2 23.15 23.15 0 0 1 .59 9l-1 1c-.1-.16-.91 1.62-1 1.45a6.68 6.68 0 0 1-.1.84c-.55 1.83-.65 3.14-.9 3.71-.08 0-.92 1-1 1-.63 1.52-1.51 4.3-1.88 4.78l-.07.09-.27.34S45.9 35 45.94 35s-1.49 6.81-1.84 8.37v-.09a29.74 29.74 0 0 1 2.57-3.67 23.79 23.79 0 0 0 2.82-4.18c.49-1 2-3.37 2.41-4.43-.12.11-.78-.13-.96 0z"/><path fill="#f57c00" d="M51.07 36.29a22.44 22.44 0 0 0 2.82-7.78.89.89 0 0 0-.39-.84 1.12 1.12 0 0 0-1.36.41 10.07 10.07 0 0 1-1.27 1.57c.06-.56.12-1.13.22-1.66.23-1.25.46-2.54.59-3.87.29-3.12.5-6.38-.46-9a1 1 0 0 0-1.13-.64.86.86 0 0 0-.39.17 38.53 38.53 0 0 0-2.46-3.17l-.59-.71a18 18 0 0 0-5.3-4.42A1 1 0 0 0 40.19 8a17.69 17.69 0 0 1 3.57 4.42l.26.49-.81-.72-.32-.28a1 1 0 0 0-1.48 1.32A18.21 18.21 0 0 1 44.61 24c-.12-.3-.26-.59-.4-.87a1 1 0 0 0-1.84.76 11 11 0 0 1-.07 4.06c-.06.41-.11.8-.14 1.16-.08.82-.19 1.71-.35 2.6a1 1 0 0 0-.58-.06 1.11 1.11 0 0 0-.81 1 13 13 0 0 1-2.17 5l-.07.09c-.49.63-1 1.28-1.52 1.85a1 1 0 0 0-.54-.43 1 1 0 0 0-.87.11 8.63 8.63 0 0 1-1.66.87c-2.58.93-5.6 1.65-8.46.59a9.89 9.89 0 0 1-3.55-2.45l-.2-.19a15.35 15.35 0 0 1-1.18-1.26l-.12-.15a10 10 0 0 0 2.59.35 8.61 8.61 0 0 0 2.83-.46 11.35 11.35 0 0 0 2.23-1.13 10.72 10.72 0 0 1 1.54-.85 4.1 4.1 0 0 1 1.25-.14 3.93 3.93 0 0 0 2.54-.66 1 1 0 0 0 .3-1.14 4.41 4.41 0 0 0-5.36-2.5 19.71 19.71 0 0 0-1.9.58 8.37 8.37 0 0 1-3.35.63c-1.4-.07-4.57-2.36-5.15-4.36a1.55 1.55 0 0 1 .59-1.78 2.21 2.21 0 0 1 1.41.54 1 1 0 0 0 1.66-.76 8.59 8.59 0 0 0-.06-1.53A3.39 3.39 0 0 1 22 23l.58-.3c.7-.38 1.36-.81 2-1.23l.62-.4c.82-.52 1.61-1.1 1.54-1.95a1.23 1.23 0 0 0-.78-1 3 3 0 0 0-1.32-.15h-.21a7.86 7.86 0 0 1-1.11-.1 7.63 7.63 0 0 1-2.7-.87 9.22 9.22 0 0 1-2.06-1.5 6.8 6.8 0 0 1 .46-2c.68-1.66 1.77-2.52 3.48-3.8a1 1 0 0 0 .33-1.16 1 1 0 0 0-1-.64 12 12 0 0 0-3.5 1.07 14.15 14.15 0 0 0-3.53 2.49 11.53 11.53 0 0 0-5.71.5 6.34 6.34 0 0 1-1.44-1.86 2.79 2.79 0 0 1-.3-1.1 6.83 6.83 0 0 0-.2-1 1 1 0 0 0-1-.71 1 1 0 0 0-.94.71c-.1.45-.24.9-.38 1.37s-.29.9-.4 1.37a25 25 0 0 0-.62 4.83 15.71 15.71 0 0 0-3 5.68C-.73 27.54-.06 32.84 2.77 39a26.46 26.46 0 0 0 23.75 15c3.24 0 9.47-.69 11.83-1.83a1 1 0 0 0 .5-1.09 1 1 0 0 0-.91-.78h-.24c1.57-.68 3.12-1.43 4.62-2.23.37-.19.75-.39 1.15-.58 2.35-1.19 5-2.53 6.19-5.08a1 1 0 0 0-1.49-1.23l-.81.57.68-.9a35.15 35.15 0 0 0 3.03-4.56zM19.63 18.71a9.42 9.42 0 0 0 3.5 1.12h.26c-.59.38-1.15.74-1.74 1.06l-.53.28c-.17.08-.33.17-.49.26-.07-.16-.13-.32-.21-.47-.17-.3-.35-.59-.54-.9a14.82 14.82 0 0 1-1-1.83c.28.21.53.36.75.48zm-13.36-7a8.3 8.3 0 0 0 .87 1.14c-.25.13-.5.28-.75.43l-.43.3c.09-.68.2-1.35.31-1.89zm40.19 27.9A17.39 17.39 0 0 0 43.94 44c1.13-.44 1.09.28.49.71s-1.25.66-1.86 1l-1.19.61c-2 1.2-6.44 3.33-8 4.15 1.34-.12 1.34.75.63 1.05a52.15 52.15 0 0 1-7.5.51A24.51 24.51 0 0 1 4.46 37.94a22.76 22.76 0 0 1-1.75-16.16A12.16 12.16 0 0 1 7.45 15 9.73 9.73 0 0 1 15 13.46H15.48l.15-.07a.57.57 0 0 0 .18-.12h.07a13.57 13.57 0 0 1 1.89-1.6 8.08 8.08 0 0 0-.57 1.14 9.24 9.24 0 0 0-.61 2.79 11 11 0 0 0 0 1.81 9.57 9.57 0 0 0 1.6 3.81l.5.83a4.63 4.63 0 0 1 .48 1.31c-2.24-.56-4.6.94-6.38 2.72-2.47 2.47-1.72 5.93-.26 8.31a8.39 8.39 0 0 1 1.77-7 9.86 9.86 0 0 1 1.24-1.12 4 4 0 0 0 .15 1.31c.81 2.82 4.66 5.72 7 5.84a10.4 10.4 0 0 0 4.1-.74 16.89 16.89 0 0 1 1.73-.53 3 3 0 0 1 2.29.28h-.27a5.48 5.48 0 0 0-2 .29 12.17 12.17 0 0 0-1.83 1 6.81 6.81 0 0 1-1.83 1c-4.76 1.17-7.7-1.11-9.53-2 .38.57 1 1.72 1.63 2.6.36.67 1.66 2.73 1.67 2.74A15.58 15.58 0 0 0 20 39.44l.2.2a12.27 12.27 0 0 0 4.25 2.89 11.72 11.72 0 0 0 4.08.66A15.1 15.1 0 0 0 34.27 42a8.55 8.55 0 0 0 1.14-.52c.84-.64 1.12-.32.75.43a6.4 6.4 0 0 0 2-1 20.32 20.32 0 0 0 1.64-2l.07-.09a15.13 15.13 0 0 0 1.9-3.25.86.86 0 0 0 .23 0 24.53 24.53 0 0 0 2.18-6.29c0-.26.07-.54.1-.84.11-1.2.85-1.32 1.36 1a16.8 16.8 0 0 0 .34-11c-.28-1.09.32-1.15 1 .25a40.14 40.14 0 0 0-.3-4.74A17.75 17.75 0 0 1 49 17.49a1 1 0 0 0 .82.58 30.7 30.7 0 0 1-.15 5.87c-.12 1.24-.33 2.43-.57 3.72-.12.68-.2 1.39-.27 2.09s.17 2.17.21 2.93c.76-1.87 2.24-1.93 1.63-.39-.37 1-.93 2.11-1.42 3.14a24.22 24.22 0 0 1-2.79 4.18z"/><path fill="#f1f1f1" d="M26.74 18.45l-3.27 1.44c-.6.37-1.18.73-1.79 1l-.55.28-.51.24.68 1.92.78-.38.61-.3c.73-.38 1.42-.81 2.09-1.23l.65-.4c.85-.52 1.68-1.1 1.61-1.95a1.15 1.15 0 0 0-.3-.62z"/><circle cx="25.94" cy="19" r="1" fill="#263238"/></g></svg>