<svg xmlns="http://www.w3.org/2000/svg" xmlns:xlink="http://www.w3.org/1999/xlink" viewBox="0 0 436.57 443.39"><defs><filter id="b" x="0" y="-8414" width="436.57" height="32766" filterUnits="userSpaceOnUse" color-interpolation-filters="sRGB"><feFlood flood-color="#fff" result="bg"/><feBlend in="SourceGraphic" in2="bg"/></filter><mask id="a" x="0" y="-8414" width="436.57" height="32766" maskUnits="userSpaceOnUse"><g filter="url(#b)"/></mask><linearGradient id="c" x1="100.96" y1="98.74" x2="343.35" y2="352.76" gradientUnits="userSpaceOnUse"><stop offset="0" stop-color="#333"/><stop offset="0.19" stop-color="#6c6c6c"/><stop offset="0.39" stop-color="#a0a0a0"/><stop offset="0.58" stop-color="#c9c9c9"/><stop offset="0.75" stop-color="#e7e7e7"/><stop offset="0.9" stop-color="#f9f9f9"/><stop offset="1" stop-color="#fff"/></linearGradient><filter id="e" x="0" y="0" width="436.57" height="443.39" filterUnits="userSpaceOnUse" color-interpolation-filters="sRGB"><feFlood flood-color="#fff" result="bg"/><feBlend in="SourceGraphic" in2="bg"/></filter><mask id="d" x="0" y="0" width="436.57" height="443.39" maskUnits="userSpaceOnUse"><g mask="url(#a)" filter="url(#e)"><rect width="436.57" height="443.39" fill="url(#c)" style="mix-blend-mode:multiply"/></g></mask><linearGradient id="f" x1="100.96" y1="98.74" x2="343.35" y2="352.76" gradientUnits="userSpaceOnUse"><stop offset="0" stop-color="#3b2f22"/><stop offset="0.17" stop-color="#6c5942"/><stop offset="0.38" stop-color="#a08764"/><stop offset="0.57" stop-color="#c9ab7f"/><stop offset="0.74" stop-color="#e7c593"/><stop offset="0.89" stop-color="#f9d49f"/><stop offset="1" stop-color="#ffdaa3"/></linearGradient></defs><title>formats</title><g style="isolation:isolate"><rect width="436.57" height="443.39" fill="#5f3584"/><g mask="url(#d)"><rect width="436.57" height="443.39" opacity="0.2" fill="url(#f)" style="mix-blend-mode:overlay"/></g><polygon points="374.22 228.9 360.88 228.23 326.48 248.09 364.99 271.06 368.99 272.54 404.37 246.81 377.67 230.94 374.22 228.9" opacity="0.12"/><polygon points="409.43 169.87 365.86 194.98 365.86 214.58 365.86 270.73 368.99 272.54 419.44 239.8 419.44 183.65 412.56 171.67 409.43 169.87" fill="#cc5200"/><polygon points="407.82 174.37 368.99 196.78 368.99 216.39 368.99 272.54 422.57 241.6 422.57 185.46 422.57 178.21 412.51 171.66 407.82 174.37" fill="#ff7f00"/><polygon points="411.48 172.25 411.48 183.42 412.51 184.02 421.54 177.62 412.51 171.66 411.48 172.25" fill="#cc5200"/><polygon points="412.51 184.02 422.57 178.21 412.51 171.66 412.51 184.02" fill="#ffa042"/><polygon points="374.63 205.16 378.88 202.7 378.88 200.25 374.63 202.7 374.63 199.94 379.14 197.34 379.14 194.87 372.02 198.98 372.02 212.3 379.38 208.05 379.38 205.58 374.63 208.32 374.63 205.16" fill="#fff"/><path d="M388.21,190.59c-.77-.26-1.91,0-3.52,1a31.34,31.34,0,0,0-3.53,2.32V207l2.59-1.49v-4.77a6.76,6.76,0,0,0,.89-.45,10.37,10.37,0,0,0,3.75-3.57,7.48,7.48,0,0,0,1.06-3.77C389.45,191.66,389,190.84,388.21,190.59ZM384.62,198a5.38,5.38,0,0,1-.87.42V194.5a6.05,6.05,0,0,1,1.08-.74c1.3-.75,2-.45,2,.78A4.13,4.13,0,0,1,384.62,198Z" fill="#fff"/><path d="M395.6,190.78c-1.49.21-2.14.21-2.14-.64a2.93,2.93,0,0,1,1.68-2.26,5,5,0,0,1,2.41-.76l.58-2.77a6.78,6.78,0,0,0-2.94,1c-2.72,1.57-4.37,4.26-4.37,6.53,0,1.94,1.25,2.45,3.17,2.11,1.39-.23,1.93-.07,1.93.76a3.13,3.13,0,0,1-1.83,2.5,5.9,5.9,0,0,1-2.89.84l-.53,2.8a7,7,0,0,0,3.27-1.08c3.16-1.83,4.65-4.58,4.65-6.82C398.59,191.14,397.64,190.47,395.6,190.78Z" fill="#fff"/><path d="M398.59,221.31c-11.24-6.49-25,11.88-25.16,12.07-.44.61-.56,1.38-.26,1.72s.91.13,1.36-.47c.12-.17,12.56-16.76,22.67-10.92,10.39,6,2.25,24.29,1.9,25.06s-.21,1.34.23,1.45,1.05-.37,1.37-1.06C400.79,249,410.16,228,398.59,221.31Z" fill="#fff"/><path d="M411.08,227.72c-.58-.33-1.51.21-2.08,1.2s-.57,2.07,0,2.4,1.5-.21,2.08-1.2S411.65,228.05,411.08,227.72Z" fill="#fff"/><path d="M398.24,221.91c-.19-.11-.5.07-.69.4s-.19.69,0,.8l12.14,7c.19.11.5-.07.69-.4s.2-.69,0-.8Z" fill="#fff"/><path d="M386.79,213.7c-.57-.33-1.5.21-2.08,1.2s-.57,2.07,0,2.4,1.51-.21,2.08-1.2S387.36,214,386.79,213.7Z" fill="#fff"/><path d="M386.1,214.9c-.19-.11-.5.07-.69.4s-.2.69,0,.8l12.14,7c.19.11.5-.07.69-.4s.19-.69,0-.8Z" fill="#fff"/><path d="M398.37,217.18c-.26-.15-.69.1-.95.55l-3.9,6.76c-.26.45-.26.94,0,1.09l3.9,2.26c.26.15.69-.1.95-.55l3.9-6.76c.26-.45.26-.94,0-1.09Z" fill="#fff"/><path d="M410.54,193.49l-.86,1.71h-.08a1.53,1.53,0,0,0-1.08.12,2.13,2.13,0,0,0-.79.9,3.57,3.57,0,0,0-.13,3.32,35,35,0,0,0-4.38,5.83c-1.13,2.26-2.17,10.56-1.92,11l.14.26.18-.11.23.17.23-.14c.63-.36,6.89-7,7.95-9.09a29.34,29.34,0,0,0,1.78-6.41,4,4,0,0,0,.87-.38,4.57,4.57,0,0,0,1.84-2c.59-1.2,0-1.58-.41-1.83l-.07,0,.88-1.76Z" fill="#fff"/><polygon points="359.67 314.19 350.82 313.75 328.03 326.91 353.55 342.13 356.2 343.11 379.64 326.06 361.95 315.55 359.67 314.19" opacity="0.12"/><polygon points="382.51 274.9 353.64 291.54 353.64 304.53 353.64 341.73 355.71 342.93 389.14 321.24 389.14 284.03 384.58 276.1 382.51 274.9" fill="#423e3b"/><polygon points="381.47 277.89 355.74 292.75 355.74 305.74 355.74 342.94 391.24 322.44 391.24 285.24 391.24 280.44 384.58 276.1 381.47 277.89" fill="#777472"/><polygon points="383.87 276.48 383.87 283.88 384.55 284.27 390.53 280.03 384.55 276.08 383.87 276.48" fill="#423e3b"/><polygon points="384.55 284.27 391.21 280.43 384.55 276.08 384.55 284.27" fill="#949290"/><polygon points="357.4 296.05 359.45 294.86 359.45 302.01 361.19 301.01 361.19 293.86 363.28 292.66 363.28 290.98 357.4 294.37 357.4 296.05" fill="#fff"/><path d="M370.31,286.92l-2,1.14-.65,2c-.19.62-.34,1.1-.52,1.77h0c-.18-.39-.35-.72-.58-1.13l-.67-1.22-2,1.14,2.14,3.13-2.21,5.74,2-1.13.63-2c.24-.75.44-1.32.59-1.92l0,0c.21.39.39.74.68,1.19l.69,1.2,2-1.15-2.27-3.21Z" fill="#fff"/><polygon points="370.85 288.29 372.9 287.1 372.9 294.25 374.64 293.25 374.64 286.1 376.73 284.89 376.73 283.22 370.85 286.61 370.85 288.29" fill="#fff"/><polygon points="359.75 326.72 387.23 310.86 387.23 309.13 359.75 325 359.75 326.72" fill="#fff"/><polygon points="359.75 333.72 387.23 317.86 387.23 316.14 359.75 332 359.75 333.72" fill="#fff"/><polygon points="359.75 312.71 387.23 296.85 387.23 295.13 359.75 310.99 359.75 312.71" fill="#fff"/><polygon points="359.75 319.71 387.23 303.85 387.23 302.13 359.75 318 359.75 319.71" fill="#fff"/><polygon points="359.18 139.49 350.31 139.05 327.46 152.25 353.05 167.51 355.7 168.49 379.21 151.4 361.47 140.85 359.18 139.49" opacity="0.12"/><polygon points="382.57 100.28 353.63 116.96 353.63 129.99 353.63 167.29 355.7 168.49 389.22 146.74 389.22 109.44 384.64 101.48 382.57 100.28" fill="#28811e"/><polygon points="381.5 103.27 355.7 118.16 355.7 131.19 355.7 168.49 391.3 147.94 391.3 110.64 391.3 105.82 384.62 101.47 381.5 103.27" fill="#29b52f"/><polygon points="383.93 101.86 383.93 109.28 384.62 109.68 390.61 105.43 384.62 101.47 383.93 101.86" fill="#28811e"/><polygon points="384.62 109.68 391.3 105.82 384.62 101.47 384.62 109.68" fill="#47cc4c"/><path d="M364.21,115.87l-2,1.14-.65,2c-.19.63-.5,1.63-.5,1.63l-1.3-2.21-2,1.15,2.14,3.14-2.22,5.76,2-1.14.64-2c.24-.76.43-1.33.59-1.93l0,0,1.38,2.4,2-1.16L362,121.58Z" fill="#fff"/><polygon points="367 114.26 365.26 115.26 365.26 124.11 370.05 121.35 370.05 119.67 367 121.43 367 114.26" fill="#fff"/><path d="M374.05,113.78c-1,.14-1.42.14-1.42-.42a1.94,1.94,0,0,1,1.11-1.5,3.4,3.4,0,0,1,1.61-.51l.38-1.83a4.36,4.36,0,0,0-2,.68,5.44,5.44,0,0,0-2.9,4.34c0,1.29.83,1.62,2.1,1.4.92-.15,1.29,0,1.29.5a2.08,2.08,0,0,1-1.22,1.66,3.86,3.86,0,0,1-1.92.56l-.35,1.86a4.67,4.67,0,0,0,2.17-.71,5.6,5.6,0,0,0,3.09-4.53C376,114,375.4,113.58,374.05,113.78Z" fill="#fff"/><polygon points="370.15 139.32 370.15 143.29 378.28 138.61 378.95 138.22 378.95 134.24 372.25 138.11 370.15 139.32" fill="#fff"/><polygon points="370.15 133.9 370.15 137.88 370.82 137.49 378.95 132.8 378.95 128.82 370.82 133.51 370.15 133.9" fill="#fff"/><polygon points="370.15 144.73 370.15 148.71 372.25 147.5 378.95 143.63 378.95 139.66 372.25 143.52 370.15 144.73" fill="#fff"/><polygon points="370.15 150.17 370.15 154.14 378.95 149.06 378.95 145.09 378.28 145.48 370.15 150.17" fill="#fff"/><polygon points="360.03 159.99 369.39 154.58 369.39 128.93 360.03 134.33 360.03 159.99" fill="#fff"/><polygon points="379.77 126.91 384.29 124.3 386.97 122.76 386.97 118.78 379.77 122.94 379.77 126.91" fill="#fff"/><polygon points="379.77 128.35 379.77 132.33 386.48 128.46 386.97 128.17 386.97 124.2 386.48 124.48 379.77 128.35" fill="#fff"/><polygon points="379.77 133.77 379.77 137.74 380.26 137.46 386.97 133.59 386.97 129.61 384.29 131.16 379.77 133.77" fill="#fff"/><polygon points="370.15 132.46 372.25 131.25 378.95 127.38 378.95 123.41 370.15 128.49 370.15 132.46" fill="#fff"/><polygon points="379.77 144.62 379.77 148.59 386.97 144.44 386.97 140.46 380.26 144.33 379.77 144.62" fill="#fff"/><polygon points="379.77 139.18 379.77 143.16 384.29 140.55 386.97 139 386.97 135.03 384.29 136.57 379.77 139.18" fill="#fff"/><polygon points="33.75 228.9 20.4 228.23 -14 248.09 24.52 271.06 28.52 272.54 63.89 246.81 37.19 230.94 33.75 228.9" opacity="0.12"/><polygon points="68.95 169.87 25.39 194.98 25.39 214.58 25.39 270.73 28.52 272.54 78.96 239.8 78.96 183.65 72.08 171.67 68.95 169.87" fill="#1b9b15"/><polygon points="67.34 174.37 28.52 196.78 28.52 216.39 28.52 272.54 82.09 241.6 82.09 185.46 82.09 178.21 72.04 171.66 67.34 174.37" fill="#1bcf2b"/><polygon points="71 172.25 71 183.42 72.04 184.02 81.06 177.62 72.04 171.66 71 172.25" fill="#1b9b15"/><polygon points="72.04 184.02 82.09 178.21 72.04 171.66 72.04 184.02" fill="#59dc64"/><path d="M35,205.49c0,2.08-.69,3-1.78,3.68a4.71,4.71,0,0,1-1.34.53l-.29,2.6a7.49,7.49,0,0,0,1.9-.78c2.53-1.46,4.11-3.7,4.11-7.49v-8.42l-2.6,1.5Z" fill="#fff"/><path d="M46.78,191.25c-.77-.27-1.92,0-3.53,1a30.14,30.14,0,0,0-3.52,2.32v13.14l2.58-1.49v-4.76a7.72,7.72,0,0,0,.89-.46A10.29,10.29,0,0,0,47,197.39,7.46,7.46,0,0,0,48,193.62C48,192.31,47.51,191.49,46.78,191.25Zm-3.6,7.41a4.36,4.36,0,0,1-.87.42v-3.93a7.15,7.15,0,0,1,1.08-.74c1.3-.75,2-.45,2,.78A4.14,4.14,0,0,1,43.18,198.66Z" fill="#fff"/><path d="M55,193.57l1.78-1v2.79a5.9,5.9,0,0,1-1.29.93c-2.14,1.24-3.62.48-3.62-2.27a7.52,7.52,0,0,1,3.81-6.51,6.28,6.28,0,0,1,2.69-1l.55-2.73a7.8,7.8,0,0,0-3.2,1.2,12.88,12.88,0,0,0-6.59,10.76c0,2,.56,3.37,1.62,3.91s2.59.3,4.69-.92a20.91,20.91,0,0,0,3.85-3v-7L55,191.21Z" fill="#fff"/><path d="M33.2,259.36l46.14-26.65V195L33.2,221.6Zm1.6-36.84,42.93-24.78v34L34.8,256.57Z" fill="#fff"/><path d="M52.57,222.25s9.47-7.74,13.7-6.46l1.16-1.73S61,207.39,52.57,222.25Z" fill="#fff"/><path d="M57.41,212.94s8.3-4,9.2,1.79l1.55,0S69.37,201,57.41,212.94Z" fill="#fff"/><path d="M66.67,215.19c7-5.47,3.73-10.27,3.73-10.27C71,206.28,64.49,216.89,66.67,215.19Z" fill="#fff"/><path d="M67.43,213.5l-.31,1.1c7-3,9.67,2.1,9.67,2.1C77.2,204.25,67.43,213.5,67.43,213.5Z" fill="#fff"/><path d="M67.6,213.93l-.84,1c1.94,2.7,1.63,7.94,1.63,7.94C72,214.3,67.6,213.93,67.6,213.93Z" fill="#fff"/><path d="M66.34,214.92C58,227.18,59.47,237,59.47,237L64,234.38c-1.85-7.36,3.39-18.64,3.39-18.64s.81-1.77.32-2S66.34,214.92,66.34,214.92Z" fill="#fff"/><path d="M61.89,232.6c-6.48,3.75-25.24,12.46-27.72,19.76-1.16,3.42-.05,5.34-.4,6.4L78.3,232.2,77.73,224S66.89,229.72,61.89,232.6Z" fill="#fff"/><polygon points="48.73 314.11 39.86 313.67 17.01 326.87 42.6 342.13 45.26 343.11 68.76 326.02 51.02 315.48 48.73 314.11" opacity="0.12"/><polygon points="72.12 274.9 43.18 291.58 43.18 304.61 43.18 341.91 45.26 343.11 78.77 321.36 78.77 284.06 74.2 276.1 72.12 274.9" fill="#0c6a99"/><polygon points="71.05 277.89 45.26 292.78 45.26 305.81 45.26 343.11 80.85 322.56 80.85 285.26 80.85 280.44 74.17 276.09 71.05 277.89" fill="#019ae6"/><polygon points="73.48 276.48 73.48 283.9 74.17 284.3 80.17 280.05 74.17 276.09 73.48 276.48" fill="#0c6a99"/><polygon points="74.17 284.3 80.85 280.44 74.17 276.09 74.17 284.3" fill="#54c6ff"/><path d="M53,290.9l-1.54,7-1.44-5.3L47.75,294l-.48,9.13,1.6-.93.14-3.44c.05-1.13.09-2.52.13-3.74h0c.18,1,1.51,6,1.51,6l1.35-.79s1.55-6.64,1.79-7.91l0,0c0,1.29,0,2.56.07,3.6l.11,3.32,1.7-1-.42-8.61Z" fill="#fff"/><path d="M61.75,286.52a3.14,3.14,0,0,0-2.34.64,23.56,23.56,0,0,0-2.35,1.54v8.73l1.72-1v-3.16c.16-.07.36-.17.59-.3a6.92,6.92,0,0,0,2.49-2.37,4.94,4.94,0,0,0,.71-2.51C62.57,287.23,62.24,286.69,61.75,286.52Zm-2.39,4.93a3.6,3.6,0,0,1-.58.28v-2.62a5.18,5.18,0,0,1,.72-.49c.86-.5,1.35-.29,1.35.52A2.76,2.76,0,0,1,59.36,291.45Z" fill="#fff"/><path d="M67,287.17v0a4,4,0,0,0,1.36-2.76c0-1.17-.88-1.62-2.46-.71a8.54,8.54,0,0,0-2.29,2l.36,1.24a6.45,6.45,0,0,1,1.54-1.4c.73-.42,1.09-.25,1.09.26,0,.72-.74,1.4-1.32,1.75l-.67.39v1.43l.71-.41c.76-.44,1.49-.48,1.49.36a2.43,2.43,0,0,1-1.35,1.93,3.51,3.51,0,0,1-1.72.46l-.35,1.7a3.83,3.83,0,0,0,2.19-.66,5.55,5.55,0,0,0,3-4.36C68.58,287.2,67.86,286.84,67,287.17Z" fill="#fff"/><path d="M52.1,307.33s.06,6.55.06,7.06c-1.11.3-2.76,2.51-2.44,3.71s3.05-.9,3.43-3a4.18,4.18,0,0,0,0-.51c0-1.52,0-5.8,0-6a37,37,0,0,1,4.24-3.59v4.89c-1.11.3-2.76,2.51-2.45,3.71s3.08-1,3.42-3a5.46,5.46,0,0,0,0-1v-7.48Z" fill="#fff"/><path d="M61.94,312.76l-4,2.33a1.62,1.62,0,0,0-.73,1.27c0,.46.33.65.73.42l4-2.33a1.62,1.62,0,0,0,.73-1.26C62.67,312.72,62.34,312.53,61.94,312.76Z" fill="#fff"/><path d="M61.94,315.77l-4,2.33a1.62,1.62,0,0,0-.73,1.27c0,.46.33.65.73.42l4-2.33a1.62,1.62,0,0,0,.73-1.26C62.67,315.73,62.34,315.54,61.94,315.77Z" fill="#fff"/><path d="M61.94,318.79l-4,2.32a1.62,1.62,0,0,0-.73,1.27c0,.46.33.65.73.42l4-2.32a1.65,1.65,0,0,0,.73-1.27C62.67,318.74,62.34,318.55,61.94,318.79Z" fill="#fff"/><path d="M61.94,321.8l-4,2.32a1.62,1.62,0,0,0-.73,1.27c0,.46.33.65.73.42l4-2.32a1.65,1.65,0,0,0,.73-1.27C62.67,321.75,62.34,321.56,61.94,321.8Z" fill="#fff"/><path d="M53.89,323.43l-4,2.33a1.62,1.62,0,0,0-.73,1.26c0,.47.33.66.73.43l4-2.33a1.62,1.62,0,0,0,.73-1.26C54.62,323.39,54.29,323.2,53.89,323.43Z" fill="#fff"/><path d="M53.89,326.44l-4,2.33a1.62,1.62,0,0,0-.73,1.27c0,.46.33.65.73.42l4-2.33a1.62,1.62,0,0,0,.73-1.26C54.62,326.4,54.29,326.21,53.89,326.44Z" fill="#fff"/><path d="M78,306.48l-4,2.32a1.64,1.64,0,0,0-.73,1.27c0,.47.33.66.73.42l4-2.32a1.62,1.62,0,0,0,.73-1.27C78.77,306.43,78.44,306.25,78,306.48Z" fill="#fff"/><path d="M78,309.49l-4,2.32a1.64,1.64,0,0,0-.73,1.27c0,.47.33.66.73.42l4-2.32a1.62,1.62,0,0,0,.73-1.27C78.77,309.45,78.44,309.26,78,309.49Z" fill="#fff"/><path d="M78,312.5l-4,2.32a1.64,1.64,0,0,0-.73,1.27c0,.47.33.66.73.42l4-2.32a1.62,1.62,0,0,0,.73-1.27C78.77,312.46,78.44,312.27,78,312.5Z" fill="#fff"/><path d="M70,308.12l-4,2.32a1.62,1.62,0,0,0-.73,1.27c0,.46.33.65.73.42l4-2.32a1.64,1.64,0,0,0,.73-1.27C70.72,308.07,70.39,307.88,70,308.12Z" fill="#fff"/><path d="M70,311.13l-4,2.32a1.62,1.62,0,0,0-.73,1.27c0,.46.33.65.73.42l4-2.32a1.64,1.64,0,0,0,.73-1.27C70.72,311.08,70.39,310.89,70,311.13Z" fill="#fff"/><path d="M70,314.14l-4,2.32a1.62,1.62,0,0,0-.73,1.27c0,.47.33.65.73.42l4-2.32a1.64,1.64,0,0,0,.73-1.27C70.72,314.09,70.39,313.9,70,314.14Z" fill="#fff"/><path d="M70,317.15l-4,2.32a1.64,1.64,0,0,0-.73,1.27c0,.47.33.66.73.42l4-2.32a1.64,1.64,0,0,0,.73-1.27C70.72,317.1,70.39,316.91,70,317.15Z" fill="#fff"/><path d="M70,302.09l-4,2.33a1.62,1.62,0,0,0-.73,1.27c0,.46.33.65.73.42l4-2.32a1.65,1.65,0,0,0,.73-1.27C70.72,302.05,70.39,301.86,70,302.09Z" fill="#fff"/><path d="M70,305.11l-4,2.32a1.62,1.62,0,0,0-.73,1.27c0,.46.33.65.73.42l4-2.32a1.65,1.65,0,0,0,.73-1.27C70.72,305.06,70.39,304.87,70,305.11Z" fill="#fff"/><polygon points="49.13 333.31 78.77 316.2 78.77 314.51 49.13 331.62 49.13 333.31" fill="#fff"/><polygon points="50.99 140.49 42.12 140.05 19.27 153.25 44.86 168.51 47.52 169.49 71.02 152.4 53.28 141.85 50.99 140.49" opacity="0.12"/><polygon points="74.38 101.28 45.44 117.96 45.44 130.99 45.44 168.29 47.52 169.49 81.03 147.74 81.03 110.44 76.46 102.48 74.38 101.28" fill="#961b1e"/><polygon points="73.31 104.27 47.52 119.16 47.52 132.19 47.52 169.49 83.11 148.94 83.11 111.64 83.11 106.82 76.43 102.47 73.31 104.27" fill="#cf3a3c"/><polygon points="75.74 102.86 75.74 110.28 76.43 110.68 82.42 106.43 76.43 102.47 75.74 102.86" fill="#961b1e"/><polygon points="76.43 110.68 83.11 106.82 76.43 102.47 76.43 110.68" fill="#e36465"/><path d="M53.66,122.93v0a4.59,4.59,0,0,0,1.36-3c0-.81-.25-1.29-.71-1.44s-1.34.07-2.48.73a22.1,22.1,0,0,0-2.31,1.52v8.73l1.72-1V125l.52-.3c.71-.4,1-.29,1.24.7a7.33,7.33,0,0,0,.54,1.75l1.77-1c-.14-.26-.38-1.28-.62-2.14C54.49,123.29,54.2,122.87,53.66,122.93Zm-1.74.23-.68.39v-2.44a8.16,8.16,0,0,1,.79-.52c.79-.44,1.27-.31,1.27.5A2.5,2.5,0,0,1,51.92,123.16Z" fill="#fff"/><path d="M58.16,115.63l-2.34,10.21,1.79-1,.55-2.59L60.35,121l.6,1.93,1.86-1.08-2.38-7.48Zm.25,4.94.45-2.14c.13-.58.24-1.32.36-1.91h0c.11.46.25,1,.39,1.48l.47,1.6Z" fill="#fff"/><path d="M69.54,115.76l0,0c-.11-.92-1-6.11-1-6.11l-1.84,1.06s-1,6.37-1.15,7.4l0,0c-.13-.82-1-6.14-1-6.14l-1.85,1.07,1.82,7.8,1.9-1.1.72-4.23c.19-1,.31-1.91.45-3l0,0c.09,1,.22,1.72.36,2.52l.65,3.44,1.88-1.09,2-10-1.77,1S69.65,114.71,69.54,115.76Z" fill="#fff"/><path d="M66.16,127.81c-6.09,3.52-11,12.09-11,19.12s5,9.88,11,6.37,11-12.09,11-19.11S72.24,124.3,66.16,127.81Zm0,24.32c-5.53,3.19-10,.59-10-5.79s4.49-14.16,10-17.35,10-.6,10,5.78S71.68,148.94,66.16,152.13Z" fill="#fff"/><path d="M66.16,143.61a8.57,8.57,0,0,0,6.2,1.25,19.27,19.27,0,0,0,3-9.55A25,25,0,0,1,66.16,143.61Z" fill="#fff"/><path d="M59.94,136.27a19.24,19.24,0,0,0-3,9.53c3.13-4.53,7.39-7,9.49-8.37A9.54,9.54,0,0,0,59.94,136.27Z" fill="#fff"/><path d="M63.81,143.17a25.45,25.45,0,0,0-.47,9.17,9.62,9.62,0,0,0,2.82-1.12,17,17,0,0,0,4.55-4C67.08,147.52,65,144.53,63.81,143.17Z" fill="#fff"/><path d="M70.83,128.67a21.89,21.89,0,0,1-1.9,11.24,23.44,23.44,0,0,0,6.24-6.84C74.62,130.45,73,128.9,70.83,128.67Z" fill="#fff"/><path d="M66.16,129.89a17,17,0,0,0-4.56,4c3.63-.32,5.76,2.15,6.92,3.51a22.28,22.28,0,0,0,.45-8.65A9.53,9.53,0,0,0,66.16,129.89Z" fill="#fff"/><path d="M57.14,148c.55,2.62,2.16,4.18,4.34,4.4-.48-4.21,1.39-9,2.33-11.75A33.19,33.19,0,0,0,57.14,148Z" fill="#fff"/><polygon points="204.6 59.03 191.25 58.37 156.85 78.22 195.37 101.2 199.37 102.67 234.74 76.94 208.04 61.08 204.6 59.03" opacity="0.12"/><polygon points="239.8 0 196.24 25.11 196.24 44.72 196.24 100.86 199.37 102.67 249.81 69.93 249.81 13.79 242.93 1.81 239.8 0" fill="#bd3b00"/><polygon points="238.19 4.5 199.37 26.92 199.37 46.52 199.37 102.67 252.94 71.74 252.94 15.59 252.94 8.34 242.89 1.79 238.19 4.5" fill="#f85e16"/><polygon points="241.86 2.38 241.86 13.55 242.89 14.15 251.91 7.75 242.89 1.79 241.86 2.38" fill="#bd3b00"/><polygon points="242.89 14.15 252.94 8.34 242.89 1.79 242.89 14.15" fill="#f97c41"/><path d="M209.44,26c-.77-.27-1.91,0-3.52,1a29.74,29.74,0,0,0-3.53,2.31V42.43L205,40.94V36.18a7.72,7.72,0,0,0,.89-.46,10.21,10.21,0,0,0,3.75-3.57,7.36,7.36,0,0,0,1.06-3.77C210.67,27.08,210.18,26.25,209.44,26Zm-3.59,7.41a3.89,3.89,0,0,1-.88.42V29.91a7.15,7.15,0,0,1,1.08-.74c1.3-.75,2-.44,2,.78A4.14,4.14,0,0,1,205.85,33.42Z" fill="#fff"/><path d="M219.39,20.26c-.77-.27-1.91,0-3.52,1a33,33,0,0,0-3.53,2.31V36.69l2.59-1.49V30.43c.24-.1.54-.26.89-.45a10.45,10.45,0,0,0,3.75-3.57,7.49,7.49,0,0,0,1.06-3.78C220.63,21.33,220.13,20.51,219.39,20.26Zm-3.59,7.41a4.82,4.82,0,0,1-.87.43V24.17a5.87,5.87,0,0,1,1.07-.74c1.31-.76,2-.45,2,.78A4.12,4.12,0,0,1,215.8,27.67Z" fill="#fff"/><polygon points="221.42 20.66 224.52 18.87 224.52 29.66 227.14 28.15 227.14 17.35 230.29 15.54 230.29 13.01 221.42 18.13 221.42 20.66" fill="#fff"/><path d="M215.56,61.81,204.05,74.88c3.07,5.56,10.71,4.23,17.07-3,5.09-5.79,7.8-13.58,7.1-19.32Z" fill="#fff"/><path d="M208.92,50a30.52,30.52,0,0,0-4.8,7.41c-2.66,5.79-3.27,11.9-1.16,15.73l11.51-13.06L215,45A22,22,0,0,0,208.92,50Z" fill="#fff"/><path d="M218.36,40.84l-.51,15,12.67-9.24a10.61,10.61,0,0,0-1.16-3.82C227.24,39,222.92,38.42,218.36,40.84Z" fill="#fff"/><polygon points="231.77 53.9 250.06 43.34 250.06 39.71 231.77 50.27 231.77 53.9" fill="#fff"/><polygon points="231.77 65.45 243.01 58.96 243.01 55.33 231.77 61.82 231.77 65.45" fill="#fff"/><polygon points="231.77 42.11 250.06 31.55 250.06 27.92 231.77 38.48 231.77 42.11" fill="#fff"/><polygon points="114.89 71.33 106.03 70.89 83.17 84.08 108.76 99.35 111.42 100.32 134.92 83.23 117.19 72.69 114.89 71.33" opacity="0.12"/><polygon points="138.28 32.12 109.34 48.8 109.34 61.82 109.34 99.12 111.42 100.32 144.93 78.57 144.93 41.27 140.36 33.32 138.28 32.12" fill="#eb7200"/><polygon points="137.21 35.11 111.42 50 111.42 63.02 111.42 100.32 147.01 79.77 147.01 42.47 147.01 37.66 140.33 33.3 137.21 35.11" fill="#ffa012"/><polygon points="139.65 33.7 139.65 41.12 140.33 41.52 146.33 37.26 140.33 33.3 139.65 33.7" fill="#eb7200"/><polygon points="140.33 41.52 147.01 37.66 140.33 33.3 140.33 41.52" fill="#ffc267"/><polygon points="115.76 57.25 119.33 49.2 119.33 48.05 113.77 51.26 113.77 52.91 117.08 51 117.08 51.05 113.43 59.23 113.43 60.31 119.39 56.87 119.39 55.21 115.76 57.31 115.76 57.25" fill="#fff"/><polygon points="120.48 56.23 122.22 55.23 122.22 46.38 120.48 47.38 120.48 56.23" fill="#fff"/><path d="M128.41,43.45c-.51-.18-1.27,0-2.34.64a19.32,19.32,0,0,0-2.34,1.54v8.73l1.71-1V50.21a5.83,5.83,0,0,0,.59-.31,6.75,6.75,0,0,0,2.49-2.37,4.89,4.89,0,0,0,.71-2.51C129.23,44.16,128.9,43.61,128.41,43.45ZM126,48.37a3.07,3.07,0,0,1-.58.29V46a4.93,4.93,0,0,1,.72-.49c.86-.5,1.35-.29,1.35.52A2.75,2.75,0,0,1,126,48.37Z" fill="#fff"/><path d="M135.44,59.29a1.46,1.46,0,0,0-.65,1.14v3c0,.41.29.58.65.37a1.43,1.43,0,0,0,.66-1.13v-3C136.1,59.25,135.8,59.08,135.44,59.29Z" fill="#fff"/><path d="M133.82,58a1.46,1.46,0,0,0-.65,1.14v3c0,.41.29.58.65.37a1.42,1.42,0,0,0,.65-1.13v-3C134.47,57.92,134.18,57.75,133.82,58Z" fill="#fff"/><path d="M132.2,61.16a1.47,1.47,0,0,0-.66,1.14v3c0,.42.3.58.66.38a1.46,1.46,0,0,0,.65-1.14v-3C132.85,61.13,132.56,61,132.2,61.16Z" fill="#fff"/><path d="M130.58,59.83a1.47,1.47,0,0,0-.66,1.14v3c0,.42.3.58.66.38a1.46,1.46,0,0,0,.65-1.14v-3C131.23,59.8,130.94,59.63,130.58,59.83Z" fill="#fff"/><path d="M129,63a1.43,1.43,0,0,0-.66,1.13v3c0,.42.3.59.66.38a1.45,1.45,0,0,0,.65-1.13v-3C129.61,63,129.32,62.83,129,63Z" fill="#fff"/><path d="M127.34,61.71a1.42,1.42,0,0,0-.66,1.13v3c0,.42.29.59.66.38a1.45,1.45,0,0,0,.65-1.13v-3C128,61.67,127.7,61.5,127.34,61.71Z" fill="#fff"/><path d="M125.72,64.91a1.42,1.42,0,0,0-.66,1.13v3c0,.42.29.59.66.38a1.45,1.45,0,0,0,.65-1.13v-3C126.37,64.87,126.08,64.7,125.72,64.91Z" fill="#fff"/><path d="M124.09,63.58a1.44,1.44,0,0,0-.65,1.13v3c0,.42.29.59.65.38a1.44,1.44,0,0,0,.66-1.13V64C124.75,63.54,124.46,63.37,124.09,63.58Z" fill="#fff"/><path d="M122.47,66.78a1.45,1.45,0,0,0-.65,1.13v3c0,.42.29.59.65.38a1.45,1.45,0,0,0,.66-1.13v-3C123.13,66.74,122.83,66.57,122.47,66.78Z" fill="#fff"/><path d="M120.85,65.45a1.45,1.45,0,0,0-.65,1.13v3c0,.42.29.59.65.38a1.45,1.45,0,0,0,.66-1.13v-3C121.51,65.41,121.21,65.24,120.85,65.45Z" fill="#fff"/><path d="M119.23,68.65a1.45,1.45,0,0,0-.65,1.13v3c0,.41.29.58.65.37a1.45,1.45,0,0,0,.66-1.13V69C119.89,68.61,119.59,68.44,119.23,68.65Z" fill="#fff"/><path d="M117.61,67.32a1.45,1.45,0,0,0-.65,1.13v3c0,.41.29.58.65.37a1.44,1.44,0,0,0,.65-1.13v-3C118.26,67.28,118,67.11,117.61,67.32Z" fill="#fff"/><path d="M116,70.52a1.46,1.46,0,0,0-.65,1.14v3c0,.41.29.58.65.38a1.46,1.46,0,0,0,.65-1.14v-3C116.64,70.48,116.35,70.31,116,70.52Z" fill="#fff"/><path d="M142.75,53.64l-.4.23A3,3,0,0,0,141,56.24v2.13c0,.87.61,1.22,1.36.79l.4-.23a3,3,0,0,0,1.36-2.37V54.43C144.11,53.56,143.5,53.21,142.75,53.64Z" fill="#fff"/><path d="M137,62.29l5.4-3.87V54.55L137,56.92Zm.7-3.09V57.59l2-.93,0,2.84-2,1.3Z" fill="#fff"/><polygon points="292.52 70.59 283.65 70.15 260.8 83.34 286.38 98.6 289.04 99.58 312.54 82.49 294.81 71.95 292.52 70.59" opacity="0.12"/><polygon points="315.9 31.38 286.96 48.06 286.96 61.08 286.96 98.38 289.04 99.58 322.56 77.83 322.56 40.53 317.98 32.58 315.9 31.38" fill="#035cb1"/><polygon points="314.83 34.37 289.04 49.26 289.04 62.28 289.04 99.58 324.63 79.03 324.63 41.73 324.63 36.92 317.95 32.56 314.83 34.37" fill="#2b8ae5"/><polygon points="317.27 32.96 317.27 40.38 317.95 40.77 323.95 36.52 317.95 32.56 317.27 32.96" fill="#035cb1"/><polygon points="317.95 40.77 324.63 36.92 317.95 32.56 317.95 40.77" fill="#5da6ec"/><path d="M293.39,49.36l-2.34,10.21,1.8-1,.54-2.59,2.2-1.27.59,1.93L298,55.53l-2.37-7.48Zm.25,4.94.46-2.14c.12-.59.24-1.32.35-1.91l0,0c.12.46.25,1,.39,1.49l.48,1.6Z" fill="#fff"/><path d="M302,48.18c-.26,1.16-.5,2.35-.69,3.52l0,0c-.19-1-.43-1.87-.69-2.77l-.93-3.2-1.9,1.09,2.46,7.44,2-1.17,2.58-10.34L303,43.83Z" fill="#fff"/><polygon points="305.64 51.14 307.38 50.14 307.38 41.29 305.64 42.29 305.64 51.14" fill="#fff"/><path d="M292.11,93.66l29.46-17V47.29l-29.46,17Zm7.24-5.1-3.05,1.77V86.8L299.35,85ZM305.47,85l-3.06,1.76V83.27l3.06-1.76Zm6.11-3.53-3.06,1.76V79.74L311.58,78ZM317.69,78l-3.05,1.76V76.21l3.05-1.76Zm-3.05-25.6,3.05-1.76v3.52l-3.05,1.77Zm-6.12,3.53,3.06-1.77v3.53l-3.06,1.77Zm-6.11,3.53,3.06-1.77V61.2L302.41,63ZM296.3,63l3.05-1.77v3.53L296.3,66.5Zm-.3,4.75,21.73-12.55v18L296,85.75Z" fill="#fff"/><polygon points="305.17 77.18 312.51 66.7 305.17 65.42 305.17 77.18" fill="#fff"/><polygon points="204.6 399.75 191.25 399.08 156.85 418.94 195.37 441.92 199.37 443.39 234.74 417.66 208.04 401.79 204.6 399.75" opacity="0.12"/><polygon points="239.8 340.72 196.24 365.83 196.24 385.44 196.24 441.58 199.37 443.39 249.81 410.65 249.81 354.5 242.93 342.52 239.8 340.72" fill="#9e000e"/><polygon points="238.19 345.22 199.37 367.63 199.37 387.24 199.37 443.39 252.94 412.45 252.94 356.31 252.94 349.06 242.89 342.51 238.19 345.22" fill="#d62230"/><polygon points="241.86 343.1 241.86 354.27 242.89 354.87 251.91 348.47 242.89 342.51 241.86 343.1" fill="#9e000e"/><polygon points="242.89 354.87 252.94 349.06 242.89 342.51 242.89 354.87" fill="#f5515e"/><path d="M208.07,369a5.46,5.46,0,0,1,2.19-.77l.53-2.7a6.59,6.59,0,0,0-2.84,1.05,12.78,12.78,0,0,0-6.3,10.71c0,3.8,2,5.48,6,3.18a12.46,12.46,0,0,0,3-2.29l-.39-2.12a11.11,11.11,0,0,1-2.18,1.69c-2.33,1.34-3.7.45-3.7-2.21A7.5,7.5,0,0,1,208.07,369Z" fill="#fff"/><path d="M216.85,367.06c-1.49.21-2.14.21-2.14-.64a2.93,2.93,0,0,1,1.68-2.25,5,5,0,0,1,2.41-.76l.59-2.77a6.77,6.77,0,0,0-2.95,1c-2.72,1.57-4.36,4.26-4.36,6.53,0,1.94,1.25,2.44,3.16,2.1,1.39-.22,1.94-.06,1.94.76a3.17,3.17,0,0,1-1.83,2.51,6,6,0,0,1-2.9.84l-.53,2.79a7,7,0,0,0,3.27-1.07c3.17-1.83,4.66-4.59,4.66-6.82C219.85,367.43,218.89,366.76,216.85,367.06Z" fill="#fff"/><path d="M226.1,361.72c-1.49.21-2.14.21-2.14-.64a2.93,2.93,0,0,1,1.68-2.25,5,5,0,0,1,2.41-.76l.58-2.77a6.78,6.78,0,0,0-2.94,1c-2.72,1.57-4.37,4.26-4.37,6.53,0,1.94,1.25,2.44,3.17,2.11,1.39-.23,1.94-.07,1.94.76a3.16,3.16,0,0,1-1.84,2.5,5.9,5.9,0,0,1-2.89.84l-.53,2.79a7,7,0,0,0,3.27-1.07c3.17-1.83,4.66-4.59,4.66-6.82C229.1,362.09,228.14,361.42,226.1,361.72Z" fill="#fff"/><path d="M214.89,397.12l-.7.4a7.38,7.38,0,0,0-4,6.49,16.16,16.16,0,0,0,.18,2.25,20.56,20.56,0,0,1,.14,2.08,2.59,2.59,0,0,1-1.53,2.45.72.72,0,0,0-.36.64v1.82a.76.76,0,0,0,.36.64.75.75,0,0,0,.74,0c.48-.27.7-.29.71-.33a1.19,1.19,0,0,1,.08.57c0,.68-.07,1.4-.14,2.21a20.86,20.86,0,0,0-.18,2.43c0,2.81,1.43,3.23,2.28,3.23a5.14,5.14,0,0,0,2.45-.83l.71-.41a.74.74,0,0,0,.37-.64v-2a.76.76,0,0,0-.37-.65.77.77,0,0,0-.75,0l-.43.25c-.31.18-.47.21-.46.24a1.73,1.73,0,0,1-.12-.83,12.84,12.84,0,0,1,.17-1.8l0-.58c0-.51.1-1,.1-1.6a3.22,3.22,0,0,0-.68-2.41,1.74,1.74,0,0,0-.41-.3,5.82,5.82,0,0,0,1.09-3.66,12.91,12.91,0,0,0-.1-1.47l-.05-.59a8.89,8.89,0,0,1-.16-1.54,2.57,2.57,0,0,1,1.32-2.52l.44-.25a.76.76,0,0,0,.37-.65v-2a.75.75,0,0,0-1.12-.64Z" fill="#fff"/><path d="M220.64,409.25a2.54,2.54,0,0,0-1.25.37,4.73,4.73,0,0,0-2.21,3.93c0,1.6.93,2.16,1.73,2.16h0a2.42,2.42,0,0,0,1.23-.37,4.71,4.71,0,0,0,2.22-3.92C222.36,409.82,221.43,409.25,220.64,409.25Z" fill="#fff"/><path d="M227.05,405.55a2.48,2.48,0,0,0-1.24.37,4.71,4.71,0,0,0-2.22,3.93c0,1.59.93,2.16,1.74,2.16h0a2.39,2.39,0,0,0,1.22-.37,4.68,4.68,0,0,0,2.22-3.92C228.77,406.11,227.84,405.55,227.05,405.55Z" fill="#fff"/><path d="M233.88,401.7a2.53,2.53,0,0,0-1.25.38,4.7,4.7,0,0,0-2.22,3.93c0,1.59.94,2.16,1.74,2.16a2.55,2.55,0,0,0,1.23-.37,4.71,4.71,0,0,0,2.21-3.93C235.59,402.27,234.67,401.7,233.88,401.7Z" fill="#fff"/><path d="M244,390.56c-.48.27-.71.29-.7.34s-.08-.13-.08-.59.06-1.17.12-1.78l.1-1c.06-.66.12-1.31.12-1.9,0-2.82-1.6-3.13-2.29-3.13a5,5,0,0,0-2.44.82l-.7.4a.74.74,0,0,0-.38.65v2a.74.74,0,0,0,.37.64.72.72,0,0,0,.75,0l.43-.24c.3-.17.46-.2.46-.24a2,2,0,0,1,.1.8,16.13,16.13,0,0,1-.14,1.77,21.53,21.53,0,0,0-.15,2.18,3.2,3.2,0,0,0,.68,2.39,1.82,1.82,0,0,0,.41.31,5.81,5.81,0,0,0-1.09,3.67,16.17,16.17,0,0,0,.17,2.16,12.3,12.3,0,0,1,.12,1.48,2.63,2.63,0,0,1-1.3,2.54l-.44.25a.74.74,0,0,0-.37.64v2a.74.74,0,0,0,.75.75.71.71,0,0,0,.37-.1l.7-.41a7.34,7.34,0,0,0,4-6.57,16.07,16.07,0,0,0-.13-1.82l-.09-.87a13.48,13.48,0,0,1-.12-1.57,2.65,2.65,0,0,1,1.53-2.44.74.74,0,0,0,.36-.64v-1.82a.74.74,0,0,0-1.11-.65Z" fill="#fff"/><polygon points="116.89 383.28 108.03 382.84 85.17 396.03 110.76 411.29 113.42 412.27 136.92 395.18 119.19 384.64 116.89 383.28" opacity="0.12"/><polygon points="140.28 344.06 111.34 360.75 111.34 373.77 111.34 411.07 113.42 412.27 146.93 390.52 146.93 353.22 142.36 345.26 140.28 344.06" fill="#3595bd"/><polygon points="139.21 347.05 113.42 361.94 113.42 374.97 113.42 412.27 149.01 391.72 149.01 354.42 149.01 349.61 142.33 345.25 139.21 347.05" fill="#42b8e9"/><polygon points="141.65 345.65 141.65 353.07 142.33 353.46 148.33 349.21 142.33 345.25 141.65 345.65" fill="#3595bd"/><polygon points="142.33 353.46 149.01 349.61 142.33 345.25 142.33 353.46" fill="#82d6fa"/><polygon points="120.02 364.15 117.17 365.8 117.17 362.4 115.43 363.4 115.43 372.25 117.17 371.25 117.17 367.55 120.02 365.9 120.02 369.6 121.75 368.6 121.75 359.75 120.02 360.75 120.02 364.15" fill="#fff"/><polygon points="122.69 360.89 124.75 359.7 124.75 366.87 126.49 365.87 126.49 358.7 128.58 357.49 128.58 355.81 122.69 359.21 122.69 360.89" fill="#fff"/><path d="M135.06,352.07l-.81,3.41c-.25,1.13-.52,2.45-.73,3.6l0,0c-.17-.94-.41-1.91-.64-2.79l-.75-2.52-2.31,1.33-.49,9.13,1.6-.92.14-3.44c.05-1.14.09-2.53.13-3.75h0c.18,1.05.44,2.16.69,3.05l.82,3,1.35-.78.93-4c.3-1.21.62-2.66.86-3.92l0,0c0,1.28,0,2.55.07,3.59l.11,3.33,1.7-1-.42-8.61Z" fill="#fff"/><polygon points="140.82 348.74 139.08 349.75 139.08 358.6 143.87 355.83 143.87 354.15 140.82 355.91 140.82 348.74" fill="#fff"/><path d="M141,368.57l.1-.21-.23-.09a5.12,5.12,0,0,0-4.81-3.06,8.91,8.91,0,0,0-4.41,1.34c-5.35,3.09-9.7,10.63-9.7,16.8,0,4.34,2.2,7.14,5.62,7.14h0a8.94,8.94,0,0,0,4.42-1.34c3.91-2.26,7.42-7,8.92-12l.17-.26-.07-.07a16.48,16.48,0,0,0,.68-4.52A9.57,9.57,0,0,0,141,368.57Zm-14.11,4c-.16.63-.32,1.37-.47,2.21-.66.55-1.21,1.06-1.68,1.52A22.29,22.29,0,0,1,126.91,372.54Zm-3.18,6.58a17.42,17.42,0,0,1,2.45-2.63,37.22,37.22,0,0,0-.26,4.18l-2.74,1.57A15.76,15.76,0,0,1,123.73,379.12Zm0,7.05a8.19,8.19,0,0,1-.51-2.55l2.76-1.59a26.67,26.67,0,0,0,.33,3.82A6.38,6.38,0,0,1,123.68,386.17Zm.74,1.35a11.19,11.19,0,0,0,2.09-.42,10.58,10.58,0,0,0,.67,2A4.05,4.05,0,0,1,124.42,387.52Zm6.82.68a8.28,8.28,0,0,1-2.54.88,7.06,7.06,0,0,1-1-2.39,27.73,27.73,0,0,0,3.52-1.65Zm0-4.52a26.62,26.62,0,0,1-3.78,1.78,25.84,25.84,0,0,1-.35-4.11l4.13-2.39Zm0-6.09L127.11,380a37.34,37.34,0,0,1,.39-4.61,35.81,35.81,0,0,1,3.74-2.62Zm0-6.23a37.68,37.68,0,0,0-3.42,2.29,19.57,19.57,0,0,1,1-3.42,15.23,15.23,0,0,1,2.4-2Zm8-3.2a10.76,10.76,0,0,0-2.05.43,10.79,10.79,0,0,0-.66-2A4,4,0,0,1,139.24,368.16Zm-6.81-.66a8.35,8.35,0,0,1,2.58-.89,7.39,7.39,0,0,1,1,2.39,28.55,28.55,0,0,0-3.56,1.68Zm2.44,17.93a16.37,16.37,0,0,1-2.44,2.06v-3.12a38.76,38.76,0,0,0,3.44-2.29A19,19,0,0,1,134.87,385.43Zm1.32-5.06a35.67,35.67,0,0,1-3.76,2.62v-4.71l4.15-2.4A35.39,35.39,0,0,1,136.19,380.37Zm-3.76-3.46V372a27.35,27.35,0,0,1,3.82-1.81,28,28,0,0,1,.34,4.27Zm4.37,6.19c.15-.6.31-1.31.45-2.11.62-.52,1.15-1,1.6-1.44A22.74,22.74,0,0,1,136.8,383.1Zm3.1-6.36a20,20,0,0,1-2.39,2.51,37.73,37.73,0,0,0,.27-4.06l2.7-1.56A16.43,16.43,0,0,1,139.9,376.74Zm-2.13-2.92a27.33,27.33,0,0,0-.33-4,7.5,7.5,0,0,1,2.54-.36,8.26,8.26,0,0,1,.53,2.76Z" fill="#fff"/><polygon points="125.79 400.15 130.41 399.96 130.41 398.78 126.92 399.03 126.92 399.01 130.41 395.23 130.41 394.06 125.79 399.19 125.79 400.15" fill="#fff"/><polygon points="131.12 399.66 132.09 399.1 134.15 389.87 133.18 390.43 131.12 399.66" fill="#fff"/><polygon points="134.71 392.42 138.27 392.12 138.27 392.15 134.71 395.97 134.71 397.14 139.32 392.04 139.32 391.02 134.71 391.24 134.71 392.42" fill="#fff"/><polygon points="292.52 382.02 283.65 381.58 260.8 394.77 286.38 410.03 289.04 411.01 312.54 393.92 294.81 383.38 292.52 382.02" opacity="0.12"/><polygon points="315.9 342.8 286.96 359.49 286.96 372.51 286.96 409.81 289.04 411.01 322.56 389.26 322.56 351.96 317.98 344 315.9 342.8" fill="#0094db"/><polygon points="314.83 345.8 289.04 360.69 289.04 373.71 289.04 411.01 324.63 390.46 324.63 353.16 324.63 348.35 317.95 343.99 314.83 345.8" fill="#54c0ee"/><polygon points="317.27 344.39 317.27 351.81 317.95 352.2 323.95 347.95 317.95 343.99 317.27 344.39" fill="#0094db"/><polygon points="317.95 352.2 324.63 348.35 317.95 343.99 317.95 352.2" fill="#8ad4f3"/><path d="M296.83,358.81l-.82,3.41c-.25,1.13-.51,2.45-.73,3.6l0,0c-.18-.94-.41-1.9-.65-2.79l-.75-2.52-2.31,1.33-.49,9.13,1.6-.92.14-3.44c.06-1.14.09-2.52.14-3.74l0,0c.18,1.05.44,2.16.69,3.06l.82,2.95,1.35-.78.94-4c.29-1.21.61-2.66.85-3.92l0,0c0,1.28,0,2.55.07,3.6l.12,3.32,1.69-1-.42-8.61Z" fill="#fff"/><path d="M304.22,354.39a8.11,8.11,0,0,0-3.73,6.79c0,2.52,1.33,3.74,3.61,2.43a7.93,7.93,0,0,0,3.76-6.84C307.86,354.33,306.58,353,304.22,354.39Zm0,7.57c-1.16.67-1.87-.14-1.87-1.87a4.74,4.74,0,0,1,1.86-4.08c1.19-.69,1.85.29,1.85,1.88A4.69,4.69,0,0,1,304.19,362Z" fill="#fff"/><path d="M312.52,353.53c-.26,1.16-.5,2.35-.7,3.53l0,0a26.1,26.1,0,0,0-.68-2.77l-.93-3.21-1.9,1.1,2.45,7.43,2-1.17,2.58-10.34-1.84,1.06Z" fill="#fff"/><path d="M314.61,373.23c4.64,10.53-7.48,26.11-17.06,24.63-.66-.11-1.27,1.46-.61,1.56,10.44,1.61,23.88-15.8,18.84-27.24C315.49,371.52,314.32,372.56,314.61,373.23Z" fill="#fff"/><path d="M313.18,364.63a11,11,0,0,0-5.45,1.66c-6.64,3.83-12,13.18-12,20.84,0,5.33,2.69,8.77,6.85,8.77h0a11,11,0,0,0,5.45-1.67c6.63-3.82,12-13.17,12-20.84C320,368.07,317.34,364.63,313.18,364.63Zm-5.45,29.14a10.44,10.44,0,0,1-5.18,1.59c-3.9,0-6.32-3.15-6.32-8.23,0-7.49,5.28-16.63,11.77-20.37a10.41,10.41,0,0,1,5.18-1.59c3.89,0,6.31,3.15,6.31,8.22C319.49,380.89,314.22,390,307.73,393.77Z" fill="#54c0ee"/><path d="M307.86,370.25c-4.79,2.77-8.67,9.49-8.67,15s3.88,7.77,8.67,5,8.67-9.49,8.67-15S312.65,367.49,307.86,370.25Z" fill="#fff"/><path d="M307.86,366.52c-6.57,3.8-11.9,13-11.9,20.61s5.33,10.67,11.9,6.87,11.9-13,11.9-20.61S314.43,362.73,307.86,366.52Zm-10.45,15.9c.6-2.45,2.55-4.73,4.37-5.1s2.82,1.32,2.23,3.76-2.55,4.73-4.37,5.1S296.82,384.86,297.41,382.42Zm8.87,8.15c-1.12,2.44-3.29,4.09-4.84,3.68s-1.89-2.71-.77-5.15,3.3-4.09,4.84-3.68S307.41,388.13,306.28,390.57Zm1.55-14.95c-1.92,1.1-3.47.21-3.47-2a7.65,7.65,0,0,1,3.47-6c1.91-1.11,3.47-.21,3.47,2A7.7,7.7,0,0,1,307.83,375.62Zm6.51,11.13c-1.55,2.2-3.72,3.05-4.84,1.92s-.79-3.85.76-6,3.72-3.05,4.85-1.91S315.89,384.56,314.34,386.75Zm4-16.46c.59,1.76-.4,4.6-2.23,6.33s-3.77,1.71-4.36-.05.4-4.59,2.22-6.33S317.7,368.53,318.29,370.29Z" fill="#fff"/><path d="M307.86,377.59a5.13,5.13,0,0,0-2.31,4c0,1.47,1,2.07,2.31,1.33a5.09,5.09,0,0,0,2.31-4C310.17,377.46,309.14,376.86,307.86,377.59Z" fill="#54c0ee"/><path d="M307.83,367.44a8,8,0,0,0-3.61,6.26c0,2.3,1.62,3.24,3.61,2.09a8,8,0,0,0,3.61-6.26C311.44,367.23,309.82,366.29,307.83,367.44Zm0,8c-1.83,1.06-3.32.2-3.32-1.92a7.35,7.35,0,0,1,3.32-5.75c1.83-1.06,3.32-.2,3.32,1.92A7.36,7.36,0,0,1,307.83,375.45Z" fill="#54c0ee"/><path d="M315,369.31a8,8,0,0,0-3.61,6.26c0,2.3,1.62,3.23,3.61,2.08a8,8,0,0,0,3.61-6.26C318.6,369.09,317,368.16,315,369.31Zm0,8c-1.83,1.06-3.32.19-3.32-1.92a7.36,7.36,0,0,1,3.32-5.76c1.83-1.06,3.32-.2,3.32,1.92A7.36,7.36,0,0,1,315,377.32Z" fill="#54c0ee"/><path d="M312.3,380.48a8,8,0,0,0-3.61,6.25c0,2.3,1.62,3.24,3.61,2.09a8,8,0,0,0,3.61-6.26C315.91,380.26,314.29,379.33,312.3,380.48Zm0,8c-1.83,1.05-3.32.19-3.32-1.92a7.36,7.36,0,0,1,3.32-5.76c1.83-1.06,3.32-.2,3.32,1.92A7.36,7.36,0,0,1,312.3,388.49Z" fill="#54c0ee"/><path d="M303.46,385.65a8,8,0,0,0-3.61,6.26c0,2.3,1.62,3.23,3.61,2.08a8,8,0,0,0,3.61-6.25C307.07,385.43,305.45,384.5,303.46,385.65Zm0,8c-1.83,1.06-3.32.2-3.32-1.92a7.36,7.36,0,0,1,3.32-5.76c1.83-1.06,3.32-.19,3.32,1.92A7.36,7.36,0,0,1,303.46,393.66Z" fill="#54c0ee"/><path d="M300.71,377.55a8,8,0,0,0-3.61,6.26c0,2.3,1.62,3.23,3.61,2.08a8,8,0,0,0,3.62-6.25C304.33,377.34,302.71,376.4,300.71,377.55Zm0,8c-1.83,1.06-3.32.2-3.32-1.92a7.36,7.36,0,0,1,3.32-5.76c1.84-1.05,3.33-.19,3.33,1.92A7.35,7.35,0,0,1,300.71,385.56Z" fill="#54c0ee"/><polygon points="263.97 290.36 249.15 289.62 210.97 311.67 253.72 337.17 258.16 338.8 297.43 310.25 267.8 292.63 263.97 290.36" opacity="0.12"/><polygon points="303.05 224.84 254.69 252.71 254.69 274.47 254.69 336.8 258.16 338.8 314.16 302.46 314.16 240.14 306.52 226.84 303.05 224.84" fill="#77232d"/><polygon points="301.26 229.83 258.16 254.72 258.16 276.48 258.16 338.8 317.63 304.47 317.63 242.14 317.63 234.1 306.47 226.82 301.26 229.83" fill="#bb323c"/><polygon points="305.33 227.48 305.33 239.88 306.47 240.54 316.49 233.44 306.47 226.82 305.33 227.48" fill="#77232d"/><polygon points="306.47 240.54 317.63 234.1 306.47 226.82 306.47 240.54" fill="#db535e"/><path d="M268.44,261V261A7.67,7.67,0,0,0,270.7,256c0-1.36-.42-2.15-1.18-2.41s-2.24.13-4.14,1.22a38.14,38.14,0,0,0-3.86,2.54v14.59l2.87-1.66v-5.81l.87-.5c1.18-.66,1.73-.48,2.07,1.17a12.91,12.91,0,0,0,.9,2.93l3-1.71a31.93,31.93,0,0,1-1-3.57C269.82,261.62,269.33,260.92,268.44,261Zm-2.91.39-1.14.66V258a11.2,11.2,0,0,1,1.31-.86c1.33-.75,2.13-.53,2.13.83A4.21,4.21,0,0,1,265.53,261.4Z" fill="#fff"/><path d="M276,248.82,272,265.87l3-1.73.91-4.32,3.67-2.12,1,3.22,3.12-1.8-4-12.49Zm.42,8.25.76-3.58c.2-1,.4-2.2.59-3.19l0,0c.19.77.42,1.73.65,2.48l.8,2.68Z" fill="#fff"/><path d="M292.35,247.2v-.06a7.62,7.62,0,0,0,2.26-4.95c0-1.36-.41-2.15-1.17-2.41-.92-.31-2.25.13-4.15,1.23a38,38,0,0,0-3.85,2.53v14.59l2.87-1.65v-5.82l.87-.5c1.18-.66,1.73-.48,2.07,1.17a13.12,13.12,0,0,0,.89,2.93l3-1.71a31.39,31.39,0,0,1-1.05-3.57C293.74,247.81,293.25,247.11,292.35,247.2Zm-2.9.39-1.14.66v-4.08a9.33,9.33,0,0,1,1.31-.87c1.33-.75,2.12-.53,2.12.83A4.19,4.19,0,0,1,289.45,247.59Z" fill="#fff"/><polygon points="263.46 328.27 312.34 300.05 312.34 287.22 263.46 315.44 263.46 328.27" fill="#fff"/><polygon points="263.46 312.65 312.34 284.43 312.34 271.6 263.46 299.82 263.46 312.65" fill="#fff"/><polygon points="263.46 297.61 312.34 269.39 312.34 256.56 263.46 284.79 263.46 297.61" fill="#fff"/><path d="M303.38,258.48l-9.07,5.24a3,3,0,0,0-1.16,2.22v46.9c0,.74.52,1,1.16.67l9.07-5.24a2.56,2.56,0,0,0,1.15-2V259.37C304.53,258.64,304,258.11,303.38,258.48Z" fill="#bb323c"/><path d="M302,261.1l-6.29,3.63a2.61,2.61,0,0,0-.8,1.91v43.48c0,.68.36,1,.8.78l6.29-3.64a2.09,2.09,0,0,0,.79-1.69V262.09C302.77,261.4,302.42,260.85,302,261.1Z" fill="#fff"/><path d="M303.72,266.73,294,272.36a4,4,0,0,0-1.81,3.14v11.1c0,1.15.81,1.62,1.81,1l9.76-5.63a4,4,0,0,0,1.81-3.14v-11.1C305.53,266.62,304.72,266.15,303.72,266.73Zm-.19,13.08-9.38,5.41V274.56l9.38-5.41Z" fill="#bb323c"/><path d="M299.17,277.51l-.68.39a2.28,2.28,0,0,0-1,1.77v5.65l2.72-1.57V278.1C300.19,277.45,299.73,277.19,299.17,277.51Z" fill="#bb323c"/><path d="M298.84,298.07a2.6,2.6,0,0,0-1.17,2c0,.75.53,1.05,1.17.68a2.59,2.59,0,0,0,1.17-2C300,298,299.49,297.69,298.84,298.07Z" fill="#bb323c"/><path d="M298.84,289.64a2.61,2.61,0,0,0-1.17,2c0,.75.53,1.05,1.17.67a2.57,2.57,0,0,0,1.17-2C300,289.57,299.49,289.27,298.84,289.64Z" fill="#bb323c"/><polygon points="263.97 171.06 249.15 170.33 210.97 192.37 253.72 217.87 258.16 219.5 297.43 190.95 267.8 173.34 263.97 171.06" opacity="0.12"/><polygon points="303.05 105.54 254.69 133.41 254.69 155.18 254.69 217.5 258.16 219.5 314.16 183.16 314.16 120.84 306.52 107.55 303.05 105.54" fill="#0497d3"/><polygon points="301.26 110.54 258.16 135.42 258.16 157.18 258.16 219.5 317.63 185.17 317.63 122.85 317.63 114.8 306.47 107.53 301.26 110.54" fill="#49bcee"/><polygon points="305.33 108.19 305.33 120.58 306.47 121.25 316.49 114.14 306.47 107.53 305.33 108.19" fill="#0497d3"/><polygon points="306.47 121.25 317.63 114.8 306.47 107.53 306.47 121.25" fill="#9dd9f4"/><path d="M269.35,134.41c-.86-.3-2.13,0-3.92,1.07a35.38,35.38,0,0,0-3.91,2.57v14.59l2.87-1.65V145.7a8.64,8.64,0,0,0,1-.51,11.38,11.38,0,0,0,4.16-4,8.24,8.24,0,0,0,1.18-4.19C270.72,135.59,270.17,134.68,269.35,134.41Zm-4,8.23a5.42,5.42,0,0,1-1,.47v-4.37a8.2,8.2,0,0,1,1.2-.82c1.44-.83,2.26-.49,2.26.87A4.6,4.6,0,0,1,265.36,142.64Z" fill="#fff"/><path d="M280.52,137,276,129.52l-3.38,2v14.78l2.66-1.53-.06-10.89c.63,1.37,5,8.06,5,8.06l3-1.76V125.36l-2.66,1.53Z" fill="#fff"/><path d="M291.61,129.41l2-1.14v3.09a6.23,6.23,0,0,1-1.43,1c-2.37,1.37-4,.52-4-2.53a8.38,8.38,0,0,1,4.23-7.23,6.83,6.83,0,0,1,3-1.08l.6-3a8.58,8.58,0,0,0-3.55,1.33,14.31,14.31,0,0,0-7.31,11.94c0,2.19.62,3.74,1.8,4.34s2.87.34,5.21-1a24.46,24.46,0,0,0,4.27-3.3v-7.79l-4.77,2.75Z" fill="#fff"/><polygon points="267.24 169.75 275.48 164.99 275.48 155.48 267.24 160.23 267.24 169.75" fill="#fff"/><polygon points="283.72 160.23 291.96 155.48 291.96 145.96 283.72 150.72 283.72 160.23" fill="#fff"/><polygon points="300.2 150.72 308.44 145.96 308.44 136.45 300.2 141.21 300.2 150.72" fill="#fff"/><polygon points="259 184.02 267.24 179.26 267.24 169.75 259 174.51 259 184.02" fill="#fff"/><polygon points="275.48 174.51 283.72 169.75 283.72 160.23 275.48 164.99 275.48 174.51" fill="#fff"/><polygon points="291.96 164.99 300.2 160.23 300.2 150.72 291.96 155.48 291.96 164.99" fill="#fff"/><polygon points="308.44 155.48 316.68 150.72 316.68 141.21 308.44 145.96 308.44 155.48" fill="#fff"/><polygon points="267.24 188.78 275.48 184.02 275.48 174.51 267.24 179.26 267.24 188.78" fill="#fff"/><polygon points="283.72 179.26 291.96 174.51 291.96 164.99 283.72 169.75 283.72 179.26" fill="#fff"/><polygon points="300.2 169.75 308.44 164.99 308.44 155.48 300.2 160.23 300.2 169.75" fill="#fff"/><polygon points="259 203.05 267.24 198.29 267.24 188.78 259 193.54 259 203.05" fill="#fff"/><polygon points="275.48 193.54 283.72 188.78 283.72 179.26 275.48 184.02 275.48 193.54" fill="#fff"/><polygon points="291.96 184.02 300.2 179.26 300.2 169.75 291.96 174.51 291.96 184.02" fill="#fff"/><polygon points="308.44 174.51 316.68 169.75 316.68 160.23 308.44 164.99 308.44 174.51" fill="#fff"/><polygon points="267.24 207.81 275.48 203.05 275.48 193.54 267.24 198.29 267.24 207.81" fill="#fff"/><polygon points="283.72 198.29 291.96 193.54 291.96 184.02 283.72 188.78 283.72 198.29" fill="#fff"/><polygon points="300.2 188.78 308.44 184.02 308.44 174.51 300.2 179.26 300.2 188.78" fill="#fff"/><path d="M304.45,160.33c1.68-3.68,1.93-7,.63-8.85-1-1.42-2.84-1.79-5-1a3.83,3.83,0,0,0-3.79-3.18h0c-1.81.08-3.88,1.41-5.75,3.69a5.42,5.42,0,0,0-5.49,1.1,14.07,14.07,0,0,0-4.33,6.69,11.19,11.19,0,0,0-5.47,4.89,11,11,0,0,0-1.46,7.18,14,14,0,0,0-3.61,7.1,5.33,5.33,0,0,0,1.84,5.29c-1,2.8-1.15,5.19-.3,6.79s2.57,2.2,4.65,1.65c.38,2.23,1.6,3.62,3.39,3.77h.32c1.7,0,3.62-1.09,5.47-3.09a4.2,4.2,0,0,0,2.16.59,5.66,5.66,0,0,0,3.19-1.1,13.59,13.59,0,0,0,4.64-6.41,10.26,10.26,0,0,0,5.59-4.41,11.88,11.88,0,0,0,1.92-7.27,14,14,0,0,0,4-6.93C307.68,163.82,306.64,161.33,304.45,160.33Z" fill="#49bcee"/><path d="M302.7,161.56c1.5-3.27,1.72-6.23.56-7.86-.9-1.27-2.52-1.6-4.41-.88a3.41,3.41,0,0,0-3.37-2.83h0c-1.61.07-3.44,1.26-5.11,3.28a4.83,4.83,0,0,0-4.88,1,12.55,12.55,0,0,0-3.85,5.95,9.92,9.92,0,0,0-4.86,4.35,9.82,9.82,0,0,0-1.3,6.38,12.42,12.42,0,0,0-3.21,6.31,4.74,4.74,0,0,0,1.64,4.7c-.93,2.49-1,4.62-.27,6s2.29,2,4.13,1.46c.34,2,1.43,3.22,3,3.36h.29c1.5,0,3.21-1,4.86-2.75a3.67,3.67,0,0,0,1.91.53,5,5,0,0,0,2.84-1,12.21,12.21,0,0,0,4.13-5.7,9.12,9.12,0,0,0,5-3.92,10.64,10.64,0,0,0,1.72-6.46,12.63,12.63,0,0,0,3.53-6.16C305.57,164.66,304.65,162.45,302.7,161.56Z" fill="#fff"/><path d="M285.78,168c-2.76,3.45-3.7,8.08-2.09,10.34s5.14,1.3,7.9-2.15,3.7-8.07,2.1-10.34S288.54,164.59,285.78,168Z" fill="#69c5ee"/><polygon points="145.08 290.01 130.15 289.27 91.7 311.48 134.76 337.16 139.23 338.8 178.78 310.04 148.93 292.31 145.08 290.01" opacity="0.12"/><polygon points="184.43 224.03 135.73 252.1 135.73 274.02 135.73 336.78 139.23 338.8 195.62 302.2 195.62 239.44 187.93 226.05 184.43 224.03" fill="#b11320"/><polygon points="182.63 229.06 139.23 254.12 139.23 276.04 139.23 338.8 199.12 304.22 199.12 241.46 199.12 233.35 187.88 226.03 182.63 229.06" fill="#f32733"/><polygon points="186.73 226.69 186.73 239.18 187.88 239.84 197.97 232.69 187.88 226.03 186.73 226.69" fill="#b11320"/><polygon points="187.88 239.84 199.12 233.35 187.88 226.03 187.88 239.84" fill="#ff6160"/><path d="M150.49,253.1c-.86-.3-2.14.05-3.94,1.08a35,35,0,0,0-3.94,2.59v14.69l2.89-1.66v-5.33a8.64,8.64,0,0,0,1-.51,11.39,11.39,0,0,0,4.19-4,8.26,8.26,0,0,0,1.19-4.22C151.87,254.3,151.32,253.38,150.49,253.1Zm-4,8.29a4.8,4.8,0,0,1-1,.47v-4.39a7.35,7.35,0,0,1,1.2-.83c1.46-.84,2.28-.5,2.28.87A4.64,4.64,0,0,1,146.47,261.39Z" fill="#fff"/><path d="M163,246.3c-1.25-.36-2.84,0-5.28,1.46a38.2,38.2,0,0,0-4,2.59V265a27.41,27.41,0,0,0,3.31-1.69,17.3,17.3,0,0,0,6-5.35,13.47,13.47,0,0,0,2.14-7.27C165.14,248,164.3,246.68,163,246.3Zm-5.28,14a7.05,7.05,0,0,1-1,.52v-9.74a9.64,9.64,0,0,1,1.32-.9c2.51-1.45,4.08-.72,4.06,2.39A8.55,8.55,0,0,1,157.68,260.29Z" fill="#fff"/><polygon points="167.06 257.35 169.99 255.66 169.99 249.67 174.62 247 174.62 244.25 169.99 246.93 169.99 243.53 174.94 240.66 174.94 237.9 167.06 242.45 167.06 257.35" fill="#fff"/><path d="M146.48,298.43l22.13-12.78V268.31l-22.13,12.78Zm1.18-16.66,19.76-11.4V280l-.28.1-5.13-2-3.86,6.7-5.77-4.23-4.72,10.78Z" fill="#fff"/><path d="M158.22,276.67a4,4,0,0,0-1.81,3.13c0,1.15.81,1.62,1.81,1a4,4,0,0,0,1.8-3.12C160,276.56,159.21,276.1,158.22,276.67Z" fill="#fff"/><polygon points="171 283.07 193.29 270.2 193.29 267.3 171 280.17 171 283.07" fill="#fff"/><polygon points="146.8 320.27 193.29 293.4 193.29 290.5 146.8 317.37 146.8 320.27" fill="#fff"/><polygon points="146.8 308.67 193.29 281.8 193.29 278.9 146.8 305.77 146.8 308.67" fill="#fff"/><polygon points="171 270.65 193.29 257.78 193.29 254.88 171 267.75 171 270.65" fill="#fff"/><polygon points="145.08 171.53 130.15 170.79 91.7 192.99 134.76 218.67 139.23 220.31 178.78 191.56 148.93 173.82 145.08 171.53" opacity="0.12"/><polygon points="184.43 105.54 135.73 133.61 135.73 155.53 135.73 218.3 139.23 220.31 195.62 183.72 195.62 120.95 187.93 107.56 184.43 105.54" fill="#0070ac"/><polygon points="182.63 110.57 139.23 135.63 139.23 157.55 139.23 220.31 199.12 185.74 199.12 122.97 199.12 114.87 187.88 107.54 182.63 110.57" fill="#01a4fc"/><polygon points="159.34 165.67 157.36 158.58 153.63 160.73 151.66 170.11 150.31 162.65 146.57 164.81 149.41 177.89 153.27 175.66 155.5 165.11 157.73 173.08 161.6 170.85 164.41 154.51 160.68 156.66 159.34 165.67" fill="#fff"/><polygon points="168.35 155.13 192.93 140.94 192.93 138.04 168.35 152.23 168.35 155.13" fill="#fff"/><polygon points="168.35 166.95 192.93 152.76 192.93 149.86 168.35 164.05 168.35 166.95" fill="#fff"/><polygon points="146.57 191.34 192.93 164.58 192.93 161.67 146.57 188.44 146.57 191.34" fill="#fff"/><polygon points="146.57 203.16 192.93 176.39 192.93 173.49 146.57 200.26 146.57 203.16" fill="#fff"/><path d="M151.63,134.71c-1.21-.36-2.77,0-5.17,1.43a37.33,37.33,0,0,0-3.85,2.53V153a28.9,28.9,0,0,0,3.24-1.66,16.91,16.91,0,0,0,5.82-5.24,13.09,13.09,0,0,0,2.1-7.11C153.77,136.4,152.94,135.08,151.63,134.71Zm-5.17,13.69a5.73,5.73,0,0,1-1,.5v-9.53a9.56,9.56,0,0,1,1.29-.88c2.46-1.41,4-.7,4,2.34A8.37,8.37,0,0,1,146.46,148.4Z" fill="#fff"/><path d="M161.21,127.5a13.31,13.31,0,0,0-6.14,11.17c0,4.15,2.19,6.15,5.93,4a13,13,0,0,0,6.2-11.25C167.2,127.39,165.08,125.26,161.21,127.5ZM161.15,140c-1.91,1.1-3.07-.24-3.07-3.09s1.12-5.6,3-6.71,3.05.48,3.05,3.1C164.18,136.09,163.08,138.85,161.15,140Z" fill="#fff"/><path d="M175.52,122a5.88,5.88,0,0,1,2.39-.84l.58-3a7.08,7.08,0,0,0-3.1,1.14A14,14,0,0,0,168.5,131c0,4.15,2.24,6,6.6,3.47a13.54,13.54,0,0,0,3.24-2.5l-.43-2.32a12,12,0,0,1-2.38,1.85c-2.54,1.47-4,.49-4-2.43A8.19,8.19,0,0,1,175.52,122Z" fill="#fff"/><polygon points="186.73 108.2 186.73 120.69 187.88 121.36 197.97 114.2 187.88 107.54 186.73 108.2" fill="#0070ac"/><polygon points="187.88 121.36 199.12 114.87 187.88 107.54 187.88 121.36" fill="#43c5ff"/></g></svg>