<svg xmlns="http://www.w3.org/2000/svg" viewBox="0 0 631.7 463.6"><path fill="#3a4245" d="M627.9 166.6l3.8-2.2v-47.1l-3.8 2.2v47.1z"/><path fill="#475255" d="M627.9 166.6l-3.8-2.2v-47.1l3.8 2.2v47.1z"/><path fill="#6d7d82" d="M627.9 115.1l3.8 2.2-3.8 2.2-3.8-2.2 3.8-2.2z"/><path fill="#3a4245" d="M597.1 184.2l3.7-2.2v-47.1l-3.7 2.2v47.1z"/><path fill="#475255" d="M597.1 184.2l-3.8-2.2v-47.1l3.8 2.2v47.1z"/><path fill="#6d7d82" d="M597.1 132.8l3.7 2.1-3.7 2.2-3.8-2.2 3.8-2.1z"/><path fill="#3a4245" d="M566.2 202l3.8-2.2v-47.1l-3.8 2.2V202z"/><path fill="#475255" d="M566.2 202l-3.8-2.2v-47.1l3.8 2.2V202z"/><path fill="#6d7d82" d="M566.2 150.5l3.8 2.2-3.8 2.2-3.8-2.2 3.8-2.2z"/><path fill="#3a4245" d="M535.4 219.8l3.8-2.2v-47.1l-3.8 2.2v47.1z"/><path fill="#475255" d="M535.4 219.8l-3.8-2.2v-47.1l3.8 2.2v47.1zM531.6 166.2l3.8 2.2v4.3l-3.8-2.2v-4.3z"/><path fill="#3a4245" d="M559.2 126.9l3.7-2.1V77.7l-3.7 2.1v47.1z"/><path fill="#475255" d="M559.2 126.9l-3.8-2.1V77.7l3.8 2.1v47.1z"/><path fill="#6d7d82" d="M559.2 75.5l3.7 2.2-3.7 2.1-3.8-2.1 3.8-2.2z"/><path fill="#3a4245" d="M528.3 144.6l3.8-2.2V95.3l-3.8 2.2v47.1z"/><path fill="#475255" d="M528.3 144.6l-3.8-2.2V95.3l3.8 2.2v47.1z"/><path fill="#6d7d82" d="M528.3 93.1l3.8 2.2-3.8 2.2-3.8-2.2 3.8-2.2z"/><path fill="#3a4245" d="M497.5 162.4l3.8-2.2v-47.1l-3.8 2.2v47.1z"/><path fill="#475255" d="M497.5 162.4l-3.8-2.2v-47.1l3.8 2.2v47.1z"/><path fill="#6d7d82" d="M497.5 110.9l3.8 2.2-3.8 2.2-3.8-2.2 3.8-2.2z"/><path fill="#3a4245" d="M466.6 180.2l3.8-2.2v-47.1l-3.8 2.2v47.1z"/><path fill="#475255" d="M466.6 180.2l-3.7-2.2v-47.1l3.7 2.2v47.1z"/><path fill="#6d7d82" d="M466.6 128.7l3.8 2.2-3.8 2.2-3.7-2.2 3.7-2.2z"/><path fill="#475255" d="M462.9 126.5l3.7 2.2v4.4l-3.7-2.2v-4.4z"/><path fill="#3a4245" d="M562.9 77.7l-96.3 55.4v-4.4l96.3-55.4v4.4z"/><path fill="#6d7d82" d="M562.9 73.3l-96.3 55.4-3.7-2.2 96.3-55.4 3.7 2.2z"/><path fill="#475255" d="M462.9 130.9l72.5 41.8v-4.3l-72.5-41.9v4.4z"/><path fill="#6d7d82" d="M462.9 126.5l72.5 41.9 3.8-2.2-72.6-41.8-3.7 2.1z"/><path fill="#475255" d="M559.2 79.8l61.1 35.3 3.8-2.2-64.9-37.4v4.3z"/><path fill="#6d7d82" d="M555.4 73.3l72.5 41.8 3.8-2.2-72.5-41.8-3.8 2.2z"/><path fill="#ffed00" d="M473.9 127.2a10.8 10.8 0 0 1 5-8.6c1.5-.9 2.9-.9 3.8-.2l64.6 37.2-7.1 12.2-64.4-37.1a2.2 2.2 0 0 1-.8-.5 3.8 3.8 0 0 1-1.1-3z"/><path fill="#f9b233" d="M538.6 164.5c0 3.2 2.2 4.5 5 2.9a11 11 0 0 0 5-8.6c0-3.2-2.2-4.5-5-2.9a11.3 11.3 0 0 0-5 8.6z"/><path fill="#f39200" d="M540.9 163.2c0 1.7 1.2 2.4 2.7 1.5a5.9 5.9 0 0 0 2.7-4.6c0-1.7-1.2-2.4-2.7-1.5a5.8 5.8 0 0 0-2.7 4.6z"/><path fill="#f36d00" d="M542.4 163.5a5.9 5.9 0 0 0 2.7-4.6 1.7 1.7 0 0 0-.1-.7c.8.1 1.3.8 1.3 1.9a5.8 5.8 0 0 1-2.7 4.6c-1.3.7-2.3.3-2.6-.9a1.9 1.9 0 0 0 1.4-.3z"/><path fill="#ffed00" d="M475 130.2a3.8 3.8 0 0 1-1.1-3 9.9 9.9 0 0 1 .8-3.7c15.2 12 43.6 33.1 64.1 39.3a9.8 9.8 0 0 0-.2 1.7 3.5 3.5 0 0 0 1.4 3.2l-64.2-37.1a1.2 1.2 0 0 1-.8-.4zM488.8 118.6a10.8 10.8 0 0 1 5-8.6c1.5-.9 2.9-.9 3.8-.2l64.6 37.2-7.1 12.2-64.4-37.1a2.2 2.2 0 0 1-.8-.5 4 4 0 0 1-1.1-3z"/><path fill="#f9b233" d="M553.5 155.9c0 3.2 2.2 4.5 5 2.9a11 11 0 0 0 5-8.6c0-3.2-2.2-4.5-5-2.9a11 11 0 0 0-5 8.6z"/><path fill="#f39200" d="M555.8 154.6c0 1.7 1.2 2.4 2.7 1.5a5.9 5.9 0 0 0 2.7-4.6c0-1.7-1.2-2.4-2.7-1.5a5.8 5.8 0 0 0-2.7 4.6z"/><path fill="#f36d00" d="M557.3 154.9a5.9 5.9 0 0 0 2.7-4.6 1.7 1.7 0 0 0-.1-.7c.8.1 1.3.8 1.3 1.9a5.8 5.8 0 0 1-2.7 4.6c-1.3.7-2.3.3-2.6-.9a1.9 1.9 0 0 0 1.4-.3z"/><path fill="#ffed00" d="M489.9 121.6a3.8 3.8 0 0 1-1.1-3 9.9 9.9 0 0 1 .8-3.7c15.2 12 43.6 33.1 64.1 39.3a9.8 9.8 0 0 0-.2 1.7 3.5 3.5 0 0 0 1.4 3.2L490.7 122a2 2 0 0 1-.8-.4zM503.7 110a10.8 10.8 0 0 1 5-8.6c1.5-.9 2.9-.9 3.8-.2l64.6 37.2-7.1 12.2-64.4-37.1a2.2 2.2 0 0 1-.8-.5 3.6 3.6 0 0 1-1.1-3z"/><path fill="#f9b233" d="M568.4 147.3c0 3.2 2.2 4.5 5 2.9a11 11 0 0 0 5-8.6c0-3.2-2.2-4.5-5-2.9a11 11 0 0 0-5 8.6z"/><path fill="#f39200" d="M570.7 146c0 1.7 1.2 2.4 2.7 1.5a5.9 5.9 0 0 0 2.7-4.6c0-1.7-1.2-2.4-2.7-1.5a5.8 5.8 0 0 0-2.7 4.6z"/><path fill="#f36d00" d="M572.1 146.3a5.9 5.9 0 0 0 2.7-4.6 1.7 1.7 0 0 0-.1-.7c.8.1 1.3.8 1.3 1.9a5.8 5.8 0 0 1-2.7 4.6c-1.3.7-2.3.3-2.6-.9a1.8 1.8 0 0 0 1.4-.3z"/><path fill="#ffed00" d="M504.7 113a3.8 3.8 0 0 1-1.1-3 9.9 9.9 0 0 1 .8-3.7c15.2 12 43.6 33.1 64.1 39.3a9.8 9.8 0 0 0-.2 1.7 3.5 3.5 0 0 0 1.4 3.2l-64.2-37.1a3 3 0 0 1-.8-.4zM518.5 101.4a10.8 10.8 0 0 1 5-8.6c1.5-.9 2.9-.9 3.8-.2l64.6 37.2-7.1 12.2-64.4-37.1a2.2 2.2 0 0 1-.8-.5 4 4 0 0 1-1.1-3z"/><path fill="#f9b233" d="M583.2 138.7c0 3.2 2.2 4.5 5 2.9a11 11 0 0 0 5-8.6c0-3.2-2.2-4.5-5-2.9a11.1 11.1 0 0 0-5 8.6z"/><path fill="#f39200" d="M585.5 137.4c0 1.7 1.2 2.4 2.7 1.5a5.9 5.9 0 0 0 2.7-4.6c0-1.7-1.2-2.4-2.7-1.5a5.8 5.8 0 0 0-2.7 4.6z"/><path fill="#f36d00" d="M587 137.7a5.9 5.9 0 0 0 2.7-4.6 1.7 1.7 0 0 0-.1-.7c.8.1 1.3.8 1.3 1.9a5.8 5.8 0 0 1-2.7 4.6c-1.3.7-2.3.3-2.6-.9a1.9 1.9 0 0 0 1.4-.3z"/><path fill="#ffed00" d="M519.6 104.4a3.8 3.8 0 0 1-1.1-3 9.9 9.9 0 0 1 .8-3.7c15.2 12 43.6 33.1 64.1 39.3a9.8 9.8 0 0 0-.2 1.7 3.5 3.5 0 0 0 1.4 3.2l-64.2-37.1a2 2 0 0 1-.8-.4zM533.5 92.8a10.8 10.8 0 0 1 5-8.6c1.5-.9 2.9-.9 3.8-.2l64.6 37.2-7.1 12.2-64.4-37.1a2.2 2.2 0 0 1-.8-.5 4 4 0 0 1-1.1-3z"/><path fill="#f9b233" d="M598.2 130.1c0 3.2 2.2 4.5 5 2.9a11 11 0 0 0 5-8.6c0-3.2-2.2-4.5-5-2.9a11 11 0 0 0-5 8.6z"/><path fill="#f39200" d="M600.5 128.7c0 1.7 1.2 2.4 2.7 1.5a5.9 5.9 0 0 0 2.7-4.6c0-1.7-1.2-2.4-2.7-1.5a5.9 5.9 0 0 0-2.7 4.6z"/><path fill="#f36d00" d="M602 129.1a5.9 5.9 0 0 0 2.7-4.6 1.7 1.7 0 0 0-.1-.7c.8.1 1.3.8 1.3 1.9a5.8 5.8 0 0 1-2.7 4.6c-1.3.7-2.3.3-2.6-.9a4 4 0 0 0 1.4-.3z"/><path fill="#ffed00" d="M534.6 95.7a3.8 3.8 0 0 1-1.1-3 9.9 9.9 0 0 1 .8-3.7c15.2 12 43.6 33.1 64.1 39.3a9.8 9.8 0 0 0-.2 1.7 3.5 3.5 0 0 0 1.4 3.2l-64.2-37.1a1.2 1.2 0 0 1-.8-.4zM548.5 84.3a10.8 10.8 0 0 1 5-8.6c1.5-.9 2.9-.9 3.8-.2l64.6 37.2-7.1 12.2-64.4-37.1a2.2 2.2 0 0 1-.8-.5 4 4 0 0 1-1.1-3z"/><path fill="#f9b233" d="M613.3 121.6c0 3.2 2.2 4.5 5 2.9a11 11 0 0 0 5-8.6c0-3.2-2.2-4.5-5-2.9a10.7 10.7 0 0 0-5 8.6z"/><path fill="#f39200" d="M615.6 120.2c0 1.7 1.2 2.4 2.7 1.5a5.9 5.9 0 0 0 2.7-4.6c0-1.7-1.2-2.4-2.7-1.5a5.9 5.9 0 0 0-2.7 4.6z"/><path fill="#f36d00" d="M617 120.5a5.9 5.9 0 0 0 2.7-4.6 1.7 1.7 0 0 0-.1-.7c.8.1 1.3.8 1.3 1.9a5.8 5.8 0 0 1-2.7 4.6c-1.3.7-2.3.3-2.6-.9a1.9 1.9 0 0 0 1.4-.3z"/><path fill="#ffed00" d="M549.6 87.2a3.8 3.8 0 0 1-1.1-3 9.9 9.9 0 0 1 .8-3.7c15.2 12 43.6 33.1 64.1 39.3a9.8 9.8 0 0 0-.2 1.7 3.5 3.5 0 0 0 1.4 3.2l-64.2-37.1c-.3 0-.5-.2-.8-.4z"/><path fill="#3a4245" d="M631.7 117.3l-96.3 55.4v-4.3l96.3-55.5v4.4z"/><path fill="#6d7d82" d="M631.7 112.9l-96.3 55.5-3.8-2.2 96.3-55.5 3.8 2.2z"/><path fill="#475255" d="M428 164.7l8.3-4.8V20.2l-8.3 4.7v139.8z"/><path fill="#3a4245" d="M428 164.7l-8.3-4.8V20.2l8.3 4.7v139.8z"/><path fill="#475255" d="M468.1 223l43.3-24.9v-35.8l-43.3 25V223z"/><path fill="#3a4245" d="M468.1 223l-43.3-24.9v-35.8l43.3 25V223z"/><path fill="#8fa4ab" d="M468.1 137.3l43.3 25-43.3 25-43.3-25 43.3-25z"/><path fill="#f9b233" d="M468.1 194.1l47.8-27.6v-6l-47.8 27.6v6z"/><path fill="#f39600" d="M468.1 194.1l-47.9-27.6v-6l47.9 27.6v6z"/><path fill="#ffed00" d="M468.1 132.9l47.8 27.6-47.8 27.6-47.9-27.6 47.9-27.6z"/><path fill="#6d7d82" d="M468.1 140.6l47.8-27.7V107l-47.8 27.6v6z"/><path fill="#475255" d="M468.1 140.6l-47.9-27.7V107l47.9 27.6v6z"/><path fill="#8fa4ab" d="M468.1 79.4l47.8 27.6-47.8 27.6-47.9-27.6 47.9-27.6z"/><path fill="#475255" d="M464.4 106.9V89.2l9.6-.1v17.8a2.2 2.2 0 0 1-1.4 2.2 7.7 7.7 0 0 1-6.8.1 2.7 2.7 0 0 1-1.4-1.6z"/><path fill="#f9b233" d="M465.9 91.2c-1.9-1.1-1.9-2.8 0-3.9a7.7 7.7 0 0 1 6.8-.1c1.9 1.1 1.9 2.8 0 3.9a7.4 7.4 0 0 1-6.8.1z"/><path fill="#f39600" d="M467.1 90.5a1.3 1.3 0 0 1 0-2.5 4.7 4.7 0 0 1 4.3 0 1.3 1.3 0 0 1 0 2.5 5 5 0 0 1-4.3 0z"/><path fill="#3a4245" d="M465.8 109.2a2.7 2.7 0 0 1-1.4-1.6.8.8 0 0 1 0-.7V89.2h2.2c-.3 6.7-.1 15.5 2.4 20.8a8.4 8.4 0 0 1-3.2-.8z"/><path fill="#ffed00" d="M458 91.1V49.8l22.4-.3-.1 41.7c.3 1.8-.8 3.7-3.2 5.1a17.5 17.5 0 0 1-15.9.2 6.2 6.2 0 0 1-3.2-3.7v-1.7z"/><path fill="#f9b233" d="M461.4 54.4c-4.4-2.5-4.5-6.6-.1-9.2s11.5-2.7 15.9-.2 4.5 6.6.1 9.2-11.5 2.7-15.9.2z"/><path fill="#f39600" d="M464.3 52.7c-2.8-1.6-2.8-4.2-.1-5.8a11 11 0 0 1 10-.1c2.8 1.6 2.8 4.2.1 5.8a11 11 0 0 1-10 .1z"/><path fill="#ffed00" d="M458.1 92.7a4.3 4.3 0 0 1 0-1.6V49.9c0 1.6 1.1 3.3 3.3 4.5a13.1 13.1 0 0 0 4.6 1.5c-1 12.5-1 29.3 3.6 42.2a16.1 16.1 0 0 1-8.3-1.8 6 6 0 0 1-3.2-3.6z"/><path fill="#475255" d="M539 228.8l8.3-4.8V84.2L539 89v139.8z"/><path fill="#3a4245" d="M539 228.8l-8.3-4.8V84.2L539 89v139.8z"/><path fill="#8fa4ab" d="M428 4.9l119.3 68.8-8.3 4.8L419.7 9.7l8.3-4.8z"/><path fill="#3a4245" d="M419.7 9.7v10.5L539 89V78.5L419.7 9.7z"/><path fill="#475255" d="M547.3 73.7v10.5L539 89V78.5l8.3-4.8z"/><path fill="#f9b233" d="M542.4 178.3l10.4-6v-35l-10.4 6v35z"/><path fill="#f39600" d="M542.4 178.3l-4.6-2.7v-34.9l4.6 2.6v35z"/><path fill="#ffed00" d="M548.2 134.7l4.6 2.6-10.4 6-4.6-2.6 10.4-6z"/><path fill="#3a4245" d="M546.7 166.9a3 3 0 0 1 1.2-2.2 1 1 0 0 1 .9-.1l.9.5-1.8 3-.9-.5a1 1 0 0 1-.3-.7z"/><path fill="#475255" d="M547.7 167.4c0 .8.6 1.1 1.2.7a2.8 2.8 0 0 0 1.2-2.2c0-.8-.6-1.1-1.2-.7a2.9 2.9 0 0 0-1.2 2.2z"/><path fill="#3a4245" d="M546.7 172a3 3 0 0 1 1.2-2.2 1 1 0 0 1 .9-.1l.9.5-1.8 3-.9-.5c-.1 0-.3-.3-.3-.7z"/><path fill="#475255" d="M547.7 172.6c0 .8.6 1.1 1.2.7a2.8 2.8 0 0 0 1.2-2.2c0-.8-.6-1.1-1.2-.7a2.8 2.8 0 0 0-1.2 2.2z"/><path fill="#00c3f9" d="M543.5 166.5l8.2-4.7v-22.3l-8.2 4.8v22.2z"/><path fill="#0096db" d="M551.1 161.2v-21.3l.6-.4v22.3l-8.2 4.7v-.9l7.6-4.4z"/><path fill="#fff" d="M551.5 161.9l-4.5 2.6-3.5-4.4v-8.3l8 10.1z"/><path fill="#475255" d="M519.7 240l8.2-4.8V95.4l-8.2 4.8V240z"/><path fill="#3a4245" d="M519.7 240l-8.3-4.8V95.4l8.3 4.8V240z"/><path fill="#475255" d="M408.7 175.9l8.2-4.8V31.4l-8.2 4.7v139.8z"/><path fill="#3a4245" d="M408.7 175.9l-8.3-4.8V31.4l8.3 4.7v139.8z"/><path fill="#8fa4ab" d="M408.7 16.1l119.2 68.8-8.2 4.8-119.3-68.8 8.3-4.8z"/><path fill="#3a4245" d="M400.4 20.9v10.5l119.3 68.8V89.7L400.4 20.9z"/><path fill="#475255" d="M527.9 84.9v10.5l-8.2 4.8V89.7l8.2-4.8zM469.2 58.7l20.7-12V12l-20.7 11.9v34.8z"/><path fill="#3a4245" d="M469.2 58.7l-20.6-12V12l20.6 11.9v34.8z"/><path fill="#8fa4ab" d="M469.2 0l20.7 12-20.7 11.9L448.6 12l20.6-12z"/><path fill="#6d7d82" d="M488 34.9l-15 8.7v-1l15-8.6v.9zM488 33.4L473 42v-.9l15-8.7v1zM488 31.8l-15 8.7v-.9l15-8.7v.9zM488 30.3L473 39v-1l15-8.6v.9zM488 28.8l-15 8.6v-.9l15-8.7v1zM488 27.2l-15 8.7V35l15-8.7v.9zM488 25.7l-15 8.7v-1l15-8.6v.9z"/><path fill="#475255" d="M469.2 4.1l13.6 7.9-13.6 7.8-13.5-7.8 13.5-7.9z"/><path fill="#3a4245" d="M480.7 13.2l-11.5 6.6-11.4-6.6 11.4-6.6 11.5 6.6zM465.3 249.2l3.8-2.2v-47.1l-3.8 2.2v47.1z"/><path fill="#475255" d="M465.3 249.2l-3.8-2.2v-47.1l3.8 2.2v47.1z"/><path fill="#6d7d82" d="M465.3 197.7l3.8 2.2-3.8 2.2-3.8-2.2 3.8-2.2z"/><path fill="#3a4245" d="M434.5 266.9l3.8-2.2v-47.1l-3.8 2.2v47.1z"/><path fill="#475255" d="M434.5 266.9l-3.8-2.2v-47.1l3.8 2.2v47.1z"/><path fill="#6d7d82" d="M434.5 215.4l3.8 2.2-3.8 2.2-3.8-2.2 3.8-2.2z"/><path fill="#3a4245" d="M403.7 284.6l3.7-2.1v-47.1l-3.7 2.1v47.1z"/><path fill="#475255" d="M403.7 284.6l-3.8-2.1v-47.1l3.8 2.1v47.1z"/><path fill="#6d7d82" d="M403.7 233.2l3.7 2.2-3.7 2.1-3.8-2.1 3.8-2.2z"/><path fill="#3a4245" d="M372.8 302.5l3.8-2.2v-47.1l-3.8 2.2v47.1z"/><path fill="#475255" d="M372.8 302.5l-3.8-2.2v-47.1l3.8 2.2v47.1z"/><path fill="#475255" d="M369 248.8l3.8 2.2v4.4l-3.8-2.2v-4.4z"/><path fill="#3a4245" d="M396.6 209.6l3.8-2.2v-47.1l-3.8 2.2v47.1z"/><path fill="#475255" d="M396.6 209.6l-3.8-2.2v-47.1l3.8 2.2v47.1z"/><path fill="#6d7d82" d="M396.6 158.1l3.8 2.2-3.8 2.2-3.8-2.2 3.8-2.2z"/><path fill="#3a4245" d="M365.7 227.2l3.8-2.2v-47l-3.8 2.1v47.1z"/><path fill="#475255" d="M365.7 227.2L362 225v-47l3.7 2.1v47.1z"/><path fill="#6d7d82" d="M365.7 175.8l3.8 2.2-3.8 2.1-3.7-2.1 3.7-2.2z"/><path fill="#3a4245" d="M334.9 245l3.8-2.2v-47.1l-3.8 2.2V245z"/><path fill="#475255" d="M334.9 245l-3.8-2.2v-47.1l3.8 2.2V245z"/><path fill="#6d7d82" d="M334.9 193.6l3.8 2.1-3.8 2.2-3.8-2.2 3.8-2.1z"/><path fill="#3a4245" d="M304.1 262.8l3.8-2.2v-47.1l-3.8 2.2v47.1z"/><path fill="#475255" d="M304.1 262.8l-3.8-2.2v-47.1l3.8 2.2v47.1z"/><path fill="#6d7d82" d="M304.1 211.4l3.8 2.1-3.8 2.2-3.8-2.2 3.8-2.1z"/><path fill="#475255" d="M300.3 209.2l3.8 2.2v4.3l-3.8-2.2v-4.3z"/><path fill="#3a4245" d="M400.4 160.3l-96.3 55.4v-4.3l96.3-55.5v4.4z"/><path fill="#6d7d82" d="M400.4 155.9l-96.3 55.5-3.8-2.2 96.3-55.5 3.8 2.2z"/><path fill="#475255" d="M300.3 213.5l72.5 41.9V251l-72.5-41.8v4.3z"/><path fill="#6d7d82" d="M300.3 209.2l72.5 41.8 3.8-2.2-72.5-41.8-3.8 2.2z"/><path fill="#475255" d="M396.6 162.5l61.2 35.2 3.7-2.1-64.9-37.5v4.4z"/><path fill="#6d7d82" d="M392.8 155.9l72.5 41.8 3.8-2.1-72.5-41.9-3.8 2.2z"/><path fill="#ffed00" d="M311.3 209.9a10.8 10.8 0 0 1 5-8.6c1.5-.9 2.9-.9 3.8-.2l64.6 37.2-7.1 12.1-64.4-37.1a2.2 2.2 0 0 1-.8-.5 3.7 3.7 0 0 1-1.1-2.9z"/><path fill="#f9b233" d="M376 247.2c0 3.2 2.2 4.5 5 2.9a11 11 0 0 0 5-8.6c0-3.2-2.2-4.5-5-2.9a11 11 0 0 0-5 8.6z"/><path fill="#f39200" d="M378.4 245.8c0 1.7 1.2 2.4 2.7 1.5a5.9 5.9 0 0 0 2.7-4.6c0-1.7-1.2-2.4-2.7-1.5a5.9 5.9 0 0 0-2.7 4.6z"/><path fill="#f36d00" d="M379.8 246.2a5.9 5.9 0 0 0 2.7-4.6 1.7 1.7 0 0 0-.1-.7c.8.1 1.3.8 1.3 1.9a5.8 5.8 0 0 1-2.7 4.6c-1.3.7-2.3.3-2.6-.9a4 4 0 0 0 1.4-.3z"/><path fill="#ffed00" d="M312.4 212.8a3.8 3.8 0 0 1-1.1-3 9.9 9.9 0 0 1 .8-3.7c15.2 12 43.6 33.1 64.1 39.3a9.8 9.8 0 0 0-.2 1.7 3.5 3.5 0 0 0 1.4 3.2l-64.2-37.1a1.2 1.2 0 0 1-.8-.4zM326.2 201.3a10.8 10.8 0 0 1 5-8.6c1.5-.9 2.9-.9 3.8-.2l64.6 37.2-7.1 12.2-64.4-37.1a2.2 2.2 0 0 1-.8-.5 4 4 0 0 1-1.1-3z"/><path fill="#f9b233" d="M390.9 238.6c0 3.2 2.2 4.5 5 2.9a11 11 0 0 0 5-8.6c0-3.2-2.2-4.5-5-2.9a11 11 0 0 0-5 8.6z"/><path fill="#f39200" d="M393.2 237.2c0 1.7 1.2 2.4 2.7 1.5a5.9 5.9 0 0 0 2.7-4.6c0-1.7-1.2-2.4-2.7-1.5a5.9 5.9 0 0 0-2.7 4.6z"/><path fill="#f36d00" d="M394.7 237.5a5.9 5.9 0 0 0 2.7-4.6 1.7 1.7 0 0 0-.1-.7c.8.1 1.3.8 1.3 1.9a5.8 5.8 0 0 1-2.7 4.6c-1.3.7-2.3.3-2.6-.9a1.9 1.9 0 0 0 1.4-.3z"/><path fill="#ffed00" d="M327.3 204.2a3.8 3.8 0 0 1-1.1-3 9.9 9.9 0 0 1 .8-3.7c15.2 12 43.6 33.1 64.1 39.3a9.8 9.8 0 0 0-.2 1.7 3.5 3.5 0 0 0 1.4 3.2l-64.2-37.1a1.2 1.2 0 0 1-.8-.4zM341.1 192.7a10.8 10.8 0 0 1 5-8.6c1.5-.9 2.9-.9 3.8-.2l64.6 37.2-7.1 12.2-64.4-37.1a2.2 2.2 0 0 1-.8-.5 4 4 0 0 1-1.1-3z"/><path fill="#f9b233" d="M405.8 230c0 3.2 2.2 4.5 5 2.9a11 11 0 0 0 5-8.6c0-3.2-2.2-4.5-5-2.9a10.7 10.7 0 0 0-5 8.6z"/><path fill="#f39200" d="M408.1 228.6c0 1.7 1.2 2.4 2.7 1.5a5.9 5.9 0 0 0 2.7-4.6c0-1.7-1.2-2.4-2.7-1.5a5.9 5.9 0 0 0-2.7 4.6z"/><path fill="#f36d00" d="M409.6 228.9a5.9 5.9 0 0 0 2.7-4.6 1.7 1.7 0 0 0-.1-.7c.8.1 1.3.8 1.3 1.9a5.8 5.8 0 0 1-2.7 4.6c-1.3.7-2.3.3-2.6-.9a1.9 1.9 0 0 0 1.4-.3z"/><path fill="#ffed00" d="M342.2 195.6a3.8 3.8 0 0 1-1.1-3 9.9 9.9 0 0 1 .8-3.7c15.2 12 43.6 33.1 64.1 39.3a9.8 9.8 0 0 0-.2 1.7 3.5 3.5 0 0 0 1.4 3.2L343 196a1.2 1.2 0 0 1-.8-.4zM355.9 184a10.8 10.8 0 0 1 5-8.6c1.5-.9 2.9-.9 3.8-.2l64.6 37.2-7.1 12.2-64.4-37.1a2.2 2.2 0 0 1-.8-.5 3.8 3.8 0 0 1-1.1-3z"/><path fill="#f9b233" d="M420.7 221.3c0 3.2 2.2 4.5 5 2.9a11 11 0 0 0 5-8.6c0-3.2-2.2-4.5-5-2.9a11 11 0 0 0-5 8.6z"/><path fill="#f39200" d="M423 220c0 1.7 1.2 2.4 2.7 1.5a5.9 5.9 0 0 0 2.7-4.6c0-1.7-1.2-2.4-2.7-1.5a5.8 5.8 0 0 0-2.7 4.6z"/><path fill="#f36d00" d="M424.4 220.3a5.9 5.9 0 0 0 2.7-4.6 1.7 1.7 0 0 0-.1-.7c.8.1 1.3.8 1.3 1.9a5.8 5.8 0 0 1-2.7 4.6c-1.3.7-2.3.3-2.6-.9a1.9 1.9 0 0 0 1.4-.3z"/><path fill="#ffed00" d="M357 187a3.8 3.8 0 0 1-1.1-3 9.9 9.9 0 0 1 .8-3.7c15.2 12 43.6 33.1 64.1 39.3a9.8 9.8 0 0 0-.2 1.7 3.5 3.5 0 0 0 1.4 3.2l-64.2-37.1a1.2 1.2 0 0 1-.8-.4zM370.9 175.4a10.8 10.8 0 0 1 5-8.6c1.5-.9 2.9-.9 3.8-.2l64.6 37.2-7.1 12.2-64.4-37.1a2.2 2.2 0 0 1-.8-.5 4 4 0 0 1-1.1-3z"/><path fill="#f9b233" d="M435.6 212.7c0 3.2 2.2 4.5 5 2.9a11 11 0 0 0 5-8.6c0-3.2-2.2-4.5-5-2.9a11.1 11.1 0 0 0-5 8.6z"/><path fill="#f39200" d="M438 211.4c0 1.7 1.2 2.4 2.7 1.5a5.9 5.9 0 0 0 2.7-4.6c0-1.7-1.2-2.4-2.7-1.5a5.8 5.8 0 0 0-2.7 4.6z"/><path fill="#f36d00" d="M439.4 211.7a5.9 5.9 0 0 0 2.7-4.6 1.7 1.7 0 0 0-.1-.7c.8.1 1.3.8 1.3 1.9a5.8 5.8 0 0 1-2.7 4.6c-1.3.7-2.3.3-2.6-.9a1.9 1.9 0 0 0 1.4-.3z"/><path fill="#ffed00" d="M372 178.4a3.8 3.8 0 0 1-1.1-3 9.9 9.9 0 0 1 .8-3.7c15.2 12 43.6 33.1 64.1 39.3a9.8 9.8 0 0 0-.2 1.7 3.5 3.5 0 0 0 1.4 3.2l-64.2-37.1a2 2 0 0 1-.8-.4zM386 166.9a10.8 10.8 0 0 1 5-8.6c1.5-.9 2.9-.9 3.8-.2l64.6 37.2-7.1 12.2-64.4-37.1a2.2 2.2 0 0 1-.8-.5 3.7 3.7 0 0 1-1.1-3z"/><path fill="#f9b233" d="M450.7 204.2c0 3.2 2.2 4.5 5 2.9a11 11 0 0 0 5-8.6c0-3.2-2.2-4.5-5-2.9a10.8 10.8 0 0 0-5 8.6z"/><path fill="#f39200" d="M453 202.9c0 1.7 1.2 2.4 2.7 1.5a5.9 5.9 0 0 0 2.7-4.6c0-1.7-1.2-2.4-2.7-1.5a5.8 5.8 0 0 0-2.7 4.6z"/><path fill="#f36d00" d="M454.4 203.2a5.9 5.9 0 0 0 2.7-4.6 1.7 1.7 0 0 0-.1-.7c.8.1 1.3.8 1.3 1.9a5.8 5.8 0 0 1-2.7 4.6c-1.3.7-2.3.3-2.6-.9a1.8 1.8 0 0 0 1.4-.3z"/><path fill="#ffed00" d="M387 169.9a3.8 3.8 0 0 1-1.1-3 9.9 9.9 0 0 1 .8-3.7c15.2 12 43.6 33.1 64.1 39.3a9.8 9.8 0 0 0-.2 1.7 3.5 3.5 0 0 0 1.4 3.2l-64.2-37.1a3 3 0 0 1-.8-.4z"/><path fill="#3a4245" d="M469.1 199.9l-96.3 55.5V251l96.3-55.4v4.3z"/><path fill="#6d7d82" d="M469.1 195.6L372.8 251l-3.8-2.2 96.3-55.4 3.8 2.2z"/><path fill="#e30613" d="M283.2 180.5a29.3 29.3 0 0 1-14.5-4.2c-8.8-5.2-12.2-13-9.1-20.9 6.1-15.6-13.2-29.4-13.4-29.5s-.1-.2-.1-.4.2-.1.4-.1 19.9 14.2 13.6 30.1c-3 7.6.3 15.2 8.9 20.3 7.6 4.5 18.6 6.1 23.1.8a.3.3 0 0 1 .4.4c-2.1 2.5-5.5 3.5-9.3 3.5z"/><path fill="#009fe3" d="M283 183.5a27 27 0 0 1-17-7.8c-7.4-7-9.1-15.4-4.3-22.4 9.4-13.8-6.4-31.5-6.6-31.7a.3.3 0 0 1 .4-.4c.2.2 16.2 18.2 6.6 32.4-4.6 6.8-3 14.9 4.2 21.7 6.5 6.1 16.8 10.1 22.3 5.9a.3.3 0 1 1 .4.4 9.2 9.2 0 0 1-6 1.9z"/><path fill="#3a4245" d="M173.2 298.4c0-5.6-3.9-12.3-8.7-15.1-2.4-1.4-4.6-1.5-6.1-.6l-6.4 3.7 12.5 21.2 6.1-3.6.2-.1.1-.1c1.4-.9 2.3-2.8 2.3-5.4z"/><path fill="#475255" d="M166.8 302.1c0 5.6-3.9 7.8-8.7 5s-8.7-9.5-8.7-15.1 3.9-7.8 8.7-5 8.7 9.5 8.7 15.1z"/><path fill="#ffed00" d="M165.2 301.1c0 4.5-3.2 6.3-7.1 4.1A15.5 15.5 0 0 1 151 293c0-4.5 3.2-6.3 7.1-4.1s7.1 7.7 7.1 12.2z"/><path fill="#f39200" d="M164.1 300.5c0 3.8-2.7 5.4-6 3.5a13.3 13.3 0 0 1-6-10.4c0-3.8 2.7-5.4 6-3.5a13 13 0 0 1 6 10.4z"/><path fill="#f36d00" d="M160.2 301.9a13.3 13.3 0 0 1-6-10.4 6.7 6.7 0 0 1 .3-2.1c-1.5.4-2.4 1.9-2.4 4.2a13.3 13.3 0 0 0 6 10.4c2.6 1.5 4.9.9 5.7-1.4a4.6 4.6 0 0 1-3.6-.7z"/><path fill="#b8d2db" d="M172.4 301.8l-22.5-13a9.4 9.4 0 0 0-.5 3 13.3 13.3 0 0 0 .3 2.8l18.4 10.6 2.4-1.4.2-.1.1-.1a3.2 3.2 0 0 0 1.6-1.8z"/><path fill="#3a4245" d="M122.5 269.2c0-5.6-3.9-12.3-8.7-15.1-2.4-1.4-4.6-1.5-6.1-.6l-6.4 3.7 12.5 21.2 6.1-3.6.2-.1.1-.1c1.4-.8 2.3-2.7 2.3-5.4z"/><path fill="#475255" d="M116.1 272.9c0 5.6-3.9 7.8-8.7 5s-8.7-9.5-8.7-15.1 3.9-7.8 8.7-5 8.7 9.6 8.7 15.1z"/><path fill="#ffed00" d="M114.5 272c0 4.5-3.2 6.3-7.1 4.1a15.5 15.5 0 0 1-7.1-12.2c0-4.5 3.2-6.3 7.1-4.1a15.5 15.5 0 0 1 7.1 12.2z"/><path fill="#f39200" d="M113.5 271.4c0 3.8-2.7 5.4-6 3.5a13.3 13.3 0 0 1-6-10.4c0-3.8 2.7-5.4 6-3.5a13.2 13.2 0 0 1 6 10.4z"/><path fill="#f36d00" d="M109.5 272.7a13.3 13.3 0 0 1-6-10.4 6.7 6.7 0 0 1 .3-2.1c-1.5.4-2.4 1.9-2.4 4.2a13.3 13.3 0 0 0 6 10.4c2.6 1.5 4.9.9 5.7-1.4a4.6 4.6 0 0 1-3.6-.7z"/><path fill="#f39600" d="M292 175l-22.7 13.1 8.8 5.1 22.7-13.1-8.8-5.1z"/><path fill="#8fa4ab" d="M278.1 186.7v7.8l14.3 8.3h11.3l3.1 1.8 1.2-.6v-3.6l-4.8-2.7H296l-8.5-4.9v-8.4l-2.8-1.5-6.6 3.8zM300.7 173.6h13.6l14.3 8.3v6.5l3.2 1.8-1.2.7h-6.1l-4.8-2.8V184l-8.5-4.9h-14.4l-2.7-1.6 6.6-3.9z"/><path fill="#ffde00" d="M292 168.5l-22.7 13.1 8.8 5.1 22.7-13.1-8.8-5.1z"/><path fill="#f9b233" d="M269.3 181.6v6.5l8.8 5.1v-6.5l-8.8-5.1z"/><path fill="#475255" d="M294.1 177.5v6.4l2.7 1.6h14.4l8.5 4.9v4.2l4.8 2.7h6.1l1.2-.6v-6.5l-1.2.7h-6.1l-4.8-2.8V184l-8.5-4.9h-14.4l-2.7-1.6z"/><path fill="#3a4245" d="M330.6 190.9v6.4l1.2-.6v-6.5l-1.2.7zM296.8 179.1h14.4v6.4h-14.4z"/><path fill="#475255" d="M303.7 202.8h-11.3l-14.3-8.3v6.4l14.3 8.3h11.3l3.1 1.8 1.2-.6V204l-1.2.6-3.1-1.8z"/><path fill="#3a4245" d="M306.8 204.6v6.4l1.2-.6V204l-1.2.6zM292.4 202.8h11.3v6.4h-11.3z"/><path fill="#6d7d82" d="M285 180.7a3.2 3.2 0 0 1-1.6-.4l-21.8-12.6a20.6 20.6 0 0 1-9.4-16.4v-22.1a3.1 3.1 0 1 1 6.2 0v22.2c0 3.9 3 9 6.3 11l21.8 12.6a3 3 0 0 1 1.1 4.2 3 3 0 0 1-2.6 1.5z"/><path fill="#475255" d="M255.3 145.4l-18-10.3v-23.3l18 10.4v23.2z"/><path fill="#3a4245" d="M255.3 145.4l18-10.3v-23.3l-18 10.4v23.2z"/><path fill="#475255" d="M178.3 305.5L95 257.4v-68.9l83.3 48.1v68.9z"/><path fill="#3a4245" d="M178.3 305.5l83.4-48.1v-68.9l-83.4 48.1v68.9z"/><path fill="#8fa4ab" d="M178.3 140.5l-83.3 48 83.3 48.1 83.4-48.1-83.4-48z"/><path fill="#ffed00" d="M214.2 146.9c19.8 11.4 19.8 30 0 41.4s-51.9 11.4-71.7 0-19.8-30 0-41.4 51.9-11.4 71.7 0z"/><ellipse cx="178.3" cy="167.6" fill="#f9b233" rx="38.2" ry="22"/><path fill="#f39600" d="M151.3 156.5a59.7 59.7 0 0 1 54 0c6.5 3.7 10.1 8.5 11 13.3 1.1-6.4-2.5-13-11-17.8a59.7 59.7 0 0 0-54 0c-8.5 4.9-12.1 11.5-11 17.8.9-4.8 4.5-9.6 11-13.3z"/><path fill="#f9b233" d="M214.2 188.3a79.4 79.4 0 0 1-71.7 0c-9.9-5.7-14.9-13.2-14.9-20.7v18.9c0 7.5 5 15 14.9 20.7a79.4 79.4 0 0 0 71.7 0c9.9-5.7 14.9-13.2 14.9-20.7v-18.9c0 7.5-5 15-14.9 20.7z"/><path fill="#f39600" d="M193.1 214.5a66.7 66.7 0 0 0 21.1-7.3c9.9-5.7 14.9-13.2 14.9-20.7v-18.9c0 7.5-5 15-14.9 20.7a66 66 0 0 1-18.4 6.8 55.5 55.5 0 0 1-2.7 19.4z"/><path fill="#475255" d="M178.3 187.6l-33.7-19.4v-27.9l33.7 19.4v27.9z"/><path fill="#3a4245" d="M178.3 187.6l33.8-19.4v-27.9l-33.8 19.4v27.9z"/><path fill="#8fa4ab" d="M178.3 120.8l-33.7 19.5 33.7 19.4 33.8-19.4-33.8-19.5z"/><path fill="#475255" d="M178.3 154.4l-24.5-14.2V72.6l24.5 14.1v67.7z"/><path fill="#3a4245" d="M178.3 154.4l24.5-14.2V72.6l-24.5 14.1v67.7z"/><path fill="#6d7d82" d="M178.3 58.4l-24.5 14.2 24.5 14.1 24.5-14.1-24.5-14.2z"/><path fill="#f9b233" d="M178.3 86.7l-24.5-14.1c0-15.6 11-21.9 24.5-14.1z"/><path fill="#3a4245" d="M202.8 44.3l-24.5 14.1v28.3l24.5-14.1V44.3z"/><path fill="#ffed00" d="M178.3 58.4l24.5-14.1c-6.8-3.9-13-4.3-17.4-1.6l-23.7 13.7c4.4-2.2 10.2-1.7 16.6 2z"/><path fill="#f9b233" d="M178.3 104.8l-24.5-14.2v-9l24.5 14.1v9.1z"/><path fill="#f36d00" d="M178.3 104.8l24.5-14.2v-9l-24.5 14.1v9.1z"/><path fill="#f39600" d="M275.8 103.3l-24.5 14.1v11.7l24.5-14.2v-11.6z"/><path fill="#ffed00" d="M275.8 103.3l-73-59-24.5 14.1 73 59 24.5-14.1z"/><path fill="#f9b233" d="M251.3 129.1l-73-42.4V58.4l73 59v11.7z"/><path fill="#ffed00" d="M269.3 181.6s11.4-20.2 22.7-13.1l8.7 5.1-22.7 13.1z"/><path fill="#f9b233" d="M278.1 186.7s11.4-20.2 22.7-13.1z"/><path fill="#ffed00" d="M281.6 168.5a22.7 22.7 0 0 1 8.7 5.1 10 10 0 0 1 9.4-.7l-7.6-4.4a10.1 10.1 0 0 0-10.5 0z"/><path fill="#6d7d82" d="M249.1 253.5l-51.8 29.9v-3.2l51.8-29.9v3.2zM249.1 248.2l-51.8 29.9v-3.2l51.8-29.9v3.2zM249.1 242.9l-51.8 29.9v-3.2l51.8-29.8v3.1zM249.1 237.6l-51.8 29.9v-3.1l51.8-29.9v3.1zM249.1 232.3l-51.8 29.9v-3.1l51.8-29.9v3.1zM249.1 227.1l-51.8 29.8v-3.1l51.8-29.9v3.2zM249.1 221.8l-51.8 29.9v-3.2l51.8-29.9v3.2z"/><path fill="#b8d2db" d="M121.7 272.8l-22.5-13a9.4 9.4 0 0 0-.5 3 13.3 13.3 0 0 0 .3 2.8l18.4 10.6 2.4-1.4.2-.1.1-.1a3.6 3.6 0 0 0 1.6-1.8z"/><path fill="#f9b233" d="M107.2 233.6l-16.5-9.5v-25.7l16.5 9.5v25.7z"/><path fill="#f39600" d="M107.2 233.6l7.3-4.2v-25.7l-7.3 4.2v25.7z"/><path fill="#ffed00" d="M98 194.2l-7.3 4.2 16.5 9.5 7.3-4.2-16.5-9.5z"/><path fill="#3a4245" d="M100.3 215.5a4.2 4.2 0 0 0-2-3.4 1.4 1.4 0 0 0-1.4-.1l-1.5.8 2.8 4.8 1.4-.8a1.4 1.4 0 0 0 .7-1.3z"/><path fill="#475255" d="M98.8 216.3c0 1.3-.9 1.8-2 1.1a4.4 4.4 0 0 1-2-3.4c0-1.3.9-1.8 2-1.1a4.2 4.2 0 0 1 2 3.4z"/><path fill="#3a4245" d="M100.3 223.7a4.2 4.2 0 0 0-2-3.4 1.4 1.4 0 0 0-1.4-.1l-1.5.8 2.8 4.8 1.4-.8a1.4 1.4 0 0 0 .7-1.3z"/><path fill="#475255" d="M98.8 224.5c0 1.3-.9 1.8-2 1.1a4.4 4.4 0 0 1-2-3.4c0-1.3.9-1.8 2-1.1a4.2 4.2 0 0 1 2 3.4z"/><path fill="#00c3f9" d="M105.5 214.9l-13.1-7.6v-5.4l13.1 7.6v5.4z"/><path fill="#0096db" d="M93.3 206.4v-3.9l-.9-.6v5.4l13.1 7.6v-1.5l-12.2-7z"/><path fill="#fff" d="M92.8 207.6l7.1 4.1 3.4-3.4-7.1-4.2-3.4 3.5z"/><path fill="#ffed00" d="M236.2 105.2l15.1 12.2 24.5-14.1-24.1-19.5c-2.3 8.5-7 16.2-15.5 21.4z"/><path fill="#3a4245" d="M371.7 303.2l3.8-2.1V254l-3.8 2.2v47z"/><path fill="#475255" d="M371.7 303.2l-3.7-2.1V254l3.7 2.2v47z"/><path fill="#6d7d82" d="M371.7 251.8l3.8 2.2-3.8 2.2-3.7-2.2 3.7-2.2z"/><path fill="#3a4245" d="M340.9 320.9l3.8-2.2v-47.1l-3.8 2.2v47.1z"/><path fill="#475255" d="M340.9 320.9l-3.8-2.2v-47.1l3.8 2.2v47.1z"/><path fill="#6d7d82" d="M340.9 269.4l3.8 2.2-3.8 2.2-3.8-2.2 3.8-2.2z"/><path fill="#3a4245" d="M310.1 338.7l3.8-2.2v-47.1l-3.8 2.2v47.1z"/><path fill="#475255" d="M310.1 338.7l-3.8-2.2v-47.1l3.8 2.2v47.1z"/><path fill="#6d7d82" d="M310.1 287.2l3.8 2.2-3.8 2.2-3.8-2.2 3.8-2.2z"/><path fill="#3a4245" d="M279.2 356.5l3.8-2.2v-47.1l-3.8 2.2v47.1z"/><path fill="#475255" d="M279.2 356.5l-3.7-2.2v-47.1l3.7 2.2v47.1z"/><path fill="#475255" d="M275.5 302.9l3.7 2.1v4.4l-3.7-2.2v-4.3z"/><path fill="#3a4245" d="M303 263.6l3.8-2.2v-47.1l-3.8 2.2v47.1z"/><path fill="#475255" d="M303 263.6l-3.8-2.2v-47.1l3.8 2.2v47.1z"/><path fill="#6d7d82" d="M303 212.2l3.8 2.1-3.8 2.2-3.8-2.2 3.8-2.1z"/><path fill="#3a4245" d="M272.2 281.3l3.7-2.2V232l-3.7 2.2v47.1z"/><path fill="#475255" d="M272.2 281.3l-3.8-2.2V232l3.8 2.2v47.1z"/><path fill="#6d7d82" d="M272.2 229.8l3.7 2.2-3.7 2.2-3.8-2.2 3.8-2.2z"/><path fill="#3a4245" d="M241.3 299.1l3.8-2.2v-47.1l-3.8 2.2v47.1z"/><path fill="#475255" d="M241.3 299.1l-3.8-2.2v-47.1l3.8 2.2v47.1z"/><path fill="#6d7d82" d="M241.3 247.6l3.8 2.2-3.8 2.2-3.8-2.2 3.8-2.2z"/><path fill="#3a4245" d="M210.5 316.9l3.8-2.2v-47.1l-3.8 2.2v47.1z"/><path fill="#475255" d="M210.5 316.9l-3.8-2.2v-47.1l3.8 2.2v47.1z"/><path fill="#6d7d82" d="M210.5 265.4l3.8 2.2-3.8 2.2-3.8-2.2 3.8-2.2z"/><path fill="#475255" d="M206.7 263.2l3.8 2.2v4.4l-3.8-2.2v-4.4z"/><path fill="#3a4245" d="M306.8 214.3l-96.3 55.5v-4.4l96.3-55.4v4.3z"/><path fill="#6d7d82" d="M306.8 210l-96.3 55.4-3.8-2.2 96.3-55.4 3.8 2.2z"/><path fill="#475255" d="M206.7 267.6l72.5 41.8V305l-72.5-41.8v4.4z"/><path fill="#6d7d82" d="M206.7 263.2l72.5 41.8 3.8-2.1-72.5-41.9-3.8 2.2z"/><path fill="#475255" d="M303 216.5l61.2 35.3 3.8-2.2-65-37.4v4.3z"/><path fill="#6d7d82" d="M299.2 210l72.5 41.8 3.8-2.2-72.5-41.8-3.8 2.2z"/><path fill="#ffed00" d="M217.7 263.9a10.8 10.8 0 0 1 5-8.6c1.5-.9 2.9-.9 3.8-.2l64.6 37.2-7.1 12.2-64.4-37.2a2.2 2.2 0 0 1-.8-.5 3.7 3.7 0 0 1-1.1-2.9z"/><path fill="#f9b233" d="M282.5 301.2c0 3.2 2.2 4.5 5 2.9a11 11 0 0 0 5-8.6c0-3.2-2.2-4.5-5-2.9a10.8 10.8 0 0 0-5 8.6z"/><path fill="#f39200" d="M284.8 299.9c0 1.7 1.2 2.4 2.7 1.5a5.9 5.9 0 0 0 2.7-4.6c0-1.7-1.2-2.4-2.7-1.5a5.8 5.8 0 0 0-2.7 4.6z"/><path fill="#f36d00" d="M286.2 300.2a5.9 5.9 0 0 0 2.7-4.6 1.7 1.7 0 0 0-.1-.7c.8.1 1.3.8 1.3 1.9a5.8 5.8 0 0 1-2.7 4.6c-1.3.7-2.3.3-2.6-.9a1.8 1.8 0 0 0 1.4-.3z"/><path fill="#ffed00" d="M218.8 266.9a3.8 3.8 0 0 1-1.1-3 9.9 9.9 0 0 1 .8-3.7c15.2 12 43.6 33.1 64.1 39.3a9.8 9.8 0 0 0-.2 1.7 3.5 3.5 0 0 0 1.4 3.2l-64.2-37.1a3 3 0 0 1-.8-.4zM232.6 255.3a10.8 10.8 0 0 1 5-8.6c1.5-.9 2.9-.9 3.8-.2l64.6 37.2-7.1 12.2-64.4-37.1a2.2 2.2 0 0 1-.8-.5 4 4 0 0 1-1.1-3z"/><path fill="#f9b233" d="M297.4 292.6c0 3.2 2.2 4.5 5 2.9a11 11 0 0 0 5-8.6c0-3.2-2.2-4.5-5-2.9a10.8 10.8 0 0 0-5 8.6z"/><path fill="#f39200" d="M299.7 291.3c0 1.7 1.2 2.4 2.7 1.5a5.9 5.9 0 0 0 2.7-4.6c0-1.7-1.2-2.4-2.7-1.5a5.8 5.8 0 0 0-2.7 4.6z"/><path fill="#f36d00" d="M301.1 291.6a5.9 5.9 0 0 0 2.7-4.6 1.7 1.7 0 0 0-.1-.7c.8.1 1.3.8 1.3 1.9a5.8 5.8 0 0 1-2.7 4.6c-1.3.7-2.3.3-2.6-.9a1.9 1.9 0 0 0 1.4-.3z"/><path fill="#ffed00" d="M233.7 258.3a3.8 3.8 0 0 1-1.1-3 9.9 9.9 0 0 1 .8-3.7c15.2 12 43.6 33.1 64.1 39.3a9.8 9.8 0 0 0-.2 1.7 3.5 3.5 0 0 0 1.4 3.2l-64.2-37.1a2 2 0 0 1-.8-.4zM247.5 246.7a10.8 10.8 0 0 1 5-8.6c1.5-.9 2.9-.9 3.8-.2l64.6 37.2-7.1 12.2-64.4-37.1a2.2 2.2 0 0 1-.8-.5 4 4 0 0 1-1.1-3z"/><path fill="#f9b233" d="M312.2 284c0 3.2 2.2 4.5 5 2.9a11 11 0 0 0 5-8.6c0-3.2-2.2-4.5-5-2.9a10.8 10.8 0 0 0-5 8.6z"/><path fill="#f39200" d="M314.5 282.7c0 1.7 1.2 2.4 2.7 1.5a5.9 5.9 0 0 0 2.7-4.6c0-1.7-1.2-2.4-2.7-1.5a5.8 5.8 0 0 0-2.7 4.6z"/><path fill="#f36d00" d="M316 283a5.9 5.9 0 0 0 2.7-4.6 1.7 1.7 0 0 0-.1-.7c.8.1 1.3.8 1.3 1.9a5.8 5.8 0 0 1-2.7 4.6c-1.3.7-2.3.3-2.6-.9a1.9 1.9 0 0 0 1.4-.3z"/><path fill="#ffed00" d="M248.6 249.7a3.8 3.8 0 0 1-1.1-3 9.9 9.9 0 0 1 .8-3.7c15.2 12 43.6 33.1 64.1 39.3a9.8 9.8 0 0 0-.2 1.7 3.5 3.5 0 0 0 1.4 3.2l-64.2-37.1a2 2 0 0 1-.8-.4zM262.3 238.1a10.8 10.8 0 0 1 5-8.6c1.5-.9 2.9-.9 3.8-.2l64.6 37.2-7.1 12.2-64.4-37.1a2.2 2.2 0 0 1-.8-.5 4 4 0 0 1-1.1-3z"/><path fill="#f9b233" d="M327.1 275.4c0 3.2 2.2 4.5 5 2.9a11 11 0 0 0 5-8.6c0-3.2-2.2-4.5-5-2.9a10.7 10.7 0 0 0-5 8.6z"/><path fill="#f39200" d="M329.4 274.1c0 1.7 1.2 2.4 2.7 1.5a5.9 5.9 0 0 0 2.7-4.6c0-1.7-1.2-2.4-2.7-1.5a5.6 5.6 0 0 0-2.7 4.6z"/><path fill="#f36d00" d="M330.8 274.4a5.9 5.9 0 0 0 2.7-4.6 1.7 1.7 0 0 0-.1-.7c.8.1 1.3.8 1.3 1.9a5.8 5.8 0 0 1-2.7 4.6c-1.3.7-2.3.3-2.6-.9a2.4 2.4 0 0 0 1.4-.3z"/><path fill="#ffed00" d="M263.4 241a3.8 3.8 0 0 1-1.1-3 9.9 9.9 0 0 1 .8-3.7c15.2 12 43.6 33.1 64.1 39.3a9.8 9.8 0 0 0-.2 1.7 3.5 3.5 0 0 0 1.4 3.2l-64.2-37.1c-.3 0-.5-.2-.8-.4zM277.3 229.5a10.8 10.8 0 0 1 5-8.6c1.5-.9 2.9-.9 3.8-.2l64.6 37.2-7.1 12.2-64.4-37.1a2.2 2.2 0 0 1-.8-.5 4 4 0 0 1-1.1-3z"/><path fill="#f9b233" d="M342.1 266.8c0 3.2 2.2 4.5 5 2.9a11 11 0 0 0 5-8.6c0-3.2-2.2-4.5-5-2.9a10.7 10.7 0 0 0-5 8.6z"/><path fill="#f39200" d="M344.4 265.4c0 1.7 1.2 2.4 2.7 1.5a5.9 5.9 0 0 0 2.7-4.6c0-1.7-1.2-2.4-2.7-1.5a5.8 5.8 0 0 0-2.7 4.6z"/><path fill="#f36d00" d="M345.8 265.7a5.9 5.9 0 0 0 2.7-4.6 1.7 1.7 0 0 0-.1-.7c.8.1 1.3.8 1.3 1.9a5.8 5.8 0 0 1-2.7 4.6c-1.3.7-2.3.3-2.6-.9a1.8 1.8 0 0 0 1.4-.3z"/><path fill="#ffed00" d="M278.4 232.4a3.8 3.8 0 0 1-1.1-3 9.9 9.9 0 0 1 .8-3.7c15.2 12 43.6 33.1 64.1 39.3a9.8 9.8 0 0 0-.2 1.7 3.5 3.5 0 0 0 1.4 3.2l-64.2-37.1c-.3 0-.5-.2-.8-.4zM292.4 221a10.8 10.8 0 0 1 5-8.6c1.5-.9 2.9-.9 3.8-.2l64.6 37.2-7.1 12.2-64.4-37.1a2.2 2.2 0 0 1-.8-.5 4 4 0 0 1-1.1-3z"/><path fill="#f9b233" d="M357.1 258.3c0 3.2 2.2 4.5 5 2.9a11 11 0 0 0 5-8.6c0-3.2-2.2-4.5-5-2.9a10.7 10.7 0 0 0-5 8.6z"/><path fill="#f39200" d="M359.4 256.9c0 1.7 1.2 2.4 2.7 1.5a5.9 5.9 0 0 0 2.7-4.6c0-1.7-1.2-2.4-2.7-1.5a5.8 5.8 0 0 0-2.7 4.6z"/><path fill="#f36d00" d="M360.9 257.2a5.9 5.9 0 0 0 2.7-4.6 1.7 1.7 0 0 0-.1-.7c.8.1 1.3.8 1.3 1.9a5.8 5.8 0 0 1-2.7 4.6c-1.3.7-2.3.3-2.6-.9a1.9 1.9 0 0 0 1.4-.3z"/><path fill="#ffed00" d="M293.5 223.9a3.8 3.8 0 0 1-1.1-3 9.9 9.9 0 0 1 .8-3.7c15.2 12 43.6 33.1 64.1 39.3a9.8 9.8 0 0 0-.2 1.7 3.5 3.5 0 0 0 1.4 3.2l-64.2-37.1a1.2 1.2 0 0 1-.8-.4z"/><path fill="#3a4245" d="M375.5 254l-96.3 55.4V305l96.3-55.4v4.4z"/><path fill="#6d7d82" d="M375.5 249.6L279.2 305l-3.7-2.1 96.2-55.5 3.8 2.2z"/><path fill="#3a4245" d="M279.3 356.6l3.8-2.2v-47.1l-3.8 2.2v47.1z"/><path fill="#475255" d="M279.3 356.6l-3.8-2.2v-47.1l3.8 2.2v47.1z"/><path fill="#6d7d82" d="M279.3 305.1l3.8 2.2-3.8 2.2-3.8-2.2 3.8-2.2z"/><path fill="#3a4245" d="M248.5 374.2l3.8-2.1V325l-3.8 2.1v47.1z"/><path fill="#475255" d="M248.5 374.2l-3.8-2.1V325l3.8 2.1v47.1z"/><path fill="#6d7d82" d="M248.5 322.8l3.8 2.2-3.8 2.1-3.8-2.1 3.8-2.2z"/><path fill="#3a4245" d="M217.7 392l3.7-2.2v-47.1l-3.8 2.2.1 47.1z"/><path fill="#475255" d="M217.6 392l-3.7-2.2v-47.1l3.7 2.2V392z"/><path fill="#6d7d82" d="M217.6 340.6l3.8 2.1-3.8 2.2-3.7-2.2 3.7-2.1z"/><path fill="#3a4245" d="M186.8 409.8l3.8-2.1v-47.1l-3.8 2.1v47.1z"/><path fill="#475255" d="M186.8 409.8l-3.8-2.1v-47.1l3.8 2.1v47.1z"/><path fill="#475255" d="M183 356.2l3.8 2.2v4.3l-3.8-2.1v-4.4z"/><path fill="#3a4245" d="M210.6 317l3.8-2.2v-47.1l-3.8 2.2V317z"/><path fill="#475255" d="M210.6 317l-3.8-2.2v-47.1l3.8 2.2V317z"/><path fill="#6d7d82" d="M210.6 265.5l3.8 2.2-3.8 2.2-3.8-2.2 3.8-2.2z"/><path fill="#3a4245" d="M179.7 334.6l3.8-2.2v-47.1l-3.8 2.2v47.1z"/><path fill="#475255" d="M179.7 334.6l-3.7-2.2v-47.1l3.7 2.2v47.1z"/><path fill="#6d7d82" d="M179.7 283.1l3.8 2.2-3.8 2.2-3.7-2.2 3.7-2.2z"/><path fill="#3a4245" d="M148.9 352.4l3.8-2.2v-47.1l-3.8 2.2v47.1z"/><path fill="#475255" d="M148.9 352.4l-3.8-2.2v-47.1l3.8 2.2v47.1z"/><path fill="#6d7d82" d="M148.9 300.9l3.8 2.2-3.8 2.2-3.8-2.2 3.8-2.2z"/><path fill="#3a4245" d="M118.1 370.2l3.7-2.2v-47.1l-3.7 2.2v47.1z"/><path fill="#475255" d="M118.1 370.2l-3.8-2.2v-47.1l3.8 2.2v47.1z"/><path fill="#6d7d82" d="M118.1 318.7l3.7 2.2-3.7 2.2-3.8-2.2 3.8-2.2z"/><path fill="#475255" d="M114.3 316.6l3.8 2.1v4.4l-3.8-2.2v-4.3z"/><path fill="#3a4245" d="M214.4 267.7l-96.3 55.4v-4.4l96.3-55.4v4.4z"/><path fill="#6d7d82" d="M214.4 263.3l-96.3 55.4-3.8-2.1 96.3-55.5 3.8 2.2z"/><path fill="#475255" d="M114.3 320.9l72.5 41.8v-4.3l-72.5-41.8v4.3z"/><path fill="#6d7d82" d="M114.3 316.6l72.5 41.8 3.8-2.2-72.5-41.8-3.8 2.2z"/><path fill="#475255" d="M210.6 269.9l61.1 35.2 3.8-2.2-64.9-37.4v4.4z"/><path fill="#6d7d82" d="M206.8 263.3l72.5 41.8 3.8-2.2-72.5-41.8-3.8 2.2z"/><path fill="#ffed00" d="M125.3 317.3a10.8 10.8 0 0 1 5-8.6c1.5-.9 2.9-.9 3.8-.2l64.6 37.2-7.1 12.2-64.4-37.1a2.2 2.2 0 0 1-.8-.5 4 4 0 0 1-1.1-3z"/><path fill="#f9b233" d="M190 354.6c0 3.2 2.2 4.5 5 2.9a11 11 0 0 0 5-8.6c0-3.2-2.2-4.5-5-2.9a11 11 0 0 0-5 8.6z"/><path fill="#f39200" d="M192.4 353.2c0 1.7 1.2 2.4 2.7 1.5a5.9 5.9 0 0 0 2.7-4.6c0-1.7-1.2-2.4-2.7-1.5a5.8 5.8 0 0 0-2.7 4.6z"/><path fill="#f36d00" d="M193.8 353.5a5.9 5.9 0 0 0 2.7-4.6 1.7 1.7 0 0 0-.1-.7c.8.1 1.3.8 1.3 1.9a5.8 5.8 0 0 1-2.7 4.6c-1.3.7-2.3.3-2.6-.9a1.9 1.9 0 0 0 1.4-.3z"/><path fill="#ffed00" d="M126.4 320.2a3.8 3.8 0 0 1-1.1-3 9.9 9.9 0 0 1 .8-3.7c15.2 12 43.6 33.1 64.1 39.3a9.8 9.8 0 0 0-.2 1.7 3.5 3.5 0 0 0 1.4 3.2l-64.2-37.1a1.2 1.2 0 0 1-.8-.4zM140.2 308.7a10.8 10.8 0 0 1 5-8.6c1.5-.9 2.9-.9 3.8-.2l64.6 37.2-7.1 12.2-64.4-37.1a2.2 2.2 0 0 1-.8-.5 4 4 0 0 1-1.1-3z"/><path fill="#f9b233" d="M204.9 346c0 3.2 2.2 4.5 5 2.9a11 11 0 0 0 5-8.6c0-3.2-2.2-4.5-5-2.9a11 11 0 0 0-5 8.6z"/><path fill="#f39200" d="M207.2 344.6c0 1.7 1.2 2.4 2.7 1.5a5.9 5.9 0 0 0 2.7-4.6c0-1.7-1.2-2.4-2.7-1.5a5.8 5.8 0 0 0-2.7 4.6z"/><path fill="#f36d00" d="M208.7 344.9a5.9 5.9 0 0 0 2.7-4.6 1.7 1.7 0 0 0-.1-.7c.8.1 1.3.8 1.3 1.9a5.8 5.8 0 0 1-2.7 4.6c-1.3.7-2.3.3-2.6-.9a1.9 1.9 0 0 0 1.4-.3z"/><path fill="#ffed00" d="M141.3 311.6a3.8 3.8 0 0 1-1.1-3 9.9 9.9 0 0 1 .8-3.7c15.2 12 43.6 33.1 64.1 39.3a9.8 9.8 0 0 0-.2 1.7 3.5 3.5 0 0 0 1.4 3.2L142.1 312a1.2 1.2 0 0 1-.8-.4zM155.1 300.1a10.8 10.8 0 0 1 5-8.6c1.5-.9 2.9-.9 3.8-.2l64.6 37.2-7.1 12.2-64.4-37.1a2.2 2.2 0 0 1-.8-.5 4 4 0 0 1-1.1-3z"/><path fill="#f9b233" d="M219.8 337.4c0 3.2 2.2 4.5 5 2.9a11 11 0 0 0 5-8.6c0-3.2-2.2-4.5-5-2.9a10.7 10.7 0 0 0-5 8.6z"/><path fill="#f39200" d="M222.1 336c0 1.7 1.2 2.4 2.7 1.5a5.9 5.9 0 0 0 2.7-4.6c0-1.7-1.2-2.4-2.7-1.5a5.8 5.8 0 0 0-2.7 4.6z"/><path fill="#f36d00" d="M223.6 336.3a5.9 5.9 0 0 0 2.7-4.6 1.7 1.7 0 0 0-.1-.7c.8.1 1.3.8 1.3 1.9a5.8 5.8 0 0 1-2.7 4.6c-1.3.7-2.3.3-2.6-.9a1.9 1.9 0 0 0 1.4-.3z"/><path fill="#ffed00" d="M156.2 303a3.8 3.8 0 0 1-1.1-3 9.9 9.9 0 0 1 .8-3.7c15.2 12 43.6 33.1 64.1 39.3a9.8 9.8 0 0 0-.2 1.7 3.5 3.5 0 0 0 1.4 3.2L157 303.4a1.2 1.2 0 0 1-.8-.4zM169.9 291.4a10.8 10.8 0 0 1 5-8.6c1.5-.9 2.9-.9 3.8-.2l64.6 37.2-7.1 12.2-64.4-37.1a2.2 2.2 0 0 1-.8-.5 4 4 0 0 1-1.1-3z"/><path fill="#f9b233" d="M234.7 328.7c0 3.2 2.2 4.5 5 2.9a11 11 0 0 0 5-8.6c0-3.2-2.2-4.5-5-2.9a10.8 10.8 0 0 0-5 8.6z"/><path fill="#f39200" d="M237 327.4c0 1.7 1.2 2.4 2.7 1.5a5.9 5.9 0 0 0 2.7-4.6c0-1.7-1.2-2.4-2.7-1.5a5.8 5.8 0 0 0-2.7 4.6z"/><path fill="#f36d00" d="M238.4 327.7a5.9 5.9 0 0 0 2.7-4.6 1.7 1.7 0 0 0-.1-.7c.8.1 1.3.8 1.3 1.9a5.8 5.8 0 0 1-2.7 4.6c-1.3.7-2.3.3-2.6-.9a1.9 1.9 0 0 0 1.4-.3z"/><path fill="#ffed00" d="M171 294.4a3.8 3.8 0 0 1-1.1-3 9.9 9.9 0 0 1 .8-3.7c15.2 12 43.6 33.1 64.1 39.3a9.8 9.8 0 0 0-.2 1.7 3.5 3.5 0 0 0 1.4 3.2l-64.2-37.1a2 2 0 0 1-.8-.4zM184.9 282.8a10.8 10.8 0 0 1 5-8.6c1.5-.9 2.9-.9 3.8-.2l64.6 37.2-7.1 12.2-64.4-37.1a2.2 2.2 0 0 1-.8-.5 4 4 0 0 1-1.1-3z"/><path fill="#f9b233" d="M249.6 320.1c0 3.2 2.2 4.5 5 2.9a11 11 0 0 0 5-8.6c0-3.2-2.2-4.5-5-2.9a11.1 11.1 0 0 0-5 8.6z"/><path fill="#f39200" d="M252 318.8c0 1.7 1.2 2.4 2.7 1.5a5.9 5.9 0 0 0 2.7-4.6c0-1.7-1.2-2.4-2.7-1.5a5.8 5.8 0 0 0-2.7 4.6z"/><path fill="#f36d00" d="M253.4 319.1a5.9 5.9 0 0 0 2.7-4.6 1.7 1.7 0 0 0-.1-.7c.8.1 1.3.8 1.3 1.9a5.8 5.8 0 0 1-2.7 4.6c-1.3.7-2.3.3-2.6-.9a1.9 1.9 0 0 0 1.4-.3z"/><path fill="#ffed00" d="M186 285.8a3.8 3.8 0 0 1-1.1-3 9.9 9.9 0 0 1 .8-3.7c15.2 12 43.6 33.1 64.1 39.3a9.8 9.8 0 0 0-.2 1.7 3.5 3.5 0 0 0 1.4 3.2l-64.2-37.1a2 2 0 0 1-.8-.4zM200 274.3a10.8 10.8 0 0 1 5-8.6c1.5-.9 2.9-.9 3.8-.2l64.6 37.2-7.1 12.2-64.4-37.1a2.2 2.2 0 0 1-.8-.5 3.7 3.7 0 0 1-1.1-3z"/><path fill="#f9b233" d="M264.7 311.6c0 3.2 2.2 4.5 5 2.9a11 11 0 0 0 5-8.6c0-3.2-2.2-4.5-5-2.9a10.7 10.7 0 0 0-5 8.6z"/><path fill="#f39200" d="M267 310.3c0 1.7 1.2 2.4 2.7 1.5a5.9 5.9 0 0 0 2.7-4.6c0-1.7-1.2-2.4-2.7-1.5a5.8 5.8 0 0 0-2.7 4.6z"/><path fill="#f36d00" d="M268.4 310.6a5.9 5.9 0 0 0 2.7-4.6 1.7 1.7 0 0 0-.1-.7c.8.1 1.3.8 1.3 1.9a5.8 5.8 0 0 1-2.7 4.6c-1.3.7-2.3.3-2.6-.9a1.8 1.8 0 0 0 1.4-.3z"/><path fill="#ffed00" d="M201 277.2a3.8 3.8 0 0 1-1.1-3 9.9 9.9 0 0 1 .8-3.7c15.2 12 43.6 33.1 64.1 39.3a9.8 9.8 0 0 0-.2 1.7 3.5 3.5 0 0 0 1.4 3.2l-64.2-37.1a1 1 0 0 1-.8-.4z"/><path fill="#3a4245" d="M283.1 307.3l-96.3 55.4v-4.3l96.3-55.5v4.4z"/><path fill="#6d7d82" d="M283.1 302.9l-96.3 55.5-3.8-2.2 96.3-55.4 3.8 2.1z"/><path fill="#475255" d="M119.2 432.3l75.8-43.7v-37.5l-75.8 43.7v37.5z"/><path fill="#3a4245" d="M119.2 432.3l-75.7-43.7v-37.5l75.7 43.7v37.5z"/><path fill="#475255" d="M119.2 307.4l75.8 43.7-75.8 43.7-75.7-43.7 75.7-43.7z"/><path fill="#f9b233" d="M119.2 394.8v-79l9.9-26.8 65.9-38v100.1l-75.8 43.7z"/><path fill="#3a4245" d="M43.5 351.1v-79l9.9-26.8 65.8-38v100.1l-75.7 43.7z"/><path fill="#ffed00" d="M119.2 207.3L195 251l-65.9 38-75.7-43.7 65.8-38z"/><path fill="#f3a200" d="M53.4 245.3l-9.9 26.8 75.7 43.7 9.9-26.8-75.7-43.7z"/><path fill="#f38a00" d="M119.2 315.8v79l-8.5-4.9v-62.8l-61.9-35.7v62.8l-5.3-3.1v-79l75.7 43.7z"/><path fill="#f36d00" d="M55.8 295.4l-7-4v62.8l7-4v-54.8z"/><path fill="#3a4245" d="M184.6 384.1l-24 13.9v-1.5l24-13.9v1.5zM184.6 381.7l-24 13.8V394l24-13.8v1.5zM184.6 379.2l-24 13.9v-1.5l24-13.9v1.5zM184.6 376.8l-24 13.8v-1.5l24-13.8v1.5zM184.6 374.3l-24 13.9v-1.5l24-13.9v1.5zM184.6 371.9l-24 13.8v-1.5l24-13.8v1.5zM184.6 369.4l-24 13.9v-1.5l24-13.9v1.5zM154.9 401.3l-24 13.8v-1.4l24-13.9v1.5zM154.9 398.8l-24 13.9v-1.5l24-13.8v1.4zM154.9 396.4l-24 13.8v-1.4l24-13.9v1.5zM154.9 393.9l-24 13.9v-1.5l24-13.8v1.4zM154.9 391.5l-24 13.8v-1.4l24-13.9v1.5zM154.9 389l-24 13.9v-1.5l24-13.8v1.4zM154.9 386.6l-24 13.8V399l24-13.9v1.5z"/><path fill="#f9b233" d="M120.2 215.5l60.6 35-52.7 30.3-60.5-34.9 52.6-30.4z"/><path fill="#f3a200" d="M120.2 222.1l-46.9 27.1-5.7-3.3 52.6-30.4 60.6 35-5.8 3.3-54.8-31.7z"/><path fill="#3a4245" d="M63.4 463.6l-5.2-3v-52.7l5.2 3v52.7z"/><path fill="#475255" d="M63.4 463.6l5.1-3v-52.7l-5.1 3v52.7z"/><path fill="#3a4245" d="M13.4 434.7l-5.2-3v-47.5l5.2 3v47.5z"/><path fill="#475255" d="M13.4 434.7l5.1-3v-47.5l-5.1 3v47.5z"/><path fill="#6d7d82" d="M51.6 421.9l51.6-29.8v-6.4l-51.6 29.7v6.5z"/><path fill="#475255" d="M51.6 361.3v6.4l36.7 21.2 5.6-3.2-42.3-24.4z"/><path fill="#6d7d82" d="M9.3 385.7l5.6 3.2 36.7-21.2v-6.4L9.3 385.7z"/><path fill="#ffed00" d="M9.7 389.9a6.9 6.9 0 0 1 3.1-5.3 2.1 2.1 0 0 1 2.3-.1l39.5 22.8-4.4 7.4L10.8 392l-.5-.3a3 3 0 0 1-.6-1.8z"/><path fill="#f9b233" d="M49.3 412.7c0 1.9 1.4 2.7 3.1 1.8a6.7 6.7 0 0 0 3.1-5.3c0-1.9-1.4-2.7-3.1-1.8a6.9 6.9 0 0 0-3.1 5.3z"/><path fill="#f39200" d="M50.8 411.9c0 1 .7 1.5 1.6.9A3.6 3.6 0 0 0 54 410c0-1-.7-1.5-1.6-.9a3.7 3.7 0 0 0-1.6 2.8z"/><path fill="#f36d00" d="M51.6 412.1a3.6 3.6 0 0 0 1.6-2.8v-.4c.5.1.8.5.8 1.2a3.6 3.6 0 0 1-1.6 2.8c-.8.4-1.4.2-1.6-.5a4.1 4.1 0 0 0 .8-.3z"/><path fill="#ffed00" d="M10.4 391.7a2.5 2.5 0 0 1-.7-1.8 6.8 6.8 0 0 1 .5-2.3c9.3 7.4 26.7 20.2 39.2 24.1a3.4 3.4 0 0 0-.1 1 2 2 0 0 0 .9 1.9l-39.3-22.7a.8.8 0 0 1-.5-.2zM18.8 384.6a6.9 6.9 0 0 1 3.1-5.3 2.1 2.1 0 0 1 2.3-.1L63.7 402l-4.4 7.4-39.4-22.7-.5-.3a3 3 0 0 1-.6-1.8z"/><path fill="#f9b233" d="M58.4 407.5c0 1.9 1.4 2.7 3.1 1.8a6.7 6.7 0 0 0 3.1-5.3c0-1.9-1.4-2.7-3.1-1.8a6.6 6.6 0 0 0-3.1 5.3z"/><path fill="#f39200" d="M59.9 406.6c0 1 .7 1.5 1.6.9a3.6 3.6 0 0 0 1.6-2.8c0-1-.7-1.5-1.6-.9a3.6 3.6 0 0 0-1.6 2.8z"/><path fill="#f36d00" d="M60.7 406.8a3.6 3.6 0 0 0 1.6-2.8v-.4c.5.1.8.5.8 1.2a3.6 3.6 0 0 1-1.6 2.8c-.8.4-1.4.2-1.6-.5a1.6 1.6 0 0 0 .8-.3z"/><path fill="#ffed00" d="M19.5 386.4a2.5 2.5 0 0 1-.7-1.8 6.8 6.8 0 0 1 .5-2.3c9.3 7.4 26.7 20.2 39.2 24.1a3.4 3.4 0 0 0-.1 1 2 2 0 0 0 .9 1.9L20 386.6a.4.4 0 0 1-.5-.2zM27.9 379.3A6.9 6.9 0 0 1 31 374a2.1 2.1 0 0 1 2.3-.1l39.5 22.8-4.4 7.4-39.3-22.7-.5-.3a2.2 2.2 0 0 1-.7-1.8z"/><path fill="#f9b233" d="M67.5 402.2c0 1.9 1.4 2.7 3.1 1.8a6.7 6.7 0 0 0 3.1-5.3c0-1.9-1.4-2.7-3.1-1.8a6.7 6.7 0 0 0-3.1 5.3z"/><path fill="#f39200" d="M68.9 401.4c0 1 .7 1.5 1.6.9a3.6 3.6 0 0 0 1.6-2.8c0-1-.7-1.5-1.6-.9a3.5 3.5 0 0 0-1.6 2.8z"/><path fill="#f36d00" d="M69.8 401.5a3.6 3.6 0 0 0 1.6-2.8v-.4c.5.1.8.5.8 1.2a3.6 3.6 0 0 1-1.6 2.8c-.8.4-1.4.2-1.6-.5a1.6 1.6 0 0 0 .8-.3z"/><path fill="#ffed00" d="M28.6 381.2a2.5 2.5 0 0 1-.7-1.8 6.8 6.8 0 0 1 .5-2.3c9.3 7.4 26.7 20.2 39.2 24.1a3.4 3.4 0 0 0-.1 1 2 2 0 0 0 .9 1.9l-39.3-22.7a.8.8 0 0 1-.5-.2zM37.1 374.1a6.9 6.9 0 0 1 3.1-5.3 2.1 2.1 0 0 1 2.3-.1L82 391.5l-4.4 7.4-39.4-22.7-.5-.3a2.4 2.4 0 0 1-.6-1.8z"/><path fill="#f9b233" d="M76.7 396.9c0 1.9 1.4 2.7 3.1 1.8a6.7 6.7 0 0 0 3.1-5.3c0-1.9-1.4-2.7-3.1-1.8a6.7 6.7 0 0 0-3.1 5.3z"/><path fill="#f39200" d="M78.1 396.1c0 1 .7 1.5 1.6.9a3.6 3.6 0 0 0 1.6-2.8c0-1-.7-1.5-1.6-.9a3.7 3.7 0 0 0-1.6 2.8z"/><path fill="#f36d00" d="M79 396.3a3.6 3.6 0 0 0 1.6-2.8v-.4c.5.1.8.5.8 1.2a3.6 3.6 0 0 1-1.6 2.8c-.8.4-1.4.2-1.6-.5a6.9 6.9 0 0 1 .8-.3z"/><path fill="#ffed00" d="M37.8 375.9a2.5 2.5 0 0 1-.7-1.8 6.8 6.8 0 0 1 .5-2.3c9.3 7.4 26.7 20.2 39.2 24.1a3.4 3.4 0 0 0-.1 1 2 2 0 0 0 .9 1.9l-39.3-22.7a.8.8 0 0 1-.5-.2zM46.3 368.9a6.9 6.9 0 0 1 3.1-5.3 2.1 2.1 0 0 1 2.3-.1l39.5 22.8-4.4 7.4L47.4 371l-.5-.3a2.4 2.4 0 0 1-.6-1.8z"/><path fill="#f9b233" d="M85.9 391.7c0 1.9 1.4 2.7 3.1 1.8a6.7 6.7 0 0 0 3.1-5.3c0-1.9-1.4-2.7-3.1-1.8a6.7 6.7 0 0 0-3.1 5.3z"/><path fill="#f39200" d="M87.3 390.9c0 1 .7 1.5 1.6.9a3.6 3.6 0 0 0 1.6-2.8c0-1-.7-1.5-1.6-.9a3.7 3.7 0 0 0-1.6 2.8z"/><path fill="#f36d00" d="M88.2 391.1a3.6 3.6 0 0 0 1.6-2.8v-.4c.5.1.8.5.8 1.2a3.6 3.6 0 0 1-1.6 2.8c-.8.4-1.4.2-1.6-.5a6.9 6.9 0 0 1 .8-.3z"/><path fill="#ffed00" d="M47 370.7a2.5 2.5 0 0 1-.7-1.8 6.8 6.8 0 0 1 .5-2.3c9.3 7.4 26.7 20.2 39.2 24.1a3.4 3.4 0 0 0-.1 1 2 2 0 0 0 .9 1.9l-39.3-22.7a.8.8 0 0 1-.5-.2z"/><path fill="#8fa4ab" d="M0 385.7l51.6 29.7 51.6-29.8-51.6-29.7zm51.6 24.4L9.3 385.7l42.3-24.4 42.3 24.4z"/><path fill="#6d7d82" d="M108.6 325.9v59.2l-4.2-2.5v-59.1l4.2 2.4zM102.9 322.7v59.1l-4.2-2.4v-59.2l4.2 2.5zM97.2 319.4v59.1l-4.2-2.4V317l4.2 2.4zM91.6 316.1v59.1l-4.2-2.4v-59.1l4.2 2.4zM85.9 312.9V372l-4.2-2.4v-59.1l4.2 2.4zM80.3 309.6v59.1l-4.2-2.4v-59.1l4.2 2.4zM74.6 306.4v59.1l-4.2-2.5v-59.1l4.2 2.5zM69 303.1v59.1l-4.2-2.4v-59.1l4.2 2.4zM63.3 299.8V359l-4.2-2.5v-59.1l4.2 2.4zM57.6 296.6v59.1l-4.2-2.4v-59.2l4.2 2.5zM128.7 361.6l11.1-6.4v-37.7l-11.1 6.4v37.7z"/><path fill="#475255" d="M128.7 361.6l-5-2.8v-37.7l5 2.8v37.7z"/><path fill="#8fa4ab" d="M134.8 314.7l5 2.8-11.1 6.4-5-2.8 11.1-6.4z"/><path fill="#3a4245" d="M133.3 349.3a2.9 2.9 0 0 1 1.3-2.3 1 1 0 0 1 .9-.1l1 .6-1.9 3.3-.9-.5a1.5 1.5 0 0 1-.4-1z"/><path fill="#475255" d="M134.3 349.9c0 .9.6 1.2 1.3.8a3 3 0 0 0 1.3-2.3c0-.8-.6-1.2-1.3-.8a3 3 0 0 0-1.3 2.3z"/><path fill="#3a4245" d="M133.3 354.9a2.9 2.9 0 0 1 1.3-2.3 1 1 0 0 1 .9-.1l1 .6-1.9 3.3-.9-.5a1.8 1.8 0 0 1-.4-1z"/><path fill="#475255" d="M134.3 355.5c0 .9.6 1.2 1.3.8a3 3 0 0 0 1.3-2.3c0-.8-.6-1.2-1.3-.8a2.9 2.9 0 0 0-1.3 2.3z"/><path fill="#00c3f9" d="M129.8 349l8.9-5.2v-23.9l-8.9 5.1v24z"/><path fill="#0096db" d="M138.1 343.2v-22.9l.6-.4v23.9l-8.9 5.2v-1l8.3-4.8z"/><path fill="#fff" d="M138.4 344l-4.8 2.8-3.8-4.8v-8.9l8.6 10.9z"/><path fill="#475255" d="M51.6 421.9L0 392.1v-6.4l51.6 29.7v6.5z"/><ellipse cx="123.7" cy="246.4" fill="#8fa4ab" rx="10.9" ry="6.3"/><path fill="#475255" d="M116 250.9a16.7 16.7 0 0 0 15.4 0c2.1-1.2 3.2-2.8 3.2-4.4v4.1c0 1.6-1.1 3.2-3.2 4.4a16.7 16.7 0 0 1-15.4 0c-2.1-1.2-3.2-2.8-3.2-4.4v-4.2c0 1.6 1.1 3.3 3.2 4.5z"/><path fill="#3a4245" d="M120.5 256.5a12.7 12.7 0 0 1-4.5-1.6c-2.1-1.2-3.2-2.8-3.2-4.4v-4.1c0 1.6 1.1 3.2 3.2 4.4a15.8 15.8 0 0 0 4 1.5 12.1 12.1 0 0 0 .5 4.2z"/><path fill="red" d="M123.7 227.9a8.2 8.2 0 0 1 8.2 8.2v10.3c0 1.2-.8 2.4-2.4 3.4a12.5 12.5 0 0 1-11.6 0 4 4 0 0 1-2.4-3.4V236a8.2 8.2 0 0 1 8.2-8.1z"/><path fill="#db0000" d="M126 251a12.3 12.3 0 0 1-8.1-1.2 4 4 0 0 1-2.4-3.4V236a8.3 8.3 0 0 1 4.1-7.1c-1 6.4-1.8 18 6.4 22.1z"/><path fill="#3a4245" d="M504 382.8l3.8-2.2v-47.1l-3.8 2.2v47.1z"/><path fill="#475255" d="M504 382.8l-3.8-2.2v-47.1l3.8 2.2v47.1z"/><path fill="#6d7d82" d="M504 331.3l3.8 2.2-3.8 2.2-3.8-2.2 3.8-2.2z"/><path fill="#3a4245" d="M473.2 400.4l3.8-2.2v-47.1l-3.8 2.2v47.1z"/><path fill="#475255" d="M473.2 400.4l-3.8-2.2v-47.1l3.8 2.2v47.1z"/><path fill="#6d7d82" d="M473.2 349l3.8 2.1-3.8 2.2-3.8-2.2 3.8-2.1z"/><path fill="#3a4245" d="M442.3 418.2l3.8-2.2v-47.1l-3.8 2.2v47.1z"/><path fill="#475255" d="M442.3 418.2l-3.8-2.2v-47.1l3.8 2.2v47.1z"/><path fill="#6d7d82" d="M442.3 366.7l3.8 2.2-3.8 2.2-3.8-2.2 3.8-2.2z"/><path fill="#3a4245" d="M411.5 436l3.8-2.2v-47.1l-3.8 2.2V436z"/><path fill="#475255" d="M411.5 436l-3.8-2.2v-47.1l3.8 2.2V436z"/><path fill="#475255" d="M407.7 382.4l3.8 2.2v4.3l-3.8-2.2v-4.3z"/><path fill="#3a4245" d="M435.3 343.1l3.7-2.2v-47l-3.7 2.1v47.1z"/><path fill="#475255" d="M435.3 343.1l-3.8-2.2v-47l3.8 2.1v47.1z"/><path fill="#6d7d82" d="M435.3 291.7l3.7 2.2-3.7 2.1-3.8-2.1 3.8-2.2z"/><path fill="#3a4245" d="M404.4 360.8l3.8-2.2v-47.1l-3.8 2.2v47.1z"/><path fill="#475255" d="M404.4 360.8l-3.8-2.2v-47.1l3.8 2.2v47.1z"/><path fill="#6d7d82" d="M404.4 309.3l3.8 2.2-3.8 2.2-3.8-2.2 3.8-2.2z"/><path fill="#3a4245" d="M373.6 378.6l3.8-2.2v-47.1l-3.8 2.2v47.1z"/><path fill="#475255" d="M373.6 378.6l-3.8-2.2v-47.1l3.8 2.2v47.1z"/><path fill="#6d7d82" d="M373.6 327.1l3.8 2.2-3.8 2.2-3.8-2.2 3.8-2.2z"/><path fill="#3a4245" d="M342.7 396.4l3.8-2.2v-47.1l-3.8 2.2v47.1z"/><path fill="#475255" d="M342.7 396.4l-3.7-2.2v-47.1l3.7 2.2v47.1z"/><path fill="#6d7d82" d="M342.7 344.9l3.8 2.2-3.8 2.2-3.7-2.2 3.7-2.2z"/><path fill="#475255" d="M339 342.7l3.7 2.2v4.4l-3.7-2.2v-4.4z"/><path fill="#3a4245" d="M439 293.9l-96.3 55.4v-4.4l96.3-55.4v4.4z"/><path fill="#6d7d82" d="M439 289.5l-96.3 55.4-3.7-2.2 96.3-55.4 3.7 2.2z"/><path fill="#475255" d="M339 347.1l72.5 41.8v-4.3L339 342.7v4.4z"/><path fill="#6d7d82" d="M339 342.7l72.5 41.9 3.8-2.2-72.6-41.8-3.7 2.1z"/><path fill="#475255" d="M435.3 296l61.1 35.3 3.8-2.2-64.9-37.4v4.3z"/><path fill="#6d7d82" d="M431.5 289.5l72.5 41.8 3.8-2.2-72.5-41.8-3.8 2.2z"/><path fill="#3a4245" d="M507.8 333.5l-96.3 55.4v-4.3l96.3-55.5v4.4z"/><path fill="#6d7d82" d="M507.8 329.1l-96.3 55.5-3.8-2.2 96.3-55.5 3.8 2.2z"/><path fill="#475255" d="M422.6 392L339 343.8v-10.6l83.6 48.2V392z"/><path fill="#3a4245" d="M422.6 392l83.7-48.2v-10.6l-83.7 48.2V392z"/><path fill="#8fa4ab" d="M422.6 284.9L339 333.2l83.6 48.2 83.7-48.2-83.7-48.3z"/><path fill="#6d7d82" d="M447.6 241.8l-64.5 37.3 51.6 29.7 64.5-37.3-51.6-29.7z"/><path fill="#475255" d="M378.4 350.8V292l4.7-12.9 51.6 29.7v74.5l-56.3-32.5z"/><path fill="#3a4245" d="M434.7 308.8l64.5-37.3V346l-64.5 37.3v-74.5z"/><path fill="#6d7d82" d="M509.7 315.5l-75.1 43.4-7.6-4.4 75.2-43.4 7.5 4.4z"/><path fill="#475255" d="M434.6 358.9v34.9l-7.6-4.3v-35l7.6 4.4z"/><path fill="#3a4245" d="M509.7 350.5l-75.1 43.3v-35l75.1-43.4v35.1z"/><path fill="#6d7d82" d="M496.1 260.7l-50.4 29-5-2.9 50.3-29 5.1 2.9z"/><path fill="#475255" d="M445.7 289.7v61.1l-5-3v-61l5 2.9z"/><path fill="#3a4245" d="M496.1 321.7l-50.4 29.1v-61.1l50.4-29v61z"/><path fill="#f9b233" d="M434.6 379.5l16.6 24-16.6-9.7v-14.3z"/><path fill="#ffed00" d="M509.7 336.1l16.7 24-75.2 43.4-16.6-24 75.1-43.4z"/><path fill="#00c3f9" d="M490.5 318.1l-39.2 22.6v-47.4l39.2-22.6v47.4z"/><path fill="#0096db" d="M490.5 270.7l-2 1.2v44.3l-37.2 21.4v3.1l39.2-22.6v-47.4z"/><path fill="#fff" d="M490.5 274.8l-39.2 44.9v21l22.8-13.1 16.4-18.8v-34z"/><path fill="#8fa4ab" d="M424.2 322v39.3l-4.2-2.4v-31.2l-30.8-17.8v31.2l-2.6-1.5-3.5-37.3 3.5-2 37.6 21.7z"/><path fill="#3a4245" d="M385.8 343.1l30.7 17.7v-31.2l-27.3-15.7v27.2l-3.4 2z"/><path fill="#6d7d82" d="M420.8 324v39.3l-4.3-2.5v-31.2l-30.7-17.7v31.2l-2.7-1.5v-39.3l37.7 21.7z"/><path fill="#475255" d="M389.2 313.9l-3.4-2v31.2l3.4-2v-27.2z"/><path fill="#f9b233" d="M415.5 329v29.4l-2.1-1.2v-29.4l2.1 1.2zM412.7 327.4v29.4l-2.1-1.2v-29.4l2.1 1.2zM409.8 325.8v29.4l-2-1.2v-29.4l2 1.2zM407 324.2v29.3l-2.1-1.2V323l2.1 1.2zM404.2 322.6v29.3l-2.1-1.2v-29.3l2.1 1.2zM401.4 320.9v29.4l-2.1-1.2v-29.4l2.1 1.2zM398.6 319.3v29.4l-2.1-1.2v-29.4l2.1 1.2zM395.8 317.7v29.4l-2.1-1.2v-29.4l2.1 1.2zM393 316.1v29.3l-2.1-1.2v-29.3l2.1 1.2zM390.2 314.5v29.3l-2.1-1.2v-29.4l2.1 1.3z"/><path fill="#3a4245" d="M420.8 324l3.4-2v39.3l-3.4 2V324z"/><path fill="#f0af1f" d="M468.8 306.6v16.1l-13.7-7.9v-16.2l13.7 8z"/><path fill="#fff" d="M468.8 306.6l17.2-10-13.7-7.9-17.2 9.9 13.7 8z"/><path fill="#ffd600" d="M476.3 302.2l3.4-1.9-13.7-8-3.4 2 13.7 7.9z"/><path fill="#ffd600" d="M468.8 322.7l17.2-9.9v-16.2l-17.2 10v16.1z"/><path fill="#255468" d="M479.2 305.9l5.3-3.1v-3.6l-5.3 3.1v3.6z"/><path fill="#7cccbf" d="M481.9 310.1l2.6-1.6v-3.6l-2.6 1.6v3.6z"/><path fill="#f0af1f" d="M382.4 190.2v39.5l33.4-19.4v-39.4l-33.4 19.3z"/><path fill="#d66f2a" d="M382.4 190.2L340.5 166l33.4-19.3 41.9 24.2-33.4 19.3z"/><path fill="#fff" d="M403.3 192.6l-21-2.4 33.4-19.4 21 2.4-33.4 19.4z"/><path fill="#ffd600" d="M341.2 166.1l-21-21.8 33.4-19.4 21 21.8-33.4 19.4zM382.4 229.7l-41.9-24.2V166l41.9 24.2v39.5z"/><path fill="#255468" d="M357.2 188.5l-13.1-7.5v-8.8l13.1 7.6v8.7z"/><path fill="#7cccbf" d="M350.6 198.8l-6.5-3.7v-8.8l6.5 3.8v8.7z"/><path fill="#fff" d="M365.7 190.3l-41.9-24.2h16.7l41.9 24.2h-16.7z"/><path fill="#ffd600" d="M415 170.4l-40.4-23.3 16.7-19.3 40.4 23.2-16.7 19.4z"/><path fill="#f0af1f" d="M374.6 146.7v39l7.8 4.6 33.3-19.5-41.1-24.1z"/></svg>