<svg xmlns="http://www.w3.org/2000/svg" viewBox="0 0 2318.5 662.5"><defs><linearGradient id="a" x1="1153.2" x2="1153.2" y1="-1934.2" y2="-1456.3" gradientTransform="matrix(1 0 0 -1 0 -1412.7)" gradientUnits="userSpaceOnUse"><stop offset="0" stop-color="#fff" stop-opacity=".4"/><stop offset="1" stop-color="#fff" stop-opacity="0"/></linearGradient></defs><path fill="#20619b" fill-rule="evenodd" d="M2347-43l-57-45.6-1801.6 3L-39-52.8l17.1 596.6s156.3.6 479.3-3.4 474.3-38.7 635-174c366-290 1.8 221.8 301 64 197-104 316.9-344 544.2-363 24.6-2 464.7.4 409.5-110.5z"/><path fill="url(#a)" fill-rule="evenodd" d="M2318.5 0H-9.2L-12 553c3.4-1.5 262.5 8.6 479.6-102.2s486-96.6 720.9 39.8q353 204.9 722.3 1c2.9-1.6 403.3-135.2 406.2-136.9l1.6-144.6z"/></svg>