<svg xmlns="http://www.w3.org/2000/svg" xmlns:xlink="http://www.w3.org/1999/xlink" viewBox="0 0 88.72 133.28"><defs><style>.cls-1{fill:url(#_ÂÁ_Ï_ÌÌ_È_ËÂÌÚ_17);}.cls-2{fill:#255468;}.cls-3{fill:url(#_ÂÁ_Ï_ÌÌ_È_ËÂÌÚ_20);}.cls-4{fill:#fff;}.cls-5{fill:url(#_ÂÁ_Ï_ÌÌ_È_ËÂÌÚ_17-2);}.cls-6{fill:#01384d;}.cls-7{fill:#84c2eb;}.cls-8{fill:#57a8dd;}.cls-9{fill:url(#_ÂÁ_Ï_ÌÌ_È_ËÂÌÚ_14);}.cls-10{fill:url(#_ÂÁ_Ï_ÌÌ_È_ËÂÌÚ_14-2);}.cls-11{fill:url(#_ÂÁ_Ï_ÌÌ_È_ËÂÌÚ_21);}.cls-12{fill:url(#_ÂÁ_Ï_ÌÌ_È_ËÂÌÚ_21-2);}.cls-13{fill:#009bd1;}.cls-14{fill:#f0af1f;}.cls-15{fill:#d66f2a;}.cls-16{fill:#ffd600;}.cls-17{fill:#7cccbf;}</style><linearGradient id="_ÂÁ_Ï_ÌÌ_È_ËÂÌÚ_17" x1="-1354.78" y1="97.59" x2="-1307.84" y2="97.59" gradientTransform="translate(1385.88)" gradientUnits="userSpaceOnUse"><stop offset="0" stop-color="#255468"/><stop offset="1" stop-color="#01384d"/></linearGradient><linearGradient id="_ÂÁ_Ï_ÌÌ_È_ËÂÌÚ_20" x1="-1356.17" y1="83.18" x2="-1331.95" y2="125.14" gradientTransform="translate(1385.88)" gradientUnits="userSpaceOnUse"><stop offset="0" stop-color="#fff"/><stop offset="1" stop-color="#96c2e0"/></linearGradient><linearGradient id="_ÂÁ_Ï_ÌÌ_È_ËÂÌÚ_17-2" x1="-1383.54" y1="113.39" x2="-1336.61" y2="113.39" xlink:href="#_ÂÁ_Ï_ÌÌ_È_ËÂÌÚ_17"/><linearGradient id="_ÂÁ_Ï_ÌÌ_È_ËÂÌÚ_14" x1="-1368.77" y1="68.77" x2="-1322.62" y2="68.77" gradientTransform="translate(1385.88)" gradientUnits="userSpaceOnUse"><stop offset="0" stop-color="#96c2e0"/><stop offset="1" stop-color="#fff"/></linearGradient><linearGradient id="_ÂÁ_Ï_ÌÌ_È_ËÂÌÚ_14-2" x1="-1363.8" y1="34.57" x2="-1343.78" y2="-0.11" xlink:href="#_ÂÁ_Ï_ÌÌ_È_ËÂÌÚ_14"/><linearGradient id="_ÂÁ_Ï_ÌÌ_È_ËÂÌÚ_21" x1="-1356.06" y1="22.48" x2="-1333.53" y2="22.48" gradientTransform="translate(1385.88)" gradientUnits="userSpaceOnUse"><stop offset="0" stop-color="#01384d"/><stop offset="1" stop-color="#255468"/></linearGradient><linearGradient id="_ÂÁ_Ï_ÌÌ_È_ËÂÌÚ_21-2" x1="-1345.69" y1="56.76" x2="-1329.67" y2="56.76" xlink:href="#_ÂÁ_Ï_ÌÌ_È_ËÂÌÚ_21"/></defs><title>logo</title><g id="Layer_2" data-name="Layer 2"><g id="Layer_1-2" data-name="Layer 1"><path class="cls-1" d="M78,108a17.46,17.46,0,0,0-7.9-13.68l-25.9-15c-2.16-1.24-4.11-1.37-5.54-.57h0l0,0h0L31.1,82.63l37.16,34.25,7.34-3.69.24-.14L76,113h0C77.25,112.08,78,110.38,78,108Z"/><path class="cls-2" d="M62.56,116.4l-25.9-15a17.46,17.46,0,0,1-7.9-13.68c0-5,3.54-7.08,7.9-4.56l25.9,15a17.45,17.45,0,0,1,7.9,13.68C70.46,116.87,66.93,118.92,62.56,116.4Z"/><path class="cls-3" d="M70.46,111.83a17.45,17.45,0,0,0-7.9-13.68l-25.9-15c-2.16-1.25-4.11-1.38-5.54-.58h0l0,0h0l-21.15,12,37.16,34.25L68,117a2,2,0,0,0,.25-.14l.13-.08h0C69.67,115.9,70.46,114.21,70.46,111.83Z"/><path class="cls-4" d="M41.38,128.38l-25.9-15c-4.37-2.51-7.9-8.64-7.9-13.68s3.53-7.08,7.9-4.56l25.9,14.95a17.48,17.48,0,0,1,7.9,13.69C49.28,128.85,45.74,130.9,41.38,128.38Z"/><path class="cls-5" d="M49.28,123.82a17.48,17.48,0,0,0-7.9-13.69L15.48,95.18c-2.16-1.25-4.12-1.37-5.54-.58h0l0,0h0l-7.55,3.8L39.5,132.69l7.34-3.7.24-.14.13-.08h0C48.49,127.88,49.28,126.19,49.28,123.82Z"/><path class="cls-6" d="M33.8,132.2,7.9,117.25A17.48,17.48,0,0,1,0,103.56c0-5,3.54-7.08,7.9-4.56l25.9,15a17.48,17.48,0,0,1,7.9,13.69C41.7,132.68,38.16,134.72,33.8,132.2Z"/><path class="cls-7" d="M37.33,130.84a4.67,4.67,0,0,1-2.31-.76l-25.9-15a15,15,0,0,1-6.68-11.57c0-1.19.25-3.2,1.93-3.2a4.78,4.78,0,0,1,2.31.76l25.9,14.95a15,15,0,0,1,6.68,11.57C39.26,128.83,39,130.84,37.33,130.84Z"/><path class="cls-6" d="M55.05,82.77H25.34V97.31c0,2.2,1.45,4.39,4.35,6.07,5.8,3.35,15.2,3.35,21,0,2.91-1.68,4.36-3.87,4.36-6.07Z"/><ellipse class="cls-2" cx="40.19" cy="82.77" rx="14.85" ry="8.58"/><path class="cls-4" d="M84.71,73.39,82.36,76,48.21,62.06l2.33-2.54a2.49,2.49,0,0,1,2.54-.63l26,5.1c2.44.53,5.14,3.18,6,5.92C85.56,71.45,85.39,72.69,84.71,73.39Z"/><path class="cls-8" d="M76.63,66.63l-26-5.09c-2.44-.53-3.7,1.27-2.82,4s3.58,5.4,6,5.93l26,5.09c2.45.53,3.71-1.27,2.83-4S79.07,67.16,76.63,66.63Z"/><path class="cls-2" d="M54.27,67.54a4.37,4.37,0,0,0-2.61-3c-1.2-.41-2,.27-1.72,1.5a4.34,4.34,0,0,0,2.61,3C53.75,69.46,54.52,68.78,54.27,67.54Z"/><path class="cls-4" d="M48.24,29.24l-2.6,2.3L59,64.72l2.59-2.29a2.48,2.48,0,0,0,.66-2.52L57.54,35.06c-.49-2.45-3.09-5.19-5.82-6.12C50.19,28.42,49,28.57,48.24,29.24Z"/><path class="cls-7" d="M54.85,37.44l4.69,24.85C60,64.74,58.2,66,55.47,65s-5.33-3.67-5.82-6.12L45,34.07c-.49-2.45,1.33-3.68,4.06-2.75S54.37,35,54.85,37.44Z"/><path class="cls-2" d="M51.78,36a4.36,4.36,0,0,0-3.28-2.22c-1.26-.09-1.84.75-1.28,1.89a4.36,4.36,0,0,0,3.28,2.22C51.76,38,52.33,37.13,51.78,36Z"/><path class="cls-9" d="M63.27,86.64a3.38,3.38,0,0,1-2,2.88L45.47,98.66c-2.92,1.68-8,1.47-11.37-.47L19.9,90c-1.83-1.06-2.77-2.41-2.78-3.69V41l40.2-3.21Z"/><path class="cls-4" d="M34.91,28.84,19.08,38c-2.91,1.68-2.55,4.62.82,6.56l8.25,4.6c3.37,1.94,8.46,2.15,11.37.47l15.83-9.14c2.92-1.68,2.55-4.62-.81-6.57l-8.25-4.59C42.92,27.36,37.83,27.15,34.91,28.84Z"/><path class="cls-6" d="M43.61,30.65H28.84v7.23a3.69,3.69,0,0,0,2.16,3,11.57,11.57,0,0,0,10.44,0,3.7,3.7,0,0,0,2.17-3Z"/><path class="cls-2" d="M41.44,33.67a11.57,11.57,0,0,1-10.44,0c-2.89-1.67-2.89-4.37,0-6a11.5,11.5,0,0,1,10.44,0C44.33,29.3,44.33,32,41.44,33.67Z"/><path class="cls-10" d="M43.11.46a3.76,3.76,0,0,0-4,.26L23.6,9.82c-3.29,1.9-6,7-6,11.39v7.05c0,2.39.8,4.08,2.06,4.81l9.77,5.77L52.74,6.15Z"/><path class="cls-7" d="M48.84,29.4l-15.5,9.11c-3.29,1.9-6-.12-6-4.51V27c0-4.39,2.67-9.49,6-11.39l15.5-9.11c3.29-1.9,6,.12,6,4.5V18C54.8,22.4,52.13,27.5,48.84,29.4Z"/><path class="cls-11" d="M31,36.78c-.76,0-1.16-1.4-1.16-2.78V27c0-3.49,2.22-7.82,4.74-9.28L50.08,8.56a2.36,2.36,0,0,1,1.13-.37c.75,0,1.15,1.39,1.15,2.77V18c0,3.48-2.22,7.82-4.74,9.27L32.1,36.4A2.31,2.31,0,0,1,31,36.78Z"/><path class="cls-12" d="M54.82,58.23l-12.15,7c-.77.45-1.39,0-1.39-1L40.19,58a3.31,3.31,0,0,1,1.4-2.66l12.14-7c.77-.44,1.4,0,1.4,1.06l1.09,6.23A3.36,3.36,0,0,1,54.82,58.23Z"/><path class="cls-13" d="M38.28,24.14a5.13,5.13,0,0,1-2.32,4c-1.28.74-2.32.14-2.32-1.34a5.13,5.13,0,0,1,2.32-4C37.24,22.06,38.28,22.66,38.28,24.14Z"/><path class="cls-13" d="M49.76,18.15a5.13,5.13,0,0,1-2.32,4c-1.28.74-2.32.14-2.32-1.34a5.13,5.13,0,0,1,2.32-4C48.72,16.07,49.76,16.67,49.76,18.15Z"/><polygon class="cls-14" points="49.47 91.94 49.47 116.83 28.41 104.6 28.41 79.72 49.47 91.94"/><polygon class="cls-15" points="49.47 91.94 75.93 76.67 54.86 64.44 28.41 79.72 49.47 91.94"/><polygon class="cls-4" points="36.33 93.41 49.55 91.89 28.48 79.67 15.26 81.19 36.33 93.41"/><polygon class="cls-16" points="75.5 76.71 88.72 62.95 67.65 50.73 54.43 64.48 75.5 76.71"/><polygon class="cls-16" points="49.47 116.83 75.93 101.56 75.93 76.67 49.47 91.94 49.47 116.83"/><polygon class="cls-2" points="65.39 90.88 73.63 86.12 73.63 80.59 65.39 85.34 65.39 90.88"/><polygon class="cls-17" points="69.51 97.37 73.63 94.99 73.63 89.46 69.51 91.84 69.51 97.37"/><polygon class="cls-4" points="60.01 91.97 86.46 76.7 75.93 76.71 49.47 91.98 60.01 91.97"/><polygon class="cls-16" points="28.92 79.42 54.43 64.75 43.89 52.52 18.39 67.19 28.92 79.42"/><polygon class="cls-14" points="54.43 64.48 54.43 89.08 49.47 91.98 28.48 79.67 54.43 64.48"/><path class="cls-4" d="M19.87,45.18,16.5,46,12.62,81.54,16,80.73a2.48,2.48,0,0,0,1.78-1.91l7.57-24.13c.73-2.38-.28-6-2.25-8.14C22,45.38,20.82,44.93,19.87,45.18Z"/><path class="cls-7" d="M21.84,55.53,14.27,79.65c-.73,2.39-2.91,2.62-4.88.52s-3-5.76-2.25-8.14L14.71,47.9c.73-2.39,2.92-2.62,4.88-.51S22.57,53.14,21.84,55.53Z"/><path class="cls-2" d="M19.81,52.81A4.4,4.4,0,0,0,18,49.3c-1.06-.67-2-.19-2,1.07a4.4,4.4,0,0,0,1.85,3.51C18.86,54.55,19.77,54.07,19.81,52.81Z"/><path class="cls-4" d="M31.24,101.31,28,102.45,4.38,74.12,7.64,73a2.49,2.49,0,0,1,2.53.65L30.68,90.35c1.91,1.61,3,5.22,2.52,8.06C32.91,100,32.17,101,31.24,101.31Z"/><path class="cls-8" d="M27.3,91.54,6.79,74.81C4.88,73.19,2.92,74.18,2.4,77S3,83.47,4.92,85.08l20.51,16.73c1.91,1.62,3.87.63,4.39-2.21S29.2,93.15,27.3,91.54Z"/><path class="cls-2" d="M7.15,81.81A4.41,4.41,0,0,0,6.25,78c-.87-.92-1.87-.69-2.23.52a4.38,4.38,0,0,0,.9,3.86A1.21,1.21,0,0,0,7.15,81.81Z"/></g></g></svg>