<svg xmlns="http://www.w3.org/2000/svg" viewBox="0 0 46.25 54"><g style="isolation:isolate"><path fill="#e81616" fill-rule="evenodd" d="M23 0C10.3 0 0 12.09 0 27s10.3 27 23 27 23-12.09 23-27S35.7 0 23 0zm0 50c-10 0-10-10.3-10-23S14 4 23 4c9.93 0 10 10.3 10 23s0 23-10 23z"/><path fill="#959595" d="M39.29 7.75A25.18 25.18 0 0 0 26 4a15.45 15.45 0 0 0-1.77.09C33 5 33.1 14.87 33.1 27s-.06 22-8.84 22.91A15.15 15.15 0 0 0 26 50a25.18 25.18 0 0 0 13.27-3.75 29.21 29.21 0 0 0 7-19.25 29.21 29.21 0 0 0-6.98-19.25z" opacity=".2"/></g></svg>