<svg xmlns="http://www.w3.org/2000/svg" xmlns:xlink="http://www.w3.org/1999/xlink" viewBox="0 0 800 800"><defs><radialGradient id="a" cx="400" cy="400" r="400" gradientTransform="matrix(0.71, 0.7, -1.32, 1.35, 644.17, -419.17)" gradientUnits="userSpaceOnUse"><stop offset="0" stop-color="#07b3fa"/><stop offset="1" stop-color="#0d70e8"/></radialGradient><linearGradient id="b" x1="806.62" y1="429" x2="813.04" y2="440.12" gradientTransform="matrix(-1, 0, 0, 1, 1521.18, 0)" gradientUnits="userSpaceOnUse"><stop offset="0" stop-color="#fff"/><stop offset="1" stop-color="#fdb589"/></linearGradient><linearGradient id="c" x1="829.3" y1="442.13" x2="835.72" y2="453.25" xlink:href="#b"/><linearGradient id="d" x1="851.81" y1="455.14" x2="858.23" y2="466.27" xlink:href="#b"/><linearGradient id="e" x1="874.36" y1="468.01" x2="880.78" y2="479.13" xlink:href="#b"/><linearGradient id="f" x1="896.97" y1="481.3" x2="903.39" y2="492.42" xlink:href="#b"/><linearGradient id="g" x1="919.81" y1="494.23" x2="926.23" y2="505.35" xlink:href="#b"/><linearGradient id="h" x1="942.83" y1="507.75" x2="949.25" y2="518.87" xlink:href="#b"/><linearGradient id="i" x1="965.5" y1="521.02" x2="971.92" y2="532.14" xlink:href="#b"/><linearGradient id="j" x1="988.8" y1="534.04" x2="995.22" y2="545.16" xlink:href="#b"/><linearGradient id="k" x1="1011.26" y1="546.83" x2="1017.68" y2="557.95" xlink:href="#b"/><linearGradient id="l" x1="1034.25" y1="561.24" x2="1040.67" y2="572.37" xlink:href="#b"/><linearGradient id="m" x1="1056.99" y1="573.57" x2="1063.41" y2="584.7" xlink:href="#b"/></defs><title>pencils</title><g style="isolation:isolate"><rect width="800" height="800" fill="#fff"/><rect width="800" height="800" fill="url(#a)"/><polygon points="24.39 348.09 310.76 182.83 704.88 410.38 418.51 575.64 24.39 348.09" fill="#eef5f9"/><polygon points="701.86 411.39 701.86 386.47 704.88 381.25 704.88 413.13 418.51 578.39 421.52 573.17 701.86 411.39" fill="#bbc2c6"/><polygon points="92.39 380.84 371.5 219.69 763.01 445.75 483.91 606.89 92.39 380.84" fill="#eef5f9"/><polygon points="371.5 223.17 759.98 447.5 759.98 424.34 371.5 200.02 371.5 223.17" fill="#d4dbdf"/><polygon points="371.5 200.02 371.5 223.17 118.47 369.26 98.41 357.69 371.5 200.02" fill="#c7ced2"/><polygon points="763.01 445.75 759.99 447.5 759.99 424.34 763.01 422.6 763.01 445.75" fill="#bbc2c6"/><path d="M714.36,430.41h0l21.19,19.45,7.28,6.69c.14.13.18.33,0,.43l-.26.15a.94.94,0,0,1-.72,0L730.37,453h0l-38.64-14L354.48,244l4.93-2.84.39-.23,8.95-5.17.39-.23,4.93-2.84,337.26,195Z" opacity="0.1" style="mix-blend-mode:multiply"/><path d="M692,443.22h0l21.18,19.45,7.29,6.7a.25.25,0,0,1,0,.42l-.26.15a.94.94,0,0,1-.72,0L708,465.78h0l-38.65-14-337.25-195,4.93-2.85.4-.23,8.95-5.17.39-.22,4.93-2.85,337.25,195Z" opacity="0.1" style="mix-blend-mode:multiply"/><path d="M669.6,456h0l21.19,19.45,7.29,6.69c.14.13.17.32,0,.42l-.26.15a.94.94,0,0,1-.72,0l-11.48-4.17h0l-38.65-14-337.25-195,4.93-2.85.4-.23,8.94-5.16.4-.23,4.93-2.85,337.25,195Z" opacity="0.1" style="mix-blend-mode:multiply"/><path d="M647.22,468.85h0L668.4,488.3l7.28,6.69c.15.13.18.32,0,.42l-.26.15a.94.94,0,0,1-.72,0l-11.47-4.17h0l-38.65-14-337.25-195,4.93-2.85.39-.23,9-5.16.4-.23,4.93-2.85,337.25,195Z" opacity="0.1" style="mix-blend-mode:multiply"/><path d="M624.83,481.66h0L646,501.11l7.28,6.69c.15.13.18.32,0,.42l-.26.15a.9.9,0,0,1-.72,0l-11.47-4.17h0l-38.65-14L265,295.22l4.93-2.85.39-.23,9-5.16.4-.23,4.93-2.84,337.25,195Z" opacity="0.1" style="mix-blend-mode:multiply"/><path d="M602.45,494.47h0l21.18,19.45,7.29,6.69c.14.13.17.33,0,.43l-.26.15a.9.9,0,0,1-.72,0L618.46,517h0l-38.64-14L242.56,308l4.94-2.84.39-.23,8.95-5.17.39-.23,4.93-2.84,337.26,195Z" opacity="0.1" style="mix-blend-mode:multiply"/><path d="M580.07,507.28h0l21.18,19.45,7.29,6.7a.25.25,0,0,1,0,.42l-.26.15a.94.94,0,0,1-.72,0l-11.48-4.17h0l-38.64-14-337.25-195,4.93-2.84.39-.23,9-5.17.39-.22,4.93-2.85L577,504.49Z" opacity="0.1" style="mix-blend-mode:multiply"/><path d="M557.69,520.09h0l21.19,19.45,7.29,6.7a.25.25,0,0,1,0,.42l-.27.15a.94.94,0,0,1-.72,0l-11.47-4.17h0l-38.65-14-337.25-195,4.93-2.85.39-.23,8.95-5.16.4-.23,4.93-2.85,337.25,195Z" opacity="0.1" style="mix-blend-mode:multiply"/><path d="M535.31,532.91h0l21.19,19.45,7.29,6.69c.14.13.17.32,0,.42l-.27.15a.94.94,0,0,1-.72,0l-11.47-4.17h0l-38.65-14-337.25-195,4.93-2.85.4-.23,8.94-5.16.4-.23,4.93-2.85,337.25,195Z" opacity="0.1" style="mix-blend-mode:multiply"/><path d="M512.92,545.72h0l21.18,19.45,7.29,6.69c.14.13.18.32,0,.42l-.26.15a.94.94,0,0,1-.72,0l-11.48-4.17h0l-38.64-14L153,359.28l4.93-2.85.39-.23,8.95-5.16.39-.23,4.93-2.85,337.26,195Z" opacity="0.1" style="mix-blend-mode:multiply"/><path d="M490.54,558.53h0L511.72,578l7.29,6.69c.14.13.18.32,0,.42l-.26.16a.9.9,0,0,1-.72,0l-11.48-4.16h0l-38.64-14-337.25-195,4.93-2.85L136,369l9-5.17.39-.23,4.93-2.84,337.26,195Z" opacity="0.1" style="mix-blend-mode:multiply"/><path d="M468.16,571.34h0l21.18,19.45,7.29,6.69c.14.13.17.33,0,.43l-.26.15a1,1,0,0,1-.73,0l-11.47-4.17h0l-38.65-14-337.25-195,4.93-2.84.4-.23,8.94-5.17.4-.23,4.93-2.84,337.25,195Z" opacity="0.1" style="mix-blend-mode:multiply"/><path d="M513.14,591l-1-.57L736.74,460.71l1,.57,26.68-15.4,15.09,8.71c6.07,3.5,6.07,9.24,0,12.75L520.89,616.64c-6.07,3.51-16,3.51-22.09,0l-15.08-8.71Z" fill="#e1e8ec"/><polygon points="356.34 235.01 352.52 227.67 356.36 217.09 365.64 212.14 713.34 411.81 704.38 416.97 699.92 427.19 704.4 434.83 356.34 235.01" fill="#2e383b"/><polygon points="356.36 217.09 365.64 212.14 713.34 411.81 704.38 416.97 356.36 217.09" fill="#2e383b" opacity="0.5" style="mix-blend-mode:screen"/><polygon points="356.34 235.01 352.52 227.67 699.92 427.19 704.4 434.83 356.34 235.01" fill="#2e383b" opacity="0.5" style="mix-blend-mode:multiply"/><path d="M730.29,432.29a2.45,2.45,0,0,1,2.59-.19l9.09,10a1.68,1.68,0,0,1,.29,1,1,1,0,0,1-.55.89,1.19,1.19,0,0,1-.78.13l-13-3.32a2.44,2.44,0,0,1-1.12-2.34A7.79,7.79,0,0,1,730.29,432.29Z" fill="#2e383b"/><polygon points="356.36 217.09 357.06 216.71 704.99 416.46 704.38 416.97 356.36 217.09" fill="#2e383b" opacity="0.5" style="mix-blend-mode:screen"/><path d="M698.73,421.81c1.06-3.34,5.68-4.84,5.68-4.84a4.1,4.1,0,0,1,2.08-4.7c2.59-1.44,6.85-.46,6.85-.46l19.54,20.29a2.45,2.45,0,0,0-2.59.19,7.79,7.79,0,0,0-3.52,6.11,2.44,2.44,0,0,0,1.12,2.34l-23.48-5.91s-2.91-1.68-4-3.47a3.24,3.24,0,0,1-.48-2.88A8,8,0,0,1,698.73,421.81Z" fill="#fdb589"/><path d="M698.73,421.81c1.06-3.34,5.68-4.84,5.68-4.84a4.1,4.1,0,0,1,2.08-4.7c2.59-1.44,6.85-.46,6.85-.46l19.54,20.29a2.45,2.45,0,0,0-2.59.19,7.79,7.79,0,0,0-3.52,6.11,2.44,2.44,0,0,0,1.12,2.34l-23.48-5.91s-2.91-1.68-4-3.47a3.24,3.24,0,0,1-.48-2.88A8,8,0,0,1,698.73,421.81Z" fill="url(#b)" style="mix-blend-mode:multiply"/><polygon points="333.66 248.15 329.84 240.81 333.67 230.22 342.96 225.28 690.66 424.94 681.7 430.1 677.24 440.33 681.73 447.97 333.66 248.15" fill="#8a322c"/><polygon points="333.67 230.22 342.96 225.28 690.66 424.94 681.7 430.1 333.67 230.22" fill="#8a322c" opacity="0.5" style="mix-blend-mode:screen"/><polygon points="333.66 248.15 329.84 240.81 677.24 440.33 681.73 447.97 333.66 248.15" fill="#8a322c" opacity="0.5" style="mix-blend-mode:multiply"/><path d="M707.61,445.43a2.43,2.43,0,0,1,2.59-.2l9.09,10a1.66,1.66,0,0,1,.29.95.94.94,0,0,1-.55.89,1.12,1.12,0,0,1-.78.14l-13-3.33a2.43,2.43,0,0,1-1.13-2.34A7.78,7.78,0,0,1,707.61,445.43Z" fill="#8a322c"/><polygon points="333.67 230.22 334.38 229.84 682.3 429.59 681.7 430.1 333.67 230.22" fill="#8a322c" opacity="0.5" style="mix-blend-mode:screen"/><path d="M676.05,435c1.06-3.34,5.67-4.85,5.67-4.85a4.1,4.1,0,0,1,2.09-4.69c2.59-1.44,6.85-.47,6.85-.47l19.54,20.29a2.43,2.43,0,0,0-2.59.2,7.78,7.78,0,0,0-3.53,6.1,2.43,2.43,0,0,0,1.13,2.34L681.72,448s-2.9-1.68-4-3.48a3.24,3.24,0,0,1-.48-2.88A8,8,0,0,1,676.05,435Z" fill="#fdb589"/><path d="M676.05,435c1.06-3.34,5.67-4.85,5.67-4.85a4.1,4.1,0,0,1,2.09-4.69c2.59-1.44,6.85-.47,6.85-.47l19.54,20.29a2.43,2.43,0,0,0-2.59.2,7.78,7.78,0,0,0-3.53,6.1,2.43,2.43,0,0,0,1.13,2.34L681.72,448s-2.9-1.68-4-3.48a3.24,3.24,0,0,1-.48-2.88A8,8,0,0,1,676.05,435Z" fill="url(#c)" style="mix-blend-mode:multiply"/><polygon points="311.14 261.16 307.33 253.82 311.16 243.24 320.45 238.29 668.14 437.96 659.19 443.12 654.73 453.34 659.21 460.98 311.14 261.16" fill="#821c78"/><polygon points="311.16 243.24 320.45 238.29 668.14 437.96 659.19 443.12 311.16 243.24" fill="#821c78" opacity="0.5" style="mix-blend-mode:screen"/><polygon points="311.14 261.16 307.33 253.82 654.73 453.34 659.21 460.98 311.14 261.16" fill="#821c78" opacity="0.5" style="mix-blend-mode:multiply"/><path d="M685.1,458.44a2.43,2.43,0,0,1,2.58-.19l9.1,10a1.77,1.77,0,0,1,.29,1,1,1,0,0,1-.55.89,1.21,1.21,0,0,1-.79.13l-13-3.32a2.43,2.43,0,0,1-1.13-2.34A7.8,7.8,0,0,1,685.1,458.44Z" fill="#821c78"/><polygon points="311.16 243.24 311.87 242.86 659.79 442.61 659.19 443.12 311.16 243.24" fill="#821c78" opacity="0.5" style="mix-blend-mode:screen"/><path d="M653.54,448c1.05-3.34,5.67-4.84,5.67-4.84a4.1,4.1,0,0,1,2.09-4.7c2.59-1.44,6.84-.46,6.84-.46l19.54,20.29a2.43,2.43,0,0,0-2.58.19,7.8,7.8,0,0,0-3.53,6.11,2.43,2.43,0,0,0,1.13,2.34L659.21,461s-2.91-1.68-4-3.47a3.27,3.27,0,0,1-.49-2.88A8,8,0,0,1,653.54,448Z" fill="#fdb589"/><path d="M653.54,448c1.05-3.34,5.67-4.84,5.67-4.84a4.1,4.1,0,0,1,2.09-4.7c2.59-1.44,6.84-.46,6.84-.46l19.54,20.29a2.43,2.43,0,0,0-2.58.19,7.8,7.8,0,0,0-3.53,6.11,2.43,2.43,0,0,0,1.13,2.34L659.21,461s-2.91-1.68-4-3.47a3.27,3.27,0,0,1-.49-2.88A8,8,0,0,1,653.54,448Z" fill="url(#d)" style="mix-blend-mode:multiply"/><polygon points="288.6 274.02 284.78 266.68 288.61 256.1 297.9 251.15 645.6 450.82 636.64 455.98 632.18 466.2 636.66 473.84 288.6 274.02" fill="#0540af"/><polygon points="288.61 256.1 297.9 251.15 645.6 450.82 636.64 455.98 288.61 256.1" fill="#0540af" opacity="0.5" style="mix-blend-mode:screen"/><polygon points="288.6 274.02 284.78 266.68 632.18 466.2 636.66 473.84 288.6 274.02" fill="#0540af" opacity="0.5" style="mix-blend-mode:multiply"/><path d="M662.55,471.3a2.45,2.45,0,0,1,2.59-.19l9.09,10a1.77,1.77,0,0,1,.29,1,1,1,0,0,1-.55.89,1.19,1.19,0,0,1-.78.13l-13-3.32a2.44,2.44,0,0,1-1.13-2.34A7.8,7.8,0,0,1,662.55,471.3Z" fill="#0540af"/><polygon points="288.61 256.1 289.32 255.72 637.24 455.47 636.64 455.98 288.61 256.1" fill="#0540af" opacity="0.5" style="mix-blend-mode:screen"/><path d="M631,460.82c1-3.34,5.67-4.84,5.67-4.84a4.1,4.1,0,0,1,2.09-4.7c2.59-1.44,6.85-.46,6.85-.46l19.54,20.29a2.45,2.45,0,0,0-2.59.19,7.8,7.8,0,0,0-3.53,6.11,2.44,2.44,0,0,0,1.13,2.34l-23.49-5.91s-2.9-1.68-4-3.47a3.27,3.27,0,0,1-.49-2.88A8,8,0,0,1,631,460.82Z" fill="#fdb589"/><path d="M631,460.82c1-3.34,5.67-4.84,5.67-4.84a4.1,4.1,0,0,1,2.09-4.7c2.59-1.44,6.85-.46,6.85-.46l19.54,20.29a2.45,2.45,0,0,0-2.59.19,7.8,7.8,0,0,0-3.53,6.11,2.44,2.44,0,0,0,1.13,2.34l-23.49-5.91s-2.9-1.68-4-3.47a3.27,3.27,0,0,1-.49-2.88A8,8,0,0,1,631,460.82Z" fill="url(#e)" style="mix-blend-mode:multiply"/><polygon points="265.99 287.32 262.17 279.98 266.01 269.39 275.29 264.44 622.99 464.11 614.03 469.27 609.57 479.49 614.06 487.13 265.99 287.32" fill="#07b3fa"/><polygon points="266.01 269.39 275.29 264.44 622.99 464.11 614.03 469.27 266.01 269.39" fill="#07b3fa" opacity="0.5" style="mix-blend-mode:screen"/><polygon points="265.99 287.32 262.17 279.98 609.57 479.49 614.06 487.13 265.99 287.32" fill="#07b3fa" opacity="0.5" style="mix-blend-mode:multiply"/><path d="M639.94,484.6a2.43,2.43,0,0,1,2.59-.2l9.09,10a1.66,1.66,0,0,1,.29.95.93.93,0,0,1-.55.89,1.13,1.13,0,0,1-.78.13l-13-3.32a2.44,2.44,0,0,1-1.12-2.34A7.76,7.76,0,0,1,639.94,484.6Z" fill="#07b3fa"/><polygon points="266.01 269.39 266.71 269.01 614.64 468.76 614.03 469.27 266.01 269.39" fill="#07b3fa" opacity="0.5" style="mix-blend-mode:screen"/><path d="M608.38,474.11c1.06-3.33,5.68-4.84,5.68-4.84a4.08,4.08,0,0,1,2.08-4.69c2.59-1.45,6.85-.47,6.85-.47l19.54,20.29a2.43,2.43,0,0,0-2.59.2,7.76,7.76,0,0,0-3.52,6.1,2.44,2.44,0,0,0,1.12,2.34l-23.48-5.91s-2.91-1.67-4-3.47a3.28,3.28,0,0,1-.48-2.88A8,8,0,0,1,608.38,474.11Z" fill="#fdb589"/><path d="M608.38,474.11c1.06-3.33,5.68-4.84,5.68-4.84a4.08,4.08,0,0,1,2.08-4.69c2.59-1.45,6.85-.47,6.85-.47l19.54,20.29a2.43,2.43,0,0,0-2.59.2,7.76,7.76,0,0,0-3.52,6.1,2.44,2.44,0,0,0,1.12,2.34l-23.48-5.91s-2.91-1.67-4-3.47a3.28,3.28,0,0,1-.48-2.88A8,8,0,0,1,608.38,474.11Z" fill="url(#f)" style="mix-blend-mode:multiply"/><polygon points="243.14 300.25 239.33 292.9 243.16 282.32 252.45 277.37 600.14 477.04 591.19 482.2 586.73 492.42 591.21 500.06 243.14 300.25" fill="#009715"/><polygon points="243.16 282.32 252.45 277.37 600.14 477.04 591.19 482.2 243.16 282.32" fill="#009715" opacity="0.5" style="mix-blend-mode:screen"/><polygon points="243.14 300.25 239.33 292.9 586.73 492.42 591.21 500.06 243.14 300.25" fill="#009715" opacity="0.5" style="mix-blend-mode:multiply"/><path d="M617.1,497.52a2.43,2.43,0,0,1,2.58-.19l9.09,10a1.71,1.71,0,0,1,.3,1,1,1,0,0,1-.55.89,1.24,1.24,0,0,1-.79.13l-13-3.32a2.43,2.43,0,0,1-1.13-2.34A7.8,7.8,0,0,1,617.1,497.52Z" fill="#009715"/><polygon points="243.16 282.32 243.87 281.94 591.79 481.69 591.19 482.2 243.16 282.32" fill="#009715" opacity="0.5" style="mix-blend-mode:screen"/><path d="M585.54,487c1.05-3.34,5.67-4.84,5.67-4.84a4.08,4.08,0,0,1,2.09-4.69c2.58-1.45,6.84-.47,6.84-.47l19.54,20.29a2.43,2.43,0,0,0-2.58.19,7.8,7.8,0,0,0-3.53,6.11A2.43,2.43,0,0,0,614.7,506l-23.49-5.91s-2.91-1.68-4-3.47a3.27,3.27,0,0,1-.49-2.88A8,8,0,0,1,585.54,487Z" fill="#fdb589"/><path d="M585.54,487c1.05-3.34,5.67-4.84,5.67-4.84a4.08,4.08,0,0,1,2.09-4.69c2.58-1.45,6.84-.47,6.84-.47l19.54,20.29a2.43,2.43,0,0,0-2.58.19,7.8,7.8,0,0,0-3.53,6.11A2.43,2.43,0,0,0,614.7,506l-23.49-5.91s-2.91-1.68-4-3.47a3.27,3.27,0,0,1-.49-2.88A8,8,0,0,1,585.54,487Z" fill="url(#g)" style="mix-blend-mode:multiply"/><polygon points="220.13 313.76 216.31 306.42 220.14 295.84 229.43 290.89 577.13 490.56 568.17 495.72 563.71 505.94 568.19 513.58 220.13 313.76" fill="#81b51c"/><polygon points="220.14 295.84 229.43 290.89 577.13 490.56 568.17 495.72 220.14 295.84" fill="#81b51c" opacity="0.5" style="mix-blend-mode:screen"/><polygon points="220.13 313.76 216.31 306.42 563.71 505.94 568.19 513.58 220.13 313.76" fill="#81b51c" opacity="0.5" style="mix-blend-mode:multiply"/><path d="M594.08,511a2.45,2.45,0,0,1,2.59-.19l9.09,10a1.68,1.68,0,0,1,.29,1,1,1,0,0,1-.55.89,1.19,1.19,0,0,1-.78.13l-13-3.32a2.44,2.44,0,0,1-1.13-2.34A7.8,7.8,0,0,1,594.08,511Z" fill="#81b51c"/><polygon points="220.14 295.84 220.85 295.46 568.77 495.21 568.17 495.72 220.14 295.84" fill="#81b51c" opacity="0.5" style="mix-blend-mode:screen"/><path d="M562.52,500.56c1.06-3.34,5.67-4.84,5.67-4.84a4.11,4.11,0,0,1,2.09-4.7c2.59-1.44,6.85-.46,6.85-.46l19.54,20.29a2.45,2.45,0,0,0-2.59.19,7.8,7.8,0,0,0-3.53,6.11,2.44,2.44,0,0,0,1.13,2.34l-23.49-5.91s-2.9-1.68-4-3.47a3.24,3.24,0,0,1-.48-2.88A8,8,0,0,1,562.52,500.56Z" fill="#fdb589"/><path d="M562.52,500.56c1.06-3.34,5.67-4.84,5.67-4.84a4.11,4.11,0,0,1,2.09-4.7c2.59-1.44,6.85-.46,6.85-.46l19.54,20.29a2.45,2.45,0,0,0-2.59.19,7.8,7.8,0,0,0-3.53,6.11,2.44,2.44,0,0,0,1.13,2.34l-23.49-5.91s-2.9-1.68-4-3.47a3.24,3.24,0,0,1-.48-2.88A8,8,0,0,1,562.52,500.56Z" fill="url(#h)" style="mix-blend-mode:multiply"/><polygon points="197.46 327.04 193.65 319.7 197.48 309.12 206.77 304.17 554.46 503.84 545.51 508.99 541.04 519.22 545.53 526.86 197.46 327.04" fill="#dc2620"/><polygon points="197.48 309.12 206.77 304.17 554.46 503.84 545.51 508.99 197.48 309.12" fill="#dc2620" opacity="0.5" style="mix-blend-mode:screen"/><polygon points="197.46 327.04 193.65 319.7 541.04 519.22 545.53 526.86 197.46 327.04" fill="#dc2620" opacity="0.5" style="mix-blend-mode:multiply"/><path d="M571.41,524.32a2.42,2.42,0,0,1,2.59-.19l9.09,10a1.68,1.68,0,0,1,.29.95.91.91,0,0,1-.54.89,1.17,1.17,0,0,1-.79.14l-13-3.33a2.41,2.41,0,0,1-1.12-2.33A7.82,7.82,0,0,1,571.41,524.32Z" fill="#dc2620"/><polygon points="197.48 309.12 198.19 308.74 546.11 508.49 545.51 508.99 197.48 309.12" fill="#dc2620" opacity="0.5" style="mix-blend-mode:screen"/><path d="M539.85,513.84c1.06-3.34,5.68-4.85,5.68-4.85a4.09,4.09,0,0,1,2.08-4.69c2.59-1.44,6.85-.46,6.85-.46L574,524.13a2.42,2.42,0,0,0-2.59.19,7.82,7.82,0,0,0-3.52,6.11,2.41,2.41,0,0,0,1.12,2.33l-23.48-5.9s-2.91-1.68-4-3.47a3.27,3.27,0,0,1-.49-2.88A8,8,0,0,1,539.85,513.84Z" fill="#fdb589"/><path d="M539.85,513.84c1.06-3.34,5.68-4.85,5.68-4.85a4.09,4.09,0,0,1,2.08-4.69c2.59-1.44,6.85-.46,6.85-.46L574,524.13a2.42,2.42,0,0,0-2.59.19,7.82,7.82,0,0,0-3.52,6.11,2.41,2.41,0,0,0,1.12,2.33l-23.48-5.9s-2.91-1.68-4-3.47a3.27,3.27,0,0,1-.49-2.88A8,8,0,0,1,539.85,513.84Z" fill="url(#i)" style="mix-blend-mode:multiply"/><polygon points="174.15 340.06 170.34 332.71 174.17 322.13 183.46 317.18 531.16 516.85 522.2 522.01 517.74 532.23 522.22 539.87 174.15 340.06" fill="#e38ad0"/><polygon points="174.17 322.13 183.46 317.18 531.16 516.85 522.2 522.01 174.17 322.13" fill="#e38ad0" opacity="0.5" style="mix-blend-mode:screen"/><polygon points="174.15 340.06 170.34 332.71 517.74 532.23 522.22 539.87 174.15 340.06" fill="#e38ad0" opacity="0.5" style="mix-blend-mode:multiply"/><path d="M548.11,537.34a2.43,2.43,0,0,1,2.59-.2l9.09,10a1.74,1.74,0,0,1,.29,1,1,1,0,0,1-.55.89,1.13,1.13,0,0,1-.78.13l-13-3.32a2.44,2.44,0,0,1-1.13-2.34A7.77,7.77,0,0,1,548.11,537.34Z" fill="#e38ad0"/><polygon points="174.17 322.13 174.88 321.75 522.8 521.5 522.2 522.01 174.17 322.13" fill="#e38ad0" opacity="0.5" style="mix-blend-mode:screen"/><path d="M516.55,526.85c1.05-3.33,5.67-4.84,5.67-4.84a4.08,4.08,0,0,1,2.09-4.69c2.59-1.45,6.85-.47,6.85-.47l19.54,20.29a2.43,2.43,0,0,0-2.59.2,7.77,7.77,0,0,0-3.53,6.1,2.44,2.44,0,0,0,1.13,2.34l-23.49-5.91s-2.91-1.67-4-3.47a3.27,3.27,0,0,1-.49-2.88A8,8,0,0,1,516.55,526.85Z" fill="#fdb589"/><path d="M516.55,526.85c1.05-3.33,5.67-4.84,5.67-4.84a4.08,4.08,0,0,1,2.09-4.69c2.59-1.45,6.85-.47,6.85-.47l19.54,20.29a2.43,2.43,0,0,0-2.59.2,7.77,7.77,0,0,0-3.53,6.1,2.44,2.44,0,0,0,1.13,2.34l-23.49-5.91s-2.91-1.67-4-3.47a3.27,3.27,0,0,1-.49-2.88A8,8,0,0,1,516.55,526.85Z" fill="url(#j)" style="mix-blend-mode:multiply"/><polygon points="151.69 352.85 147.88 345.5 151.71 334.92 161 329.97 508.7 529.64 499.74 534.8 495.28 545.02 499.76 552.66 151.69 352.85" fill="#fe732c"/><polygon points="151.71 334.92 161 329.97 508.7 529.64 499.74 534.8 151.71 334.92" fill="#fe732c" opacity="0.5" style="mix-blend-mode:screen"/><polygon points="151.69 352.85 147.88 345.5 495.28 545.02 499.76 552.66 151.69 352.85" fill="#fe732c" opacity="0.5" style="mix-blend-mode:multiply"/><path d="M525.65,550.13a2.43,2.43,0,0,1,2.59-.2l9.09,10a1.66,1.66,0,0,1,.29,1,1,1,0,0,1-.55.89,1.13,1.13,0,0,1-.78.13l-13-3.32a2.44,2.44,0,0,1-1.13-2.34A7.77,7.77,0,0,1,525.65,550.13Z" fill="#fe732c"/><polygon points="151.71 334.92 152.42 334.54 500.34 534.29 499.74 534.8 151.71 334.92" fill="#fe732c" opacity="0.5" style="mix-blend-mode:screen"/><path d="M494.09,539.64c1.05-3.33,5.67-4.84,5.67-4.84a4.1,4.1,0,0,1,2.09-4.69c2.59-1.45,6.85-.47,6.85-.47l19.54,20.29a2.43,2.43,0,0,0-2.59.2,7.77,7.77,0,0,0-3.53,6.1,2.44,2.44,0,0,0,1.13,2.34l-23.49-5.91s-2.91-1.67-4-3.47a3.24,3.24,0,0,1-.48-2.88A7.94,7.94,0,0,1,494.09,539.64Z" fill="#fdb589"/><path d="M494.09,539.64c1.05-3.33,5.67-4.84,5.67-4.84a4.1,4.1,0,0,1,2.09-4.69c2.59-1.45,6.85-.47,6.85-.47l19.54,20.29a2.43,2.43,0,0,0-2.59.2,7.77,7.77,0,0,0-3.53,6.1,2.44,2.44,0,0,0,1.13,2.34l-23.49-5.91s-2.91-1.67-4-3.47a3.24,3.24,0,0,1-.48-2.88A7.94,7.94,0,0,1,494.09,539.64Z" fill="url(#k)" style="mix-blend-mode:multiply"/><polygon points="128.71 367.26 124.89 359.92 128.73 349.33 138.01 344.39 485.71 544.06 476.75 549.21 472.29 559.44 476.78 567.08 128.71 367.26" fill="#ffc900"/><polygon points="128.73 349.33 138.01 344.39 485.71 544.06 476.75 549.21 128.73 349.33" fill="#ffc900" opacity="0.5" style="mix-blend-mode:screen"/><polygon points="128.71 367.26 124.89 359.92 472.29 559.44 476.78 567.08 128.71 367.26" fill="#ffc900" opacity="0.5" style="mix-blend-mode:multiply"/><path d="M502.66,564.54a2.42,2.42,0,0,1,2.59-.19l9.09,10a1.68,1.68,0,0,1,.29,1,.92.92,0,0,1-.54.88,1.17,1.17,0,0,1-.79.14l-13-3.33a2.41,2.41,0,0,1-1.12-2.33A7.79,7.79,0,0,1,502.66,564.54Z" fill="#ffc900"/><polygon points="128.73 349.33 129.44 348.96 477.36 548.71 476.75 549.21 128.73 349.33" fill="#ffc900" opacity="0.5" style="mix-blend-mode:screen"/><path d="M471.1,554.06c1.06-3.34,5.68-4.85,5.68-4.85a4.09,4.09,0,0,1,2.08-4.69c2.59-1.44,6.85-.46,6.85-.46l19.54,20.29a2.42,2.42,0,0,0-2.59.19,7.79,7.79,0,0,0-3.52,6.11,2.41,2.41,0,0,0,1.12,2.33l-23.48-5.9s-2.91-1.68-4-3.47a3.28,3.28,0,0,1-.48-2.88A8,8,0,0,1,471.1,554.06Z" fill="#fdb589"/><path d="M471.1,554.06c1.06-3.34,5.68-4.85,5.68-4.85a4.09,4.09,0,0,1,2.08-4.69c2.59-1.44,6.85-.46,6.85-.46l19.54,20.29a2.42,2.42,0,0,0-2.59.19,7.79,7.79,0,0,0-3.52,6.11,2.41,2.41,0,0,0,1.12,2.33l-23.48-5.9s-2.91-1.68-4-3.47a3.28,3.28,0,0,1-.48-2.88A8,8,0,0,1,471.1,554.06Z" fill="url(#l)" style="mix-blend-mode:multiply"/><polygon points="105.97 379.59 102.15 372.25 105.98 361.67 115.27 356.72 462.97 556.39 454.01 561.55 449.55 571.77 454.03 579.41 105.97 379.59" fill="#e3e2c9"/><polygon points="105.98 361.67 115.27 356.72 462.97 556.39 454.01 561.55 105.98 361.67" fill="#e3e2c9" opacity="0.5" style="mix-blend-mode:screen"/><polygon points="105.97 379.59 102.15 372.25 449.55 571.77 454.03 579.41 105.97 379.59" fill="#e3e2c9" opacity="0.5" style="mix-blend-mode:multiply"/><path d="M479.92,576.87a2.45,2.45,0,0,1,2.59-.19l9.09,10a1.77,1.77,0,0,1,.29,1,1,1,0,0,1-.55.89,1.19,1.19,0,0,1-.78.13l-13-3.33a2.42,2.42,0,0,1-1.13-2.33A7.8,7.8,0,0,1,479.92,576.87Z" fill="#e3e2c9"/><polygon points="105.98 361.67 106.69 361.29 454.61 561.04 454.01 561.55 105.98 361.67" fill="#e3e2c9" opacity="0.5" style="mix-blend-mode:screen"/><path d="M448.36,566.39c1.05-3.34,5.67-4.84,5.67-4.84a4.1,4.1,0,0,1,2.09-4.7c2.59-1.44,6.85-.46,6.85-.46l19.54,20.29a2.45,2.45,0,0,0-2.59.19,7.8,7.8,0,0,0-3.53,6.11,2.42,2.42,0,0,0,1.13,2.33L454,579.41s-2.9-1.68-4-3.47a3.27,3.27,0,0,1-.49-2.88A8,8,0,0,1,448.36,566.39Z" fill="#fdb589"/><path d="M448.36,566.39c1.05-3.34,5.67-4.84,5.67-4.84a4.1,4.1,0,0,1,2.09-4.7c2.59-1.44,6.85-.46,6.85-.46l19.54,20.29a2.45,2.45,0,0,0-2.59.19,7.8,7.8,0,0,0-3.53,6.11,2.42,2.42,0,0,0,1.13,2.33L454,579.41s-2.9-1.68-4-3.47a3.27,3.27,0,0,1-.49-2.88A8,8,0,0,1,448.36,566.39Z" fill="url(#m)" style="mix-blend-mode:multiply"/><polygon points="486.93 605.15 483.91 606.89 483.91 583.74 486.93 582 486.93 605.15" fill="#bbc2c6"/><polygon points="92.39 380.84 483.91 606.89 483.91 583.74 92.39 357.69 92.39 380.84" fill="#d4dbdf"/><polygon points="371.5 196.54 763.01 422.59 759.98 424.34 371.5 200.02 98.41 357.69 486.93 582 483.91 583.74 92.39 357.69 371.5 196.54" fill="#eef5f9"/><polygon points="421.52 548.25 421.52 573.17 418.51 578.39 418.51 546.51 421.52 548.25" fill="#bbc2c6"/><polygon points="24.39 350.84 24.39 318.95 418.51 546.51 418.51 578.39 24.39 350.84" fill="#d4dbdf"/><polygon points="701.86 386.47 421.52 548.25 418.51 546.51 704.88 381.25 701.86 386.47" fill="#bbc2c6"/><path d="M24.39,319,418.51,546.51,704.88,381.25,310.76,153.7Zm104.67,25L355.31,213.32c8.62-5,22.71-5,31.32,0l124,71.62c8.62,5,8.62,13.11,0,18.08L284.42,433.65c-8.61,5-22.7,5-31.32,0L129.06,362C120.45,357.06,120.45,348.92,129.06,344Z" fill="#eef5f9"/><g opacity="0.2" style="mix-blend-mode:multiply"><path d="M355.31,213.32c8.62-5,22.71-5,31.32,0l124,71.62c8.62,5,8.62,13.11,0,18.08L284.42,433.65c-8.61,5-22.7,5-31.32,0L129.06,362c-8.61-5-8.61-13.11,0-18.08Z"/><path d="M355.29,213.79c8.59-4.95,22.64-4.95,31.22,0l123.62,71.38c8.59,5,8.59,13.07,0,18L284.64,433.38c-8.58,5-22.63,5-31.21,0L129.8,362c-8.58-4.95-8.58-13.06,0-18Z" fill="#171717"/><path d="M355.28,214.26c8.55-4.94,22.55-4.94,31.11,0L509.6,285.4c8.55,4.94,8.55,13,0,18L284.86,433.11c-8.55,4.94-22.55,4.94-31.11,0L130.54,362c-8.56-4.94-8.56-13,0-18Z" fill="#2e2e2e"/><path d="M355.26,214.73c8.53-4.92,22.48-4.92,31,0l122.79,70.9c8.53,4.92,8.53,13,0,17.9l-224,129.32c-8.53,4.92-22.48,4.92-31,0L131.28,362c-8.53-4.92-8.53-13,0-17.9Z" fill="#464646"/><path d="M355.24,215.2c8.5-4.9,22.4-4.9,30.9,0l122.38,70.66c8.5,4.91,8.5,12.94,0,17.84L285.3,432.58c-8.5,4.91-22.4,4.91-30.9,0L132,361.92c-8.5-4.9-8.5-12.93,0-17.84Z" fill="#5d5d5d"/><path d="M355.22,215.67c8.47-4.89,22.33-4.89,30.8,0l122,70.42c8.47,4.89,8.47,12.89,0,17.78L285.52,432.31c-8.47,4.89-22.33,4.89-30.8,0l-122-70.42c-8.47-4.88-8.47-12.89,0-17.78Z" fill="#747474"/><path d="M355.2,216.14c8.45-4.87,22.26-4.87,30.7,0l121.55,70.18c8.44,4.87,8.44,12.85,0,17.72l-221.71,128c-8.44,4.87-22.25,4.87-30.7,0L133.49,361.87c-8.44-4.88-8.44-12.85,0-17.72Z" fill="#8b8b8b"/><path d="M355.19,216.61c8.41-4.85,22.17-4.85,30.59,0l121.13,69.94c8.41,4.86,8.41,12.8,0,17.66L286,431.78c-8.41,4.86-22.18,4.86-30.59,0L134.23,361.84c-8.41-4.86-8.41-12.8,0-17.66Z" fill="#a2a2a2"/><path d="M355.17,217.08c8.38-4.84,22.1-4.84,30.49,0l120.71,69.7c8.39,4.84,8.39,12.76,0,17.6L286.18,431.51c-8.39,4.84-22.1,4.84-30.49,0L135,361.81c-8.38-4.84-8.38-12.76,0-17.6Z" fill="#b9b9b9"/><path d="M355.15,217.55c8.36-4.82,22-4.82,30.38,0L505.83,287c8.36,4.82,8.36,12.72,0,17.54L286.4,431.25c-8.36,4.82-22,4.82-30.38,0L135.71,361.78c-8.35-4.82-8.35-12.71,0-17.53Z" fill="#d1d1d1"/><path d="M355.13,218c8.33-4.81,21.95-4.81,30.28,0L505.3,287.24c8.32,4.81,8.32,12.67,0,17.48L286.62,431c-8.33,4.81-21.95,4.81-30.28,0L136.45,361.76c-8.33-4.81-8.33-12.68,0-17.48Z" fill="#e8e8e8"/><path d="M355.12,218.49c8.29-4.79,21.87-4.79,30.17,0l119.47,69c8.3,4.79,8.3,12.63,0,17.42L286.84,430.71c-8.3,4.79-21.88,4.79-30.18,0l-119.47-69c-8.3-4.79-8.3-12.63,0-17.42Z" fill="#fff"/></g></g></svg>