<?xml version="1.0" encoding="utf-8"?>
<!-- Generator: Adobe Illustrator 25.2.3, SVG Export Plug-In . SVG Version: 6.00 Build 0)  -->
<svg version="1.1" id="Layer_1" xmlns="http://www.w3.org/2000/svg" xmlns:xlink="http://www.w3.org/1999/xlink" x="0px" y="0px"
	 viewBox="0 0 798 17" style="enable-background:new 0 0 798 17;" xml:space="preserve">
<style type="text/css">
	.st0{fill:#FFFFFF;}
</style>
<path class="st0" d="M0,17h798v-6.2c-1.4-0.4-2.6-1.2-4.5-0.8c-2.1,0.5-4.4,3.3-8,2c-1.4-0.5-0.9-1.5-3-2
	c-4.9,6.4-17.8,5.4-26.5,3.5c-5.3-1.2-7.8,2.7-12,1.5c-2.1-0.6-2.8-3.3-5-2.5c-2.8,0.7-3,2.4-7,2.5c-0.4-0.5-4.1-3.9-4.5-4
	c-2.6-0.9-6.6,1-8.5-0.5c-0.8-0.6-2-3.2-2.5-4c-3.3,2-12.9,4.7-19,3c-2.3-0.6-3.5-4-7-3c-0.5,0.5-1,1-1.5,1.5c-3.7,0-7.3,0-11,0
	c-2.4,0.7-6.9,2.4-9,3c-2.5-0.3-5-0.7-7.5-1c-4,1.3-3.8,4.9-11,5c-2.2-3-4.1-1.4-8.5-2.5c-0.2-0.1-1-1.1-1.5-1
	c-1.3,0.2-2,2.1-4.5,1.5c-2.5-0.6-4-3.4-6-4c-2.5-0.7-6,1.2-8.5-0.5c-1.3-0.8-2.5-3.3-4-4c-1.7-0.2-3.3-0.3-5-0.5
	c-0.7-0.7-1.3-1.3-2-2c-2.1-0.6-2.4,1.1-3.5,1.5c-2.5,0-5,0-7.5,0c-1.2,0.4-2.3,1.9-4.5,1.5c-2.5-0.5-3.4-2.8-5-3.5
	c-2.5,0.2-5,0.3-7.5,0.5c-0.7-0.2-2.5-1.4-3-1.5c-2.5-0.6-6.5,1.5-8,2c-2.3,0-4.7,0-7,0c-3.4,1-8.1,1.1-11.5,2c-3,0.2-6,0.3-9,0.5
	c-2.1,0.8-5.3,2.9-7.5,3.5c-4.6,1.2-14.1-4.5-17.5-4c-8.6,1.3-15.2,5.7-23,7c-4.6,0.8-8.7-2.7-14-1c-2.8,0.9-3.7,2.4-8,2.5
	c-0.1-0.1-14.3-8.9-14.5-9c-2.6-0.8-9.6,1.1-13.5,0.5c-1.7-0.3-1.2-2-3.5-1.5c-0.5,0.5-1,1-1.5,1.5c-4,0-8,0-12,0
	c-0.5,0.7-1,1.3-1.5,2c-2.6,1.6-6.9,0.8-9.5,0c-2.7,0-5.3,0-8,0c-2.8-0.9-13.7-4.7-16-1c-1.2,1.5-0.9,3.4-1.5,4.5
	c-0.6,0.4-0.8,0.4-2,0.5c-2.2-2.1-7.9,1.8-10,1c-1.5-0.6-1.5-1.9-4.5-2c0,0.3,0,0.7,0,1c0.4,0.5,0.3,0.5,0.5,1.5
	c-1,0.4-2.3,0.5-4,0.5c-0.6-0.7-1-1.1-1.5-2c-3.7,2.9-16.4,7.4-24,5c-1.6-0.5-1.7-2.7-4.5-2c-0.3,0.3-0.7,0.7-1,1
	c-4.2-0.2-8.3-0.3-12.5-0.5c-1.5,0.6-5.6,3.5-9,2.5c-0.5-0.5-1-1-1.5-1.5c-2.5-0.2-5-0.3-7.5-0.5c-0.5-0.5-1-1-1.5-1.5
	c-2.7-1-5.2,0-7.5-1c-1.6-0.7-2.6-2.5-4.5-3c-4.2-0.2-8.3-0.3-12.5-0.5c-1-0.3-1.9-1.7-2.5-2c-2.8,0-5.7,0-8.5,0c-1.5,2-6.6,5.2-9,6
	c-5-0.2-10-0.3-15-0.5c-0.3,0.5-0.7,1-1,1.5c-5.9,2.7-14.5-3.3-18-5c-2.5-1.2-3.7,1.5-6,1c-3.3-0.8-7.4-3.7-11.5-4
	c-3.6,5.1-8.6,0.2-13.5-0.5c-4.9-0.7-8.3,4.8-14,2.5c-2.6-1-6.4-4.4-11.5-3c-3.2,0.9-6.3,4.1-9.5,5c-2.9,0.8-5.9-1-8-1.5
	c-5.6-1.3-8.4,2.6-13,1.5c-2-0.5-3.3-2.3-5-3c-2.6-1-4.6-0.7-7-2c-0.7-0.7-1.3-1.3-2-2c-4,0-8,0-12,0c-0.8-0.3-1.7-1.7-2.5-2
	c-2.3-0.8-15.8-0.7-17.5,0c-1.3,0.5-3.7,2.5-5.5,3c-2.6,0.7-3.5-0.8-6-1c-1,1.6-2.3,2.7-3.5,4c-5.5,0.1-10.7-0.6-15-1
	c-1.1,1.7-1.7,2.4-4.5,2.5C62.5,7,62,6.7,60,6.6c-1,1.4-1.5,1.5-4,1.5c-2-2-3.6-0.5-7-1.5c-1.9-0.5-7.2-5-10-4c-0.7,0.2-2,1.9-3,2
	c-2.5,0.4-3.8-3.6-7-2c-3.9,1.9-6.7,5.7-12,6C10.7,3,5,8.8,0,10.3V17z"/>
</svg>
