<?xml version="1.0" encoding="utf-8"?>
<!-- Generator: Adobe Illustrator 25.4.1, SVG Export Plug-In . SVG Version: 6.00 Build 0)  -->
<svg version="1.1" id="Layer_1" xmlns="http://www.w3.org/2000/svg" xmlns:xlink="http://www.w3.org/1999/xlink" x="0px" y="0px"
	 viewBox="0 0 798 73.3" style="enable-background:new 0 0 798 73.3;" xml:space="preserve">
<style type="text/css">
	.st0{opacity:0.5;fill:#FFED01;}
</style>
<path class="st0" d="M788,0.3H10c-5.5,0-10,4.5-10,10v52.2c1.4,0.4,2.6,1.2,4.5,0.8c2.1-0.5,4.4-3.3,8-2c1.4,0.5,0.9,1.5,3,2
	c4.9-6.4,17.8-5.4,26.5-3.5c5.3,1.2,7.8-2.7,12-1.5c2.1,0.6,2.8,3.3,5,2.5c2.8-0.7,3-2.4,7-2.5c0.4,0.5,4.1,3.9,4.5,4
	c2.6,0.9,6.6-1,8.5,0.5c0.8,0.6,2,3.2,2.5,4c3.3-2,12.9-4.7,19-3c2.3,0.6,3.5,4,7,3l1.5-1.5h11c2.4-0.7,6.9-2.4,9-3
	c2.5,0.3,5,0.7,7.5,1c4-1.3,3.8-4.9,11-5c2.2,3,4.1,1.4,8.5,2.5c0.2,0.1,1,1.1,1.5,1c1.3-0.2,2-2.1,4.5-1.5s4,3.4,6,4
	c2.5,0.7,6-1.2,8.5,0.5c1.3,0.8,2.5,3.3,4,4c1.7,0.2,3.3,0.3,5,0.5c0.7,0.7,1.3,1.3,2,2c2.1,0.6,2.4-1.1,3.5-1.5h7.5
	c1.2-0.4,2.3-1.9,4.5-1.5c2.5,0.5,3.4,2.8,5,3.5c2.5-0.2,5-0.3,7.5-0.5c0.7,0.2,2.5,1.4,3,1.5c2.5,0.6,6.5-1.5,8-2h7
	c3.4-1,8.1-1.1,11.5-2c3-0.2,6-0.3,9-0.5c2.1-0.8,5.3-2.9,7.5-3.5c4.6-1.2,14.1,4.5,17.5,4c8.6-1.3,15.2-5.7,23-7
	c4.6-0.8,8.7,2.7,14,1c2.8-0.9,3.7-2.4,8-2.5c0.1,0.1,14.3,8.9,14.5,9c2.6,0.8,9.6-1.1,13.5-0.5c1.7,0.3,1.2,2,3.5,1.5
	c0.5-0.5,1-1,1.5-1.5h12c0.5-0.7,1-1.3,1.5-2c2.6-1.6,6.9-0.8,9.5,0h8c2.8,0.9,13.7,4.7,16,1c1.2-1.5,0.9-3.4,1.5-4.5
	c0.6-0.4,0.8-0.4,2-0.5c2.2,2.1,7.9-1.8,10-1c1.5,0.6,1.5,1.9,4.4,2c0.2-0.3,0.2-0.4,0.4-0.7c-0.7-0.8-0.5-0.6-0.7-1.8
	c1-0.4,2.3-0.5,4-0.5c0.6,0.7,1,1.1,1.5,2c3.7-2.9,16.4-7.4,24-5c1.6,0.5,1.7,2.7,4.5,2l1-1c4.2,0.2,8.3,0.3,12.5,0.5
	c1.5-0.6,5.6-3.5,9-2.5l1.5,1.5c2.5,0.2,5,0.3,7.5,0.5l1.5,1.5c2.7,1,5.2,0,7.5,1c1.6,0.7,2.6,2.5,4.5,3c4.2,0.2,8.3,0.3,12.5,0.5
	c1,0.3,1.9,1.7,2.5,2h8.5c1.5-2,6.6-5.2,9-6c5,0.2,10,0.3,15,0.5c0.3-0.5,0.7-1,1-1.5c5.9-2.7,14.5,3.3,18,5c2.5,1.2,3.7-1.5,6-1
	c3.3,0.8,7.4,3.7,11.5,4c3.6-5.1,8.6-0.2,13.5,0.5s8.3-4.8,14-2.5c2.6,1,6.4,4.4,11.5,3c3.2-0.9,6.3-4.1,9.5-5c2.9-0.8,5.9,1,8,1.5
	c5.6,1.3,8.4-2.6,13-1.5c2,0.5,3.3,2.3,5,3c2.6,1,4.6,0.7,7,2c0.7,0.7,1.3,1.3,2,2h12c0.8,0.3,1.7,1.7,2.5,2
	c2.3,0.8,15.8,0.7,17.5,0c1.3-0.5,3.7-2.5,5.5-3c2.6-0.7,3.5,0.8,6,1c1-1.6,2.3-2.7,3.5-4c5.5-0.1,10.7,0.6,15,1
	c1.1-1.7,1.7-2.4,4.5-2.5c1,1,1.5,1.3,3.5,1.4c1-1.4,1.5-1.5,4-1.5c2,2,3.6,0.5,7,1.5c1.9,0.5,7.2,5,10,4c0.7-0.2,2-1.9,3-2
	c2.5-0.4,3.8,3.6,7,2c3.9-1.9,6.7-5.7,12-6c6.3,5.6,12-0.2,17-1.7V10.3C798,4.8,793.5,0.3,788,0.3z"/>
</svg>
