<?xml version="1.0" encoding="utf-8"?>
<!-- Generator: Adobe Illustrator 25.2.3, SVG Export Plug-In . SVG Version: 6.00 Build 0)  -->
<svg version="1.1" id="Layer_1" xmlns="http://www.w3.org/2000/svg" xmlns:xlink="http://www.w3.org/1999/xlink" x="0px" y="0px"
	 viewBox="0 0 88.7 133.2" style="enable-background:new 0 0 88.7 133.2;" xml:space="preserve">
<style type="text/css">
	.st0{fill:url(#SVGID_1_);}
	.st1{fill:#255468;}
	.st2{fill:url(#SVGID_2_);}
	.st3{fill:#FFFFFF;}
	.st4{fill:url(#SVGID_3_);}
	.st5{fill:#01384D;}
	.st6{fill:#84C2EB;}
	.st7{fill:#57A8DD;}
	.st8{fill:url(#SVGID_4_);}
	.st9{fill:url(#SVGID_5_);}
	.st10{fill:url(#SVGID_6_);}
	.st11{fill:url(#SVGID_7_);}
	.st12{fill:#009BD1;}
	.st13{fill:#F0AF1F;}
	.st14{fill:#D66F2A;}
	.st15{fill:#FFD600;}
	.st16{fill:#7CCCBF;}
</style>
<linearGradient id="SVGID_1_" gradientUnits="userSpaceOnUse" x1="-3509.3701" y1="441.5509" x2="-3462.4399" y2="441.5509" gradientTransform="matrix(-1 0 0 1 -3451.76 -344)">
	<stop  offset="0" style="stop-color:#255468"/>
	<stop  offset="1" style="stop-color:#01384D"/>
</linearGradient>
<path class="st0" d="M10.7,108c0.3-5.6,3.2-10.6,7.9-13.7l25.9-15c2.2-1.2,4.1-1.3,5.5-0.5l0,0l0,0l0,0l7.5,3.8l-37.1,34.3l-7.3-3.7
	l-0.2-0.1l-0.1-0.1l0,0C11.5,112.1,10.7,110.4,10.7,108z"/>
<path class="st1" d="M26.2,116.4l25.9-15c4.7-3,7.6-8.1,7.9-13.6c0-5-3.5-7.1-7.9-4.6l-25.9,15c-4.7,3-7.6,8.1-7.9,13.7
	C18.3,116.9,21.8,118.9,26.2,116.4z"/>
<linearGradient id="SVGID_2_" gradientUnits="userSpaceOnUse" x1="-3510.7539" y1="427.1211" x2="-3486.5178" y2="469.0915" gradientTransform="matrix(-1 0 0 1 -3451.76 -344)">
	<stop  offset="0" style="stop-color:#FFFFFF"/>
	<stop  offset="1" style="stop-color:#96C2E0"/>
</linearGradient>
<path class="st2" d="M18.3,111.8c0.3-5.6,3.2-10.6,7.9-13.7l25.9-15c2.2-1.2,4.1-1.4,5.5-0.6l0,0l0,0l0,0l21.2,12l-37.1,34.3
	l-21-11.9l-0.2-0.1l-0.1-0.1l0,0C19,115.9,18.3,114.2,18.3,111.8z"/>
<path class="st3" d="M47.3,128.4l25.9-15c4.4-2.5,7.9-8.6,7.9-13.7s-3.5-7.1-7.9-4.6l-25.9,15c-4.7,3-7.6,8.1-7.9,13.7
	C39.4,128.9,43,130.9,47.3,128.4z"/>
<linearGradient id="SVGID_3_" gradientUnits="userSpaceOnUse" x1="-3538.1401" y1="457.3694" x2="-3491.2402" y2="457.3694" gradientTransform="matrix(-1 0 0 1 -3451.76 -344)">
	<stop  offset="0" style="stop-color:#255468"/>
	<stop  offset="1" style="stop-color:#01384D"/>
</linearGradient>
<path class="st4" d="M39.4,123.8c0.3-5.6,3.2-10.7,7.9-13.7l25.9-14.9c2.2-1.2,4.1-1.4,5.5-0.6l0,0l0,0l0,0l7.6,3.8l-37.1,34.3
	l-7.3-3.7c-0.1,0-0.2-0.1-0.2-0.1l-0.1-0.1l0,0C40.2,127.9,39.4,126.2,39.4,123.8z"/>
<path class="st5" d="M54.9,132.2l25.9-14.9c4.7-3,7.6-8.1,7.9-13.7c0-5-3.5-7.1-7.9-4.6l-25.9,15c-4.7,3-7.6,8.1-7.9,13.6
	C47,132.7,50.6,134.7,54.9,132.2z"/>
<path class="st6" d="M51.4,130.8c0.8,0,1.6-0.3,2.3-0.8l25.9-15c3.9-2.6,6.4-6.9,6.7-11.6c0-1.2-0.2-3.2-1.9-3.2
	c-0.8,0-1.6,0.3-2.3,0.8l-26,15c-3.9,2.6-6.4,6.9-6.7,11.6C49.5,128.8,49.7,130.8,51.4,130.8z"/>
<path class="st5" d="M33.7,82.8h29.7v14.5c0,2.2-1.5,4.4-4.4,6.1c-5.8,3.3-15.2,3.3-21,0c-2.9-1.7-4.3-3.9-4.3-6.1V82.8z"/>
<ellipse class="st1" cx="48.5" cy="82.8" rx="14.8" ry="8.6"/>
<path class="st3" d="M4,73.4L6.4,76l34.1-13.9l-2.3-2.5c-0.7-0.7-1.6-0.9-2.5-0.6l-26,5c-2.4,0.5-5.1,3.2-6,5.9
	C3.2,71.4,3.3,72.7,4,73.4z"/>
<path class="st7" d="M12.1,66.6l26-5.1c2.4-0.5,3.7,1.3,2.8,4c-0.9,2.7-3.6,5.4-6,5.9l-26,5.1c-2.4,0.5-3.7-1.3-2.8-4
	S9.6,67.2,12.1,66.6z"/>
<path class="st1" d="M34.5,67.5c0.3-1.4,1.3-2.5,2.6-3c1.2-0.4,2,0.3,1.7,1.5c-0.3,1.4-1.3,2.5-2.6,3C35,69.5,34.2,68.8,34.5,67.5z"
	/>
<path class="st3" d="M40.5,29.2l2.6,2.3L29.8,64.7l-2.6-2.3c-0.7-0.6-0.9-1.6-0.7-2.5L31.2,35c0.5-2.5,3.1-5.2,5.8-6.1
	C38.5,28.4,39.8,28.6,40.5,29.2z"/>
<path class="st6" d="M33.9,37.4l-4.7,24.9c-0.5,2.4,1.3,3.7,4.1,2.7s5.3-3.7,5.8-6.1L43.8,34c0.5-2.5-1.3-3.7-4.1-2.8
	C36.9,32.1,34.3,35,33.9,37.4z"/>
<path class="st1" d="M36.9,36c0.7-1.2,1.9-2,3.3-2.2c1.3-0.1,1.8,0.8,1.3,1.9c-0.7,1.2-1.9,2-3.3,2.2C37,38,36.4,37.1,36.9,36z"/>
<linearGradient id="SVGID_4_" gradientUnits="userSpaceOnUse" x1="-3523.3601" y1="412.6843" x2="-3477.26" y2="412.6843" gradientTransform="matrix(-1 0 0 1 -3451.76 -344)">
	<stop  offset="0" style="stop-color:#96C2E0"/>
	<stop  offset="1" style="stop-color:#FFFFFF"/>
</linearGradient>
<path class="st8" d="M25.5,86.6c0.1,1.3,0.8,2.4,2,2.9l15.8,9.1c2.9,1.7,8,1.5,11.4-0.5L68.8,90c1.8-1.1,2.8-2.4,2.8-3.7V41
	l-40.2-3.3L25.5,86.6z"/>
<path class="st3" d="M53.8,28.8L69.6,38c2.9,1.7,2.6,4.6-0.8,6.6l-8.2,4.6c-3.4,1.9-8.5,2.2-11.4,0.5l-15.8-9.2
	c-2.9-1.7-2.5-4.6,0.8-6.6l8.3-4.6C45.8,27.4,50.9,27.1,53.8,28.8z"/>
<path class="st5" d="M45.1,30.6h14.8v7.2c-0.1,1.3-1,2.5-2.2,3c-3.3,1.7-7.2,1.7-10.4,0c-1.2-0.5-2-1.7-2.2-3L45.1,30.6z"/>
<path class="st1" d="M47.3,33.7c3.3,1.7,7.2,1.7,10.4,0c2.9-1.7,2.9-4.4,0-6c-3.3-1.7-7.2-1.7-10.4,0C44.4,29.3,44.4,32,47.3,33.7z"
	/>
<linearGradient id="SVGID_5_" gradientUnits="userSpaceOnUse" x1="-3518.3938" y1="378.5579" x2="-3498.3521" y2="343.8579" gradientTransform="matrix(-1 0 0 1 -3451.76 -344)">
	<stop  offset="0" style="stop-color:#96C2E0"/>
	<stop  offset="1" style="stop-color:#FFFFFF"/>
</linearGradient>
<path class="st9" d="M45.6,0.5c1.3-0.7,2.8-0.6,4,0.3l15.5,9.1c3.3,1.9,6,7,6,11.4v7.1c0,2.4-0.8,4.1-2.1,4.8L59.2,39L36,6.2
	L45.6,0.5z"/>
<path class="st6" d="M39.9,29.4l15.5,9.1c3.3,1.9,6-0.1,6-4.5v-7c0-4.4-2.7-9.5-6-11.4L39.9,6.5c-3.3-1.9-6,0.1-6,4.5v7
	C33.9,22.4,36.6,27.5,39.9,29.4z"/>
<linearGradient id="SVGID_6_" gradientUnits="userSpaceOnUse" x1="-3510.6599" y1="366.4594" x2="-3488.1201" y2="366.4594" gradientTransform="matrix(-1 0 0 1 -3451.76 -344)">
	<stop  offset="0" style="stop-color:#01384D"/>
	<stop  offset="1" style="stop-color:#255468"/>
</linearGradient>
<path class="st10" d="M57.8,36.8c0.8,0,1.2-1.4,1.2-2.8v-7c0-3.5-2.2-7.8-4.7-9.3L38.6,8.6c-0.3-0.2-0.7-0.3-1.1-0.4
	c-0.8,0-1.2,1.4-1.2,2.8v7c0,3.5,2.2,7.8,4.7,9.3l15.5,9.1C57,36.6,57.3,36.8,57.8,36.8z"/>
<linearGradient id="SVGID_7_" gradientUnits="userSpaceOnUse" x1="-3500.29" y1="400.7102" x2="-3484.26" y2="400.7102" gradientTransform="matrix(-1 0 0 1 -3451.76 -344)">
	<stop  offset="0" style="stop-color:#01384D"/>
	<stop  offset="1" style="stop-color:#255468"/>
</linearGradient>
<path class="st11" d="M33.9,58.2l12.2,7c0.8,0.4,1.4,0,1.4-1l1.1-6.2c0-1.1-0.5-2-1.4-2.7l-12.2-7c-0.8-0.4-1.4,0-1.4,1.1l-1.1,6.2
	C32.5,56.6,33,57.6,33.9,58.2z"/>
<path class="st12" d="M50.4,24.1c0.1,1.6,1,3.1,2.3,4c1.3,0.7,2.3,0.1,2.3-1.3c-0.1-1.6-1-3.1-2.3-4C51.5,22.1,50.4,22.7,50.4,24.1z
	"/>
<path class="st12" d="M39,18.1c0.1,1.6,1,3.1,2.3,4c1.3,0.7,2.3,0.1,2.3-1.3c-0.1-1.6-1-3.1-2.3-4C40,16.1,39,16.7,39,18.1z"/>
<polygon class="st13" points="39.2,91.9 39.2,116.8 60.3,104.6 60.3,79.7 "/>
<polygon class="st14" points="39.2,91.9 12.8,76.7 33.9,64.4 60.3,79.7 "/>
<polygon class="st3" points="52.4,93.4 39.2,91.9 60.2,79.7 73.5,81.2 "/>
<polygon class="st15" points="13.2,76.7 0,63 21.1,50.7 34.3,64.5 "/>
<polygon class="st15" points="39.2,116.8 12.8,101.6 12.8,76.7 39.2,91.9 "/>
<polygon class="st1" points="23.3,90.9 15.1,86.1 15.1,80.6 23.3,85.3 "/>
<polygon class="st16" points="19.2,97.4 15.1,95 15.1,89.5 19.2,91.8 "/>
<polygon class="st3" points="28.7,92 2.3,76.7 12.8,76.7 39.2,92 "/>
<polygon class="st15" points="59.8,79.4 34.3,64.8 44.8,52.5 70.3,67.2 "/>
<polygon class="st13" points="34.3,64.5 34.3,89.1 39.2,92 60.2,79.7 "/>
<path class="st3" d="M68.8,45.2l3.4,0.8l3.9,35.6l-3.4-0.8c-0.9-0.3-1.6-1-1.7-1.9l-7.6-24.1c-0.7-2.4,0.3-6,2.2-8.1
	C66.7,45.4,67.9,44.9,68.8,45.2z"/>
<path class="st6" d="M66.9,55.5l7.6,24.1c0.7,2.4,2.9,2.6,4.9,0.5s3-5.8,2.2-8.1L74,47.9c-0.7-2.4-2.9-2.6-4.9-0.5
	S66.2,53.1,66.9,55.5z"/>
<path class="st1" d="M68.9,52.8c0-1.4,0.7-2.7,1.8-3.5c1.1-0.7,2-0.2,2,1.1c0,1.4-0.7,2.7-1.8,3.5C69.9,54.5,69,54.1,68.9,52.8z"/>
<path class="st3" d="M57.5,101.3l3.3,1.1l23.6-28.3L81.1,73c-0.9-0.3-1.9,0-2.5,0.7L58,90.3c-1.9,1.6-3,5.2-2.5,8.1
	C55.8,100,56.5,101,57.5,101.3z"/>
<path class="st7" d="M61.4,91.5l20.5-16.7c1.9-1.6,3.9-0.6,4.4,2.2s-0.6,6.4-2.5,8.1l-20.5,16.7c-1.9,1.6-3.9,0.6-4.4-2.2
	S59.5,93.2,61.4,91.5z"/>
<path class="st1" d="M81.6,81.8c-0.3-1.3,0-2.8,0.9-3.8c0.3-0.6,1.1-0.7,1.6-0.4c0.3,0.2,0.5,0.5,0.6,0.9c0.3,1.4,0,2.8-0.9,3.9
	c-0.4,0.6-1.1,0.7-1.7,0.4C81.8,82.5,81.6,82.2,81.6,81.8z"/>
</svg>
