<svg xmlns="http://www.w3.org/2000/svg" xmlns:xlink="http://www.w3.org/1999/xlink" viewBox="0 0 1342.6 577.3"><defs><linearGradient id="a" x1="1401.34" y1="-18.85" x2="1401.34" y2="446.16" gradientTransform="translate(2072.64 488.6) rotate(180)" gradientUnits="userSpaceOnUse"><stop offset="0" stop-color="#fff" stop-opacity="0.4"/><stop offset="1" stop-color="#fff" stop-opacity="0"/></linearGradient><linearGradient id="b" x1="671.3" y1="-61.95" x2="671.3" y2="116.17" gradientTransform="matrix(1, 0, 0, -1, 0, 488.6)" xlink:href="#a"/></defs><title>robot-waves</title><path d="M1311.9,555.4c-116.2-46-296.1,5.5-461.7-21.6S602.5,494.1,348.9,519C125,541,36,419.6,0,389.1V577.3H1342.6v-2.4C1331.4,570,1321.6,559.3,1311.9,555.4Z" fill="#fff" opacity="0.5" style="isolation:isolate"/><path d="M0,521.2V0H1342.6V433.8Q999.85,303.45,671.3,494.1,571.4,552,470,577.3H155.3Q78,558.4,0,521.2Z" fill-rule="evenodd" fill="url(#a)"/><path d="M1342.6,533.9V356.2H0V529.9Q342.75,477.7,671.3,554c66.7,15.5,93.8,23.3,207.7,23.3s312.7-8.2,312.7-8.2C1243.2,564.1,1290.6,543.9,1342.6,533.9Z" fill-rule="evenodd" fill="url(#b)"/><path d="M99.69,537.43a3.88,3.88,0,0,1-2.34,3.42l-6.49,3.57c-3.43,1.92-9.36,1.59-13.26-.73L53.21,529.24C51.08,528,50,526.37,50,524.87l.06-7,49.67,12.72Z" fill="none" stroke="#fff" stroke-miterlimit="10" stroke-width="1.71"/><path d="M58.92,511.07l-6.5,3.58c-3.43,1.92-3.05,5.35.85,7.67l24.39,14.46c3.9,2.32,9.83,2.64,13.26.73l6.49-3.58c3.43-1.92,3-5.35-.84-7.67L72.17,511.8C68.27,509.48,62.34,509.16,58.92,511.07Z" fill="none" stroke="#fff" stroke-miterlimit="10" stroke-width="1.71"/><path d="M73.05,392.3l-4.15,2.53L82.07,468l4.12-2.52c1.46-.82,2.33-2.49,2.3-4.87l1.27-53c-.07-5.16-4.33-11.71-9.52-14.63C77.33,391.37,74.76,391.22,73.05,392.3Z" fill="none" stroke="#fff" stroke-miterlimit="10" stroke-width="1.71"/><path d="M85.4,410.28l-1.27,53c.07,5.16-2.66,6.27-7.85,3.35S69,458,68.9,452.82l-2.32-53.1c-.06-5.16,4.1-7,9.3-4.06S85.34,405.12,85.4,410.28Z" fill="none" stroke="#fff" stroke-miterlimit="10" stroke-width="1.71"/><path d="M71,447.6l-17.24,8,8.26,73.86,17.21-8c1.51-.72,2.49-2.33,2.62-4.71L86.67,464c.28-5.15-3.53-12-8.52-15.23C75.36,447,72.8,446.64,71,447.6Z" fill="none" stroke="#fff" stroke-miterlimit="10" stroke-width="1.71"/><path d="M69.22,472.12l-4.79,52.77c-.28,5.15-3.08,6.07-8.07,2.81S50,522.21,50,522.21l1.13-61.88c.28-5.15,4.55-6.69,9.54-3.43S69.5,467,69.22,472.12Z" fill="none" stroke="#fff" stroke-miterlimit="10" stroke-width="1.71"/><path d="M55.94,398.57l-4.15,2.53L65,474.25l4.12-2.52c1.46-.82,2.33-2.49,2.3-4.87l1.27-53c-.07-5.16-4.33-11.71-9.52-14.63C60.22,397.64,57.65,397.49,55.94,398.57Z" fill="none" stroke="#fff" stroke-miterlimit="10" stroke-width="1.71"/><path d="M68.29,416.55l-1.26,53c.06,5.16-2.67,6.26-7.86,3.35s-7.31-8.61-7.38-13.77L49.48,406c-.07-5.16,4.09-7,9.29-4.06S68.23,411.39,68.29,416.55Z" fill="none" stroke="#fff" stroke-miterlimit="10" stroke-width="1.71"/><path d="M91.33,378.78a8.76,8.76,0,1,1-9.17-8.32A8.77,8.77,0,0,1,91.33,378.78Z" fill="none" stroke="#fff" stroke-miterlimit="10" stroke-width="1.71"/><path d="M88.12,333.38l-15.44.75,1.86,38.63A3.84,3.84,0,0,0,77,375.81a12.09,12.09,0,0,0,10.92-.53A3.83,3.83,0,0,0,90,372Z" fill="none" stroke="#fff" stroke-miterlimit="10" stroke-width="1.71"/><path d="M86,336.64a12.09,12.09,0,0,1-10.92.53c-3.1-1.6-3.23-4.42-.3-6.3a12.07,12.07,0,0,1,10.91-.53C88.8,331.94,88.94,334.76,86,336.64Z" fill="none" stroke="#fff" stroke-miterlimit="10" stroke-width="1.71"/><path d="M125,393.74,118,407.48,83.57,389.77a3.82,3.82,0,0,1-1.76-3.45,12.08,12.08,0,0,1,5-9.72,3.85,3.85,0,0,1,3.84-.57Z" fill="none" stroke="#fff" stroke-miterlimit="10" stroke-width="1.71"/><path d="M121.2,394.31a12.07,12.07,0,0,0-5,9.71c.16,3.48,2.67,4.78,5.6,2.89a12.09,12.09,0,0,0,5-9.71C126.64,393.72,124.13,392.42,121.2,394.31Z" fill="none" stroke="#fff" stroke-miterlimit="10" stroke-width="1.71"/><path d="M88.09,332.88A7.72,7.72,0,1,1,80,325.54,7.73,7.73,0,0,1,88.09,332.88Z" fill="none" stroke="#fff" stroke-miterlimit="10" stroke-width="1.71"/><path d="M134.42,405.72a.22.22,0,0,1,0,.08v0a3.36,3.36,0,0,1-1.83,2.74,10.48,10.48,0,0,1-9.44.46l-6.35-3.18-.18-3.8,17.61.12Z" fill="none" stroke="#fff" stroke-miterlimit="10" stroke-width="1.71"/><path d="M132.42,404.78a10.44,10.44,0,0,1-9.44.45l-6.35-3.17,9.17-5.91,6.36,3.18C134.84,400.71,135,403.15,132.42,404.78Z" fill="none" stroke="#fff" stroke-miterlimit="10" stroke-width="1.71"/><path d="M70.2,554.52a3.91,3.91,0,0,1-2.34,3.42l-6.5,3.57c-3.42,1.92-9.36,1.59-13.25-.73l-24.4-14.45c-2.13-1.27-3.2-2.87-3.19-4.37l.06-7,49.68,12.71Z" fill="none" stroke="#fff" stroke-miterlimit="10" stroke-width="1.71"/><path d="M29.42,528.17l-6.5,3.57c-3.42,1.92-3,5.35.85,7.67l24.4,14.46c3.89,2.32,9.83,2.64,13.25.73l6.5-3.58c3.42-1.91,3-5.35-.85-7.67l-24.4-14.46C38.78,526.58,32.84,526.25,29.42,528.17Z" fill="none" stroke="#fff" stroke-miterlimit="10" stroke-width="1.71"/><path d="M43.56,409.39l-4.15,2.54,13.16,73.14,4.12-2.52c1.46-.82,2.33-2.49,2.31-4.87l1.26-53c-.06-5.16-4.32-11.71-9.52-14.63C47.84,408.46,45.26,408.31,43.56,409.39Z" fill="none" stroke="#fff" stroke-miterlimit="10" stroke-width="1.71"/><path d="M55.9,427.37l-1.26,53c.06,5.16-2.66,6.26-7.86,3.34s-7.31-8.61-7.37-13.77l-2.32-53.1c-.06-5.16,4.1-7,9.29-4.06S55.84,422.21,55.9,427.37Z" fill="none" stroke="#fff" stroke-miterlimit="10" stroke-width="1.71"/><path d="M41.53,464.7l-17.24,8,8.26,73.86,17.21-8c1.51-.72,2.5-2.33,2.63-4.71l4.79-52.76c.28-5.15-3.54-12-8.53-15.23C45.86,464.05,43.3,463.73,41.53,464.7Z" fill="none" stroke="#fff" stroke-miterlimit="10" stroke-width="1.71"/><path d="M39.72,489.21,34.93,542c-.28,5.15-3.07,6.07-8.06,2.81s-6.35-5.49-6.35-5.49l1.13-61.88c.28-5.15,4.56-6.69,9.55-3.43S40,484.06,39.72,489.21Z" fill="none" stroke="#fff" stroke-miterlimit="10" stroke-width="1.71"/><path d="M26.45,415.66,22.3,418.2l13.16,73.14,4.12-2.52c1.46-.82,2.34-2.49,2.31-4.87l1.26-53c-.06-5.16-4.32-11.71-9.52-14.63C30.73,414.73,28.15,414.58,26.45,415.66Z" fill="none" stroke="#fff" stroke-miterlimit="10" stroke-width="1.71"/><path d="M38.8,433.64l-1.27,53c.06,5.15-2.66,6.26-7.86,3.34s-7.31-8.61-7.37-13.77L20,423.08c-.06-5.16,4.1-7,9.3-4.06S38.73,428.48,38.8,433.64Z" fill="none" stroke="#fff" stroke-miterlimit="10" stroke-width="1.71"/><path d="M62.56,313.09c-2.5-1.58-5.81-1.51-9.45.59L34.38,324.5C26.62,329,20.32,341,20.32,351.35v66.49c0,5.65,1.88,9.62,4.85,11.35l29.88,10.53L92.57,330.31Z" fill="none" stroke="#fff" stroke-miterlimit="10" stroke-width="1.71"/><path d="M82.92,428.12,64.19,438.94c-7.77,4.48-14.06-.28-14.06-10.62l.44-59.61c0-10.34,6.29-22.37,14.05-26.85l18.74-10.81c7.76-4.48,14,.27,14,10.62L97,401.27C97,411.62,90.68,423.64,82.92,428.12Z" fill="none" stroke="#fff" stroke-miterlimit="10" stroke-width="1.71"/><path d="M73.55,293.74H48v32.51c0,1.89,1.25,3.78,3.75,5.22,5,2.88,13.07,2.88,18.06,0,2.5-1.44,3.74-3.33,3.74-5.22Z" fill="none" stroke="#fff" stroke-miterlimit="10" stroke-width="1.71"/><path d="M69.81,299c-5,2.88-13.08,2.88-18.06,0s-5-7.55,0-10.43,13.07-2.88,18.06,0S74.8,296.08,69.81,299Z" fill="none" stroke="#fff" stroke-miterlimit="10" stroke-width="1.71"/><path d="M60.78,301.68a19.08,19.08,0,0,1-9.32-2.22c-2.6-1.5-4-3.53-4-5.72s1.43-4.21,4-5.71c5.14-3,13.5-3,18.64,0,2.6,1.5,4,3.53,4,5.71s-1.43,4.22-4,5.72A19.11,19.11,0,0,1,60.78,301.68Zm0-14.74A17.91,17.91,0,0,0,52,289c-2.22,1.29-3.45,3-3.45,4.72s1.23,3.43,3.45,4.72c4.83,2.78,12.67,2.79,17.5,0,2.22-1.29,3.45-3,3.45-4.72s-1.23-3.43-3.45-4.72A17.94,17.94,0,0,0,60.78,286.94Z" fill="none" stroke="#fff" stroke-miterlimit="10" stroke-width="1.71"/><path d="M88.45,287H33.11v16c0,4.09,2.7,8.18,8.1,11.3,10.81,6.24,28.33,6.24,39.14,0,5.4-3.12,8.1-7.21,8.1-11.3Z" fill="none" stroke="#fff" stroke-miterlimit="10" stroke-width="1.71"/><ellipse cx="60.78" cy="286.96" rx="27.67" ry="15.98" fill="none" stroke="#fff" stroke-miterlimit="10" stroke-width="1.71"/><path d="M60.78,259.29A27.67,27.67,0,0,0,33.11,287c0,4.09,2.7,8.18,8.1,11.3,10.81,6.24,28.33,6.24,39.14,0,5.4-3.12,8.1-7.21,8.1-11.3A27.67,27.67,0,0,0,60.78,259.29Z" fill="none" stroke="#fff" stroke-miterlimit="10" stroke-width="1.71"/><ellipse cx="42.96" cy="299.06" rx="5.62" ry="9.73" transform="translate(-143.78 61.55) rotate(-30)" fill="none" stroke="#fff" stroke-miterlimit="10" stroke-width="1.71"/><path d="M73.23,300.31a6.31,6.31,0,0,1-2.85,4.94c-1.58.91-2.85.17-2.85-1.65a6.25,6.25,0,0,1,2.85-4.93C72,297.76,73.23,298.49,73.23,300.31Z" fill="none" stroke="#fff" stroke-miterlimit="10" stroke-width="1.71"/><path d="M86.24,294.46a6.29,6.29,0,0,1-2.85,4.94c-1.57.9-2.85.17-2.85-1.65a6.28,6.28,0,0,1,2.85-4.93C85,291.91,86.24,292.64,86.24,294.46Z" fill="none" stroke="#fff" stroke-miterlimit="10" stroke-width="1.71"/><path d="M43,294.81a8.14,8.14,0,0,1,3.68,6.37c0,2.35-1.65,3.3-3.68,2.12a8.12,8.12,0,0,1-3.68-6.37C39.28,294.59,40.93,293.64,43,294.81Z" fill="none" stroke="#fff" stroke-miterlimit="10" stroke-width="1.71"/><path d="M85.83,393.89,65.65,405.54c-3.09,1.78-5.65.5-5.87-2.94l-2.34-37.51c-.4-6.45,4.19-14.78,10-18.13l16.63-9.6c5.8-3.35,10.39-.32,10,6.6L91.7,384.17A13.08,13.08,0,0,1,85.83,393.89Z" fill="none" stroke="#fff" stroke-miterlimit="10" stroke-width="1.71"/><path d="M86.66,360.36,64.83,373c-1.79,1-3.25-.07-3.25-2.46v-8.16a7.77,7.77,0,0,1,3.25-6.2l21.83-12.6c1.79-1,3.24.06,3.24,2.45v8.16A7.77,7.77,0,0,1,86.66,360.36Z" fill="none" stroke="#fff" stroke-miterlimit="10" stroke-width="1.71"/><path d="M24.57,398a8.75,8.75,0,1,1-4.21-11.64A8.75,8.75,0,0,1,24.57,398Z" fill="none" stroke="#fff" stroke-miterlimit="10" stroke-width="1.71"/><path d="M43,356.35l-14-6.56-16.42,35a3.82,3.82,0,0,0,.71,3.82,12.08,12.08,0,0,0,9.89,4.64,3.84,3.84,0,0,0,3.39-1.9Z" fill="none" stroke="#fff" stroke-miterlimit="10" stroke-width="1.71"/><path d="M39.57,358.25a12.11,12.11,0,0,1-9.89-4.64c-2-2.86-.79-5.42,2.68-5.72a12.11,12.11,0,0,1,9.89,4.64C44.24,355.39,43,358,39.57,358.25Z" fill="none" stroke="#fff" stroke-miterlimit="10" stroke-width="1.71"/><path d="M47.38,427,34.7,435.8,12.58,404.07a3.84,3.84,0,0,1,.05-3.88,12.09,12.09,0,0,1,9-6.25,3.86,3.86,0,0,1,3.66,1.29Z" fill="none" stroke="#fff" stroke-miterlimit="10" stroke-width="1.71"/><path d="M43.72,425.67a12.1,12.1,0,0,0-9,6.25c-1.48,3.16.14,5.47,3.61,5.18a12.1,12.1,0,0,0,9-6.25C48.8,427.69,47.19,425.38,43.72,425.67Z" fill="none" stroke="#fff" stroke-miterlimit="10" stroke-width="1.71"/><path d="M43.17,355.89a7.73,7.73,0,1,1-3.71-10.27A7.72,7.72,0,0,1,43.17,355.89Z" fill="none" stroke="#fff" stroke-miterlimit="10" stroke-width="1.71"/><path d="M50.07,442l0,.07,0,0a3.34,3.34,0,0,1-2.89,1.57,10.43,10.43,0,0,1-8.56-4l-4.13-5.78,1.61-3.45,15.52,8.35Z" fill="none" stroke="#fff" stroke-miterlimit="10" stroke-width="1.71"/><path d="M48.74,440.17a10.42,10.42,0,0,1-8.55-4l-4.14-5.78,10.88-.92,4.13,5.77C52.78,437.7,51.74,439.92,48.74,440.17Z" fill="none" stroke="#fff" stroke-miterlimit="10" stroke-width="1.71"/><polygon points="1260.38 524.19 1260.38 572.54 1219.44 548.79 1219.44 500.44 1260.38 524.19" fill="none" stroke="#fff" stroke-miterlimit="10" stroke-width="1.94"/><polygon points="1260.38 524.19 1311.78 494.51 1270.84 470.76 1219.44 500.44 1260.38 524.19" fill="none" stroke="#fff" stroke-miterlimit="10" stroke-width="1.94"/><polygon points="1234.83 527.05 1260.53 524.1 1219.59 500.35 1193.89 503.3 1234.83 527.05" fill="none" stroke="#fff" stroke-miterlimit="10" stroke-width="1.94"/><polygon points="1310.94 494.59 1336.64 467.87 1295.7 444.11 1270 470.84 1310.94 494.59" fill="none" stroke="#fff" stroke-miterlimit="10" stroke-width="1.94"/><polygon points="1260.38 572.54 1311.78 542.87 1311.78 494.51 1260.38 524.19 1260.38 572.54" fill="none" stroke="#fff" stroke-miterlimit="10" stroke-width="1.94"/><polygon points="1291.31 522.12 1307.32 512.87 1307.32 502.13 1291.31 511.37 1291.31 522.12" fill="none" stroke="#fff" stroke-miterlimit="10" stroke-width="1.94"/><polygon points="1299.32 534.74 1307.32 530.12 1307.32 519.37 1299.32 523.99 1299.32 534.74" fill="none" stroke="#fff" stroke-miterlimit="10" stroke-width="1.94"/><polygon points="1280.85 524.25 1332.25 494.58 1311.78 494.59 1260.38 524.26 1280.85 524.25" fill="none" stroke="#fff" stroke-miterlimit="10" stroke-width="1.94"/><polygon points="1220.44 499.86 1270 471.36 1249.53 447.6 1199.97 476.09 1220.44 499.86" fill="none" stroke="#fff" stroke-miterlimit="10" stroke-width="1.94"/><polygon points="1270 470.84 1270 518.63 1260.38 524.26 1219.59 500.35 1270 470.84" fill="none" stroke="#fff" stroke-miterlimit="10" stroke-width="1.94"/></svg>