<svg xmlns="http://www.w3.org/2000/svg" viewBox="0 0 54 54"><circle cx="27" cy="27" r="27" fill="#fff"/><path fill="#959595" fill-rule="evenodd" d="M27 0a27 27 0 1 0 27 27A27 27 0 0 0 27 0zm0 53a26 26 0 1 1 26-26 26 26 0 0 1-26 26z"/><circle cx="27" cy="27" r="22" fill="#2196f3"/><path fill="#fff" d="M32.92 27.77L36 27l-3.08-.77a6 6 0 0 0-1.11-2.78l4.38-5.64-5.64 4.38a6 6 0 0 0-2.78-1.11L27 18l-.77 3.08a6 6 0 0 0-2.78 1.11l-5.64-4.38 4.38 5.64a6 6 0 0 0-1.11 2.78L18 27l3.08.77a6 6 0 0 0 1.11 2.78l-4.38 5.64 5.64-4.38a6 6 0 0 0 2.78 1.11L27 36l.77-3.08a6 6 0 0 0 2.78-1.11l5.64 4.38-4.38-5.64a6 6 0 0 0 1.11-2.78zm-2.38 2.77a5 5 0 1 1 0-7.08 5 5 0 0 1 0 7.08z" opacity=".3"/><path fill="#e81616" d="M25.59 25.59l2.82 2.82 11.32-14.14-14.14 11.32z"/><path fill="#fff" d="M25.59 25.59L14.27 39.73l14.14-11.32-2.82-2.82z"/></svg>