<svg xmlns="http://www.w3.org/2000/svg" viewBox="0 0 512 432.55"><path fill="#464655" d="M494.35 0H17.66A17.65 17.65 0 0 0 0 17.66v282.48h512V17.66A17.65 17.65 0 0 0 494.35 0zm-8.83 273.65h-459V26.48h459z"/><path fill="#bec8dc" d="M0 335.45a17.65 17.65 0 0 0 17.66 17.65h476.68A17.65 17.65 0 0 0 512 335.45v-35.31H0zm256-22.07a13.24 13.24 0 1 1-13.24 13.24A13.24 13.24 0 0 1 256 313.38z"/><path fill="#afbbd0" d="M177.66 414.9h156.69l-5.52-44.14H183.17l-5.51 44.14z"/><path fill="#bec8dc" d="M176.55 414.9a8.83 8.83 0 1 0 0 17.65h158.9a8.83 8.83 0 1 0 0-17.65h-158.9z"/><g fill="#96a5b9"><path d="M183.17 370.76h145.66l-2.21-17.66H185.38l-2.21 17.66z"/><circle cx="256" cy="326.62" r="13.24"/></g><path fill="#e6e6e6" d="M26.48 26.48h459.03v247.17H26.48z"/></svg>