<svg xmlns="http://www.w3.org/2000/svg" xmlns:xlink="http://www.w3.org/1999/xlink" viewBox="0 0 418.18 469.67"><defs><linearGradient id="a" x1="-6065.23" y1="89.9" x2="-5881.47" y2="89.9" gradientTransform="translate(-5768.85 540) rotate(180)" gradientUnits="userSpaceOnUse"><stop offset="0" stop-color="#255468"/><stop offset="1" stop-color="#01384d"/></linearGradient><linearGradient id="b" x1="-6070.67" y1="146.31" x2="-5975.82" y2="-17.98" gradientTransform="translate(-5768.85 540) rotate(180)" gradientUnits="userSpaceOnUse"><stop offset="0" stop-color="#fff"/><stop offset="1" stop-color="#96c2e0"/></linearGradient><linearGradient id="c" x1="-6177.85" y1="28.03" x2="-5994.09" y2="28.03" xlink:href="#a"/><linearGradient id="d" x1="-6120.02" y1="202.75" x2="-5939.32" y2="202.75" gradientTransform="translate(-5768.85 540) rotate(180)" gradientUnits="userSpaceOnUse"><stop offset="0" stop-color="#96c2e0"/><stop offset="1" stop-color="#fff"/></linearGradient><linearGradient id="e" x1="-6100.56" y1="336.63" x2="-6022.16" y2="472.44" xlink:href="#d"/><linearGradient id="f" x1="-6070.26" y1="383.98" x2="-5982.03" y2="383.98" gradientTransform="translate(-5768.85 540) rotate(180)" gradientUnits="userSpaceOnUse"><stop offset="0" stop-color="#01384d"/><stop offset="1" stop-color="#255468"/></linearGradient><linearGradient id="g" x1="-6029.67" y1="249.77" x2="-5966.92" y2="249.77" xlink:href="#f"/></defs><title>buildbot</title><path d="M112.62,490.9c0-19.73,13.85-43.72,30.94-53.58L245,378.78c8.45-4.88,16.11-5.38,21.69-2.25h0l.14.08h0l29.55,14.9L150.91,525.63l-28.73-14.47-1-.55-.52-.3h0C115.72,506.83,112.62,500.18,112.62,490.9Z" fill="url(#a)"/><path d="M173.23,523.73l101.4-58.54c17.08-9.87,30.93-33.86,30.93-53.58s-13.85-27.73-30.93-17.86l-101.4,58.54c-17.09,9.86-30.94,33.85-30.94,53.58S156.14,533.59,173.23,523.73Z" fill="#255468"/><path d="M142.29,505.87c0-19.73,13.85-43.72,30.94-53.58l101.4-58.54c8.45-4.89,16.11-5.38,21.69-2.26h0l.15.09h0l82.83,46.84L233.86,572.54l-82-46.41-1-.55-.52-.3h0C145.38,521.79,142.29,515.15,142.29,505.87Z" fill="url(#b)"/><path d="M256.18,570.64l101.39-58.55c17.09-9.86,30.94-33.85,30.94-53.58s-13.85-27.72-30.94-17.86L256.18,499.2c-17.09,9.86-30.94,33.85-30.94,53.58S239.09,580.5,256.18,570.64Z" fill="#fff"/><path d="M225.24,552.78c0-19.73,13.85-43.72,30.94-53.58l101.39-58.55c8.46-4.88,16.12-5.37,21.7-2.25h0l.15.09h0L409,453.4,263.53,587.5,234.8,573c-.33-.17-.64-.36-1-.55l-.52-.3h0C228.33,568.7,225.24,562.06,225.24,552.78Z" fill="url(#c)"/><path d="M285.84,585.6l101.4-58.54c17.09-9.86,30.94-33.85,30.94-53.58s-13.85-27.72-30.94-17.86l-101.4,58.55C268.76,524,254.91,548,254.91,567.75S268.76,595.47,285.84,585.6Z" fill="#01384d"/><path d="M272,580.27c1.79,0,4.82-.51,9-2.95l101.4-58.54c14.18-8.18,26.16-28.93,26.16-45.3,0-4.67-1-12.52-7.56-12.52-1.8,0-4.82.51-9,2.94L290.63,522.45c-14.18,8.18-26.16,28.93-26.16,45.3C264.47,572.42,265.45,580.27,272,580.27Z" fill="#84c2eb"/><path d="M202.66,392.09H319V449c0,8.59-5.68,17.18-17,23.74-22.71,13.11-59.53,13.11-82.25,0-11.35-6.56-17-15.15-17-23.74Z" fill="#01384d"/><ellipse cx="260.82" cy="392.09" rx="58.16" ry="33.58" fill="#255468"/><path d="M86.51,355.34l9.19,10L229.43,311l-9.14-10c-2.08-2.4-5.51-3.39-9.92-2.44l-101.71,20C99.11,320.6,88.56,331,85.1,341.74,83.17,347.74,83.86,352.59,86.51,355.34Z" fill="#fff"/><path d="M118.15,328.88l101.71-19.94c9.56-2.07,14.5,5,11,15.73s-14,21.13-23.56,23.2L105.64,367.81c-9.56,2.07-14.51-5-11-15.73S108.59,330.94,118.15,328.88Z" fill="#57a8dd"/><path d="M205.7,332.45a17.06,17.06,0,0,1,10.23-11.65c4.68-1.59,7.7,1,6.73,5.9a17.19,17.19,0,0,1-10.23,11.66C207.74,340,204.73,337.31,205.7,332.45Z" fill="#255468"/><path d="M229.32,182.48l10.17,9-52.2,129.93-10.12-9c-2.44-2-3.49-5.45-2.61-9.88l18.34-97.3c1.9-9.59,12.1-20.32,22.79-24C221.66,179.27,226.52,179.88,229.32,182.48Z" fill="#fff"/><path d="M203.42,214.58l-18.35,97.3c-1.9,9.59,5.23,14.42,15.92,10.77s20.89-14.37,22.79-24l18.34-97.3c1.9-9.6-5.23-14.42-15.92-10.78S205.31,205,203.42,214.58Z" fill="#84c2eb"/><path d="M215.44,208.93a17.14,17.14,0,0,1,12.85-8.69c4.94-.35,7.18,3,5,7.42a17.14,17.14,0,0,1-12.85,8.69C215.53,216.7,213.28,213.38,215.44,208.93Z" fill="#255468"/><path d="M170.47,407.22c0,4.23,2.48,8.27,7.7,11.28l62,35.79c11.41,6.59,31.34,5.76,44.52-1.85l55.59-32.09c7.17-4.15,10.86-9.44,10.89-14.48V228.31L193.75,215.77Z" fill="url(#d)"/><path d="M281.48,180.9l62,35.79c11.41,6.59,10,18.1-3.2,25.71L308,260.4c-13.17,7.61-33.11,8.43-44.52,1.84l-62-35.78c-11.41-6.59-10-18.1,3.19-25.71l32.31-18C250.13,175.14,270.06,174.32,281.48,180.9Z" fill="#fff"/><path d="M247.45,188h57.83v28.29c0,4.27-2.83,8.55-8.47,11.81-11.29,6.52-29.6,6.52-40.89,0-5.65-3.26-8.47-7.54-8.47-11.81Z" fill="#01384d"/><path d="M255.92,199.82c11.29,6.52,29.6,6.52,40.89,0s11.29-17.09,0-23.61-29.6-6.52-40.89,0S244.62,193.3,255.92,199.82Z" fill="#255468"/><path d="M249.41,69.82c4.14-2.62,9.64-2.51,15.68,1l60.68,35.66c12.88,7.44,23.33,27.41,23.33,44.59v27.59c0,9.38-3.12,16-8,18.85l-38.3,22.55-91.13-128Z" fill="url(#e)"/><path d="M227,183.11l60.67,35.66c12.89,7.44,23.34-.46,23.34-17.64V173.54c0-17.19-10.45-37.15-23.34-44.59L227,93.29c-12.89-7.44-23.34.45-23.34,17.64v27.59C203.62,155.7,214.07,175.66,227,183.11Z" fill="#84c2eb"/><path d="M296.9,212c3,0,4.51-5.48,4.51-10.88V173.54c0-13.64-8.67-30.6-18.56-36.31l-60.74-35.7a9.27,9.27,0,0,0-4.42-1.48c-3,0-4.51,5.47-4.51,10.88v27.59c0,13.63,8.68,30.6,18.56,36.31l60.74,35.7A9.19,9.19,0,0,0,296.9,212Z" fill="url(#f)"/><path d="M203.53,296l47.56,27.46c3,1.74,5.46-.11,5.46-4.13l4.27-24.42c0-4-2.45-8.69-5.46-10.43L207.8,257c-3-1.74-5.46.11-5.46,4.13l-4.27,24.41C198.07,289.57,200.51,294.24,203.53,296Z" fill="url(#g)"/><path d="M268.3,162.51c0,5.8,4.07,12.84,9.09,15.74s9.09.55,9.09-5.25-4.07-12.83-9.09-15.73S268.3,156.72,268.3,162.51Z" fill="#009bd1"/><path d="M223.34,139.05c0,5.79,4.07,12.84,9.09,15.74s9.08.55,9.08-5.25-4.06-12.84-9.08-15.73S223.34,133.26,223.34,139.05Z" fill="#009bd1"/><path d="M340.37,244.89,353.59,248l15.17,139.2-13.15-3.14c-3.11-.65-5.64-3.16-7-7.48L319,282.15c-2.84-9.36,1.1-23.63,8.81-31.88C332.11,245.66,336.68,243.91,340.37,244.89Z" fill="#fff"/><path d="M332.65,285.4l29.66,94.47c2.84,9.36,11.4,10.26,19.12,2s11.65-22.52,8.81-31.88l-29.66-94.47c-2.85-9.35-11.41-10.25-19.12-2S329.8,276.05,332.65,285.4Z" fill="#84c2eb"/><path d="M340.6,274.76A17.11,17.11,0,0,1,347.84,261c4.19-2.63,7.73-.76,7.92,4.18a17.16,17.16,0,0,1-7.24,13.72C344.33,281.57,340.79,279.7,340.6,274.76Z" fill="#255468"/><path d="M295.85,464.64l12.82,4.5L401,358.19l-12.76-4.48c-3-1.14-6.45-.4-9.9,2.52L298,421.74c-7.46,6.32-11.87,20.46-9.86,31.57C289.32,459.51,292.22,463.46,295.85,464.64Z" fill="#fff"/><path d="M311.29,426.4l80.31-65.51c7.46-6.33,15.15-2.45,17.16,8.67s-2.39,25.24-9.85,31.56L318.6,466.63c-7.46,6.33-15.14,2.44-17.16-8.67S303.83,432.72,311.29,426.4Z" fill="#57a8dd"/><path d="M390.19,388.31a17.14,17.14,0,0,1,3.54-15.11c3.38-3.61,7.28-2.69,8.72,2a17.14,17.14,0,0,1-3.54,15.11C395.53,394,391.63,393,390.19,388.31Z" fill="#255468"/><path d="M282.7,194.29c-.16,3.47-2.66,5.2-5.59,3.86s-5.18-5.24-5-8.71,5.83-9.25,5.83-9.25S282.85,190.82,282.7,194.29Z" fill="#009bd1"/></svg>