<svg viewbox="0 0 61.52 61.52" xmlns="http://www.w3.org/2000/svg">
    <path d="M5.58,49.52a3.59,3.59,0,0,0,3.59,3.59h.08a3.59,3.59,0,0,0,0-7.17H9.17A3.59,3.59,0,0,0,5.58,49.52Z" fill="#00b3ff"></path>
    <path d="M48,11.12a3.59,3.59,0,0,0,3.59,3.59h.08a3.59,3.59,0,0,0,0-7.17h-.08A3.58,3.58,0,0,0,48,11.12Z" fill="#ff6800"></path>
    <path d="M4.84,30.32a3.59,3.59,0,0,0,3.59,3.59h.08a3.59,3.59,0,0,0,0-7.17H8.43A3.58,3.58,0,0,0,4.84,30.32Z" fill="#aaaaab"></path>
    <path d="M27,30.32a3.59,3.59,0,0,0,3.59,3.59h.08a3.59,3.59,0,0,0,0-7.17h-.08A3.58,3.58,0,0,0,27,30.32Z" fill="#aaaaab"></path>
    <path d="M48,30.32a3.59,3.59,0,0,0,3.59,3.59h.08a3.59,3.59,0,0,0,0-7.17h-.08A3.58,3.58,0,0,0,48,30.32Z" fill="#aaaaab"></path>
    <path d="M26.79,49.52a3.59,3.59,0,0,0,3.59,3.59h.08a3.59,3.59,0,0,0,0-7.17h-.08A3.59,3.59,0,0,0,26.79,49.52Z" fill="#aaaaab"></path>
    <path d="M48,49.52a3.59,3.59,0,0,0,3.59,3.59h.08a3.59,3.59,0,0,0,0-7.17h-.08A3.59,3.59,0,0,0,48,49.52Z" fill="#aaaaab"></path>
    <path d="M5.58,11.12a3.59,3.59,0,0,0,3.59,3.59h.08a3.59,3.59,0,0,0,0-7.17H9.17A3.58,3.58,0,0,0,5.58,11.12Z" fill="#aaaaab"></path>
    <path d="M26.79,11.12a3.59,3.59,0,0,0,3.59,3.59h.08a3.59,3.59,0,0,0,0-7.17h-.08A3.58,3.58,0,0,0,26.79,11.12Z" fill="#aaaaab"></path>
    <path d="M4.84,30.32a3.59,3.59,0,0,0,3.59,3.59h.08a3.59,3.59,0,0,0,0-7.17H8.43A3.58,3.58,0,0,0,4.84,30.32Z" fill="#aaaaab"></path>
    <path d="M27,30.32a3.59,3.59,0,0,0,3.59,3.59h.08a3.59,3.59,0,0,0,0-7.17h-.08A3.58,3.58,0,0,0,27,30.32Z" fill="#aaaaab"></path>
    <path d="M48,49.52a3.59,3.59,0,0,0,3.59,3.59h.08a3.59,3.59,0,0,0,0-7.17h-.08A3.59,3.59,0,0,0,48,49.52Z" fill="#aaaaab"></path>
    <path d="M56,14.18a5.36,5.36,0,0,1-4.3,2.32h-.18a14.61,14.61,0,0,1,.65,1.61A10,10,0,0,1,52.06,25a5.36,5.36,0,0,1,4.25,2.79A15.57,15.57,0,0,0,56,14.18Z"></path>
    <path d="M14.55,11.12A5.29,5.29,0,0,1,14,13.47c4.78,1.61,12.53,6.88,17.68,10.4,6.13,4.18,11.26,7.67,15.22,9A5.23,5.23,0,0,1,47,27.58c-3.5-1.69-8.87-5.37-12.49-7.84C26.8,14.49,19.42,9.45,13.74,8.3A5.31,5.31,0,0,1,14.55,11.12Z"></path>
    <path d="M12.41,15.4a5.36,5.36,0,0,1-3.12,1.1H9.17a5.37,5.37,0,0,1-1.88-.36c1.78,4.11,5.79,10.17,12,19.26,2.32,3.38,5.18,7.55,7,10.58a5.34,5.34,0,0,1,4-1.85h.12a4.36,4.36,0,0,1,.62.07c-1.56-2.65-4-6.32-7.68-11.63C20,27.54,14.75,19.92,12.41,15.4Z"></path>
    <path d="M25,49.52a5.37,5.37,0,0,1,.2-1.39c-2.91,0-7-.25-11-.61a5.35,5.35,0,0,1-.52,5c4.74.45,8.25.62,10.85.62.7,0,1.32,0,1.9,0A5.31,5.31,0,0,1,25,49.52Z"></path>
    <path d="M26.79,11.12a3.59,3.59,0,0,0,3.59,3.59h.08a3.59,3.59,0,0,0,0-7.17h-.08A3.58,3.58,0,0,0,26.79,11.12Z" fill="#aaaaab"></path>
</svg>