<svg viewbox="0 0 42.67 48.64" xmlns="http://www.w3.org/2000/svg">
    <title>
        html5
    </title>
    <path d="M0,0,1.93,40.59l19.4,8,19.36-8.2L42.67,0ZM33.8,14H14.07l.44,5.93H33.32L32.06,35.24l-10.7,4.51L10.8,35.64l-.61-5.88h4.93l.61,2,5.59,1.91L27,31.58l.57-5.74H9.71L8.35,8H34.28Z" fill="#ff6800">
    </path>
    <polygon fill="#ce5300" points="27.56 25.84 21.33 25.84 21.32 33.68 26.99 31.58 27.56 25.84">
    </polygon>
    <polygon fill="#ce5300" points="21.34 4.44 21.34 8 34.28 8 33.8 13.98 21.33 13.98 21.33 19.91 33.32 19.91 32.06 35.24 21.36 39.75 21.32 39.73 21.32 43.86 36.59 37.39 38.2 4.44 21.34 4.44">
    </polygon>
</svg>