<svg xmlns="http://www.w3.org/2000/svg" viewBox="0 0 42.67 48.64"><title>ims</title><path d="M20.48,32.52h.07V27.62H16.87A16,16,0,0,0,20.48,32.52Z" fill="#006800"/><path d="M16.33,26.22h4.22V22h-5A16.31,16.31,0,0,0,16.33,26.22Z" fill="#006800"/><path d="M30.58,14.89l-.18-.25-.2-.26-.37-.45-.41-.45-.12-.12a11.42,11.42,0,0,0-5-2.92l0,0a17.12,17.12,0,0,1,2.5,4.47Z" fill="#006800"/><path d="M16.92,14.89h3.63V10.06h0A16.44,16.44,0,0,0,16.92,14.89Z" fill="#006800"/><path d="M15.57,20.61h5V16.29H16.37A16,16,0,0,0,15.57,20.61Z" fill="#006800"/><path d="M12,27.62a11.27,11.27,0,0,0,6.41,4.56,18.48,18.48,0,0,1-2.91-4.56Z" fill="#006800"/><path d="M18,10.53h0c-.22.06-.43.14-.65.22a11.31,11.31,0,0,0-5,3.75l-.06.09-.21.29h3.33A16.75,16.75,0,0,1,18,10.53Z" fill="#006800"/><path d="M14.89,16.29H11.23a11.08,11.08,0,0,0-1.15,4.32h4.09A17.35,17.35,0,0,1,14.89,16.29Z" fill="#006800"/><path d="M14.17,22H10.08a11.17,11.17,0,0,0,1.11,4.2h3.69A17,17,0,0,1,14.17,22Z" fill="#006800"/><path d="M23.41,32.36a11.27,11.27,0,0,0,7.23-4.74H26.45A17,17,0,0,1,23.41,32.36Z" fill="#006800"/><path d="M27.21,16.29a17.81,17.81,0,0,1,.62,4.32h4.73a11.44,11.44,0,0,0-1.15-4.32Z" fill="#006800"/><path d="M22,10.06h0v4.83h3.29A15.93,15.93,0,0,0,22,10.06Z" fill="#006800"/><path d="M27,26.22h4.47a11.16,11.16,0,0,0,1.1-4.2H27.79A16.53,16.53,0,0,1,27,26.22Z" fill="#006800"/><path d="M0,0,1.93,40.59l19.4,8,19.36-8.2L42.67,0ZM23.2,34.25a13,13,0,0,1-1.88.14,13.21,13.21,0,1,1,1.88-.14Z" fill="#006800"/><path d="M25.75,16.29H22v4.32h4.47A15.65,15.65,0,0,0,25.75,16.29Z" fill="#006800"/><path d="M22,27.62v4.91h0a12.92,12.92,0,0,0,3.15-4.91Z" fill="#006800"/><path d="M26.39,22H22v4.2H25.5A16,16,0,0,0,26.39,22Z" fill="#006800"/><path d="M23.41,32.36a11.27,11.27,0,0,0,7.23-4.74H26.45A17,17,0,0,1,23.41,32.36Z" fill="#005300"/><path d="M32.55,22H27.79a16.53,16.53,0,0,1-.81,4.2h4.47A11.16,11.16,0,0,0,32.55,22Z" fill="#005300"/><path d="M31.41,16.29h-4.2a17.81,17.81,0,0,1,.62,4.32h4.73A11.44,11.44,0,0,0,31.41,16.29Z" fill="#005300"/><path d="M21.34,4.44V8.05a13.17,13.17,0,0,1,1.86,26.2,12.9,12.9,0,0,1-1.88.14v9.47l15.27-6.47L38.2,4.44Z" fill="#005300"/><path d="M22,20.61h4.47a15.65,15.65,0,0,0-.67-4.32H22Z" fill="#005300"/><path d="M30.2,14.38l-.37-.45-.41-.45-.12-.12a11.42,11.42,0,0,0-5-2.92l0,0a17.12,17.12,0,0,1,2.5,4.47h3.83l-.18-.25Z" fill="#005300"/><path d="M22,26.22H25.5a16,16,0,0,0,.89-4.2H22Z" fill="#005300"/><path d="M22,32.53h0a12.92,12.92,0,0,0,3.15-4.91H22Z" fill="#005300"/><path d="M22,10.06v4.83h3.29A15.93,15.93,0,0,0,22,10.06Z" fill="#005300"/></svg>