<svg viewbox="0 0 263.09 278.78" xmlns="http://www.w3.org/2000/svg">
    <path d="M53.9,0h-2a3.22,3.22,0,0,0-2.45,1L1.07,49.39A3.41,3.41,0,0,0,0,51.84v2a3.51,3.51,0,0,0,3.52,3.53H31.93a25.44,25.44,0,0,0,25.49-25.5V3.45A3.49,3.49,0,0,0,53.9,0Z"></path>
    <path d="M201.67,123.81V23.5A16.54,16.54,0,0,0,185.21,7H53.37l-3,3L10,50.38,7,53.29v202a16.44,16.44,0,0,0,16.47,16.46h161.7a16.45,16.45,0,0,0,15.39-10.64H208a23.49,23.49,0,0,1-22.74,17.69H23.51A23.57,23.57,0,0,1,0,255.27V51.84a3.41,3.41,0,0,1,1.07-2.45L49.46,1a3.22,3.22,0,0,1,2.45-1h133.3a23.51,23.51,0,0,1,23.51,23.5V123.81Z"></path>
    <path d="M259.34,143.77a20.37,20.37,0,0,0-16.61-8.5H167.62a20.34,20.34,0,0,0-20.37,20.29v73.66a20.4,20.4,0,0,0,20.37,20.36h75.11a20.35,20.35,0,0,0,20.36-20.36V155.56A20.23,20.23,0,0,0,259.34,143.77Zm-3.21,85.45a13.42,13.42,0,0,1-13.4,13.4H167.62a12.82,12.82,0,0,1-6.82-1.92,13.35,13.35,0,0,1-6.58-11.48V155.56a13.39,13.39,0,0,1,13.4-13.32h75.11a13.34,13.34,0,0,1,13.4,13.32Z"></path>
    <path d="M163.34,102.76h-118a3.83,3.83,0,1,1,0-7.65h118a3.83,3.83,0,1,1,0,7.65Z"></path>
    <path d="M163.34,122.24h-118a3.83,3.83,0,1,1,0-7.65h118a3.83,3.83,0,1,1,0,7.65Z"></path>
    <path d="M144.25,134.07a31.07,31.07,0,0,0-5.28,7.65H45.4a3.83,3.83,0,0,1,0-7.65Z"></path>
    <path d="M45.4,153.51h90.43a17.91,17.91,0,0,0-.08,2.07v5.59H45.4a3.78,3.78,0,0,1-3.82-3.83A3.83,3.83,0,0,1,45.4,153.51Z"></path>
    <path d="M45.4,173h90.35v7.66H45.4a3.84,3.84,0,0,1-3.82-3.83A3.78,3.78,0,0,1,45.4,173Z"></path>
    <path d="M45.4,192.49h90.35v7.65H45.4a3.78,3.78,0,0,1-3.82-3.83A3.83,3.83,0,0,1,45.4,192.49Z"></path>
    <path d="M45.4,212h90.35v7.66H45.4a3.83,3.83,0,0,1-3.82-3.83A3.78,3.78,0,0,1,45.4,212Z"></path>
    <path d="M135.75,239.12H45.4a3.83,3.83,0,0,1,0-7.66h90.5Z"></path>
    <path d="M163.34,65h-59a3.83,3.83,0,1,1,0-7.65h59a3.83,3.83,0,1,1,0,7.65Z"></path>
    <path d="M217.81,192.43a12.65,12.65,0,1,1-12.64-12.64A12.64,12.64,0,0,1,217.81,192.43Z" fill="#00b3ff"></path>
    <path d="M239,183.76h-2.47a32.48,32.48,0,0,0-3.06-7.42l1.73-1.73a3,3,0,0,0,0-4.26l-8-8a3,3,0,0,0-4.26,0l-1.73,1.73a32.85,32.85,0,0,0-7.43-3.07v-2.45a3,3,0,0,0-3-3H199.51a3,3,0,0,0-3,3V161a33.23,33.23,0,0,0-7.43,3.07l-1.73-1.73a3,3,0,0,0-4.25,0l-8,8a3,3,0,0,0,0,4.26l1.72,1.72a32.74,32.74,0,0,0-3.06,7.43h-2.45a3,3,0,0,0-3,3v11.3a3,3,0,0,0,3,3h2.45a31.78,31.78,0,0,0,3.07,7.43l-1.72,1.74a3,3,0,0,0,0,4.25l8,8a3,3,0,0,0,4.25,0l1.73-1.73a32.63,32.63,0,0,0,7.44,3.06v2.46a3,3,0,0,0,3,3h11.3a3,3,0,0,0,3-3v-2.46a31.66,31.66,0,0,0,7.42-3.08l1.73,1.73a3,3,0,0,0,4.26,0l8-8a3,3,0,0,0,0-4.26l-1.73-1.74a32.3,32.3,0,0,0,3.06-7.42H239a3,3,0,0,0,3-3v-11.3A3,3,0,0,0,239,183.76Zm-33.86,33.76a25.09,25.09,0,1,1,25.08-25.09A25.12,25.12,0,0,1,205.17,217.52Z" fill="#00b3ff"></path>
</svg>