<svg xmlns="http://www.w3.org/2000/svg" viewBox="0 0 42.67 48.64"><title>scorm</title><path d="M21.34,15.74a8.39,8.39,0,1,0,8.39,8.38A8.4,8.4,0,0,0,21.34,15.74Zm0,12.61a4.23,4.23,0,1,1,4.23-4.23A4.23,4.23,0,0,1,21.34,28.35Z" fill="#66d1ff"/><path d="M0,0,1.93,40.59l19.4,8,19.36-8.2L42.67,0ZM33.67,26a1,1,0,0,1-1,1h-.82a11.06,11.06,0,0,1-1,2.48l.57.58a1,1,0,0,1,0,1.43l-2.67,2.66a1,1,0,0,1-1.42,0l-.58-.57a10.61,10.61,0,0,1-2.48,1v.83a1,1,0,0,1-1,1H19.46a1,1,0,0,1-1-1v-.83a10.61,10.61,0,0,1-2.48-1l-.58.58a1,1,0,0,1-1.42,0L11.3,31.5a1,1,0,0,1,0-1.42l.57-.58a10.79,10.79,0,0,1-1-2.48H10a1,1,0,0,1-1-1V22.23a1,1,0,0,1,1-1h.82a10.87,10.87,0,0,1,1-2.49l-.57-.57a1,1,0,0,1,0-1.43L14,14.07a1,1,0,0,1,1.43,0l.57.58a10.87,10.87,0,0,1,2.49-1V12.8a1,1,0,0,1,1-1h3.78a1,1,0,0,1,1,1v.82a11.28,11.28,0,0,1,2.48,1l.58-.58a1,1,0,0,1,1.42,0l2.67,2.67a1,1,0,0,1,0,1.42l-.58.58a11.28,11.28,0,0,1,1,2.48h.82a1,1,0,0,1,1,1Z" fill="#66d1ff"/><path d="M29.73,24.12a8.39,8.39,0,0,0-8.39-8.38h0V19.9h0a4.23,4.23,0,0,1,0,8.46h0V32.5h0A8.4,8.4,0,0,0,29.73,24.12Z" fill="#00b3ff"/><path d="M21.34,4.44V11.8h1.9a1,1,0,0,1,1,1v.82a11.28,11.28,0,0,1,2.48,1l.58-.58a1,1,0,0,1,1.42,0l2.67,2.67a1,1,0,0,1,0,1.42l-.58.58a11.28,11.28,0,0,1,1,2.48h.82a1,1,0,0,1,1,1V26a1,1,0,0,1-1,1h-.82a11.06,11.06,0,0,1-1,2.48l.57.58a1,1,0,0,1,0,1.43l-2.67,2.66a1,1,0,0,1-1.42,0l-.58-.57a10.61,10.61,0,0,1-2.48,1v.83a1,1,0,0,1-1,1H21.32v7.42l15.27-6.47L38.2,4.44Z" fill="#00b3ff"/></svg>