<svg xmlns="http://www.w3.org/2000/svg" xmlns:xlink="http://www.w3.org/1999/xlink" viewBox="0 0 48 48"><defs><linearGradient id="a" x1="900.01" y1="33.54" x2="915.22" y2="33.54" gradientTransform="matrix(-1, 0, 0, 1, 927.1, 0)" gradientUnits="userSpaceOnUse"><stop offset="0" stop-color="#255468"/><stop offset="1" stop-color="#01384d"/></linearGradient><linearGradient id="b" x1="899.56" y1="28.88" x2="907.41" y2="42.47" gradientTransform="matrix(-1, 0, 0, 1, 927.1, 0)" gradientUnits="userSpaceOnUse"><stop offset="0" stop-color="#fff"/><stop offset="1" stop-color="#96c2e0"/></linearGradient><linearGradient id="c" x1="890.7" y1="38.66" x2="905.9" y2="38.66" xlink:href="#a"/><linearGradient id="d" x1="895.48" y1="24.21" x2="910.43" y2="24.21" gradientTransform="matrix(-1, 0, 0, 1, 927.1, 0)" gradientUnits="userSpaceOnUse"><stop offset="0" stop-color="#96c2e0"/><stop offset="1" stop-color="#fff"/></linearGradient><linearGradient id="e" x1="897.09" y1="13.13" x2="903.58" y2="1.89" xlink:href="#d"/><linearGradient id="f" x1="899.6" y1="9.21" x2="906.9" y2="9.21" gradientTransform="matrix(-1, 0, 0, 1, 927.1, 0)" gradientUnits="userSpaceOnUse"><stop offset="0" stop-color="#01384d"/><stop offset="1" stop-color="#255468"/></linearGradient><linearGradient id="g" x1="902.96" y1="20.32" x2="908.15" y2="20.32" xlink:href="#f"/></defs><circle cx="23.77" cy="23.77" r="23.77" fill="#fff" opacity="0.1"/><path d="M11.88,36.92a5.63,5.63,0,0,1,2.56-4.43l8.39-4.85a1.8,1.8,0,0,1,1.79-.18h0l2.44,1.24-12,11.09-2.38-1.2-.08,0,0,0h0A1.82,1.82,0,0,1,11.88,36.92Z" fill="url(#a)"/><path d="M16.89,39.63l8.39-4.84a5.64,5.64,0,0,0,2.56-4.43c0-1.63-1.14-2.3-2.56-1.48l-8.39,4.84a5.67,5.67,0,0,0-2.56,4.44C14.33,39.79,15.48,40.45,16.89,39.63Z" fill="#255468"/><path d="M14.33,38.16a5.67,5.67,0,0,1,2.56-4.44l8.39-4.84a1.85,1.85,0,0,1,1.8-.19h0L34,32.58l-12,11.09-6.79-3.84-.08,0,0,0h0A1.86,1.86,0,0,1,14.33,38.16Z" fill="url(#b)"/><path d="M23.76,43.52l8.38-4.85a5.63,5.63,0,0,0,2.56-4.43c0-1.63-1.14-2.29-2.56-1.48l-8.38,4.85A5.63,5.63,0,0,0,21.2,42C21.2,43.67,22.34,44.33,23.76,43.52Z" fill="#fff"/><path d="M21.2,42a5.63,5.63,0,0,1,2.56-4.43l8.38-4.85a1.82,1.82,0,0,1,1.8-.18h0l2.44,1.24-12,11.09L22,43.71l-.08,0-.05,0h0A1.82,1.82,0,0,1,21.2,42Z" fill="url(#c)"/><path d="M26.21,44.75l8.39-4.84a5.67,5.67,0,0,0,2.56-4.43c0-1.63-1.15-2.3-2.56-1.48l-8.39,4.84a5.67,5.67,0,0,0-2.56,4.44C23.65,44.91,24.8,45.57,26.21,44.75Z" fill="#01384d"/><path d="M25.07,44.31a1.48,1.48,0,0,0,.74-.24l8.39-4.84a4.87,4.87,0,0,0,2.17-3.75c0-.39-.08-1-.63-1a1.53,1.53,0,0,0-.75.24l-8.38,4.85a4.85,4.85,0,0,0-2.17,3.75C24.44,43.66,24.52,44.31,25.07,44.31Z" fill="#84c2eb"/><path d="M19.33,28.74H29v4.71a2.41,2.41,0,0,1-1.41,2,7.54,7.54,0,0,1-6.8,0,2.41,2.41,0,0,1-1.41-2Z" fill="#01384d"/><ellipse cx="24.14" cy="28.74" rx="4.81" ry="2.78" fill="#255468"/><path d="M9.72,25.7l.76.83L21.54,22l-.75-.82A.81.81,0,0,0,20,21l-8.42,1.65a3,3,0,0,0-2,1.92A1.1,1.1,0,0,0,9.72,25.7Z" fill="#fff"/><path d="M12.34,23.51l8.41-1.65c.79-.17,1.2.42.91,1.3a3,3,0,0,1-1.94,1.92L11.3,26.73c-.79.18-1.2-.41-.91-1.3A3,3,0,0,1,12.34,23.51Z" fill="#57a8dd"/><path d="M19.58,23.81a1.45,1.45,0,0,1,.85-1c.38-.13.63.09.55.49a1.44,1.44,0,0,1-.84,1C19.75,24.43,19.5,24.21,19.58,23.81Z" fill="#255468"/><path d="M21.53,11.4l.84.75L18.06,22.9l-.84-.75a.8.8,0,0,1-.22-.81l1.52-8a3.06,3.06,0,0,1,1.89-2A1.13,1.13,0,0,1,21.53,11.4Z" fill="#fff"/><path d="M19.39,14.06l-1.52,8c-.15.79.44,1.19,1.32.89a3,3,0,0,0,1.88-2l1.52-8c.16-.8-.43-1.2-1.31-.9A3.06,3.06,0,0,0,19.39,14.06Z" fill="#84c2eb"/><path d="M20.39,13.59a1.39,1.39,0,0,1,1.06-.72c.41,0,.59.25.41.61a1.41,1.41,0,0,1-1.06.72C20.39,14.23,20.21,14,20.39,13.59Z" fill="#255468"/><path d="M16.66,30a1.11,1.11,0,0,0,.64.94l5.13,3a4.1,4.1,0,0,0,3.68-.15l4.6-2.66a1.49,1.49,0,0,0,.9-1.2V15.19l-13-1Z" fill="url(#d)"/><path d="M25.85,11.27l5.13,3c.94.55.82,1.5-.27,2.13L28,17.85a4.1,4.1,0,0,1-3.68.15l-5.13-3c-.95-.55-.83-1.5.26-2.13l2.68-1.49A4.1,4.1,0,0,1,25.85,11.27Z" fill="#fff"/><path d="M23,11.86h4.79V14.2a1.21,1.21,0,0,1-.7,1,3.75,3.75,0,0,1-3.39,0,1.21,1.21,0,0,1-.7-1Z" fill="#01384d"/><path d="M23.73,12.84a3.75,3.75,0,0,0,3.39,0,1,1,0,0,0,0-2,3.75,3.75,0,0,0-3.39,0A1,1,0,0,0,23.73,12.84Z" fill="#255468"/><path d="M23.2,2.08a1.2,1.2,0,0,1,1.29.08l5,3A4.62,4.62,0,0,1,31.44,8.8v2.28a1.69,1.69,0,0,1-.66,1.56l-3.17,1.87L20.07,3.92Z" fill="url(#e)"/><path d="M21.34,11.45l5,3c1.06.62,1.93,0,1.93-1.46V10.66A4.65,4.65,0,0,0,26.36,7L21.34,4c-1.07-.61-1.93,0-1.93,1.46V7.76A4.59,4.59,0,0,0,21.34,11.45Z" fill="#84c2eb"/><path d="M27.12,13.84c.25,0,.38-.45.38-.9V10.66a3.86,3.86,0,0,0-1.54-3l-5-3a.85.85,0,0,0-.37-.12c-.24,0-.37.45-.37.9V7.76a3.91,3.91,0,0,0,1.53,3l5,3A.7.7,0,0,0,27.12,13.84Z" fill="url(#f)"/><path d="M19.4,20.79l3.93,2.27c.25.15.46,0,.46-.34l.35-2a1.07,1.07,0,0,0-.45-.86l-3.94-2.27c-.25-.15-.45,0-.45.34l-.35,2A1.07,1.07,0,0,0,19.4,20.79Z" fill="url(#g)"/><path d="M24.76,9.75a1.67,1.67,0,0,0,.75,1.3c.42.24.75,0,.75-.43a1.63,1.63,0,0,0-.75-1.3C25.1,9.08,24.76,9.27,24.76,9.75Z" fill="#009bd1"/><path d="M21,7.81a1.67,1.67,0,0,0,.75,1.3c.42.24.75.05.75-.43a1.66,1.66,0,0,0-.75-1.31C21.38,7.13,21,7.33,21,7.81Z" fill="#009bd1"/><polygon points="21.13 31.71 21.13 39.77 27.96 35.81 27.96 27.75 21.13 31.71" fill="#f0af1f"/><polygon points="21.13 31.71 12.56 26.77 19.39 22.81 27.96 27.75 21.13 31.71" fill="#d66f2a"/><polygon points="25.39 32.19 21.11 31.7 27.93 27.74 32.22 28.23 25.39 32.19" fill="#fff"/><polygon points="12.7 26.78 8.42 22.32 15.24 18.36 19.53 22.82 12.7 26.78" fill="#ffd600"/><polygon points="21.13 39.77 12.56 34.83 12.56 26.77 21.13 31.71 21.13 39.77" fill="#ffd600"/><polygon points="15.97 31.37 13.31 29.83 13.31 28.03 15.97 29.57 15.97 31.37" fill="#255468"/><polygon points="14.64 33.47 13.31 32.7 13.31 30.91 14.64 31.68 14.64 33.47" fill="#7cccbf"/><polygon points="17.72 31.72 9.15 26.78 12.56 26.78 21.13 31.73 17.72 31.72" fill="#fff"/><polygon points="27.79 27.66 19.53 22.91 22.94 18.94 31.2 23.69 27.79 27.66" fill="#ffd600"/><polygon points="19.53 22.82 19.53 30.79 21.13 31.73 27.93 27.74 19.53 22.82" fill="#f0af1f"/><path d="M30.72,16.56l1.09.27,1.26,11.51L32,28.08a.79.79,0,0,1-.57-.62L29,19.65A3,3,0,0,1,29.68,17,1.13,1.13,0,0,1,30.72,16.56Z" fill="#fff"/><path d="M30.08,19.92l2.46,7.81c.23.78.94.85,1.58.17a3,3,0,0,0,.73-2.64l-2.46-7.81c-.23-.78-.94-.85-1.58-.17A3,3,0,0,0,30.08,19.92Z" fill="#84c2eb"/><path d="M30.74,19a1.41,1.41,0,0,1,.6-1.14c.35-.22.64-.06.65.35a1.41,1.41,0,0,1-.59,1.13C31.05,19.6,30.76,19.44,30.74,19Z" fill="#255468"/><path d="M27,34.75l1.06.37,7.64-9.18-1.06-.37a.8.8,0,0,0-.82.21L27.22,31.2a3,3,0,0,0-.82,2.61A1.14,1.14,0,0,0,27,34.75Z" fill="#fff"/><path d="M28.32,31.58,35,26.16c.62-.52,1.25-.2,1.42.72a3,3,0,0,1-.82,2.61l-6.64,5.42c-.62.52-1.25.2-1.42-.72A3,3,0,0,1,28.32,31.58Z" fill="#57a8dd"/><path d="M34.84,28.43a1.45,1.45,0,0,1,.3-1.25c.28-.3.6-.22.72.17a1.42,1.42,0,0,1-.29,1.25A.4.4,0,0,1,34.84,28.43Z" fill="#255468"/></svg>