<svg xmlns="http://www.w3.org/2000/svg" xmlns:xlink="http://www.w3.org/1999/xlink" viewBox="0 0 48 48"><defs><linearGradient id="a" x1="900.01" x2="915.22" y1="33.54" y2="33.54" gradientTransform="matrix(-1 0 0 1 927.1 0)" gradientUnits="userSpaceOnUse"><stop offset="0" stop-color="#255468"/><stop offset="1" stop-color="#01384d"/></linearGradient><linearGradient id="d" x1="899.56" x2="907.41" y1="28.88" y2="42.47" gradientTransform="matrix(-1 0 0 1 927.1 0)" gradientUnits="userSpaceOnUse"><stop offset="0" stop-color="#fff"/><stop offset="1" stop-color="#96c2e0"/></linearGradient><linearGradient id="e" x1="890.7" x2="905.9" y1="38.66" y2="38.66" xlink:href="#a"/><linearGradient id="b" x1="895.48" x2="910.43" y1="24.21" y2="24.21" gradientTransform="matrix(-1 0 0 1 927.1 0)" gradientUnits="userSpaceOnUse"><stop offset="0" stop-color="#96c2e0"/><stop offset="1" stop-color="#fff"/></linearGradient><linearGradient id="f" x1="897.09" x2="903.58" y1="13.13" y2="1.89" xlink:href="#b"/><linearGradient id="c" x1="899.6" x2="906.9" y1="9.21" y2="9.21" gradientTransform="matrix(-1 0 0 1 927.1 0)" gradientUnits="userSpaceOnUse"><stop offset="0" stop-color="#01384d"/><stop offset="1" stop-color="#255468"/></linearGradient><linearGradient id="g" x1="902.96" x2="908.15" y1="20.32" y2="20.32" xlink:href="#c"/></defs><circle cx="23.77" cy="23.77" r="23.77" fill="#fff" opacity=".1"/><path fill="url(#a)" d="M11.88 36.92a5.63 5.63 0 012.56-4.43l8.39-4.85a1.8 1.8 0 011.79-.18l2.44 1.24-12 11.09-2.38-1.2h-.08a1.82 1.82 0 01-.72-1.67z"/><path fill="#255468" d="M16.89 39.63l8.39-4.84a5.64 5.64 0 002.56-4.43c0-1.63-1.14-2.3-2.56-1.48l-8.39 4.84a5.67 5.67 0 00-2.56 4.44c0 1.63 1.15 2.29 2.56 1.47z"/><path fill="url(#d)" d="M14.33 38.16a5.67 5.67 0 012.56-4.44l8.39-4.84a1.85 1.85 0 011.8-.19L34 32.58 22 43.67l-6.79-3.84h-.08a1.86 1.86 0 01-.8-1.67z"/><path fill="#fff" d="M23.76 43.52l8.38-4.85a5.63 5.63 0 002.56-4.43c0-1.63-1.14-2.29-2.56-1.48l-8.38 4.85A5.63 5.63 0 0021.2 42c0 1.67 1.14 2.33 2.56 1.52z"/><path fill="url(#e)" d="M21.2 42a5.63 5.63 0 012.56-4.43l8.38-4.85a1.82 1.82 0 011.8-.18l2.44 1.24-12 11.09L22 43.71h-.13A1.82 1.82 0 0121.2 42z"/><path fill="#01384d" d="M26.21 44.75l8.39-4.84a5.67 5.67 0 002.56-4.43c0-1.63-1.15-2.3-2.56-1.48l-8.39 4.84a5.67 5.67 0 00-2.56 4.44c0 1.63 1.15 2.29 2.56 1.47z"/><path fill="#84c2eb" d="M25.07 44.31a1.48 1.48 0 00.74-.24l8.39-4.84a4.87 4.87 0 002.17-3.75c0-.39-.08-1-.63-1a1.53 1.53 0 00-.75.24l-8.38 4.85a4.85 4.85 0 00-2.17 3.75c0 .34.08.99.63.99z"/><path fill="#01384d" d="M19.33 28.74H29v4.71a2.41 2.41 0 01-1.41 2 7.54 7.54 0 01-6.8 0 2.41 2.41 0 01-1.41-2z"/><ellipse cx="24.14" cy="28.74" fill="#255468" rx="4.81" ry="2.78"/><path fill="#fff" d="M9.72 25.7l.76.83L21.54 22l-.75-.82A.81.81 0 0020 21l-8.42 1.65a3 3 0 00-2 1.92 1.1 1.1 0 00.14 1.13z"/><path fill="#57a8dd" d="M12.34 23.51l8.41-1.65c.79-.17 1.2.42.91 1.3a3 3 0 01-1.94 1.92l-8.42 1.65c-.79.18-1.2-.41-.91-1.3a3 3 0 011.95-1.92z"/><path fill="#255468" d="M19.58 23.81a1.45 1.45 0 01.85-1c.38-.13.63.09.55.49a1.44 1.44 0 01-.84 1c-.39.13-.64-.09-.56-.49z"/><path fill="#fff" d="M21.53 11.4l.84.75-4.31 10.75-.84-.75a.8.8 0 01-.22-.81l1.52-8a3.06 3.06 0 011.89-2 1.13 1.13 0 011.12.06z"/><path fill="#84c2eb" d="M19.39 14.06l-1.52 8c-.15.79.44 1.19 1.32.89a3 3 0 001.88-2l1.52-8c.16-.8-.43-1.2-1.31-.9a3.06 3.06 0 00-1.89 2.01z"/><path fill="#255468" d="M20.39 13.59a1.39 1.39 0 011.06-.72c.41 0 .59.25.41.61a1.41 1.41 0 01-1.06.72c-.41.03-.59-.2-.41-.61z"/><path fill="url(#b)" d="M16.66 30a1.11 1.11 0 00.64.94l5.13 3a4.1 4.1 0 003.68-.15l4.6-2.66a1.49 1.49 0 00.9-1.2V15.19l-13-1z"/><path fill="#fff" d="M25.85 11.27l5.13 3c.94.55.82 1.5-.27 2.13L28 17.85a4.1 4.1 0 01-3.68.15l-5.13-3c-.95-.55-.83-1.5.26-2.13l2.68-1.49a4.1 4.1 0 013.72-.11z"/><path fill="#01384d" d="M23 11.86h4.79v2.34a1.21 1.21 0 01-.7 1 3.75 3.75 0 01-3.39 0 1.21 1.21 0 01-.7-1z"/><path fill="#255468" d="M23.73 12.84a3.75 3.75 0 003.39 0 1 1 0 000-2 3.75 3.75 0 00-3.39 0 1 1 0 000 2z"/><path fill="url(#f)" d="M23.2 2.08a1.2 1.2 0 011.29.08l5 3a4.62 4.62 0 011.95 3.64v2.28a1.69 1.69 0 01-.66 1.56l-3.17 1.87-7.54-10.59z"/><path fill="#84c2eb" d="M21.34 11.45l5 3c1.06.62 1.93 0 1.93-1.46v-2.33A4.65 4.65 0 0026.36 7l-5.02-3c-1.07-.61-1.93 0-1.93 1.46v2.3a4.59 4.59 0 001.93 3.69z"/><path fill="url(#c)" d="M27.12 13.84c.25 0 .38-.45.38-.9v-2.28a3.86 3.86 0 00-1.54-3l-5-3a.85.85 0 00-.37-.12c-.24 0-.37.45-.37.9v2.32a3.91 3.91 0 001.53 3l5 3a.7.7 0 00.37.08z"/><path fill="url(#g)" d="M19.4 20.79l3.93 2.27c.25.15.46 0 .46-.34l.35-2a1.07 1.07 0 00-.45-.86l-3.94-2.27c-.25-.15-.45 0-.45.34l-.35 2a1.07 1.07 0 00.45.86z"/><path fill="#009bd1" d="M24.76 9.75a1.67 1.67 0 00.75 1.3c.42.24.75 0 .75-.43a1.63 1.63 0 00-.75-1.3c-.41-.24-.75-.05-.75.43zM21 7.81a1.67 1.67 0 00.75 1.3c.42.24.75.05.75-.43a1.66 1.66 0 00-.75-1.31c-.37-.24-.75-.04-.75.44z"/><path fill="#f0af1f" d="M21.13 31.71v8.06l6.83-3.96v-8.06l-6.83 3.96z"/><path fill="#d66f2a" d="M21.13 31.71l-8.57-4.94 6.83-3.96 8.57 4.94-6.83 3.96z"/><path fill="#fff" d="M25.39 32.19l-4.28-.49 6.82-3.96 4.29.49-6.83 3.96z"/><path fill="#ffd600" d="M12.7 26.78l-4.28-4.46 6.82-3.96 4.29 4.46-6.83 3.96zM21.13 39.77l-8.57-4.94v-8.06l8.57 4.94v8.06z"/><path fill="#255468" d="M15.97 31.37l-2.66-1.54v-1.8l2.66 1.54v1.8z"/><path fill="#7cccbf" d="M14.64 33.47l-1.33-.77v-1.79l1.33.77v1.79z"/><path fill="#fff" d="M17.72 31.72l-8.57-4.94h3.41l8.57 4.95-3.41-.01z"/><path fill="#ffd600" d="M27.79 27.66l-8.26-4.75 3.41-3.97 8.26 4.75-3.41 3.97z"/><path fill="#f0af1f" d="M19.53 22.82v7.97l1.6.94 6.8-3.99-8.4-4.92z"/><path fill="#fff" d="M30.72 16.56l1.09.27 1.26 11.51-1.07-.26a.79.79 0 01-.57-.62L29 19.65a3 3 0 01.68-2.65 1.13 1.13 0 011.04-.44z"/><path fill="#84c2eb" d="M30.08 19.92l2.46 7.81c.23.78.94.85 1.58.17a3 3 0 00.73-2.64l-2.46-7.81c-.23-.78-.94-.85-1.58-.17a3 3 0 00-.73 2.64z"/><path fill="#255468" d="M30.74 19a1.41 1.41 0 01.6-1.14c.35-.22.64-.06.65.35a1.41 1.41 0 01-.59 1.13c-.35.26-.64.1-.66-.34z"/><path fill="#fff" d="M27 34.75l1.06.37 7.64-9.18-1.06-.37a.8.8 0 00-.82.21l-6.6 5.42a3 3 0 00-.82 2.61 1.14 1.14 0 00.6.94z"/><path fill="#57a8dd" d="M28.32 31.58L35 26.16c.62-.52 1.25-.2 1.42.72a3 3 0 01-.82 2.61l-6.64 5.42c-.62.52-1.25.2-1.42-.72a3 3 0 01.78-2.61z"/><path fill="#255468" d="M34.84 28.43a1.45 1.45 0 01.3-1.25c.28-.3.6-.22.72.17a1.42 1.42 0 01-.29 1.25.4.4 0 01-.73-.17z"/></svg>