<svg viewbox="0 0 61.52 45.02" xmlns="http://www.w3.org/2000/svg">
    <path d="M0,35.83a3.59,3.59,0,0,0,3.59,3.59h.08a3.59,3.59,0,0,0,0-7.17H3.59A3.59,3.59,0,0,0,0,35.83Z" fill="#00b3ff"></path>
    <path d="M52.12,9.28a3.59,3.59,0,0,0,3.59,3.59h.08a3.59,3.59,0,0,0,0-7.17h-.08A3.59,3.59,0,0,0,52.12,9.28Z" fill="#ff6800"></path>
    <path d="M56.1,17l-5.43,7.42H53V35.46a3.56,3.56,0,1,1-7.11,0V9.55a9.55,9.55,0,0,0-19.1,0V35.46a3.56,3.56,0,1,1-7.11,0V9.55A9.56,9.56,0,0,0,.6,9.55V27.9h6V9.55a3.56,3.56,0,0,1,7.11,0V35.46a9.56,9.56,0,1,0,19.11,0V9.55a3.55,3.55,0,0,1,7.1,0V35.46a9.56,9.56,0,1,0,19.11,0v-11h2.49Z" fill="#000000"></path>
</svg>