<svg id="ninja" version="1.1" xmlns="http://www.w3.org/2000/svg" xmlns:xlink="http://www.w3.org/1999/xlink" x="0" y="0" width="1049" height="1500" viewBox="0, 0, 1049, 1500">
    <path d="M532.281,11.613 L535,12 C533.264,17.677 528.866,19.02 525,23 C522.245,22.694 519,24.034 519,27 C515,27.423 511.669,30.262 509,33 C503.879,34.186 498.364,38.004 495,42 L493,41 L493,43 C490,43.329 488.753,44.685 487,47 C483.98,47 476,51.148 476,54 C473.31,54 470,55.205 470,58 C466.504,58 458,62.481 458,66 C455.438,66 453,66.229 453,69 C451.44,68.61 449.499,69.501 448,72 L446,71 L441,77 L439,76 L437,80 C434.514,80 433,80.446 433,83 L431,82 L431,84 L422,88 L411,99 C406.754,98 396,113.029 391,111 C387.821,116.813 375.588,126.159 369,127 L367,132 L350,142 C347.487,146.228 340.987,152.464 336,153 C335.31,154.537 335.672,154.338 334,154 L330,160 L328,159 C326.608,161.819 325.177,163.655 322,164 L322,167 C319.991,166.498 314.792,170.417 313,174 C311.47,173.618 305.563,177.62 305,181 L299,183 L300,185 C296,186.729 293.603,189.683 291,193 L289,192 L281,202 C277,203.079 271,208.076 270,212 L263,215 L254,227 C252,226.514 249.538,228.691 250,231 C247.913,230.75 247.927,231 248,233 C244.884,234 242.793,236 242,239 C239.913,238.75 239.927,239 240,241 C238,240.512 235.448,242.242 236,245 C234,244.512 231.448,246.242 232,249 C230,248.542 224.48,253.402 225,256 C223.347,255.587 220.56,257.641 220,261 L218,260 L213,269 C210.805,268.451 206.516,272.579 207,275 C204.674,276.102 203,276.386 203,279 C201.318,278.58 194.587,286 195,288 C193,287.535 187.596,294 188,296 C185.816,295.454 182.605,300.023 183,302 L173,310 L174,312 L172,312 C171,319.411 164.337,326.111 160,332 C163.593,334 177,343.143 172.417,348.116 C167.342,353.441 159.392,345 154.439,344.399 C149.996,344 144.274,352.557 142.822,356.115 C140.706,361.298 149,362.025 151.945,364 C155.296,366.038 156.897,370 157.38,373.714 C158.993,386.586 149.755,397.361 153.749,411 L168.437,442.054 L176.519,471.039 C179.804,480.763 184.908,486 185,497 C192.404,497.82 202.651,505.132 203,513 L212,518 C216.241,513 218.658,521.548 223,520.667 L233,513 L245,508.667 L258.333,494.333 C262,491.801 269.189,489.294 269,484 L277,479 L282,474 L281,472 C292.418,462 307.315,454 320.961,446.234 L338.65,437.151 C346.711,427.142 346.303,409.706 345.412,397.76 L343.549,343 C343.698,332 347.191,319 345,308 C348.562,309 346,304.158 346,302 L347,263 C347.911,257.534 346.575,248.685 350,248 C349.846,243 351.751,234.191 356,231 L355,228 L357,224 C378,201.685 396.303,164.314 432.999,176.667 C438.201,178.418 446.629,179.507 450,184 L455,184 C465.898,195.014 489.791,200.52 492,219 L495,220 L498,225 L497,227 C500.725,229.349 501.418,232.772 501,237 C504.363,239.495 505.841,246 506,250 C509,252.49 510,257.146 510,261 L512,261 L521.714,307.714 C523.62,330.552 524.58,354.119 522.911,377 L518,405 L531.714,411.311 L544.286,410.493 L562,415.386 L573,415.394 L590.576,423 C608.857,430 627.605,436.788 641,452 C642.695,431.771 660.329,448.39 669.656,435.671 C674.853,428.584 672.423,416.101 668.857,409 C661.396,394.142 653.23,381.401 641,370 L640,363 L646,357.617 C658,350.171 664,368.149 673,371.647 C686,376.797 680.748,358.403 679,353 C663.744,356.613 673.224,342.266 673,336 C686.261,330.119 695.366,336.686 699,350 L707,343.263 L714,342.043 C735.265,341.372 723.733,366.48 735,375.424 C742.707,381.397 754.602,365.801 760,380.091 L761,387 C752.393,395.344 758.325,411.497 761.655,421 L768.468,445 L779.613,465 L782,487 C784.335,494.056 792.934,500.706 798,506 C799.472,502.687 800.765,500.679 804,499 C802.723,497.085 802.723,498 804,496 C807.629,500.79 806,509 801,512 C804.446,520.289 810.371,530.69 807,540 L799.742,550.04 C798,563.164 800.753,575.142 795.547,588 L783,607 C780.31,607 777,608.206 777,611 C774.231,611 770,612.041 770,615 L730,628.208 L716,629 L703.251,632.602 C689.235,632.365 676.285,618.057 663.17,613.557 L630,611 C628,621 619.596,630 619,640 C602.743,659.576 604,686 600.98,709.536 C598.748,726.465 594.51,742 576,748 L580.603,760 L593.504,775.089 L625,822 C631.398,832 639,841 643,852 C646.944,862.523 642.186,871.609 642.491,882.004 L646.488,892 L644.598,904 L648,921 C652.547,924 654.988,930.541 657.492,935.286 L673.247,966 C675.731,971 679.884,976.418 680,982 C685.889,986.418 688,998.496 689.926,1005.385 C695.685,1026.519 696.314,1049 705.579,1069.039 L715.329,1097 L721.316,1109 L721.56,1136.015 L727.279,1153 L727.247,1171 L731.276,1208 L726.542,1236.155 L727.732,1256 L723.874,1277 C724.218,1288.249 726.999,1304.29 730.696,1315 C733.963,1324.462 739.621,1335 739.871,1345 C740,1352.171 737.672,1362.074 735.685,1369 L731.908,1377.76 C732.206,1383 737.698,1387 740.236,1391.039 L744.854,1406 C749.388,1414 760.487,1421 762,1430 C771.185,1434.707 770.406,1447.132 771,1456 L769,1456 L763,1466.464 C760.253,1473 761.897,1478.183 755.572,1483.351 C742.661,1494 709.554,1492.593 697.196,1482.095 C692.352,1478 686,1471.593 685.228,1465 C684.517,1459.592 687.812,1454.31 685,1449.076 L669.468,1429 C663.861,1416 666,1400.698 660.795,1387.719 C658.578,1382.333 652.349,1381.051 648.518,1377.076 L631,1353 L626.769,1334 C625,1318.464 630.25,1294.617 645,1287 C642.686,1280.185 642.646,1274.201 637,1269 L623.856,1214 C622.374,1204.071 623.221,1189.004 619.264,1180 L603.662,1160.741 C595.98,1151 589.596,1140.086 583.847,1129 C565.737,1094.074 545.869,1056.752 514,1032.125 C493.566,1016.335 476.493,999.673 450,996.204 C444,995.421 431.786,992.485 427,997 L408,999 L408,1001 C397,1001 385,1007.225 374.715,1010.046 C346.783,1017.587 317.551,1028.157 292,1042 C283.722,1046.268 272.599,1050.311 266,1057 L255,1061 L255,1064 C269.863,1069.455 272.306,1092.368 276.899,1106 L285.297,1121 L287.603,1133 L304,1152 C309,1162.044 309.619,1174.076 311,1185 L324,1183 C323.449,1190 325.675,1194 320,1199 C336,1206.544 349.426,1220 358.807,1235 C361.484,1239.286 367.41,1245.459 366.348,1251 C364.87,1258.498 348.203,1261.141 349,1268.094 C350.184,1275.525 359.26,1286 363.569,1292 C365,1294.133 367.667,1298.251 370.817,1297.708 L377,1290 L374.187,1343.004 C373.326,1347.55 377.616,1352.253 374.566,1356.431 C371.925,1360.048 364.91,1361.25 360.83,1362.506 C347.17,1366.713 331.228,1368 317,1368 C264.186,1368 212.433,1380.39 160,1383 C160.647,1380.411 155.629,1371.114 158,1364 C160.495,1356.515 171.449,1350 178,1345 C185,1339.66 194.408,1341.796 202,1338 L238,1315 C241,1313 249.718,1307.592 249,1304 C252,1302.629 253,1301.283 254,1298 C262.723,1298.681 259.53,1284.522 256.972,1279.611 C252.244,1270.532 243.64,1265.528 240.472,1255 C236.668,1242.359 238.856,1225.671 233.806,1214 C232.663,1211.258 220,1195.28 218,1195 C217.286,1188.3 210,1183.034 206,1178 L179.435,1141 C175.253,1135 173.806,1128.322 166,1127 L167,1125 L165,1125 L162,1114 C153.893,1112.3 150.726,1102.48 147.457,1096 C144,1089.172 137.615,1081.132 132,1076 L133,1074 C125.353,1069.128 121.436,1056.068 118,1048.001 C113,1036.619 108.721,1023.42 110.52,1011 C115.463,976.535 159.526,951.726 185,933.151 L212.91,912.659 C216.683,910.101 220.336,906.276 225,906 C229.532,898 241.392,895.24 248,889 L250,890 C252.19,887 255.241,885.304 259,885 C260.83,882.164 262.665,881.237 266,881 C270.668,874.348 287.938,866.822 296,867 C301.579,859.746 316.51,862.017 320,854.536 C333.691,825.331 317,781.223 351,765 L351,763 C341,757.121 341.833,748.113 337.721,739 L332.714,730.039 L332.248,715 L317.95,694 L298,661 C295.255,648.076 284.513,637.184 282,624 C270.766,627.321 257.614,625.647 246,626.035 C224.9,626.741 202.472,630.378 182,628 L182,626 C142.869,628.769 123.61,574.099 115.29,545 L107,530 L108,514 C94,518.292 94,508.308 94.228,498 C94.278,491.701 92.649,484 99,480 L96.425,456 L97.838,440.665 L89,425 L86,425 C80.889,436.467 69.73,446.547 61.999,456.428 C57.946,461.609 53.826,468.777 48,472 C47.595,475.698 45,478.15 42,480 C42.321,484.107 41.385,486.79 37,487 L36,492 C34,491.535 32.566,492.607 32,496 C20.686,493.797 15.169,487.142 13,476 L17,471 L21,472 C19.71,466.457 21.931,461.216 28,460 L36,446 L38,447 C40,439.009 50.863,425.172 58,421 L57,419 C60.484,415.818 69,407.175 68.404,402.089 C67.392,394.061 58.41,386.477 61.574,377.714 C68,360 94.376,347.103 95,328 C105.983,320.543 114.808,325.716 125,332 L128.208,324 C127.876,316.728 119.533,314.501 120,306 L143,313 L142,311 L151,301 L157,303 C160.186,291 175.238,283.073 181,272 L183,273 C187.874,262.534 199.866,254.215 207.789,246 C229.607,223.092 253.375,202.458 276.7,181.224 L299.514,161.329 C302.815,158.529 307.681,156.247 309,152 C314.908,150.569 319.709,144.198 324.424,140.519 L360,114 C396.319,86.787 433.939,61 472.91,37.731 L513.996,16.826 C518.226,15.086 522.359,12.905 526.903,12.049 C528.671,11.716 530.488,11.758 532.281,11.613 z M348,790.632 C345,790.578 345,795.098 345,797.089 L348,817 C351.575,811.14 350.967,803.601 350.971,797 C350.972,795 351,790.687 348,790.632 z M656,466 C660.577,475.807 669.662,474.35 678,479 L696,490 L695,475 C682.475,471.71 669,466.11 656,466 z M710,361 L704,361 C705.635,363.545 706.993,363.779 710,364 L710,361 z M421.431,289.864 C413.882,289.713 408.091,290.871 401,293.09 C385.707,298.544 378.347,307.37 368.718,319.714 C365.223,324.194 359.96,332.539 364,338.363 C366.41,341.773 372.231,343 376,344 C387.326,346.624 399.364,348.014 411,348 C422.673,348 433,344.455 444,340.656 C458.794,335.519 474.458,330 488,322 C484.306,311.135 474,307.486 465,302.561 C453.992,296.713 442.147,292.097 429.716,290.485 C426.97,290.129 424.193,290.071 421.431,289.864 z" fill-opacity="0" stroke="#ffffff" stroke-width="1"/>
</svg>
