<?xml version="1.0" encoding="utf-8"?>
<svg version="1.1" xmlns="http://www.w3.org/2000/svg" xmlns:xlink="http://www.w3.org/1999/xlink" x="0px" y="0px"
	viewBox="0 0 960 560" xml:space="preserve">
<g class="border">
	<path fill="none" stroke="#ffffff" stroke-width="8" stroke-miterlimit="10" d="M953.2,542.2c0,4.8-3.9,8.7-8.7,8.7H15.8
		c-4.8,0-8.7-3.9-8.7-8.7V13.7C7.2,8.9,11,5,15.8,5h928.8c4.8,0,8.7,3.9,8.7,8.7V542.2z"/>
</g>
<g class="background">
	<rect fill="#ffffff" x="17.8" y="15" opacity="0.5" width="924.7" height="523"/>
</g>
<g class="content">
	<rect x="610.1" y="134.7" fill="none" stroke="#000000" opacity="0.5" stroke-width="8" stroke-miterlimit="10" width="162.8" height="222.7"/>
	<line fill="none" stroke="#000000" opacity="0.5" stroke-width="8" stroke-miterlimit="10" x1="581" y1="135" x2="189" y2="135"/>
	<line fill="none" stroke="#000000" opacity="0.5" stroke-width="8" stroke-miterlimit="10" x1="581" y1="152" x2="189" y2="152"/>
	<line fill="none" stroke="#000000" opacity="0.5" stroke-width="8" stroke-miterlimit="10" x1="581" y1="169" x2="189" y2="169"/>
	<line fill="none" stroke="#000000" opacity="0.5" stroke-width="8" stroke-miterlimit="10" x1="581" y1="186" x2="189" y2="186"/>
	<line fill="none" stroke="#000000" opacity="0.5" stroke-width="8" stroke-miterlimit="10" x1="581" y1="203" x2="189" y2="203"/>
	<line fill="none" stroke="#000000" opacity="0.5" stroke-width="8" stroke-miterlimit="10" x1="581" y1="220" x2="189" y2="220"/>
	<line fill="none" stroke="#000000" opacity="0.5" stroke-width="8" stroke-miterlimit="10" x1="581" y1="237" x2="189" y2="237"/>
	<line fill="none" stroke="#000000" opacity="0.5" stroke-width="8" stroke-miterlimit="10" x1="581" y1="255" x2="189" y2="255"/>
	<line fill="none" stroke="#000000" opacity="0.5" stroke-width="8" stroke-miterlimit="10" x1="581" y1="272" x2="189" y2="272"/>
	<line fill="none" stroke="#000000" opacity="0.5" stroke-width="8" stroke-miterlimit="10" x1="581" y1="289" x2="189" y2="289"/>
	<line fill="none" stroke="#000000" opacity="0.5" stroke-width="8" stroke-miterlimit="10" x1="581" y1="306" x2="189" y2="306"/>
	<line fill="none" stroke="#000000" opacity="0.5" stroke-width="8" stroke-miterlimit="10" x1="581" y1="323" x2="189" y2="323"/>
	<line fill="none" stroke="#000000" opacity="0.5" stroke-width="8" stroke-miterlimit="10" x1="581" y1="340" x2="189" y2="340"/>
	<line fill="none" stroke="#000000" opacity="0.5" stroke-width="8" stroke-miterlimit="10" x1="581" y1="357" x2="189" y2="357"/>
</g>
</svg>
