<?xml version="1.0" encoding="utf-8"?>
<svg id="template-slideshow" version="1.1" xmlns="http://www.w3.org/2000/svg" xmlns:xlink="http://www.w3.org/1999/xlink" x="0px" y="0px"
	viewBox="0 0 960 560" xml:space="preserve">
<g class="background">
	<rect fill="#ffffff" x="17.8" y="17" opacity="0.75" width="924.7" height="523"/>
</g>
<g class="content">
	<rect x="610.1" y="136.7" fill="none" stroke="#000000" opacity="0.5" stroke-width="8" stroke-miterlimit="10" width="162.8" height="222.7"/>
	<line fill="none" stroke="#000000" opacity="0.5" stroke-width="8" stroke-miterlimit="10" x1="581" y1="137" x2="189" y2="137"/>
	<line fill="none" stroke="#000000" opacity="0.5" stroke-width="8" stroke-miterlimit="10" x1="581" y1="154" x2="189" y2="154"/>
	<line fill="none" stroke="#000000" opacity="0.5" stroke-width="8" stroke-miterlimit="10" x1="581" y1="171" x2="189" y2="171"/>
	<line fill="none" stroke="#000000" opacity="0.5" stroke-width="8" stroke-miterlimit="10" x1="581" y1="188" x2="189" y2="188"/>
	<line fill="none" stroke="#000000" opacity="0.5" stroke-width="8" stroke-miterlimit="10" x1="581" y1="205" x2="189" y2="205"/>
	<line fill="none" stroke="#000000" opacity="0.5" stroke-width="8" stroke-miterlimit="10" x1="581" y1="222" x2="189" y2="222"/>
	<line fill="none" stroke="#000000" opacity="0.5" stroke-width="8" stroke-miterlimit="10" x1="581" y1="239" x2="189" y2="239"/>
	<line fill="none" stroke="#000000" opacity="0.5" stroke-width="8" stroke-miterlimit="10" x1="581" y1="257" x2="189" y2="257"/>
	<line fill="none" stroke="#000000" opacity="0.5" stroke-width="8" stroke-miterlimit="10" x1="581" y1="274" x2="189" y2="274"/>
	<line fill="none" stroke="#000000" opacity="0.5" stroke-width="8" stroke-miterlimit="10" x1="581" y1="291" x2="189" y2="291"/>
	<line fill="none" stroke="#000000" opacity="0.5" stroke-width="8" stroke-miterlimit="10" x1="581" y1="308" x2="189" y2="308"/>
	<line fill="none" stroke="#000000" opacity="0.5" stroke-width="8" stroke-miterlimit="10" x1="581" y1="325" x2="189" y2="325"/>
	<line fill="none" stroke="#000000" opacity="0.5" stroke-width="8" stroke-miterlimit="10" x1="581" y1="342" x2="189" y2="342"/>
	<line fill="none" stroke="#000000" opacity="0.5" stroke-width="8" stroke-miterlimit="10" x1="581" y1="359" x2="189" y2="359"/>
</g>
<g class="navigation">
	<path class="fill" d="M70,248c0,16.6,13.4,30,30,30s30-13.4,30-30s-13.4-30-30-30S70,231.4,70,248z M81.5,248l28.5-16.5v32.9
		L81.5,248z"/>
	<path class="fill" d="M863,218c-16.6,0-30,13.4-30,30s13.4,30,30,30s30-13.4,30-30S879.6,218,863,218z M853,264.5v-32.9
		l28.5,16.5L853,264.5z"/>
</g>
<g class="controls">
	<circle class="fill" fill="#ffffff" cx="388" cy="521" r="10"/>
	<circle class="fill" fill="#ffffff" cx="422" cy="521" r="10"/>
	<circle class="fill" fill="#ffffff" cx="456" cy="521" r="10"/>
	<circle class="stroke" fill="none" stroke="#ffffff" stroke-width="4" stroke-miterlimit="10" cx="490" cy="521" r="10"/>
	<circle class="fill" fill="#ffffff" cx="524" cy="521" r="10"/>
	<circle class="fill" fill="#ffffff" cx="558" cy="521" r="10"/>
	<circle class="fill" fill="#ffffff" cx="592" cy="521" r="10"/>
</g>
<g class="border">
	<path fill="none" stroke="#ffffff" stroke-width="8" stroke-miterlimit="10" d="M953.2,544.2c0,4.8-3.9,8.7-8.7,8.7H15.8
		c-4.8,0-8.7-3.9-8.7-8.7V15.7C7.2,10.9,11,7,15.8,7h928.8c4.8,0,8.7,3.9,8.7,8.7V544.2z"/>
</g>
</svg>
